<svg width="214" height="218" viewBox="0 0 214 218" fill="none" xmlns="http://www.w3.org/2000/svg">
<g filter="url(#filter0_d_31_81)">
<rect x="3.08862" width="207.703" height="211" rx="19.3033" fill="white"/>
<path d="M67.9871 169.654H66.0925L65.2039 166.871H59.8914L58.9929 169.654H57.1863L61.4246 156.89H63.8074L67.9871 169.654ZM64.7058 165.318L62.5476 158.492L60.3894 165.318H64.7058ZM69.1492 164.957C69.1492 164.123 69.2631 163.384 69.491 162.74C69.7188 162.089 70.0411 161.542 70.4578 161.099C70.8809 160.65 71.3855 160.311 71.9714 160.083C72.5639 159.849 73.2214 159.732 73.9441 159.732C74.2566 159.732 74.5626 159.751 74.8621 159.791C75.1681 159.83 75.4675 159.891 75.7605 159.976V155.855H77.4695V169.654H75.946L75.8875 167.798C75.4122 168.488 74.8979 169 74.3445 169.332C73.7911 169.664 73.1921 169.83 72.5476 169.83C71.9877 169.83 71.4929 169.712 71.0632 169.478C70.6401 169.244 70.2852 168.915 69.9988 168.492C69.7188 168.062 69.5072 167.548 69.364 166.949C69.2208 166.35 69.1492 165.686 69.1492 164.957ZM70.8875 164.849C70.8875 166.034 71.06 166.919 71.405 167.505C71.7566 168.085 72.2514 168.375 72.8894 168.375C73.3191 168.375 73.7716 168.182 74.2468 167.798C74.7286 167.414 75.2332 166.845 75.7605 166.089V161.539C75.4806 161.408 75.1713 161.311 74.8328 161.246C74.4942 161.174 74.1589 161.138 73.8269 161.138C72.9024 161.138 72.1798 161.438 71.6589 162.037C71.1446 162.636 70.8875 163.573 70.8875 164.849ZM80.1453 164.957C80.1453 164.123 80.2592 163.384 80.4871 162.74C80.7149 162.089 81.0372 161.542 81.4539 161.099C81.877 160.65 82.3816 160.311 82.9675 160.083C83.56 159.849 84.2175 159.732 84.9402 159.732C85.2527 159.732 85.5587 159.751 85.8582 159.791C86.1641 159.83 86.4636 159.891 86.7566 159.976V155.855H88.4656V169.654H86.9421L86.8835 167.798C86.4083 168.488 85.894 169 85.3406 169.332C84.7872 169.664 84.1882 169.83 83.5437 169.83C82.9838 169.83 82.489 169.712 82.0593 169.478C81.6361 169.244 81.2813 168.915 80.9949 168.492C80.7149 168.062 80.5033 167.548 80.3601 166.949C80.2169 166.35 80.1453 165.686 80.1453 164.957ZM81.8835 164.849C81.8835 166.034 82.0561 166.919 82.4011 167.505C82.7527 168.085 83.2475 168.375 83.8855 168.375C84.3152 168.375 84.7677 168.182 85.2429 167.798C85.7247 167.414 86.2292 166.845 86.7566 166.089V161.539C86.4766 161.408 86.1674 161.311 85.8289 161.246C85.4903 161.174 85.155 161.138 84.823 161.138C83.8985 161.138 83.1759 161.438 82.655 162.037C82.1407 162.636 81.8835 163.573 81.8835 164.849ZM111.014 165.21C111.014 165.914 110.913 166.552 110.712 167.125C110.516 167.691 110.227 168.176 109.843 168.58C109.458 168.977 108.986 169.286 108.427 169.507C107.873 169.722 107.235 169.83 106.512 169.83C105.718 169.83 105.044 169.725 104.491 169.517C103.938 169.309 103.485 169.016 103.134 168.638C102.788 168.254 102.535 167.795 102.372 167.261C102.216 166.727 102.137 166.132 102.137 165.474V156.89H103.876V165.337C103.876 165.839 103.921 166.278 104.012 166.656C104.11 167.033 104.266 167.349 104.481 167.603C104.696 167.857 104.973 168.049 105.311 168.179C105.656 168.309 106.076 168.375 106.571 168.375C107.496 168.375 108.176 168.108 108.612 167.574C109.055 167.04 109.276 166.288 109.276 165.318V156.89H111.014V165.21ZM121.395 166.978C121.395 167.323 121.337 167.632 121.219 167.906C121.102 168.179 120.943 168.423 120.741 168.638C120.539 168.847 120.305 169.026 120.038 169.175C119.771 169.325 119.484 169.449 119.178 169.546C118.879 169.644 118.57 169.716 118.251 169.761C117.932 169.807 117.619 169.83 117.313 169.83C116.649 169.83 116.037 169.8 115.477 169.742C114.924 169.683 114.38 169.589 113.846 169.458V167.896C114.419 168.059 114.989 168.182 115.555 168.267C116.122 168.352 116.685 168.394 117.245 168.394C118.059 168.394 118.661 168.283 119.052 168.062C119.442 167.841 119.637 167.525 119.637 167.115C119.637 166.939 119.605 166.783 119.54 166.646C119.481 166.503 119.371 166.369 119.208 166.246C119.045 166.115 118.791 165.982 118.446 165.845C118.108 165.708 117.642 165.552 117.05 165.376C116.607 165.246 116.197 165.1 115.819 164.937C115.448 164.768 115.126 164.569 114.852 164.341C114.579 164.113 114.364 163.847 114.208 163.541C114.052 163.235 113.973 162.873 113.973 162.457C113.973 162.183 114.035 161.884 114.159 161.558C114.289 161.233 114.507 160.93 114.813 160.65C115.119 160.37 115.533 160.139 116.053 159.957C116.574 159.768 117.225 159.673 118.007 159.673C118.391 159.673 118.817 159.696 119.286 159.742C119.755 159.781 120.243 159.852 120.751 159.957V161.47C120.217 161.34 119.709 161.246 119.227 161.187C118.752 161.122 118.339 161.089 117.987 161.089C117.564 161.089 117.206 161.122 116.913 161.187C116.626 161.252 116.392 161.343 116.21 161.46C116.034 161.571 115.907 161.705 115.829 161.861C115.751 162.011 115.712 162.173 115.712 162.349C115.712 162.525 115.744 162.684 115.809 162.828C115.881 162.971 116.008 163.111 116.19 163.248C116.379 163.378 116.639 163.511 116.971 163.648C117.303 163.778 117.736 163.921 118.27 164.078C118.85 164.247 119.338 164.426 119.735 164.615C120.132 164.797 120.455 165.002 120.702 165.23C120.949 165.458 121.125 165.715 121.229 166.001C121.34 166.288 121.395 166.613 121.395 166.978ZM132.909 164.234C132.909 164.475 132.906 164.677 132.899 164.839C132.893 165.002 132.883 165.155 132.87 165.298H125.985C125.985 166.301 126.265 167.072 126.825 167.613C127.385 168.147 128.192 168.414 129.247 168.414C129.533 168.414 129.82 168.404 130.106 168.384C130.393 168.358 130.669 168.326 130.936 168.287C131.203 168.248 131.457 168.205 131.698 168.16C131.945 168.108 132.173 168.052 132.382 167.994V169.39C131.919 169.52 131.395 169.625 130.809 169.703C130.23 169.787 129.628 169.83 129.003 169.83C128.163 169.83 127.44 169.716 126.835 169.488C126.229 169.26 125.731 168.931 125.341 168.501C124.956 168.065 124.67 167.535 124.481 166.91C124.299 166.278 124.208 165.565 124.208 164.771C124.208 164.081 124.305 163.43 124.501 162.818C124.703 162.199 124.992 161.659 125.37 161.197C125.754 160.728 126.223 160.357 126.776 160.083C127.33 159.81 127.958 159.673 128.661 159.673C129.344 159.673 129.95 159.781 130.477 159.996C131.005 160.21 131.447 160.516 131.805 160.914C132.17 161.304 132.443 161.783 132.626 162.349C132.815 162.909 132.909 163.537 132.909 164.234ZM131.141 163.99C131.161 163.554 131.119 163.156 131.014 162.798C130.91 162.434 130.747 162.121 130.526 161.861C130.311 161.6 130.041 161.399 129.716 161.255C129.39 161.106 129.012 161.031 128.583 161.031C128.212 161.031 127.873 161.102 127.567 161.246C127.261 161.389 126.997 161.591 126.776 161.851C126.555 162.111 126.376 162.424 126.239 162.789C126.102 163.153 126.018 163.554 125.985 163.99H131.141ZM136.024 159.849H137.577L137.626 161.656C138.205 160.959 138.775 160.455 139.335 160.142C139.901 159.83 140.471 159.673 141.044 159.673C142.059 159.673 142.828 160.002 143.348 160.66C143.876 161.317 144.12 162.294 144.081 163.589H142.362C142.382 162.73 142.255 162.108 141.981 161.724C141.714 161.333 141.32 161.138 140.8 161.138C140.572 161.138 140.341 161.181 140.106 161.265C139.878 161.343 139.641 161.473 139.393 161.656C139.152 161.832 138.895 162.059 138.622 162.339C138.348 162.619 138.055 162.958 137.743 163.355V169.654H136.024V159.849ZM154.384 166.978C154.384 167.323 154.325 167.632 154.208 167.906C154.091 168.179 153.931 168.423 153.729 168.638C153.527 168.847 153.293 169.026 153.026 169.175C152.759 169.325 152.473 169.449 152.167 169.546C151.867 169.644 151.558 169.716 151.239 169.761C150.92 169.807 150.608 169.83 150.302 169.83C149.637 169.83 149.025 169.8 148.466 169.742C147.912 169.683 147.369 169.589 146.835 169.458V167.896C147.408 168.059 147.977 168.182 148.544 168.267C149.11 168.352 149.673 168.394 150.233 168.394C151.047 168.394 151.649 168.283 152.04 168.062C152.43 167.841 152.626 167.525 152.626 167.115C152.626 166.939 152.593 166.783 152.528 166.646C152.469 166.503 152.359 166.369 152.196 166.246C152.033 166.115 151.779 165.982 151.434 165.845C151.096 165.708 150.63 165.552 150.038 165.376C149.595 165.246 149.185 165.1 148.807 164.937C148.436 164.768 148.114 164.569 147.841 164.341C147.567 164.113 147.352 163.847 147.196 163.541C147.04 163.235 146.962 162.873 146.962 162.457C146.962 162.183 147.024 161.884 147.147 161.558C147.277 161.233 147.496 160.93 147.802 160.65C148.108 160.37 148.521 160.139 149.042 159.957C149.563 159.768 150.214 159.673 150.995 159.673C151.379 159.673 151.805 159.696 152.274 159.742C152.743 159.781 153.231 159.852 153.739 159.957V161.47C153.205 161.34 152.697 161.246 152.216 161.187C151.74 161.122 151.327 161.089 150.975 161.089C150.552 161.089 150.194 161.122 149.901 161.187C149.615 161.252 149.38 161.343 149.198 161.46C149.022 161.571 148.895 161.705 148.817 161.861C148.739 162.011 148.7 162.173 148.7 162.349C148.7 162.525 148.733 162.684 148.798 162.828C148.869 162.971 148.996 163.111 149.178 163.248C149.367 163.378 149.628 163.511 149.96 163.648C150.292 163.778 150.725 163.921 151.259 164.078C151.838 164.247 152.326 164.426 152.723 164.615C153.121 164.797 153.443 165.002 153.69 165.23C153.938 165.458 154.113 165.715 154.218 166.001C154.328 166.288 154.384 166.613 154.384 166.978Z" fill="#262626"/>
<path d="M114.828 111.333C107.708 111.333 93.4946 114.88 93.4946 122V127.333H136.161V122C136.161 114.88 121.948 111.333 114.828 111.333ZM90.828 100.667V92.6665H85.4946V100.667H77.4946V106H85.4946V114H90.828V106H98.828V100.667M114.828 106C117.657 106 120.37 104.876 122.37 102.876C124.371 100.875 125.495 98.1621 125.495 95.3332C125.495 92.5042 124.371 89.7911 122.37 87.7907C120.37 85.7903 117.657 84.6665 114.828 84.6665C111.999 84.6665 109.286 85.7903 107.285 87.7907C105.285 89.7911 104.161 92.5042 104.161 95.3332C104.161 98.1621 105.285 100.875 107.285 102.876C109.286 104.876 111.999 106 114.828 106Z" fill="#FFA51F"/>
</g>
<defs>
<filter id="filter0_d_31_81" x="0.000100613" y="0" width="213.88" height="217.177" filterUnits="userSpaceOnUse" color-interpolation-filters="sRGB">
<feFlood flood-opacity="0" result="BackgroundImageFix"/>
<feColorMatrix in="SourceAlpha" type="matrix" values="0 0 0 0 0 0 0 0 0 0 0 0 0 0 0 0 0 0 127 0" result="hardAlpha"/>
<feOffset dy="3.08852"/>
<feGaussianBlur stdDeviation="1.54426"/>
<feComposite in2="hardAlpha" operator="out"/>
<feColorMatrix type="matrix" values="0 0 0 0 0 0 0 0 0 0 0 0 0 0 0 0 0 0 0.25 0"/>
<feBlend mode="normal" in2="BackgroundImageFix" result="effect1_dropShadow_31_81"/>
<feBlend mode="normal" in="SourceGraphic" in2="effect1_dropShadow_31_81" result="shape"/>
</filter>
</defs>
</svg>
