<svg width="213" height="216" viewBox="0 0 213 216" fill="none" xmlns="http://www.w3.org/2000/svg">
<g filter="url(#filter0_d_28_192)">
<rect x="3.06445" width="206" height="209" rx="19.1531" fill="white"/>
<path d="M45.9629 168.458H44.0684L43.1797 165.675H37.8672L36.9688 168.458H35.1621L39.4004 155.695H41.7832L45.9629 168.458ZM42.6816 164.122L40.5234 157.296L38.3652 164.122H42.6816ZM55.2402 168.097C54.7975 168.266 54.3418 168.39 53.873 168.468C53.4108 168.553 52.9323 168.595 52.4375 168.595C50.888 168.595 49.6934 168.175 48.8535 167.335C48.0202 166.495 47.6035 165.268 47.6035 163.654C47.6035 162.879 47.724 162.176 47.9648 161.544C48.2057 160.913 48.5443 160.372 48.9805 159.923C49.4167 159.474 49.9375 159.129 50.543 158.888C51.1484 158.641 51.8158 158.517 52.5449 158.517C53.0527 158.517 53.528 158.553 53.9707 158.624C54.4134 158.696 54.8366 158.813 55.2402 158.976V160.597C54.8171 160.376 54.3841 160.216 53.9414 160.118C53.5052 160.014 53.0527 159.962 52.584 159.962C52.1478 159.962 51.7344 160.047 51.3438 160.216C50.9596 160.379 50.6211 160.616 50.3281 160.929C50.0352 161.241 49.804 161.622 49.6348 162.072C49.4655 162.521 49.3809 163.029 49.3809 163.595C49.3809 164.78 49.6673 165.669 50.2402 166.261C50.8197 166.847 51.6204 167.14 52.6426 167.14C53.1048 167.14 53.5508 167.088 53.9805 166.984C54.4167 166.879 54.8366 166.723 55.2402 166.515V168.097ZM66.2363 168.097C65.7936 168.266 65.3379 168.39 64.8691 168.468C64.4069 168.553 63.9284 168.595 63.4336 168.595C61.8841 168.595 60.6895 168.175 59.8496 167.335C59.0163 166.495 58.5996 165.268 58.5996 163.654C58.5996 162.879 58.7201 162.176 58.9609 161.544C59.2018 160.913 59.5404 160.372 59.9766 159.923C60.4128 159.474 60.9336 159.129 61.5391 158.888C62.1445 158.641 62.8118 158.517 63.541 158.517C64.0488 158.517 64.5241 158.553 64.9668 158.624C65.4095 158.696 65.8327 158.813 66.2363 158.976V160.597C65.8132 160.376 65.3802 160.216 64.9375 160.118C64.5013 160.014 64.0488 159.962 63.5801 159.962C63.1439 159.962 62.7305 160.047 62.3398 160.216C61.9557 160.379 61.6172 160.616 61.3242 160.929C61.0312 161.241 60.8001 161.622 60.6309 162.072C60.4616 162.521 60.377 163.029 60.377 163.595C60.377 164.78 60.6634 165.669 61.2363 166.261C61.8158 166.847 62.6165 167.14 63.6387 167.14C64.1009 167.14 64.5469 167.088 64.9766 166.984C65.4128 166.879 65.8327 166.723 66.2363 166.515V168.097ZM77.8965 163.038C77.8965 163.279 77.8932 163.481 77.8867 163.644C77.8802 163.807 77.8704 163.96 77.8574 164.103H70.9727C70.9727 165.105 71.2526 165.877 71.8125 166.417C72.3724 166.951 73.1797 167.218 74.2344 167.218C74.5208 167.218 74.8073 167.208 75.0938 167.189C75.3802 167.163 75.6569 167.13 75.9238 167.091C76.1908 167.052 76.4447 167.01 76.6855 166.964C76.9329 166.912 77.1608 166.857 77.3691 166.798V168.195C76.9069 168.325 76.3828 168.429 75.7969 168.507C75.2174 168.592 74.6152 168.634 73.9902 168.634C73.1504 168.634 72.4277 168.52 71.8223 168.292C71.2168 168.064 70.7188 167.736 70.3281 167.306C69.944 166.87 69.6576 166.339 69.4688 165.714C69.2865 165.083 69.1953 164.37 69.1953 163.575C69.1953 162.885 69.293 162.234 69.4883 161.622C69.6901 161.004 69.9798 160.463 70.3574 160.001C70.7415 159.532 71.2103 159.161 71.7637 158.888C72.3171 158.615 72.9453 158.478 73.6484 158.478C74.332 158.478 74.9375 158.585 75.4648 158.8C75.9922 159.015 76.4349 159.321 76.793 159.718C77.1576 160.109 77.431 160.587 77.6133 161.154C77.8021 161.713 77.8965 162.342 77.8965 163.038ZM76.1289 162.794C76.1484 162.358 76.1061 161.961 76.002 161.603C75.8978 161.238 75.735 160.926 75.5137 160.665C75.2988 160.405 75.0286 160.203 74.7031 160.06C74.3776 159.91 74 159.835 73.5703 159.835C73.1992 159.835 72.8607 159.907 72.5547 160.05C72.2487 160.193 71.985 160.395 71.7637 160.656C71.5423 160.916 71.3633 161.228 71.2266 161.593C71.0898 161.958 71.0052 162.358 70.9727 162.794H76.1289ZM88.375 165.782C88.375 166.128 88.3164 166.437 88.1992 166.71C88.082 166.984 87.9225 167.228 87.7207 167.443C87.5189 167.651 87.2845 167.83 87.0176 167.98C86.7507 168.129 86.4642 168.253 86.1582 168.351C85.8587 168.448 85.5495 168.52 85.2305 168.566C84.9115 168.611 84.599 168.634 84.293 168.634C83.6289 168.634 83.0169 168.605 82.457 168.546C81.9036 168.488 81.36 168.393 80.8262 168.263V166.7C81.3991 166.863 81.9688 166.987 82.5352 167.072C83.1016 167.156 83.6647 167.198 84.2246 167.198C85.0384 167.198 85.6406 167.088 86.0312 166.866C86.4219 166.645 86.6172 166.329 86.6172 165.919C86.6172 165.743 86.5846 165.587 86.5195 165.45C86.4609 165.307 86.3503 165.174 86.1875 165.05C86.0247 164.92 85.7708 164.786 85.4258 164.65C85.0872 164.513 84.6217 164.357 84.0293 164.181C83.5866 164.051 83.1764 163.904 82.7988 163.741C82.4277 163.572 82.1055 163.374 81.832 163.146C81.5586 162.918 81.3438 162.651 81.1875 162.345C81.0312 162.039 80.9531 161.678 80.9531 161.261C80.9531 160.988 81.015 160.688 81.1387 160.363C81.2689 160.037 81.487 159.734 81.793 159.454C82.099 159.174 82.5124 158.943 83.0332 158.761C83.554 158.572 84.2051 158.478 84.9863 158.478C85.3704 158.478 85.7969 158.501 86.2656 158.546C86.7344 158.585 87.2227 158.657 87.7305 158.761V160.275C87.1966 160.144 86.6888 160.05 86.207 159.991C85.7318 159.926 85.3184 159.894 84.9668 159.894C84.5436 159.894 84.1855 159.926 83.8926 159.991C83.6061 160.057 83.3717 160.148 83.1895 160.265C83.0137 160.376 82.8867 160.509 82.8086 160.665C82.7305 160.815 82.6914 160.978 82.6914 161.154C82.6914 161.329 82.724 161.489 82.7891 161.632C82.8607 161.775 82.9876 161.915 83.1699 162.052C83.3587 162.182 83.6191 162.316 83.9512 162.452C84.2832 162.583 84.7161 162.726 85.25 162.882C85.8294 163.051 86.3177 163.23 86.7148 163.419C87.112 163.601 87.4342 163.807 87.6816 164.034C87.929 164.262 88.1048 164.519 88.209 164.806C88.3197 165.092 88.375 165.418 88.375 165.782ZM99.3711 165.782C99.3711 166.128 99.3125 166.437 99.1953 166.71C99.0781 166.984 98.9186 167.228 98.7168 167.443C98.515 167.651 98.2806 167.83 98.0137 167.98C97.7467 168.129 97.4603 168.253 97.1543 168.351C96.8548 168.448 96.5456 168.52 96.2266 168.566C95.9076 168.611 95.5951 168.634 95.2891 168.634C94.625 168.634 94.013 168.605 93.4531 168.546C92.8997 168.488 92.3561 168.393 91.8223 168.263V166.7C92.3952 166.863 92.9648 166.987 93.5312 167.072C94.0977 167.156 94.6608 167.198 95.2207 167.198C96.0345 167.198 96.6367 167.088 97.0273 166.866C97.418 166.645 97.6133 166.329 97.6133 165.919C97.6133 165.743 97.5807 165.587 97.5156 165.45C97.457 165.307 97.3464 165.174 97.1836 165.05C97.0208 164.92 96.7669 164.786 96.4219 164.65C96.0833 164.513 95.6178 164.357 95.0254 164.181C94.5827 164.051 94.1725 163.904 93.7949 163.741C93.4238 163.572 93.1016 163.374 92.8281 163.146C92.5547 162.918 92.3398 162.651 92.1836 162.345C92.0273 162.039 91.9492 161.678 91.9492 161.261C91.9492 160.988 92.0111 160.688 92.1348 160.363C92.265 160.037 92.4831 159.734 92.7891 159.454C93.0951 159.174 93.5085 158.943 94.0293 158.761C94.5501 158.572 95.2012 158.478 95.9824 158.478C96.3665 158.478 96.793 158.501 97.2617 158.546C97.7305 158.585 98.2188 158.657 98.7266 158.761V160.275C98.1927 160.144 97.6849 160.05 97.2031 159.991C96.7279 159.926 96.3145 159.894 95.9629 159.894C95.5397 159.894 95.1816 159.926 94.8887 159.991C94.6022 160.057 94.3678 160.148 94.1855 160.265C94.0098 160.376 93.8828 160.509 93.8047 160.665C93.7266 160.815 93.6875 160.978 93.6875 161.154C93.6875 161.329 93.7201 161.489 93.7852 161.632C93.8568 161.775 93.9837 161.915 94.166 162.052C94.3548 162.182 94.6152 162.316 94.9473 162.452C95.2793 162.583 95.7122 162.726 96.2461 162.882C96.8255 163.051 97.3138 163.23 97.7109 163.419C98.1081 163.601 98.4303 163.807 98.6777 164.034C98.9251 164.262 99.1009 164.519 99.2051 164.806C99.3158 165.092 99.3711 165.418 99.3711 165.782ZM105.943 160.06H103.043V158.654H107.662V167.042H110.582V168.458H102.721V167.042H105.943V160.06ZM106.539 154.542C106.728 154.542 106.904 154.578 107.066 154.65C107.229 154.715 107.369 154.809 107.486 154.933C107.61 155.057 107.704 155.2 107.77 155.363C107.841 155.519 107.877 155.691 107.877 155.88C107.877 156.062 107.841 156.235 107.77 156.398C107.704 156.56 107.61 156.704 107.486 156.827C107.369 156.951 107.229 157.049 107.066 157.12C106.904 157.185 106.728 157.218 106.539 157.218C106.35 157.218 106.174 157.185 106.012 157.12C105.849 157.049 105.706 156.951 105.582 156.827C105.465 156.704 105.37 156.56 105.299 156.398C105.234 156.235 105.201 156.062 105.201 155.88C105.201 155.691 105.234 155.519 105.299 155.363C105.37 155.2 105.465 155.057 105.582 154.933C105.706 154.809 105.849 154.715 106.012 154.65C106.174 154.578 106.35 154.542 106.539 154.542ZM121.979 163.38C121.979 164.194 121.865 164.923 121.637 165.568C121.415 166.206 121.096 166.749 120.68 167.198C120.27 167.641 119.768 167.983 119.176 168.224C118.583 168.458 117.916 168.575 117.174 168.575C116.594 168.575 116.002 168.52 115.396 168.409C114.791 168.299 114.192 168.123 113.6 167.882V154.659H115.299V158.458L115.221 160.275C115.709 159.617 116.23 159.155 116.783 158.888C117.343 158.615 117.942 158.478 118.58 158.478C119.14 158.478 119.632 158.595 120.055 158.829C120.478 159.064 120.833 159.396 121.119 159.825C121.406 160.249 121.62 160.763 121.764 161.368C121.907 161.967 121.979 162.638 121.979 163.38ZM120.24 163.458C120.24 162.944 120.201 162.472 120.123 162.042C120.051 161.613 119.934 161.245 119.771 160.939C119.609 160.633 119.4 160.395 119.146 160.226C118.893 160.05 118.59 159.962 118.238 159.962C118.023 159.962 117.805 159.998 117.584 160.07C117.363 160.135 117.132 160.249 116.891 160.411C116.656 160.568 116.406 160.779 116.139 161.046C115.878 161.307 115.598 161.632 115.299 162.023V166.779C115.631 166.909 115.969 167.013 116.314 167.091C116.66 167.163 116.988 167.198 117.301 167.198C117.691 167.198 118.062 167.137 118.414 167.013C118.772 166.889 119.085 166.684 119.352 166.398C119.625 166.105 119.84 165.721 119.996 165.245C120.159 164.764 120.24 164.168 120.24 163.458ZM127.936 160.06H125.035V158.654H129.654V167.042H132.574V168.458H124.713V167.042H127.936V160.06ZM128.531 154.542C128.72 154.542 128.896 154.578 129.059 154.65C129.221 154.715 129.361 154.809 129.479 154.933C129.602 155.057 129.697 155.2 129.762 155.363C129.833 155.519 129.869 155.691 129.869 155.88C129.869 156.062 129.833 156.235 129.762 156.398C129.697 156.56 129.602 156.704 129.479 156.827C129.361 156.951 129.221 157.049 129.059 157.12C128.896 157.185 128.72 157.218 128.531 157.218C128.342 157.218 128.167 157.185 128.004 157.12C127.841 157.049 127.698 156.951 127.574 156.827C127.457 156.704 127.363 156.56 127.291 156.398C127.226 156.235 127.193 156.062 127.193 155.88C127.193 155.691 127.226 155.519 127.291 155.363C127.363 155.2 127.457 155.057 127.574 154.933C127.698 154.809 127.841 154.715 128.004 154.65C128.167 154.578 128.342 154.542 128.531 154.542ZM138.932 156.056H136.031V154.659H140.65V167.042H143.57V168.458H135.709V167.042H138.932V156.056ZM149.928 160.06H147.027V158.654H151.646V167.042H154.566V168.458H146.705V167.042H149.928V160.06ZM150.523 154.542C150.712 154.542 150.888 154.578 151.051 154.65C151.214 154.715 151.354 154.809 151.471 154.933C151.594 155.057 151.689 155.2 151.754 155.363C151.826 155.519 151.861 155.691 151.861 155.88C151.861 156.062 151.826 156.235 151.754 156.398C151.689 156.56 151.594 156.704 151.471 156.827C151.354 156.951 151.214 157.049 151.051 157.12C150.888 157.185 150.712 157.218 150.523 157.218C150.335 157.218 150.159 157.185 149.996 157.12C149.833 157.049 149.69 156.951 149.566 156.827C149.449 156.704 149.355 156.56 149.283 156.398C149.218 156.235 149.186 156.062 149.186 155.88C149.186 155.691 149.218 155.519 149.283 155.363C149.355 155.2 149.449 155.057 149.566 154.933C149.69 154.809 149.833 154.715 149.996 154.65C150.159 154.578 150.335 154.542 150.523 154.542ZM165.484 168.322C165.1 168.419 164.703 168.488 164.293 168.527C163.883 168.572 163.466 168.595 163.043 168.595C161.812 168.595 160.895 168.318 160.289 167.765C159.684 167.205 159.381 166.349 159.381 165.197V160.079H156.637V158.654H159.381V155.958L161.08 155.519V158.654H165.484V160.079H161.08V165.06C161.08 165.763 161.266 166.29 161.637 166.642C162.014 166.987 162.568 167.159 163.297 167.159C163.609 167.159 163.951 167.137 164.322 167.091C164.693 167.039 165.081 166.961 165.484 166.857V168.322ZM177.301 158.654L173.961 167.423C173.616 168.315 173.258 169.083 172.887 169.728C172.522 170.372 172.122 170.9 171.686 171.31C171.249 171.726 170.771 172.032 170.25 172.228C169.729 172.423 169.146 172.521 168.502 172.521C168.333 172.521 168.18 172.517 168.043 172.511C167.906 172.504 167.757 172.495 167.594 172.482V170.939C167.737 170.958 167.893 170.975 168.062 170.988C168.232 171.007 168.411 171.017 168.6 171.017C168.912 171.017 169.202 170.971 169.469 170.88C169.742 170.789 169.999 170.639 170.24 170.431C170.481 170.229 170.712 169.965 170.934 169.64C171.155 169.314 171.37 168.92 171.578 168.458L167.662 158.654H169.596L172.076 165.138L172.574 166.661L173.141 165.099L175.436 158.654H177.301Z" fill="black"/>
<path fill-rule="evenodd" clip-rule="evenodd" d="M117.983 73.5474C117.983 69.4484 114.764 66.101 110.716 65.896L110.322 65.8862H101.894C97.6632 65.8863 94.2333 69.3164 94.2331 73.5474V94.2329H117.983V73.5474ZM98.0642 73.5474C98.0643 71.432 99.7788 69.7174 101.894 69.7173H110.322C112.437 69.7175 114.152 71.432 114.152 73.5474V90.4019H98.0642V73.5474ZM115.684 52.8628C115.684 47.3623 111.225 42.9029 105.724 42.9029C100.224 42.9031 95.7644 47.3625 95.7644 52.8628C95.7646 58.363 100.224 62.8225 105.724 62.8228C111.225 62.8228 115.684 58.3631 115.684 52.8628ZM99.5954 52.8628C99.5955 49.478 102.34 46.7341 105.724 46.7339C109.109 46.7339 111.853 49.4779 111.853 52.8628C111.853 56.2476 109.109 58.9917 105.724 58.9917C102.34 58.9915 99.5957 56.2474 99.5954 52.8628ZM94.2331 96.5314H117.217V124.327C116.068 126.083 112.237 126.083 111.088 124.327V100.335H100.362V124.327C99.2129 126.083 95.3823 126.083 94.2331 124.327V96.5314ZM121.813 71.2494C123.083 71.2494 124.112 72.2784 124.112 73.5478V90.4025C124.112 91.6718 123.083 92.7008 121.813 92.7008C120.544 92.7008 119.515 91.6718 119.515 90.4025L119.515 73.5478C119.515 72.2784 120.544 71.2494 121.813 71.2494ZM92.7009 73.5478C92.7009 72.2784 91.6719 71.2494 90.4025 71.2494C89.1332 71.2494 88.1041 72.2784 88.1041 73.5478L88.1041 90.4025C88.1041 91.6718 89.1332 92.7008 90.4025 92.7008C91.6719 92.7008 92.7009 91.6718 92.7009 90.4025L92.7009 73.5478Z" fill="#FFA51F"/>
</g>
<defs>
<filter id="filter0_d_28_192" x="-3.57628e-05" y="0" width="212.129" height="215.129" filterUnits="userSpaceOnUse" color-interpolation-filters="sRGB">
<feFlood flood-opacity="0" result="BackgroundImageFix"/>
<feColorMatrix in="SourceAlpha" type="matrix" values="0 0 0 0 0 0 0 0 0 0 0 0 0 0 0 0 0 0 127 0" result="hardAlpha"/>
<feOffset dy="3.06449"/>
<feGaussianBlur stdDeviation="1.53224"/>
<feComposite in2="hardAlpha" operator="out"/>
<feColorMatrix type="matrix" values="0 0 0 0 0 0 0 0 0 0 0 0 0 0 0 0 0 0 0.25 0"/>
<feBlend mode="normal" in2="BackgroundImageFix" result="effect1_dropShadow_28_192"/>
<feBlend mode="normal" in="SourceGraphic" in2="effect1_dropShadow_28_192" result="shape"/>
</filter>
</defs>
</svg>
