<svg width="174" height="150" viewBox="0 0 174 150" fill="none" xmlns="http://www.w3.org/2000/svg">
<g clip-path="url(#clip0_477_38)">
<path d="M57.208 56.875V51.4583H116.791V56.875H57.208ZM65.333 48.75C63.8434 48.75 62.5687 48.2201 61.5088 47.1602C60.449 46.1003 59.9181 44.8247 59.9163 43.3333V13.5417C59.9163 12.0521 60.4472 10.7774 61.5088 9.7175C62.5705 8.65764 63.8452 8.12681 65.333 8.125H108.666C110.156 8.125 111.432 8.65583 112.493 9.7175C113.555 10.7792 114.085 12.0539 114.083 13.5417V43.3333C114.083 44.8229 113.553 46.0985 112.493 47.1602C111.433 48.2219 110.158 48.7518 108.666 48.75H65.333ZM65.333 43.3333H108.666V13.5417H65.333V43.3333Z" fill="#FFA51F"/>
</g>
<path d="M59.7539 95.1719C59.7539 95.9062 59.6953 96.6094 59.5781 97.2812C59.4688 97.9531 59.2891 98.5781 59.0391 99.1562C58.7891 99.7344 58.4648 100.262 58.0664 100.738C57.668 101.207 57.1797 101.609 56.6016 101.945C56.0234 102.281 55.3516 102.543 54.5859 102.73C53.8203 102.91 52.9492 103 51.9727 103H48.6914V87.6836H52.6406C55.0312 87.6836 56.8125 88.3008 57.9844 89.5352C59.1641 90.7617 59.7539 92.6406 59.7539 95.1719ZM57.5625 95.3242C57.5625 94.2383 57.4609 93.3203 57.2578 92.5703C57.0547 91.8203 56.7461 91.2148 56.332 90.7539C55.918 90.293 55.3984 89.9609 54.7734 89.7578C54.1484 89.5469 53.4141 89.4414 52.5703 89.4414H50.7773V101.195H52.3359C55.8203 101.195 57.5625 99.2383 57.5625 95.3242ZM72.4219 96.4961C72.4219 96.7852 72.418 97.0273 72.4102 97.2227C72.4023 97.418 72.3906 97.6016 72.375 97.7734H64.1133C64.1133 98.9766 64.4492 99.9023 65.1211 100.551C65.793 101.191 66.7617 101.512 68.0273 101.512C68.3711 101.512 68.7148 101.5 69.0586 101.477C69.4023 101.445 69.7344 101.406 70.0547 101.359C70.375 101.312 70.6797 101.262 70.9688 101.207C71.2656 101.145 71.5391 101.078 71.7891 101.008V102.684C71.2344 102.84 70.6055 102.965 69.9023 103.059C69.207 103.16 68.4844 103.211 67.7344 103.211C66.7266 103.211 65.8594 103.074 65.1328 102.801C64.4062 102.527 63.8086 102.133 63.3398 101.617C62.8789 101.094 62.5352 100.457 62.3086 99.707C62.0898 98.9492 61.9805 98.0938 61.9805 97.1406C61.9805 96.3125 62.0977 95.5312 62.332 94.7969C62.5742 94.0547 62.9219 93.4062 63.375 92.8516C63.8359 92.2891 64.3984 91.8438 65.0625 91.5156C65.7266 91.1875 66.4805 91.0234 67.3242 91.0234C68.1445 91.0234 68.8711 91.1523 69.5039 91.4102C70.1367 91.668 70.668 92.0352 71.0977 92.5117C71.5352 92.9805 71.8633 93.5547 72.082 94.2344C72.3086 94.9062 72.4219 95.6602 72.4219 96.4961ZM70.3008 96.2031C70.3242 95.6797 70.2734 95.2031 70.1484 94.7734C70.0234 94.3359 69.8281 93.9609 69.5625 93.6484C69.3047 93.3359 68.9805 93.0938 68.5898 92.9219C68.1992 92.7422 67.7461 92.6523 67.2305 92.6523C66.7852 92.6523 66.3789 92.7383 66.0117 92.9102C65.6445 93.082 65.3281 93.3242 65.0625 93.6367C64.7969 93.9492 64.582 94.3242 64.418 94.7617C64.2539 95.1992 64.1523 95.6797 64.1133 96.2031H70.3008ZM84.9961 99.7891C84.9961 100.203 84.9258 100.574 84.7852 100.902C84.6445 101.23 84.4531 101.523 84.2109 101.781C83.9688 102.031 83.6875 102.246 83.3672 102.426C83.0469 102.605 82.7031 102.754 82.3359 102.871C81.9766 102.988 81.6055 103.074 81.2227 103.129C80.8398 103.184 80.4648 103.211 80.0977 103.211C79.3008 103.211 78.5664 103.176 77.8945 103.105C77.2305 103.035 76.5781 102.922 75.9375 102.766V100.891C76.625 101.086 77.3086 101.234 77.9883 101.336C78.668 101.438 79.3438 101.488 80.0156 101.488C80.9922 101.488 81.7148 101.355 82.1836 101.09C82.6523 100.824 82.8867 100.445 82.8867 99.9531C82.8867 99.7422 82.8477 99.5547 82.7695 99.3906C82.6992 99.2188 82.5664 99.0586 82.3711 98.9102C82.1758 98.7539 81.8711 98.5938 81.457 98.4297C81.0508 98.2656 80.4922 98.0781 79.7812 97.8672C79.25 97.7109 78.7578 97.5352 78.3047 97.3398C77.8594 97.1367 77.4727 96.8984 77.1445 96.625C76.8164 96.3516 76.5586 96.0312 76.3711 95.6641C76.1836 95.2969 76.0898 94.8633 76.0898 94.3633C76.0898 94.0352 76.1641 93.6758 76.3125 93.2852C76.4688 92.8945 76.7305 92.5312 77.0977 92.1953C77.4648 91.8594 77.9609 91.582 78.5859 91.3633C79.2109 91.1367 79.9922 91.0234 80.9297 91.0234C81.3906 91.0234 81.9023 91.0508 82.4648 91.1055C83.0273 91.1523 83.6133 91.2383 84.2227 91.3633V93.1797C83.582 93.0234 82.9727 92.9102 82.3945 92.8398C81.8242 92.7617 81.3281 92.7227 80.9062 92.7227C80.3984 92.7227 79.9688 92.7617 79.6172 92.8398C79.2734 92.918 78.9922 93.0273 78.7734 93.168C78.5625 93.3008 78.4102 93.4609 78.3164 93.6484C78.2227 93.8281 78.1758 94.0234 78.1758 94.2344C78.1758 94.4453 78.2148 94.6367 78.293 94.8086C78.3789 94.9805 78.5312 95.1484 78.75 95.3125C78.9766 95.4688 79.2891 95.6289 79.6875 95.793C80.0859 95.9492 80.6055 96.1211 81.2461 96.3086C81.9414 96.5117 82.5273 96.7266 83.0039 96.9531C83.4805 97.1719 83.8672 97.418 84.1641 97.6914C84.4609 97.9648 84.6719 98.2734 84.7969 98.6172C84.9297 98.9609 84.9961 99.3516 84.9961 99.7891ZM92.8828 92.9219H89.4023V91.2344H94.9453V101.301H98.4492V103H89.0156V101.301H92.8828V92.9219ZM93.5977 86.3008C93.8242 86.3008 94.0352 86.3438 94.2305 86.4297C94.4258 86.5078 94.5938 86.6211 94.7344 86.7695C94.8828 86.918 94.9961 87.0898 95.0742 87.2852C95.1602 87.4727 95.2031 87.6797 95.2031 87.9062C95.2031 88.125 95.1602 88.332 95.0742 88.5273C94.9961 88.7227 94.8828 88.8945 94.7344 89.043C94.5938 89.1914 94.4258 89.3086 94.2305 89.3945C94.0352 89.4727 93.8242 89.5117 93.5977 89.5117C93.3711 89.5117 93.1602 89.4727 92.9648 89.3945C92.7695 89.3086 92.5977 89.1914 92.4492 89.043C92.3086 88.8945 92.1953 88.7227 92.1094 88.5273C92.0312 88.332 91.9922 88.125 91.9922 87.9062C91.9922 87.6797 92.0312 87.4727 92.1094 87.2852C92.1953 87.0898 92.3086 86.918 92.4492 86.7695C92.5977 86.6211 92.7695 86.5078 92.9648 86.4297C93.1602 86.3438 93.3711 86.3008 93.5977 86.3008ZM110.543 92.8984C110.762 93.1719 110.93 93.4922 111.047 93.8594C111.172 94.2188 111.234 94.6094 111.234 95.0312C111.234 95.6406 111.121 96.1992 110.895 96.707C110.676 97.207 110.363 97.6367 109.957 97.9961C109.551 98.3555 109.062 98.6367 108.492 98.8398C107.93 99.0352 107.309 99.1328 106.629 99.1328C106.137 99.1328 105.676 99.082 105.246 98.9805C104.816 98.8711 104.477 98.7383 104.227 98.582C104.078 98.8008 103.953 99.0078 103.852 99.2031C103.75 99.3984 103.699 99.6172 103.699 99.8594C103.699 100.156 103.84 100.402 104.121 100.598C104.41 100.793 104.789 100.898 105.258 100.914L108.352 101.031C108.938 101.047 109.477 101.121 109.969 101.254C110.469 101.387 110.895 101.578 111.246 101.828C111.605 102.078 111.883 102.387 112.078 102.754C112.281 103.121 112.383 103.547 112.383 104.031C112.383 104.555 112.27 105.051 112.043 105.52C111.816 105.988 111.465 106.398 110.988 106.75C110.52 107.109 109.922 107.395 109.195 107.605C108.469 107.816 107.605 107.922 106.605 107.922C105.652 107.922 104.84 107.844 104.168 107.688C103.504 107.539 102.957 107.328 102.527 107.055C102.098 106.789 101.785 106.469 101.59 106.094C101.395 105.727 101.297 105.32 101.297 104.875C101.297 104.305 101.43 103.805 101.695 103.375C101.961 102.945 102.371 102.531 102.926 102.133C102.723 102.039 102.547 101.922 102.398 101.781C102.25 101.641 102.129 101.488 102.035 101.324C101.941 101.152 101.871 100.973 101.824 100.785C101.777 100.598 101.754 100.414 101.754 100.234C101.754 99.7266 101.871 99.2617 102.105 98.8398C102.348 98.418 102.633 98.0195 102.961 97.6445C102.812 97.4648 102.68 97.2891 102.562 97.1172C102.453 96.9453 102.355 96.7617 102.27 96.5664C102.191 96.3633 102.129 96.1484 102.082 95.9219C102.043 95.6875 102.023 95.4219 102.023 95.125C102.023 94.5156 102.133 93.9609 102.352 93.4609C102.578 92.9531 102.891 92.5195 103.289 92.1602C103.695 91.8008 104.18 91.5234 104.742 91.3281C105.312 91.125 105.941 91.0234 106.629 91.0234C106.918 91.0234 107.195 91.043 107.461 91.082C107.727 91.1211 107.961 91.1719 108.164 91.2344H112.43V92.8984H110.543ZM103.465 104.699C103.465 105.254 103.754 105.656 104.332 105.906C104.91 106.164 105.715 106.293 106.746 106.293C107.395 106.293 107.938 106.234 108.375 106.117C108.82 106 109.176 105.844 109.441 105.648C109.715 105.461 109.91 105.242 110.027 104.992C110.145 104.75 110.203 104.5 110.203 104.242C110.203 103.766 110.008 103.414 109.617 103.188C109.227 102.961 108.629 102.828 107.824 102.789L104.754 102.684C104.496 102.855 104.281 103.023 104.109 103.188C103.945 103.352 103.816 103.516 103.723 103.68C103.629 103.852 103.562 104.02 103.523 104.184C103.484 104.355 103.465 104.527 103.465 104.699ZM104.086 95.0781C104.086 95.4531 104.148 95.7969 104.273 96.1094C104.398 96.4219 104.574 96.6875 104.801 96.9062C105.027 97.125 105.293 97.2969 105.598 97.4219C105.91 97.5391 106.254 97.5977 106.629 97.5977C107.035 97.5977 107.395 97.5312 107.707 97.3984C108.027 97.2578 108.293 97.0703 108.504 96.8359C108.723 96.6016 108.887 96.332 108.996 96.0273C109.113 95.7227 109.172 95.4062 109.172 95.0781C109.172 94.7031 109.109 94.3594 108.984 94.0469C108.859 93.7344 108.684 93.4688 108.457 93.25C108.23 93.0312 107.961 92.8633 107.648 92.7461C107.344 92.6211 107.004 92.5586 106.629 92.5586C106.223 92.5586 105.859 92.6289 105.539 92.7695C105.227 92.9102 104.961 93.0977 104.742 93.332C104.531 93.5586 104.367 93.8242 104.25 94.1289C104.141 94.4336 104.086 94.75 104.086 95.0781ZM115.266 91.2344H117.082L117.164 93.1328C117.508 92.7266 117.84 92.3906 118.16 92.125C118.48 91.8516 118.793 91.6328 119.098 91.4688C119.41 91.3047 119.727 91.1914 120.047 91.1289C120.367 91.0586 120.699 91.0234 121.043 91.0234C122.254 91.0234 123.168 91.3828 123.785 92.1016C124.41 92.8125 124.723 93.8867 124.723 95.3242V103H122.684V95.4883C122.684 94.5664 122.512 93.8867 122.168 93.4492C121.824 93.0039 121.312 92.7812 120.633 92.7812C120.383 92.7812 120.137 92.8203 119.895 92.8984C119.66 92.9688 119.414 93.0977 119.156 93.2852C118.898 93.4648 118.617 93.7109 118.312 94.0234C118.016 94.3359 117.68 94.7266 117.305 95.1953V103H115.266V91.2344ZM52.5 126.852C52.5 127.578 52.3516 128.215 52.0547 128.762C51.7578 129.309 51.3438 129.766 50.8125 130.133C50.2812 130.492 49.6406 130.762 48.8906 130.941C48.1484 131.121 47.3281 131.211 46.4297 131.211C46.0234 131.211 45.6172 131.195 45.2109 131.164C44.8125 131.133 44.4258 131.094 44.0508 131.047C43.6836 131 43.3359 130.945 43.0078 130.883C42.6797 130.82 42.3828 130.754 42.1172 130.684V128.668C42.7031 128.887 43.3594 129.059 44.0859 129.184C44.8203 129.309 45.6523 129.371 46.582 129.371C47.2539 129.371 47.8242 129.32 48.293 129.219C48.7695 129.109 49.1562 128.953 49.4531 128.75C49.7578 128.539 49.9766 128.285 50.1094 127.988C50.25 127.691 50.3203 127.352 50.3203 126.969C50.3203 126.555 50.2031 126.203 49.9688 125.914C49.7422 125.617 49.4414 125.355 49.0664 125.129C48.6914 124.895 48.2617 124.684 47.7773 124.496C47.3008 124.301 46.8125 124.102 46.3125 123.898C45.8125 123.695 45.3203 123.477 44.8359 123.242C44.3594 123 43.9336 122.719 43.5586 122.398C43.1836 122.07 42.8789 121.688 42.6445 121.25C42.418 120.812 42.3047 120.293 42.3047 119.691C42.3047 119.168 42.4141 118.652 42.6328 118.145C42.8516 117.637 43.1914 117.188 43.6523 116.797C44.1133 116.398 44.7031 116.078 45.4219 115.836C46.1484 115.594 47.0117 115.473 48.0117 115.473C48.2695 115.473 48.5469 115.484 48.8438 115.508C49.1484 115.531 49.4531 115.566 49.7578 115.613C50.0703 115.652 50.375 115.699 50.6719 115.754C50.9766 115.809 51.2578 115.867 51.5156 115.93V117.805C50.9141 117.633 50.3125 117.504 49.7109 117.418C49.1094 117.324 48.5273 117.277 47.9648 117.277C46.7695 117.277 45.8906 117.477 45.3281 117.875C44.7656 118.273 44.4844 118.809 44.4844 119.48C44.4844 119.895 44.5977 120.25 44.8242 120.547C45.0586 120.844 45.3633 121.109 45.7383 121.344C46.1133 121.578 46.5391 121.793 47.0156 121.988C47.5 122.176 47.9922 122.371 48.4922 122.574C48.9922 122.777 49.4805 123 49.957 123.242C50.4414 123.484 50.8711 123.773 51.2461 124.109C51.6211 124.438 51.9219 124.824 52.1484 125.27C52.3828 125.715 52.5 126.242 52.5 126.852ZM66.3516 119.234L62.3438 129.758C61.9297 130.828 61.5 131.75 61.0547 132.523C60.6172 133.297 60.1367 133.93 59.6133 134.422C59.0898 134.922 58.5156 135.289 57.8906 135.523C57.2656 135.758 56.5664 135.875 55.793 135.875C55.5898 135.875 55.4062 135.871 55.2422 135.863C55.0781 135.855 54.8984 135.844 54.7031 135.828V133.977C54.875 134 55.0625 134.02 55.2656 134.035C55.4688 134.059 55.6836 134.07 55.9102 134.07C56.2852 134.07 56.6328 134.016 56.9531 133.906C57.2812 133.797 57.5898 133.617 57.8789 133.367C58.168 133.125 58.4453 132.809 58.7109 132.418C58.9766 132.027 59.2344 131.555 59.4844 131L54.7852 119.234H57.1055L60.082 127.016L60.6797 128.844L61.3594 126.969L64.1133 119.234H66.3516ZM78.3984 127.789C78.3984 128.203 78.3281 128.574 78.1875 128.902C78.0469 129.23 77.8555 129.523 77.6133 129.781C77.3711 130.031 77.0898 130.246 76.7695 130.426C76.4492 130.605 76.1055 130.754 75.7383 130.871C75.3789 130.988 75.0078 131.074 74.625 131.129C74.2422 131.184 73.8672 131.211 73.5 131.211C72.7031 131.211 71.9688 131.176 71.2969 131.105C70.6328 131.035 69.9805 130.922 69.3398 130.766V128.891C70.0273 129.086 70.7109 129.234 71.3906 129.336C72.0703 129.438 72.7461 129.488 73.418 129.488C74.3945 129.488 75.1172 129.355 75.5859 129.09C76.0547 128.824 76.2891 128.445 76.2891 127.953C76.2891 127.742 76.25 127.555 76.1719 127.391C76.1016 127.219 75.9688 127.059 75.7734 126.91C75.5781 126.754 75.2734 126.594 74.8594 126.43C74.4531 126.266 73.8945 126.078 73.1836 125.867C72.6523 125.711 72.1602 125.535 71.707 125.34C71.2617 125.137 70.875 124.898 70.5469 124.625C70.2188 124.352 69.9609 124.031 69.7734 123.664C69.5859 123.297 69.4922 122.863 69.4922 122.363C69.4922 122.035 69.5664 121.676 69.7148 121.285C69.8711 120.895 70.1328 120.531 70.5 120.195C70.8672 119.859 71.3633 119.582 71.9883 119.363C72.6133 119.137 73.3945 119.023 74.332 119.023C74.793 119.023 75.3047 119.051 75.8672 119.105C76.4297 119.152 77.0156 119.238 77.625 119.363V121.18C76.9844 121.023 76.375 120.91 75.7969 120.84C75.2266 120.762 74.7305 120.723 74.3086 120.723C73.8008 120.723 73.3711 120.762 73.0195 120.84C72.6758 120.918 72.3945 121.027 72.1758 121.168C71.9648 121.301 71.8125 121.461 71.7188 121.648C71.625 121.828 71.5781 122.023 71.5781 122.234C71.5781 122.445 71.6172 122.637 71.6953 122.809C71.7812 122.98 71.9336 123.148 72.1523 123.312C72.3789 123.469 72.6914 123.629 73.0898 123.793C73.4883 123.949 74.0078 124.121 74.6484 124.309C75.3438 124.512 75.9297 124.727 76.4062 124.953C76.8828 125.172 77.2695 125.418 77.5664 125.691C77.8633 125.965 78.0742 126.273 78.1992 126.617C78.332 126.961 78.3984 127.352 78.3984 127.789ZM91.7578 130.836C91.2969 130.953 90.8203 131.035 90.3281 131.082C89.8359 131.137 89.3359 131.164 88.8281 131.164C87.3516 131.164 86.25 130.832 85.5234 130.168C84.7969 129.496 84.4336 128.469 84.4336 127.086V120.945H81.1406V119.234H84.4336V116L86.4727 115.473V119.234H91.7578V120.945H86.4727V126.922C86.4727 127.766 86.6953 128.398 87.1406 128.82C87.5938 129.234 88.2578 129.441 89.1328 129.441C89.5078 129.441 89.918 129.414 90.3633 129.359C90.8086 129.297 91.2734 129.203 91.7578 129.078V130.836ZM105.41 124.496C105.41 124.785 105.406 125.027 105.398 125.223C105.391 125.418 105.379 125.602 105.363 125.773H97.1016C97.1016 126.977 97.4375 127.902 98.1094 128.551C98.7812 129.191 99.75 129.512 101.016 129.512C101.359 129.512 101.703 129.5 102.047 129.477C102.391 129.445 102.723 129.406 103.043 129.359C103.363 129.312 103.668 129.262 103.957 129.207C104.254 129.145 104.527 129.078 104.777 129.008V130.684C104.223 130.84 103.594 130.965 102.891 131.059C102.195 131.16 101.473 131.211 100.723 131.211C99.7148 131.211 98.8477 131.074 98.1211 130.801C97.3945 130.527 96.7969 130.133 96.3281 129.617C95.8672 129.094 95.5234 128.457 95.2969 127.707C95.0781 126.949 94.9688 126.094 94.9688 125.141C94.9688 124.312 95.0859 123.531 95.3203 122.797C95.5625 122.055 95.9102 121.406 96.3633 120.852C96.8242 120.289 97.3867 119.844 98.0508 119.516C98.7148 119.188 99.4688 119.023 100.312 119.023C101.133 119.023 101.859 119.152 102.492 119.41C103.125 119.668 103.656 120.035 104.086 120.512C104.523 120.98 104.852 121.555 105.07 122.234C105.297 122.906 105.41 123.66 105.41 124.496ZM103.289 124.203C103.312 123.68 103.262 123.203 103.137 122.773C103.012 122.336 102.816 121.961 102.551 121.648C102.293 121.336 101.969 121.094 101.578 120.922C101.188 120.742 100.734 120.652 100.219 120.652C99.7734 120.652 99.3672 120.738 99 120.91C98.6328 121.082 98.3164 121.324 98.0508 121.637C97.7852 121.949 97.5703 122.324 97.4062 122.762C97.2422 123.199 97.1406 123.68 97.1016 124.203H103.289ZM117.059 131V122.551C117.059 122.184 117.043 121.883 117.012 121.648C116.988 121.414 116.945 121.23 116.883 121.098C116.828 120.957 116.754 120.859 116.66 120.805C116.574 120.75 116.465 120.723 116.332 120.723C116.176 120.723 116.031 120.77 115.898 120.863C115.766 120.957 115.621 121.109 115.465 121.32C115.316 121.531 115.148 121.812 114.961 122.164C114.781 122.508 114.566 122.934 114.316 123.441V131H112.453V122.773C112.453 122.344 112.438 121.996 112.406 121.73C112.383 121.465 112.34 121.258 112.277 121.109C112.223 120.961 112.148 120.859 112.055 120.805C111.961 120.75 111.848 120.723 111.715 120.723C111.574 120.723 111.441 120.762 111.316 120.84C111.191 120.918 111.051 121.059 110.895 121.262C110.746 121.465 110.578 121.742 110.391 122.094C110.203 122.445 109.98 122.895 109.723 123.441V131H107.848V119.234H109.406L109.5 121.473C109.703 121.027 109.898 120.648 110.086 120.336C110.281 120.023 110.48 119.773 110.684 119.586C110.887 119.391 111.102 119.25 111.328 119.164C111.562 119.07 111.82 119.023 112.102 119.023C112.734 119.023 113.215 119.23 113.543 119.645C113.871 120.059 114.035 120.699 114.035 121.566C114.223 121.16 114.406 120.801 114.586 120.488C114.766 120.168 114.957 119.902 115.16 119.691C115.371 119.473 115.602 119.309 115.852 119.199C116.102 119.082 116.391 119.023 116.719 119.023C118.195 119.023 118.934 120.16 118.934 122.434V131H117.059ZM131.18 127.789C131.18 128.203 131.109 128.574 130.969 128.902C130.828 129.23 130.637 129.523 130.395 129.781C130.152 130.031 129.871 130.246 129.551 130.426C129.23 130.605 128.887 130.754 128.52 130.871C128.16 130.988 127.789 131.074 127.406 131.129C127.023 131.184 126.648 131.211 126.281 131.211C125.484 131.211 124.75 131.176 124.078 131.105C123.414 131.035 122.762 130.922 122.121 130.766V128.891C122.809 129.086 123.492 129.234 124.172 129.336C124.852 129.438 125.527 129.488 126.199 129.488C127.176 129.488 127.898 129.355 128.367 129.09C128.836 128.824 129.07 128.445 129.07 127.953C129.07 127.742 129.031 127.555 128.953 127.391C128.883 127.219 128.75 127.059 128.555 126.91C128.359 126.754 128.055 126.594 127.641 126.43C127.234 126.266 126.676 126.078 125.965 125.867C125.434 125.711 124.941 125.535 124.488 125.34C124.043 125.137 123.656 124.898 123.328 124.625C123 124.352 122.742 124.031 122.555 123.664C122.367 123.297 122.273 122.863 122.273 122.363C122.273 122.035 122.348 121.676 122.496 121.285C122.652 120.895 122.914 120.531 123.281 120.195C123.648 119.859 124.145 119.582 124.77 119.363C125.395 119.137 126.176 119.023 127.113 119.023C127.574 119.023 128.086 119.051 128.648 119.105C129.211 119.152 129.797 119.238 130.406 119.363V121.18C129.766 121.023 129.156 120.91 128.578 120.84C128.008 120.762 127.512 120.723 127.09 120.723C126.582 120.723 126.152 120.762 125.801 120.84C125.457 120.918 125.176 121.027 124.957 121.168C124.746 121.301 124.594 121.461 124.5 121.648C124.406 121.828 124.359 122.023 124.359 122.234C124.359 122.445 124.398 122.637 124.477 122.809C124.562 122.98 124.715 123.148 124.934 123.312C125.16 123.469 125.473 123.629 125.871 123.793C126.27 123.949 126.789 124.121 127.43 124.309C128.125 124.512 128.711 124.727 129.188 124.953C129.664 125.172 130.051 125.418 130.348 125.691C130.645 125.965 130.855 126.273 130.98 126.617C131.113 126.961 131.18 127.352 131.18 127.789Z" fill="black"/>
<defs>
<clipPath id="clip0_477_38">
<rect width="65" height="65" fill="white" transform="translate(54.5)"/>
</clipPath>
</defs>
</svg>
