<svg width="213" height="216" viewBox="0 0 213 216" fill="none" xmlns="http://www.w3.org/2000/svg">
<g filter="url(#filter0_d_28_183)">
<rect x="3.06445" width="206" height="209" rx="19.1531" fill="white"/>
<path d="M60.0596 168.458H52.8037V155.695H60.0596V157.159H54.542V161.115H59.8447V162.579H54.542V166.974H60.0596V168.458ZM70.3916 168.458V161.417C70.3916 161.111 70.3786 160.861 70.3525 160.665C70.333 160.47 70.2972 160.317 70.2451 160.206C70.1995 160.089 70.1377 160.008 70.0596 159.962C69.988 159.917 69.8968 159.894 69.7861 159.894C69.6559 159.894 69.5355 159.933 69.4248 160.011C69.3141 160.089 69.1937 160.216 69.0635 160.392C68.9398 160.568 68.7998 160.802 68.6436 161.095C68.4938 161.381 68.3148 161.736 68.1064 162.159V168.458H66.5537V161.603C66.5537 161.245 66.5407 160.955 66.5146 160.734C66.4951 160.512 66.4593 160.34 66.4072 160.216C66.3617 160.092 66.2998 160.008 66.2217 159.962C66.1436 159.917 66.0492 159.894 65.9385 159.894C65.8213 159.894 65.7106 159.926 65.6064 159.991C65.5023 160.057 65.3851 160.174 65.2549 160.343C65.1312 160.512 64.9912 160.743 64.835 161.036C64.6787 161.329 64.4932 161.704 64.2783 162.159V168.458H62.7158V158.654H64.0146L64.0928 160.519C64.262 160.148 64.4248 159.832 64.5811 159.572C64.7438 159.311 64.9098 159.103 65.0791 158.947C65.2484 158.784 65.4274 158.667 65.6162 158.595C65.8115 158.517 66.0264 158.478 66.2607 158.478C66.7881 158.478 67.1885 158.65 67.4619 158.995C67.7354 159.34 67.8721 159.874 67.8721 160.597C68.0283 160.258 68.1813 159.959 68.3311 159.698C68.4808 159.432 68.6403 159.21 68.8096 159.034C68.9854 158.852 69.1774 158.715 69.3857 158.624C69.5941 158.527 69.835 158.478 70.1084 158.478C71.3389 158.478 71.9541 159.425 71.9541 161.32V168.458H70.3916ZM82.7744 163.38C82.7744 164.253 82.6507 165.014 82.4033 165.665C82.1624 166.316 81.8271 166.857 81.3975 167.286C80.9678 167.716 80.46 168.038 79.874 168.253C79.2881 168.468 78.6533 168.575 77.9697 168.575C77.6572 168.575 77.3447 168.559 77.0322 168.527C76.7262 168.494 76.4137 168.439 76.0947 168.361V172.462H74.3955V158.654H75.9092L76.0166 160.294C76.5049 159.624 77.0257 159.155 77.5791 158.888C78.1325 158.615 78.7314 158.478 79.376 158.478C79.9359 158.478 80.4274 158.595 80.8506 158.829C81.2738 159.064 81.6286 159.396 81.915 159.825C82.2015 160.249 82.4163 160.763 82.5596 161.368C82.7028 161.967 82.7744 162.638 82.7744 163.38ZM81.0361 163.458C81.0361 162.944 80.9971 162.472 80.9189 162.042C80.8473 161.613 80.7301 161.245 80.5674 160.939C80.4046 160.633 80.1963 160.395 79.9424 160.226C79.6885 160.05 79.3857 159.962 79.0342 159.962C78.8193 159.962 78.6012 159.998 78.3799 160.07C78.1585 160.135 77.9274 160.249 77.6865 160.411C77.4521 160.568 77.2015 160.779 76.9346 161.046C76.6742 161.307 76.3942 161.632 76.0947 162.023V166.779C76.4072 166.909 76.736 167.013 77.0811 167.091C77.4261 167.163 77.7646 167.198 78.0967 167.198C79.0146 167.198 79.734 166.889 80.2549 166.271C80.7757 165.646 81.0361 164.708 81.0361 163.458ZM93.9268 163.478C93.9268 164.24 93.8193 164.939 93.6045 165.577C93.3896 166.209 93.0804 166.753 92.6768 167.208C92.2731 167.657 91.7816 168.009 91.2021 168.263C90.6227 168.51 89.9652 168.634 89.2295 168.634C88.5264 168.634 87.8949 168.527 87.335 168.312C86.7816 168.09 86.3096 167.768 85.9189 167.345C85.5348 166.922 85.2386 166.398 85.0303 165.773C84.8285 165.148 84.7275 164.428 84.7275 163.615C84.7275 162.853 84.835 162.159 85.0498 161.534C85.2646 160.903 85.5739 160.363 85.9775 159.913C86.3812 159.458 86.8727 159.106 87.4521 158.859C88.0316 158.605 88.6891 158.478 89.4248 158.478C90.1279 158.478 90.7562 158.588 91.3096 158.81C91.8695 159.025 92.3415 159.344 92.7256 159.767C93.1162 160.184 93.4124 160.704 93.6143 161.329C93.8226 161.954 93.9268 162.67 93.9268 163.478ZM92.1885 163.556C92.1885 162.95 92.1201 162.423 91.9834 161.974C91.8532 161.518 91.6644 161.141 91.417 160.841C91.1696 160.535 90.8669 160.307 90.5088 160.157C90.1572 160.001 89.7633 159.923 89.3271 159.923C88.8193 159.923 88.3831 160.024 88.0186 160.226C87.6605 160.421 87.3643 160.685 87.1299 161.017C86.902 161.349 86.7327 161.736 86.6221 162.179C86.5179 162.615 86.4658 163.074 86.4658 163.556C86.4658 164.161 86.5309 164.692 86.6611 165.148C86.7979 165.603 86.9899 165.984 87.2373 166.29C87.4847 166.59 87.7842 166.818 88.1357 166.974C88.4873 167.124 88.8844 167.198 89.3271 167.198C89.835 167.198 90.2679 167.101 90.626 166.906C90.9906 166.704 91.2868 166.437 91.5146 166.105C91.749 165.773 91.9183 165.389 92.0225 164.952C92.1331 164.51 92.1885 164.044 92.1885 163.556ZM105.47 158.654L104.044 168.458H101.983L100.567 164.357L100.284 163.361L99.9619 164.415L98.6045 168.458H96.6025L95.1865 158.654H96.8467L97.667 165.314L97.8428 166.798L98.2627 165.499L99.6885 161.095H100.909L102.442 165.441L102.882 166.74L103.028 165.363L103.79 158.654H105.47ZM115.665 163.038C115.665 163.279 115.662 163.481 115.655 163.644C115.649 163.807 115.639 163.96 115.626 164.103H108.741C108.741 165.105 109.021 165.877 109.581 166.417C110.141 166.951 110.948 167.218 112.003 167.218C112.289 167.218 112.576 167.208 112.862 167.189C113.149 167.163 113.425 167.13 113.692 167.091C113.959 167.052 114.213 167.01 114.454 166.964C114.701 166.912 114.929 166.857 115.138 166.798V168.195C114.675 168.325 114.151 168.429 113.565 168.507C112.986 168.592 112.384 168.634 111.759 168.634C110.919 168.634 110.196 168.52 109.591 168.292C108.985 168.064 108.487 167.736 108.097 167.306C107.713 166.87 107.426 166.339 107.237 165.714C107.055 165.083 106.964 164.37 106.964 163.575C106.964 162.885 107.062 162.234 107.257 161.622C107.459 161.004 107.748 160.463 108.126 160.001C108.51 159.532 108.979 159.161 109.532 158.888C110.086 158.615 110.714 158.478 111.417 158.478C112.101 158.478 112.706 158.585 113.233 158.8C113.761 159.015 114.203 159.321 114.562 159.718C114.926 160.109 115.2 160.587 115.382 161.154C115.571 161.713 115.665 162.342 115.665 163.038ZM113.897 162.794C113.917 162.358 113.875 161.961 113.771 161.603C113.666 161.238 113.504 160.926 113.282 160.665C113.067 160.405 112.797 160.203 112.472 160.06C112.146 159.91 111.769 159.835 111.339 159.835C110.968 159.835 110.629 159.907 110.323 160.05C110.017 160.193 109.754 160.395 109.532 160.656C109.311 160.916 109.132 161.228 108.995 161.593C108.858 161.958 108.774 162.358 108.741 162.794H113.897ZM118.78 158.654H120.333L120.382 160.46C120.961 159.764 121.531 159.259 122.091 158.947C122.657 158.634 123.227 158.478 123.8 158.478C124.815 158.478 125.584 158.807 126.104 159.464C126.632 160.122 126.876 161.098 126.837 162.394H125.118C125.138 161.534 125.011 160.913 124.737 160.529C124.47 160.138 124.076 159.943 123.556 159.943C123.328 159.943 123.097 159.985 122.862 160.07C122.634 160.148 122.397 160.278 122.149 160.46C121.909 160.636 121.651 160.864 121.378 161.144C121.104 161.424 120.812 161.762 120.499 162.159V168.458H118.78V158.654ZM132.716 160.06H129.815V158.654H134.435V167.042H137.354V168.458H129.493V167.042H132.716V160.06ZM133.312 154.542C133.5 154.542 133.676 154.578 133.839 154.65C134.002 154.715 134.142 154.809 134.259 154.933C134.382 155.057 134.477 155.2 134.542 155.363C134.614 155.519 134.649 155.691 134.649 155.88C134.649 156.062 134.614 156.235 134.542 156.398C134.477 156.56 134.382 156.704 134.259 156.827C134.142 156.951 134.002 157.049 133.839 157.12C133.676 157.185 133.5 157.218 133.312 157.218C133.123 157.218 132.947 157.185 132.784 157.12C132.621 157.049 132.478 156.951 132.354 156.827C132.237 156.704 132.143 156.56 132.071 156.398C132.006 156.235 131.974 156.062 131.974 155.88C131.974 155.691 132.006 155.519 132.071 155.363C132.143 155.2 132.237 155.057 132.354 154.933C132.478 154.809 132.621 154.715 132.784 154.65C132.947 154.578 133.123 154.542 133.312 154.542ZM140.372 158.654H141.886L141.954 160.236C142.241 159.897 142.517 159.617 142.784 159.396C143.051 159.168 143.312 158.986 143.565 158.849C143.826 158.712 144.09 158.618 144.356 158.566C144.623 158.507 144.9 158.478 145.187 158.478C146.196 158.478 146.957 158.777 147.472 159.376C147.993 159.969 148.253 160.864 148.253 162.062V168.458H146.554V162.198C146.554 161.43 146.41 160.864 146.124 160.499C145.838 160.128 145.411 159.943 144.845 159.943C144.636 159.943 144.431 159.975 144.229 160.04C144.034 160.099 143.829 160.206 143.614 160.363C143.399 160.512 143.165 160.717 142.911 160.978C142.664 161.238 142.384 161.564 142.071 161.954V168.458H140.372V158.654ZM158.429 160.04C158.611 160.268 158.751 160.535 158.849 160.841C158.953 161.141 159.005 161.466 159.005 161.818C159.005 162.325 158.91 162.791 158.722 163.214C158.539 163.631 158.279 163.989 157.94 164.288C157.602 164.588 157.195 164.822 156.72 164.991C156.251 165.154 155.733 165.236 155.167 165.236C154.757 165.236 154.373 165.193 154.015 165.109C153.657 165.017 153.373 164.907 153.165 164.777C153.041 164.959 152.937 165.131 152.853 165.294C152.768 165.457 152.726 165.639 152.726 165.841C152.726 166.088 152.843 166.294 153.077 166.456C153.318 166.619 153.634 166.707 154.024 166.72L156.603 166.818C157.091 166.831 157.54 166.892 157.95 167.003C158.367 167.114 158.722 167.273 159.015 167.482C159.314 167.69 159.545 167.947 159.708 168.253C159.877 168.559 159.962 168.914 159.962 169.318C159.962 169.754 159.868 170.167 159.679 170.558C159.49 170.948 159.197 171.29 158.8 171.583C158.409 171.883 157.911 172.12 157.306 172.296C156.7 172.472 155.981 172.56 155.147 172.56C154.353 172.56 153.676 172.495 153.116 172.365C152.563 172.241 152.107 172.065 151.749 171.837C151.391 171.616 151.131 171.349 150.968 171.036C150.805 170.73 150.724 170.392 150.724 170.021C150.724 169.545 150.834 169.129 151.056 168.771C151.277 168.413 151.619 168.068 152.081 167.736C151.912 167.657 151.765 167.56 151.642 167.443C151.518 167.325 151.417 167.198 151.339 167.062C151.261 166.919 151.202 166.769 151.163 166.613C151.124 166.456 151.104 166.303 151.104 166.154C151.104 165.73 151.202 165.343 151.397 164.991C151.599 164.64 151.837 164.308 152.11 163.995C151.987 163.846 151.876 163.699 151.778 163.556C151.687 163.413 151.606 163.26 151.534 163.097C151.469 162.928 151.417 162.749 151.378 162.56C151.345 162.365 151.329 162.143 151.329 161.896C151.329 161.388 151.42 160.926 151.603 160.509C151.791 160.086 152.052 159.725 152.384 159.425C152.722 159.126 153.126 158.894 153.595 158.732C154.07 158.562 154.594 158.478 155.167 158.478C155.408 158.478 155.639 158.494 155.86 158.527C156.082 158.559 156.277 158.601 156.446 158.654H160.001V160.04H158.429ZM152.53 169.874C152.53 170.337 152.771 170.672 153.253 170.88C153.735 171.095 154.405 171.202 155.265 171.202C155.805 171.202 156.257 171.154 156.622 171.056C156.993 170.958 157.289 170.828 157.511 170.665C157.739 170.509 157.901 170.327 157.999 170.118C158.097 169.917 158.146 169.708 158.146 169.493C158.146 169.096 157.983 168.803 157.657 168.615C157.332 168.426 156.834 168.315 156.163 168.282L153.604 168.195C153.39 168.338 153.211 168.478 153.067 168.615C152.931 168.751 152.823 168.888 152.745 169.025C152.667 169.168 152.612 169.308 152.579 169.445C152.547 169.588 152.53 169.731 152.53 169.874ZM153.048 161.857C153.048 162.169 153.1 162.456 153.204 162.716C153.308 162.976 153.455 163.198 153.644 163.38C153.832 163.562 154.054 163.706 154.308 163.81C154.568 163.907 154.854 163.956 155.167 163.956C155.506 163.956 155.805 163.901 156.065 163.79C156.332 163.673 156.554 163.517 156.729 163.322C156.912 163.126 157.049 162.902 157.14 162.648C157.237 162.394 157.286 162.13 157.286 161.857C157.286 161.544 157.234 161.258 157.13 160.997C157.026 160.737 156.879 160.516 156.69 160.333C156.502 160.151 156.277 160.011 156.017 159.913C155.763 159.809 155.479 159.757 155.167 159.757C154.828 159.757 154.526 159.816 154.259 159.933C153.998 160.05 153.777 160.206 153.595 160.402C153.419 160.59 153.282 160.812 153.185 161.066C153.093 161.32 153.048 161.583 153.048 161.857Z" fill="black"/>
<path d="M87.4119 55.1606C90.3696 55.1606 92.7673 57.5584 92.7673 60.5161V73.9214H120.215V60.5161C120.215 57.6507 122.465 55.3108 125.295 55.1675L125.57 55.1606H135.611C138.569 55.1609 140.967 57.5586 140.967 60.5161V99.3433L140.96 99.6187C140.821 102.357 138.625 104.552 135.887 104.691L135.611 104.699H125.57L125.295 104.691C122.556 104.552 120.36 102.357 120.221 99.6187L120.215 99.3433V88.6157H92.7673V99.3433L92.7605 99.6187C92.6216 102.357 90.4263 104.552 87.6882 104.691L87.4119 104.699H77.3708L77.0955 104.691C74.3571 104.552 72.1611 102.357 72.0222 99.6187L72.0154 99.3433V60.5161C72.0154 57.6507 74.2657 55.3108 77.0955 55.1675L77.3708 55.1606H87.4119ZM77.3708 59.1606C76.6223 59.1606 76.0154 59.7675 76.0154 60.5161V99.3433C76.0156 100.092 76.6224 100.699 77.3708 100.699H87.4119C88.1603 100.699 88.7671 100.092 88.7673 99.3433V60.5161C88.7673 59.7675 88.1604 59.1606 87.4119 59.1606H77.3708ZM125.57 59.1606C124.821 59.1606 124.215 59.7675 124.215 60.5161V99.3433C124.215 100.092 124.822 100.699 125.57 100.699H135.611C136.359 100.698 136.966 100.091 136.967 99.3433V60.5161C136.967 59.7677 136.359 59.1609 135.611 59.1606H125.57ZM92.7673 84.6157H120.214V77.9214H92.7673V84.6157Z" fill="#FFA51F"/>
</g>
<defs>
<filter id="filter0_d_28_183" x="-3.57628e-05" y="0" width="212.129" height="215.129" filterUnits="userSpaceOnUse" color-interpolation-filters="sRGB">
<feFlood flood-opacity="0" result="BackgroundImageFix"/>
<feColorMatrix in="SourceAlpha" type="matrix" values="0 0 0 0 0 0 0 0 0 0 0 0 0 0 0 0 0 0 127 0" result="hardAlpha"/>
<feOffset dy="3.06449"/>
<feGaussianBlur stdDeviation="1.53224"/>
<feComposite in2="hardAlpha" operator="out"/>
<feColorMatrix type="matrix" values="0 0 0 0 0 0 0 0 0 0 0 0 0 0 0 0 0 0 0.25 0"/>
<feBlend mode="normal" in2="BackgroundImageFix" result="effect1_dropShadow_28_183"/>
<feBlend mode="normal" in="SourceGraphic" in2="effect1_dropShadow_28_183" result="shape"/>
</filter>
</defs>
</svg>
