<svg width="213" height="216" viewBox="0 0 213 216" fill="none" xmlns="http://www.w3.org/2000/svg">
<g filter="url(#filter0_d_28_189)">
<rect x="3.06445" width="206" height="209" rx="19.1531" fill="white"/>
<path d="M70.8359 168.458H63.5801V155.695H70.8359V157.159H65.3184V161.115H70.6211V162.579H65.3184V166.974H70.8359V168.458ZM74.1758 158.654H75.6895L75.7578 160.236C76.0443 159.897 76.321 159.617 76.5879 159.396C76.8548 159.168 77.1152 158.986 77.3691 158.849C77.6296 158.712 77.8932 158.618 78.1602 158.566C78.4271 158.507 78.7038 158.478 78.9902 158.478C79.9993 158.478 80.7611 158.777 81.2754 159.376C81.7962 159.969 82.0566 160.864 82.0566 162.062V168.458H80.3574V162.198C80.3574 161.43 80.2142 160.864 79.9277 160.499C79.6413 160.128 79.2148 159.943 78.6484 159.943C78.4401 159.943 78.235 159.975 78.0332 160.04C77.8379 160.099 77.6328 160.206 77.418 160.363C77.2031 160.512 76.9688 160.717 76.7148 160.978C76.4674 161.238 76.1875 161.564 75.875 161.954V168.458H74.1758V158.654ZM92.2324 160.04C92.4147 160.268 92.5547 160.535 92.6523 160.841C92.7565 161.141 92.8086 161.466 92.8086 161.818C92.8086 162.325 92.7142 162.791 92.5254 163.214C92.3431 163.631 92.0827 163.989 91.7441 164.288C91.4056 164.588 90.9987 164.822 90.5234 164.991C90.0547 165.154 89.5371 165.236 88.9707 165.236C88.5605 165.236 88.1764 165.193 87.8184 165.109C87.4603 165.017 87.1771 164.907 86.9688 164.777C86.8451 164.959 86.7409 165.131 86.6562 165.294C86.5716 165.457 86.5293 165.639 86.5293 165.841C86.5293 166.088 86.6465 166.294 86.8809 166.456C87.1217 166.619 87.4375 166.707 87.8281 166.72L90.4062 166.818C90.8945 166.831 91.3438 166.892 91.7539 167.003C92.1706 167.114 92.5254 167.273 92.8184 167.482C93.1178 167.69 93.349 167.947 93.5117 168.253C93.681 168.559 93.7656 168.914 93.7656 169.318C93.7656 169.754 93.6712 170.167 93.4824 170.558C93.2936 170.948 93.0007 171.29 92.6035 171.583C92.2129 171.883 91.7148 172.12 91.1094 172.296C90.5039 172.472 89.7845 172.56 88.9512 172.56C88.1569 172.56 87.4798 172.495 86.9199 172.365C86.3665 172.241 85.9108 172.065 85.5527 171.837C85.1947 171.616 84.9342 171.349 84.7715 171.036C84.6087 170.73 84.5273 170.392 84.5273 170.021C84.5273 169.545 84.638 169.129 84.8594 168.771C85.0807 168.413 85.4225 168.068 85.8848 167.736C85.7155 167.657 85.569 167.56 85.4453 167.443C85.3216 167.325 85.2207 167.198 85.1426 167.062C85.0645 166.919 85.0059 166.769 84.9668 166.613C84.9277 166.456 84.9082 166.303 84.9082 166.154C84.9082 165.73 85.0059 165.343 85.2012 164.991C85.403 164.64 85.6406 164.308 85.9141 163.995C85.7904 163.846 85.6797 163.699 85.582 163.556C85.4909 163.413 85.4095 163.26 85.3379 163.097C85.2728 162.928 85.2207 162.749 85.1816 162.56C85.1491 162.365 85.1328 162.143 85.1328 161.896C85.1328 161.388 85.224 160.926 85.4062 160.509C85.5951 160.086 85.8555 159.725 86.1875 159.425C86.526 159.126 86.9297 158.894 87.3984 158.732C87.8737 158.562 88.3978 158.478 88.9707 158.478C89.2116 158.478 89.4427 158.494 89.6641 158.527C89.8854 158.559 90.0807 158.601 90.25 158.654H93.8047V160.04H92.2324ZM86.334 169.874C86.334 170.337 86.5749 170.672 87.0566 170.88C87.5384 171.095 88.209 171.202 89.0684 171.202C89.6087 171.202 90.0612 171.154 90.4258 171.056C90.7969 170.958 91.0931 170.828 91.3145 170.665C91.5423 170.509 91.7051 170.327 91.8027 170.118C91.9004 169.917 91.9492 169.708 91.9492 169.493C91.9492 169.096 91.7865 168.803 91.4609 168.615C91.1354 168.426 90.6374 168.315 89.9668 168.282L87.4082 168.195C87.1934 168.338 87.0143 168.478 86.8711 168.615C86.7344 168.751 86.627 168.888 86.5488 169.025C86.4707 169.168 86.4154 169.308 86.3828 169.445C86.3503 169.588 86.334 169.731 86.334 169.874ZM86.8516 161.857C86.8516 162.169 86.9036 162.456 87.0078 162.716C87.112 162.976 87.2585 163.198 87.4473 163.38C87.6361 163.562 87.8574 163.706 88.1113 163.81C88.3717 163.907 88.6582 163.956 88.9707 163.956C89.3092 163.956 89.6087 163.901 89.8691 163.79C90.1361 163.673 90.3574 163.517 90.5332 163.322C90.7155 163.126 90.8522 162.902 90.9434 162.648C91.041 162.394 91.0898 162.13 91.0898 161.857C91.0898 161.544 91.0378 161.258 90.9336 160.997C90.8294 160.737 90.6829 160.516 90.4941 160.333C90.3053 160.151 90.0807 160.011 89.8203 159.913C89.5664 159.809 89.2832 159.757 88.9707 159.757C88.6322 159.757 88.3294 159.816 88.0625 159.933C87.8021 160.05 87.5807 160.206 87.3984 160.402C87.2227 160.59 87.0859 160.812 86.9883 161.066C86.8971 161.32 86.8516 161.583 86.8516 161.857ZM102.467 168.458L102.428 167.14C101.894 167.667 101.35 168.048 100.797 168.282C100.25 168.517 99.6738 168.634 99.0684 168.634C98.5085 168.634 98.0299 168.562 97.6328 168.419C97.2357 168.276 96.9069 168.081 96.6465 167.833C96.3926 167.579 96.2038 167.283 96.0801 166.945C95.9629 166.606 95.9043 166.238 95.9043 165.841C95.9043 164.858 96.2689 164.09 96.998 163.536C97.7337 162.976 98.8177 162.697 100.25 162.697H102.281V161.837C102.281 161.258 102.096 160.795 101.725 160.45C101.354 160.099 100.787 159.923 100.025 159.923C99.472 159.923 98.9251 159.985 98.3848 160.109C97.8509 160.232 97.2975 160.408 96.7246 160.636V159.103C96.9395 159.025 97.1771 158.95 97.4375 158.878C97.7044 158.8 97.9844 158.732 98.2773 158.673C98.5703 158.615 98.8763 158.569 99.1953 158.536C99.5143 158.497 99.8366 158.478 100.162 158.478C100.755 158.478 101.288 158.543 101.764 158.673C102.239 158.803 102.639 159.002 102.965 159.269C103.297 159.536 103.551 159.871 103.727 160.275C103.902 160.678 103.99 161.154 103.99 161.7V168.458H102.467ZM102.281 163.995H100.123C99.6999 163.995 99.3353 164.038 99.0293 164.122C98.7233 164.207 98.4727 164.327 98.2773 164.484C98.082 164.64 97.9355 164.829 97.8379 165.05C97.7467 165.265 97.7012 165.509 97.7012 165.782C97.7012 165.971 97.7305 166.154 97.7891 166.329C97.8477 166.499 97.9421 166.652 98.0723 166.788C98.2025 166.919 98.3717 167.023 98.5801 167.101C98.7884 167.179 99.0423 167.218 99.3418 167.218C99.7324 167.218 100.178 167.101 100.68 166.866C101.188 166.626 101.721 166.248 102.281 165.734V163.995ZM114.225 160.04C114.407 160.268 114.547 160.535 114.645 160.841C114.749 161.141 114.801 161.466 114.801 161.818C114.801 162.325 114.706 162.791 114.518 163.214C114.335 163.631 114.075 163.989 113.736 164.288C113.398 164.588 112.991 164.822 112.516 164.991C112.047 165.154 111.529 165.236 110.963 165.236C110.553 165.236 110.169 165.193 109.811 165.109C109.452 165.017 109.169 164.907 108.961 164.777C108.837 164.959 108.733 165.131 108.648 165.294C108.564 165.457 108.521 165.639 108.521 165.841C108.521 166.088 108.639 166.294 108.873 166.456C109.114 166.619 109.43 166.707 109.82 166.72L112.398 166.818C112.887 166.831 113.336 166.892 113.746 167.003C114.163 167.114 114.518 167.273 114.811 167.482C115.11 167.69 115.341 167.947 115.504 168.253C115.673 168.559 115.758 168.914 115.758 169.318C115.758 169.754 115.663 170.167 115.475 170.558C115.286 170.948 114.993 171.29 114.596 171.583C114.205 171.883 113.707 172.12 113.102 172.296C112.496 172.472 111.777 172.56 110.943 172.56C110.149 172.56 109.472 172.495 108.912 172.365C108.359 172.241 107.903 172.065 107.545 171.837C107.187 171.616 106.926 171.349 106.764 171.036C106.601 170.73 106.52 170.392 106.52 170.021C106.52 169.545 106.63 169.129 106.852 168.771C107.073 168.413 107.415 168.068 107.877 167.736C107.708 167.657 107.561 167.56 107.438 167.443C107.314 167.325 107.213 167.198 107.135 167.062C107.057 166.919 106.998 166.769 106.959 166.613C106.92 166.456 106.9 166.303 106.9 166.154C106.9 165.73 106.998 165.343 107.193 164.991C107.395 164.64 107.633 164.308 107.906 163.995C107.783 163.846 107.672 163.699 107.574 163.556C107.483 163.413 107.402 163.26 107.33 163.097C107.265 162.928 107.213 162.749 107.174 162.56C107.141 162.365 107.125 162.143 107.125 161.896C107.125 161.388 107.216 160.926 107.398 160.509C107.587 160.086 107.848 159.725 108.18 159.425C108.518 159.126 108.922 158.894 109.391 158.732C109.866 158.562 110.39 158.478 110.963 158.478C111.204 158.478 111.435 158.494 111.656 158.527C111.878 158.559 112.073 158.601 112.242 158.654H115.797V160.04H114.225ZM108.326 169.874C108.326 170.337 108.567 170.672 109.049 170.88C109.531 171.095 110.201 171.202 111.061 171.202C111.601 171.202 112.053 171.154 112.418 171.056C112.789 170.958 113.085 170.828 113.307 170.665C113.535 170.509 113.697 170.327 113.795 170.118C113.893 169.917 113.941 169.708 113.941 169.493C113.941 169.096 113.779 168.803 113.453 168.615C113.128 168.426 112.63 168.315 111.959 168.282L109.4 168.195C109.186 168.338 109.007 168.478 108.863 168.615C108.727 168.751 108.619 168.888 108.541 169.025C108.463 169.168 108.408 169.308 108.375 169.445C108.342 169.588 108.326 169.731 108.326 169.874ZM108.844 161.857C108.844 162.169 108.896 162.456 109 162.716C109.104 162.976 109.251 163.198 109.439 163.38C109.628 163.562 109.85 163.706 110.104 163.81C110.364 163.907 110.65 163.956 110.963 163.956C111.301 163.956 111.601 163.901 111.861 163.79C112.128 163.673 112.35 163.517 112.525 163.322C112.708 163.126 112.844 162.902 112.936 162.648C113.033 162.394 113.082 162.13 113.082 161.857C113.082 161.544 113.03 161.258 112.926 160.997C112.822 160.737 112.675 160.516 112.486 160.333C112.298 160.151 112.073 160.011 111.812 159.913C111.559 159.809 111.275 159.757 110.963 159.757C110.624 159.757 110.322 159.816 110.055 159.933C109.794 160.05 109.573 160.206 109.391 160.402C109.215 160.59 109.078 160.812 108.98 161.066C108.889 161.32 108.844 161.583 108.844 161.857ZM121.5 160.06H118.6V158.654H123.219V167.042H126.139V168.458H118.277V167.042H121.5V160.06ZM122.096 154.542C122.285 154.542 122.46 154.578 122.623 154.65C122.786 154.715 122.926 154.809 123.043 154.933C123.167 155.057 123.261 155.2 123.326 155.363C123.398 155.519 123.434 155.691 123.434 155.88C123.434 156.062 123.398 156.235 123.326 156.398C123.261 156.56 123.167 156.704 123.043 156.827C122.926 156.951 122.786 157.049 122.623 157.12C122.46 157.185 122.285 157.218 122.096 157.218C121.907 157.218 121.731 157.185 121.568 157.12C121.406 157.049 121.262 156.951 121.139 156.827C121.021 156.704 120.927 156.56 120.855 156.398C120.79 156.235 120.758 156.062 120.758 155.88C120.758 155.691 120.79 155.519 120.855 155.363C120.927 155.2 121.021 155.057 121.139 154.933C121.262 154.809 121.406 154.715 121.568 154.65C121.731 154.578 121.907 154.542 122.096 154.542ZM129.156 158.654H130.67L130.738 160.236C131.025 159.897 131.301 159.617 131.568 159.396C131.835 159.168 132.096 158.986 132.35 158.849C132.61 158.712 132.874 158.618 133.141 158.566C133.408 158.507 133.684 158.478 133.971 158.478C134.98 158.478 135.742 158.777 136.256 159.376C136.777 159.969 137.037 160.864 137.037 162.062V168.458H135.338V162.198C135.338 161.43 135.195 160.864 134.908 160.499C134.622 160.128 134.195 159.943 133.629 159.943C133.421 159.943 133.215 159.975 133.014 160.04C132.818 160.099 132.613 160.206 132.398 160.363C132.184 160.512 131.949 160.717 131.695 160.978C131.448 161.238 131.168 161.564 130.855 161.954V168.458H129.156V158.654ZM147.213 160.04C147.395 160.268 147.535 160.535 147.633 160.841C147.737 161.141 147.789 161.466 147.789 161.818C147.789 162.325 147.695 162.791 147.506 163.214C147.324 163.631 147.063 163.989 146.725 164.288C146.386 164.588 145.979 164.822 145.504 164.991C145.035 165.154 144.518 165.236 143.951 165.236C143.541 165.236 143.157 165.193 142.799 165.109C142.441 165.017 142.158 164.907 141.949 164.777C141.826 164.959 141.721 165.131 141.637 165.294C141.552 165.457 141.51 165.639 141.51 165.841C141.51 166.088 141.627 166.294 141.861 166.456C142.102 166.619 142.418 166.707 142.809 166.72L145.387 166.818C145.875 166.831 146.324 166.892 146.734 167.003C147.151 167.114 147.506 167.273 147.799 167.482C148.098 167.69 148.329 167.947 148.492 168.253C148.661 168.559 148.746 168.914 148.746 169.318C148.746 169.754 148.652 170.167 148.463 170.558C148.274 170.948 147.981 171.29 147.584 171.583C147.193 171.883 146.695 172.12 146.09 172.296C145.484 172.472 144.765 172.56 143.932 172.56C143.137 172.56 142.46 172.495 141.9 172.365C141.347 172.241 140.891 172.065 140.533 171.837C140.175 171.616 139.915 171.349 139.752 171.036C139.589 170.73 139.508 170.392 139.508 170.021C139.508 169.545 139.618 169.129 139.84 168.771C140.061 168.413 140.403 168.068 140.865 167.736C140.696 167.657 140.549 167.56 140.426 167.443C140.302 167.325 140.201 167.198 140.123 167.062C140.045 166.919 139.986 166.769 139.947 166.613C139.908 166.456 139.889 166.303 139.889 166.154C139.889 165.73 139.986 165.343 140.182 164.991C140.383 164.64 140.621 164.308 140.895 163.995C140.771 163.846 140.66 163.699 140.562 163.556C140.471 163.413 140.39 163.26 140.318 163.097C140.253 162.928 140.201 162.749 140.162 162.56C140.13 162.365 140.113 162.143 140.113 161.896C140.113 161.388 140.204 160.926 140.387 160.509C140.576 160.086 140.836 159.725 141.168 159.425C141.507 159.126 141.91 158.894 142.379 158.732C142.854 158.562 143.378 158.478 143.951 158.478C144.192 158.478 144.423 158.494 144.645 158.527C144.866 158.559 145.061 158.601 145.23 158.654H148.785V160.04H147.213ZM141.314 169.874C141.314 170.337 141.555 170.672 142.037 170.88C142.519 171.095 143.189 171.202 144.049 171.202C144.589 171.202 145.042 171.154 145.406 171.056C145.777 170.958 146.074 170.828 146.295 170.665C146.523 170.509 146.686 170.327 146.783 170.118C146.881 169.917 146.93 169.708 146.93 169.493C146.93 169.096 146.767 168.803 146.441 168.615C146.116 168.426 145.618 168.315 144.947 168.282L142.389 168.195C142.174 168.338 141.995 168.478 141.852 168.615C141.715 168.751 141.607 168.888 141.529 169.025C141.451 169.168 141.396 169.308 141.363 169.445C141.331 169.588 141.314 169.731 141.314 169.874ZM141.832 161.857C141.832 162.169 141.884 162.456 141.988 162.716C142.092 162.976 142.239 163.198 142.428 163.38C142.617 163.562 142.838 163.706 143.092 163.81C143.352 163.907 143.639 163.956 143.951 163.956C144.29 163.956 144.589 163.901 144.85 163.79C145.117 163.673 145.338 163.517 145.514 163.322C145.696 163.126 145.833 162.902 145.924 162.648C146.021 162.394 146.07 162.13 146.07 161.857C146.07 161.544 146.018 161.258 145.914 160.997C145.81 160.737 145.663 160.516 145.475 160.333C145.286 160.151 145.061 160.011 144.801 159.913C144.547 159.809 144.264 159.757 143.951 159.757C143.613 159.757 143.31 159.816 143.043 159.933C142.783 160.05 142.561 160.206 142.379 160.402C142.203 160.59 142.066 160.812 141.969 161.066C141.878 161.32 141.832 161.583 141.832 161.857Z" fill="black"/>
<path d="M91.1689 56.3945H121.813C122.824 56.3946 123.644 57.2146 123.644 58.2256V65.8867C123.643 66.8975 122.824 67.7167 121.813 67.7168H91.1689C90.158 67.7168 89.3381 66.8976 89.3379 65.8867V58.2256C89.3379 57.2146 90.1579 56.3945 91.1689 56.3945Z" stroke="#FFA51F" stroke-width="4"/>
</g>
<defs>
<filter id="filter0_d_28_189" x="-3.57628e-05" y="0" width="212.129" height="215.129" filterUnits="userSpaceOnUse" color-interpolation-filters="sRGB">
<feFlood flood-opacity="0" result="BackgroundImageFix"/>
<feColorMatrix in="SourceAlpha" type="matrix" values="0 0 0 0 0 0 0 0 0 0 0 0 0 0 0 0 0 0 127 0" result="hardAlpha"/>
<feOffset dy="3.06449"/>
<feGaussianBlur stdDeviation="1.53224"/>
<feComposite in2="hardAlpha" operator="out"/>
<feColorMatrix type="matrix" values="0 0 0 0 0 0 0 0 0 0 0 0 0 0 0 0 0 0 0.25 0"/>
<feBlend mode="normal" in2="BackgroundImageFix" result="effect1_dropShadow_28_189"/>
<feBlend mode="normal" in="SourceGraphic" in2="effect1_dropShadow_28_189" result="shape"/>
</filter>
</defs>
</svg>
