<svg width="213" height="216" viewBox="0 0 213 216" fill="none" xmlns="http://www.w3.org/2000/svg">
<g filter="url(#filter0_d_30_108)">
<rect x="3.08862" width="206" height="209" rx="19.3033" fill="white"/>
<path d="M49.7439 158.355H46.8044V156.89H54.4412V158.355H51.5017V168.17H54.4412V169.654H46.8044V168.17H49.7439V158.355ZM57.6833 159.849H59.197L59.2654 161.431C59.5518 161.093 59.8285 160.813 60.0955 160.592C60.3624 160.364 60.6228 160.181 60.8767 160.045C61.1371 159.908 61.4008 159.814 61.6677 159.761C61.9347 159.703 62.2113 159.674 62.4978 159.674C63.5069 159.674 64.2686 159.973 64.783 160.572C65.3038 161.164 65.5642 162.06 65.5642 163.258V169.654H63.865V163.394C63.865 162.626 63.7218 162.06 63.4353 161.695C63.1488 161.324 62.7224 161.138 62.156 161.138C61.9477 161.138 61.7426 161.171 61.5408 161.236C61.3455 161.295 61.1404 161.402 60.9255 161.558C60.7107 161.708 60.4763 161.913 60.2224 162.174C59.975 162.434 59.6951 162.76 59.3826 163.15V169.654H57.6833V159.849ZM76.5798 169.517C76.1957 169.615 75.7986 169.683 75.3884 169.722C74.9783 169.768 74.5616 169.791 74.1384 169.791C72.908 169.791 71.99 169.514 71.3845 168.961C70.7791 168.401 70.4763 167.545 70.4763 166.392V161.275H67.7322V159.849H70.4763V157.154L72.1755 156.715V159.849H76.5798V161.275H72.1755V166.256C72.1755 166.959 72.3611 167.486 72.7322 167.838C73.1098 168.183 73.6632 168.355 74.3923 168.355C74.7048 168.355 75.0466 168.332 75.4177 168.287C75.7888 168.235 76.1762 168.157 76.5798 168.052V169.517ZM87.9568 164.234C87.9568 164.475 87.9535 164.677 87.947 164.84C87.9405 165.002 87.9307 165.155 87.9177 165.299H81.033C81.033 166.301 81.3129 167.073 81.8728 167.613C82.4327 168.147 83.24 168.414 84.2947 168.414C84.5811 168.414 84.8676 168.404 85.1541 168.385C85.4405 168.358 85.7172 168.326 85.9841 168.287C86.2511 168.248 86.505 168.205 86.7458 168.16C86.9932 168.108 87.2211 168.052 87.4294 167.994V169.39C86.9672 169.521 86.4431 169.625 85.8572 169.703C85.2778 169.788 84.6755 169.83 84.0505 169.83C83.2107 169.83 82.488 169.716 81.8826 169.488C81.2771 169.26 80.7791 168.931 80.3884 168.502C80.0043 168.066 79.7179 167.535 79.5291 166.91C79.3468 166.278 79.2556 165.566 79.2556 164.771C79.2556 164.081 79.3533 163.43 79.5486 162.818C79.7504 162.2 80.0401 161.659 80.4177 161.197C80.8018 160.728 81.2706 160.357 81.824 160.084C82.3774 159.81 83.0056 159.674 83.7087 159.674C84.3923 159.674 84.9978 159.781 85.5251 159.996C86.0525 160.211 86.4952 160.517 86.8533 160.914C87.2179 161.304 87.4913 161.783 87.6736 162.349C87.8624 162.909 87.9568 163.538 87.9568 164.234ZM86.1892 163.99C86.2087 163.554 86.1664 163.157 86.0623 162.799C85.9581 162.434 85.7953 162.122 85.574 161.861C85.3591 161.601 85.0889 161.399 84.7634 161.256C84.4379 161.106 84.0603 161.031 83.6306 161.031C83.2595 161.031 82.921 161.103 82.615 161.246C82.309 161.389 82.0453 161.591 81.824 161.851C81.6026 162.112 81.4236 162.424 81.2869 162.789C81.1501 163.153 81.0655 163.554 81.033 163.99H86.1892ZM91.072 159.849H92.6248L92.6736 161.656C93.253 160.959 93.8227 160.455 94.3826 160.142C94.949 159.83 95.5186 159.674 96.0916 159.674C97.1072 159.674 97.8754 160.002 98.3962 160.66C98.9236 161.317 99.1677 162.294 99.1287 163.59H97.4099C97.4294 162.73 97.3025 162.108 97.0291 161.724C96.7621 161.334 96.3682 161.138 95.8474 161.138C95.6195 161.138 95.3884 161.181 95.1541 161.265C94.9262 161.344 94.6886 161.474 94.4412 161.656C94.2003 161.832 93.9431 162.06 93.6697 162.34C93.3962 162.62 93.1033 162.958 92.7908 163.355V169.654H91.072V159.849ZM107.967 169.654L107.927 168.336C107.394 168.863 106.85 169.244 106.297 169.478C105.75 169.713 105.174 169.83 104.568 169.83C104.008 169.83 103.53 169.758 103.133 169.615C102.735 169.472 102.407 169.276 102.146 169.029C101.892 168.775 101.704 168.479 101.58 168.14C101.463 167.802 101.404 167.434 101.404 167.037C101.404 166.054 101.769 165.286 102.498 164.732C103.233 164.172 104.317 163.892 105.75 163.892H107.781V163.033C107.781 162.454 107.595 161.991 107.224 161.646C106.853 161.295 106.287 161.119 105.525 161.119C104.972 161.119 104.425 161.181 103.885 161.304C103.351 161.428 102.797 161.604 102.224 161.832V160.299C102.439 160.22 102.677 160.146 102.937 160.074C103.204 159.996 103.484 159.927 103.777 159.869C104.07 159.81 104.376 159.765 104.695 159.732C105.014 159.693 105.336 159.674 105.662 159.674C106.254 159.674 106.788 159.739 107.263 159.869C107.739 159.999 108.139 160.198 108.465 160.465C108.797 160.732 109.051 161.067 109.226 161.47C109.402 161.874 109.49 162.349 109.49 162.896V169.654H107.967ZM107.781 165.191H105.623C105.2 165.191 104.835 165.233 104.529 165.318C104.223 165.403 103.972 165.523 103.777 165.679C103.582 165.836 103.435 166.024 103.338 166.246C103.247 166.461 103.201 166.705 103.201 166.978C103.201 167.167 103.23 167.349 103.289 167.525C103.347 167.694 103.442 167.847 103.572 167.984C103.702 168.114 103.872 168.219 104.08 168.297C104.288 168.375 104.542 168.414 104.842 168.414C105.232 168.414 105.678 168.297 106.179 168.062C106.687 167.821 107.221 167.444 107.781 166.929V165.191ZM120.281 169.293C119.838 169.462 119.383 169.586 118.914 169.664C118.452 169.748 117.973 169.791 117.478 169.791C115.929 169.791 114.734 169.371 113.894 168.531C113.061 167.691 112.644 166.464 112.644 164.849C112.644 164.075 112.765 163.372 113.006 162.74C113.247 162.108 113.585 161.568 114.021 161.119C114.457 160.67 114.978 160.325 115.584 160.084C116.189 159.836 116.857 159.713 117.586 159.713C118.094 159.713 118.569 159.748 119.011 159.82C119.454 159.892 119.877 160.009 120.281 160.172V161.793C119.858 161.571 119.425 161.412 118.982 161.314C118.546 161.21 118.094 161.158 117.625 161.158C117.189 161.158 116.775 161.243 116.385 161.412C116 161.575 115.662 161.812 115.369 162.125C115.076 162.437 114.845 162.818 114.676 163.267C114.506 163.717 114.422 164.224 114.422 164.791C114.422 165.976 114.708 166.864 115.281 167.457C115.86 168.043 116.661 168.336 117.683 168.336C118.146 168.336 118.592 168.284 119.021 168.179C119.457 168.075 119.877 167.919 120.281 167.711V169.293ZM131.56 169.517C131.176 169.615 130.779 169.683 130.369 169.722C129.959 169.768 129.542 169.791 129.119 169.791C127.888 169.791 126.97 169.514 126.365 168.961C125.76 168.401 125.457 167.545 125.457 166.392V161.275H122.713V159.849H125.457V157.154L127.156 156.715V159.849H131.56V161.275H127.156V166.256C127.156 166.959 127.342 167.486 127.713 167.838C128.09 168.183 128.644 168.355 129.373 168.355C129.685 168.355 130.027 168.332 130.398 168.287C130.769 168.235 131.157 168.157 131.56 168.052V169.517ZM137.996 161.256H135.095V159.849H139.715V168.238H142.635V169.654H134.773V168.238H137.996V161.256ZM138.592 155.738C138.78 155.738 138.956 155.774 139.119 155.845C139.282 155.911 139.422 156.005 139.539 156.129C139.663 156.252 139.757 156.396 139.822 156.558C139.894 156.715 139.929 156.887 139.929 157.076C139.929 157.258 139.894 157.431 139.822 157.594C139.757 157.756 139.663 157.899 139.539 158.023C139.422 158.147 139.282 158.245 139.119 158.316C138.956 158.381 138.78 158.414 138.592 158.414C138.403 158.414 138.227 158.381 138.064 158.316C137.901 158.245 137.758 158.147 137.635 158.023C137.517 157.899 137.423 157.756 137.351 157.594C137.286 157.431 137.254 157.258 137.254 157.076C137.254 156.887 137.286 156.715 137.351 156.558C137.423 156.396 137.517 156.252 137.635 156.129C137.758 156.005 137.901 155.911 138.064 155.845C138.227 155.774 138.403 155.738 138.592 155.738ZM154.187 164.674C154.187 165.435 154.08 166.135 153.865 166.773C153.65 167.405 153.341 167.948 152.937 168.404C152.534 168.853 152.042 169.205 151.463 169.459C150.883 169.706 150.226 169.83 149.49 169.83C148.787 169.83 148.155 169.722 147.595 169.508C147.042 169.286 146.57 168.964 146.179 168.541C145.795 168.118 145.499 167.594 145.291 166.969C145.089 166.344 144.988 165.624 144.988 164.81C144.988 164.049 145.095 163.355 145.31 162.73C145.525 162.099 145.834 161.558 146.238 161.109C146.642 160.653 147.133 160.302 147.713 160.054C148.292 159.801 148.95 159.674 149.685 159.674C150.388 159.674 151.017 159.784 151.57 160.006C152.13 160.22 152.602 160.539 152.986 160.963C153.377 161.379 153.673 161.9 153.875 162.525C154.083 163.15 154.187 163.866 154.187 164.674ZM152.449 164.752C152.449 164.146 152.381 163.619 152.244 163.17C152.114 162.714 151.925 162.336 151.677 162.037C151.43 161.731 151.127 161.503 150.769 161.353C150.418 161.197 150.024 161.119 149.588 161.119C149.08 161.119 148.644 161.22 148.279 161.422C147.921 161.617 147.625 161.881 147.39 162.213C147.163 162.545 146.993 162.932 146.883 163.375C146.778 163.811 146.726 164.27 146.726 164.752C146.726 165.357 146.791 165.888 146.922 166.344C147.058 166.799 147.25 167.18 147.498 167.486C147.745 167.786 148.045 168.013 148.396 168.17C148.748 168.319 149.145 168.394 149.588 168.394C150.095 168.394 150.528 168.297 150.886 168.101C151.251 167.899 151.547 167.633 151.775 167.301C152.01 166.969 152.179 166.584 152.283 166.148C152.394 165.705 152.449 165.24 152.449 164.752ZM156.648 159.849H158.162L158.23 161.431C158.517 161.093 158.793 160.813 159.06 160.592C159.327 160.364 159.588 160.181 159.842 160.045C160.102 159.908 160.366 159.814 160.633 159.761C160.899 159.703 161.176 159.674 161.463 159.674C162.472 159.674 163.233 159.973 163.748 160.572C164.269 161.164 164.529 162.06 164.529 163.258V169.654H162.83V163.394C162.83 162.626 162.687 162.06 162.4 161.695C162.114 161.324 161.687 161.138 161.121 161.138C160.913 161.138 160.707 161.171 160.506 161.236C160.31 161.295 160.105 161.402 159.89 161.558C159.676 161.708 159.441 161.913 159.187 162.174C158.94 162.434 158.66 162.76 158.347 163.15V169.654H156.648V159.849Z" fill="black"/>
<path d="M101.42 68.5267L84.8892 51.9956M108.881 65.3785V42M97.5033 75.9871H74.1248M110.152 104.282L137.432 76.446C139.34 74.4997 137.961 71.2178 135.236 71.2178H107.956C106.257 71.2178 104.88 72.5948 104.88 74.2933V102.13C104.88 104.885 108.224 106.25 110.152 104.282Z" stroke="#FFA51F" stroke-width="4" stroke-linecap="round"/>
</g>
<defs>
<filter id="filter0_d_30_108" x="0.000100613" y="0" width="212.177" height="215.177" filterUnits="userSpaceOnUse" color-interpolation-filters="sRGB">
<feFlood flood-opacity="0" result="BackgroundImageFix"/>
<feColorMatrix in="SourceAlpha" type="matrix" values="0 0 0 0 0 0 0 0 0 0 0 0 0 0 0 0 0 0 127 0" result="hardAlpha"/>
<feOffset dy="3.08852"/>
<feGaussianBlur stdDeviation="1.54426"/>
<feComposite in2="hardAlpha" operator="out"/>
<feColorMatrix type="matrix" values="0 0 0 0 0 0 0 0 0 0 0 0 0 0 0 0 0 0 0.25 0"/>
<feBlend mode="normal" in2="BackgroundImageFix" result="effect1_dropShadow_30_108"/>
<feBlend mode="normal" in="SourceGraphic" in2="effect1_dropShadow_30_108" result="shape"/>
</filter>
</defs>
</svg>
