<svg width="218" height="216" viewBox="0 0 218 216" fill="none" xmlns="http://www.w3.org/2000/svg">
<g filter="url(#filter0_d_31_78)">
<rect x="3.06445" width="211" height="209" rx="19.1531" fill="white"/>
<path d="M92.4082 168.458H90.709L90.4551 160.499L90.3477 157.442L89.752 159.22L87.8672 164.298H86.666L84.8691 159.415L84.2734 157.442L84.2344 160.636L84.0098 168.458H82.3691L82.9941 155.694H85.0547L86.7734 160.499L87.3301 162.12L87.8672 160.499L89.6738 155.694H91.793L92.4082 168.458ZM102.73 163.038C102.73 163.279 102.727 163.481 102.721 163.644C102.714 163.806 102.704 163.959 102.691 164.103H95.8066C95.8066 165.105 96.0866 165.877 96.6465 166.417C97.2064 166.951 98.0137 167.218 99.0684 167.218C99.3548 167.218 99.6413 167.208 99.9277 167.188C100.214 167.162 100.491 167.13 100.758 167.091C101.025 167.052 101.279 167.009 101.52 166.964C101.767 166.912 101.995 166.856 102.203 166.798V168.194C101.741 168.325 101.217 168.429 100.631 168.507C100.051 168.591 99.4492 168.634 98.8242 168.634C97.9844 168.634 97.2617 168.52 96.6562 168.292C96.0508 168.064 95.5527 167.735 95.1621 167.306C94.778 166.869 94.4915 166.339 94.3027 165.714C94.1204 165.082 94.0293 164.369 94.0293 163.575C94.0293 162.885 94.127 162.234 94.3223 161.622C94.5241 161.004 94.8138 160.463 95.1914 160.001C95.5755 159.532 96.0443 159.161 96.5977 158.888C97.151 158.614 97.7793 158.478 98.4824 158.478C99.166 158.478 99.7715 158.585 100.299 158.8C100.826 159.015 101.269 159.321 101.627 159.718C101.992 160.108 102.265 160.587 102.447 161.153C102.636 161.713 102.73 162.341 102.73 163.038ZM100.963 162.794C100.982 162.358 100.94 161.961 100.836 161.603C100.732 161.238 100.569 160.925 100.348 160.665C100.133 160.405 99.8626 160.203 99.5371 160.06C99.2116 159.91 98.834 159.835 98.4043 159.835C98.0332 159.835 97.6947 159.907 97.3887 160.05C97.0827 160.193 96.819 160.395 96.5977 160.655C96.3763 160.916 96.1973 161.228 96.0605 161.593C95.9238 161.957 95.8392 162.358 95.8066 162.794H100.963ZM104.947 163.761C104.947 162.927 105.061 162.188 105.289 161.544C105.517 160.893 105.839 160.346 106.256 159.903C106.679 159.454 107.184 159.116 107.77 158.888C108.362 158.653 109.02 158.536 109.742 158.536C110.055 158.536 110.361 158.556 110.66 158.595C110.966 158.634 111.266 158.696 111.559 158.78V154.659H113.268V168.458H111.744L111.686 166.603C111.21 167.293 110.696 167.804 110.143 168.136C109.589 168.468 108.99 168.634 108.346 168.634C107.786 168.634 107.291 168.517 106.861 168.282C106.438 168.048 106.083 167.719 105.797 167.296C105.517 166.866 105.305 166.352 105.162 165.753C105.019 165.154 104.947 164.49 104.947 163.761ZM106.686 163.653C106.686 164.838 106.858 165.724 107.203 166.31C107.555 166.889 108.049 167.179 108.688 167.179C109.117 167.179 109.57 166.987 110.045 166.603C110.527 166.218 111.031 165.649 111.559 164.894V160.343C111.279 160.213 110.969 160.115 110.631 160.05C110.292 159.978 109.957 159.942 109.625 159.942C108.701 159.942 107.978 160.242 107.457 160.841C106.943 161.44 106.686 162.377 106.686 163.653ZM119.781 160.06H116.881V158.653H121.5V167.042H124.42V168.458H116.559V167.042H119.781V160.06ZM120.377 154.542C120.566 154.542 120.742 154.578 120.904 154.649C121.067 154.715 121.207 154.809 121.324 154.933C121.448 155.056 121.542 155.2 121.607 155.362C121.679 155.519 121.715 155.691 121.715 155.88C121.715 156.062 121.679 156.235 121.607 156.397C121.542 156.56 121.448 156.703 121.324 156.827C121.207 156.951 121.067 157.049 120.904 157.12C120.742 157.185 120.566 157.218 120.377 157.218C120.188 157.218 120.012 157.185 119.85 157.12C119.687 157.049 119.544 156.951 119.42 156.827C119.303 156.703 119.208 156.56 119.137 156.397C119.072 156.235 119.039 156.062 119.039 155.88C119.039 155.691 119.072 155.519 119.137 155.362C119.208 155.2 119.303 155.056 119.42 154.933C119.544 154.809 119.687 154.715 119.85 154.649C120.012 154.578 120.188 154.542 120.377 154.542ZM133.736 168.458L133.697 167.14C133.163 167.667 132.62 168.048 132.066 168.282C131.52 168.517 130.943 168.634 130.338 168.634C129.778 168.634 129.299 168.562 128.902 168.419C128.505 168.276 128.176 168.08 127.916 167.833C127.662 167.579 127.473 167.283 127.35 166.944C127.232 166.606 127.174 166.238 127.174 165.841C127.174 164.858 127.538 164.09 128.268 163.536C129.003 162.976 130.087 162.696 131.52 162.696H133.551V161.837C133.551 161.257 133.365 160.795 132.994 160.45C132.623 160.099 132.057 159.923 131.295 159.923C130.742 159.923 130.195 159.985 129.654 160.108C129.12 160.232 128.567 160.408 127.994 160.636V159.103C128.209 159.024 128.447 158.95 128.707 158.878C128.974 158.8 129.254 158.731 129.547 158.673C129.84 158.614 130.146 158.569 130.465 158.536C130.784 158.497 131.106 158.478 131.432 158.478C132.024 158.478 132.558 158.543 133.033 158.673C133.508 158.803 133.909 159.002 134.234 159.269C134.566 159.535 134.82 159.871 134.996 160.274C135.172 160.678 135.26 161.153 135.26 161.7V168.458H133.736ZM133.551 163.995H131.393C130.969 163.995 130.605 164.037 130.299 164.122C129.993 164.207 129.742 164.327 129.547 164.483C129.352 164.64 129.205 164.828 129.107 165.05C129.016 165.265 128.971 165.509 128.971 165.782C128.971 165.971 129 166.153 129.059 166.329C129.117 166.498 129.212 166.651 129.342 166.788C129.472 166.918 129.641 167.022 129.85 167.101C130.058 167.179 130.312 167.218 130.611 167.218C131.002 167.218 131.448 167.101 131.949 166.866C132.457 166.625 132.991 166.248 133.551 165.733V163.995Z" fill="#262626"/>
<path d="M81.8907 128.179C80.424 128.179 79.1689 127.658 78.1254 126.614C77.0818 125.57 76.5592 124.314 76.5574 122.846V90.846C76.5574 90.0905 76.8134 89.4576 77.3254 88.9474C77.8374 88.4371 78.4703 88.1811 79.224 88.1794C79.9778 88.1776 80.6116 88.4336 81.1254 88.9474C81.6392 89.4611 81.8943 90.094 81.8907 90.846V122.846H124.557C125.313 122.846 125.947 123.102 126.459 123.614C126.971 124.126 127.226 124.759 127.224 125.513C127.222 126.266 126.966 126.9 126.456 127.414C125.946 127.928 125.313 128.183 124.557 128.179H81.8907ZM92.5574 117.513C91.0907 117.513 89.8356 116.991 88.792 115.947C87.7485 114.904 87.2258 113.648 87.224 112.179V82.846C87.224 81.3794 87.7467 80.1243 88.792 79.0807C89.8374 78.0371 91.0925 77.5145 92.5574 77.5127H103.691C104.402 77.5127 105.08 77.646 105.725 77.9127C106.371 78.1794 106.937 78.5571 107.424 79.046L111.224 82.846H129.891C131.357 82.846 132.613 83.3687 133.659 84.414C134.704 85.4594 135.226 86.7145 135.224 88.1794V112.179C135.224 113.646 134.702 114.902 133.659 115.947C132.615 116.993 131.359 117.514 129.891 117.513H92.5574ZM109.224 102.846L106.157 98.846C105.891 98.4905 105.535 98.3127 105.091 98.3127C104.646 98.3127 104.291 98.4905 104.024 98.846L99.5574 104.713C99.2018 105.157 99.1458 105.624 99.3894 106.113C99.6329 106.602 100.044 106.846 100.624 106.846H121.824C122.402 106.846 122.812 106.602 123.056 106.113C123.3 105.624 123.244 105.157 122.891 104.713L116.424 96.246C116.157 95.8905 115.802 95.7127 115.357 95.7127C114.913 95.7127 114.557 95.8905 114.291 96.246L109.224 102.846Z" fill="#FFA51F"/>
</g>
<defs>
<filter id="filter0_d_31_78" x="-3.57628e-05" y="0" width="217.129" height="215.129" filterUnits="userSpaceOnUse" color-interpolation-filters="sRGB">
<feFlood flood-opacity="0" result="BackgroundImageFix"/>
<feColorMatrix in="SourceAlpha" type="matrix" values="0 0 0 0 0 0 0 0 0 0 0 0 0 0 0 0 0 0 127 0" result="hardAlpha"/>
<feOffset dy="3.06449"/>
<feGaussianBlur stdDeviation="1.53224"/>
<feComposite in2="hardAlpha" operator="out"/>
<feColorMatrix type="matrix" values="0 0 0 0 0 0 0 0 0 0 0 0 0 0 0 0 0 0 0.25 0"/>
<feBlend mode="normal" in2="BackgroundImageFix" result="effect1_dropShadow_31_78"/>
<feBlend mode="normal" in="SourceGraphic" in2="effect1_dropShadow_31_78" result="shape"/>
</filter>
</defs>
</svg>
