<svg width="213" height="216" viewBox="0 0 213 216" fill="none" xmlns="http://www.w3.org/2000/svg">
<g filter="url(#filter0_d_31_63)">
<rect x="3.06445" width="206" height="209" rx="19.1531" fill="white"/>
<path d="M83.582 168.458H81.8828L81.6289 160.499L81.5215 157.442L80.9258 159.22L79.041 164.298H77.8398L76.043 159.415L75.4473 157.442L75.4082 160.636L75.1836 168.458H73.543L74.168 155.694H76.2285L77.9473 160.499L78.5039 162.12L79.041 160.499L80.8477 155.694H82.9668L83.582 168.458ZM88.9629 160.06H86.0625V158.653H90.6816V167.042H93.6016V168.458H85.7402V167.042H88.9629V160.06ZM89.5586 154.542C89.7474 154.542 89.9232 154.578 90.0859 154.649C90.2487 154.715 90.3887 154.809 90.5059 154.933C90.6296 155.056 90.724 155.2 90.7891 155.362C90.8607 155.519 90.8965 155.691 90.8965 155.88C90.8965 156.062 90.8607 156.235 90.7891 156.397C90.724 156.56 90.6296 156.703 90.5059 156.827C90.3887 156.951 90.2487 157.049 90.0859 157.12C89.9232 157.185 89.7474 157.218 89.5586 157.218C89.3698 157.218 89.194 157.185 89.0312 157.12C88.8685 157.049 88.7253 156.951 88.6016 156.827C88.4844 156.703 88.39 156.56 88.3184 156.397C88.2533 156.235 88.2207 156.062 88.2207 155.88C88.2207 155.691 88.2533 155.519 88.3184 155.362C88.39 155.2 88.4844 155.056 88.6016 154.933C88.7253 154.809 88.8685 154.715 89.0312 154.649C89.194 154.578 89.3698 154.542 89.5586 154.542ZM104.979 159.601C104.979 160.121 104.881 160.639 104.686 161.153C104.49 161.661 104.188 162.117 103.777 162.521C103.367 162.924 102.843 163.253 102.205 163.507C101.567 163.754 100.805 163.878 99.9199 163.878H98.3379V168.458H96.5996V155.694H100.193C100.825 155.694 101.43 155.766 102.01 155.909C102.589 156.046 103.097 156.271 103.533 156.583C103.976 156.896 104.327 157.299 104.588 157.794C104.848 158.289 104.979 158.891 104.979 159.601ZM103.172 159.679C103.172 158.858 102.902 158.23 102.361 157.794C101.827 157.358 101.079 157.14 100.115 157.14H98.3379V162.394H99.959C100.988 162.394 101.779 162.169 102.332 161.72C102.892 161.271 103.172 160.59 103.172 159.679ZM113.914 168.458L113.875 167.14C113.341 167.667 112.798 168.048 112.244 168.282C111.697 168.517 111.121 168.634 110.516 168.634C109.956 168.634 109.477 168.562 109.08 168.419C108.683 168.276 108.354 168.08 108.094 167.833C107.84 167.579 107.651 167.283 107.527 166.944C107.41 166.606 107.352 166.238 107.352 165.841C107.352 164.858 107.716 164.09 108.445 163.536C109.181 162.976 110.265 162.696 111.697 162.696H113.729V161.837C113.729 161.257 113.543 160.795 113.172 160.45C112.801 160.099 112.234 159.923 111.473 159.923C110.919 159.923 110.372 159.985 109.832 160.108C109.298 160.232 108.745 160.408 108.172 160.636V159.103C108.387 159.024 108.624 158.95 108.885 158.878C109.152 158.8 109.432 158.731 109.725 158.673C110.018 158.614 110.324 158.569 110.643 158.536C110.962 158.497 111.284 158.478 111.609 158.478C112.202 158.478 112.736 158.543 113.211 158.673C113.686 158.803 114.087 159.002 114.412 159.269C114.744 159.535 114.998 159.871 115.174 160.274C115.35 160.678 115.438 161.153 115.438 161.7V168.458H113.914ZM113.729 163.995H111.57C111.147 163.995 110.783 164.037 110.477 164.122C110.171 164.207 109.92 164.327 109.725 164.483C109.529 164.64 109.383 164.828 109.285 165.05C109.194 165.265 109.148 165.509 109.148 165.782C109.148 165.971 109.178 166.153 109.236 166.329C109.295 166.498 109.389 166.651 109.52 166.788C109.65 166.918 109.819 167.022 110.027 167.101C110.236 167.179 110.49 167.218 110.789 167.218C111.18 167.218 111.626 167.101 112.127 166.866C112.635 166.625 113.169 166.248 113.729 165.733V163.995ZM125.672 160.04C125.854 160.268 125.994 160.535 126.092 160.841C126.196 161.14 126.248 161.466 126.248 161.817C126.248 162.325 126.154 162.791 125.965 163.214C125.783 163.631 125.522 163.989 125.184 164.288C124.845 164.588 124.438 164.822 123.963 164.991C123.494 165.154 122.977 165.235 122.41 165.235C122 165.235 121.616 165.193 121.258 165.108C120.9 165.017 120.617 164.907 120.408 164.776C120.285 164.959 120.18 165.131 120.096 165.294C120.011 165.457 119.969 165.639 119.969 165.841C119.969 166.088 120.086 166.293 120.32 166.456C120.561 166.619 120.877 166.707 121.268 166.72L123.846 166.817C124.334 166.83 124.783 166.892 125.193 167.003C125.61 167.114 125.965 167.273 126.258 167.481C126.557 167.69 126.788 167.947 126.951 168.253C127.12 168.559 127.205 168.914 127.205 169.317C127.205 169.754 127.111 170.167 126.922 170.558C126.733 170.948 126.44 171.29 126.043 171.583C125.652 171.882 125.154 172.12 124.549 172.296C123.943 172.472 123.224 172.56 122.391 172.56C121.596 172.56 120.919 172.494 120.359 172.364C119.806 172.241 119.35 172.065 118.992 171.837C118.634 171.616 118.374 171.349 118.211 171.036C118.048 170.73 117.967 170.392 117.967 170.021C117.967 169.545 118.077 169.129 118.299 168.771C118.52 168.412 118.862 168.067 119.324 167.735C119.155 167.657 119.008 167.56 118.885 167.442C118.761 167.325 118.66 167.198 118.582 167.062C118.504 166.918 118.445 166.769 118.406 166.612C118.367 166.456 118.348 166.303 118.348 166.153C118.348 165.73 118.445 165.343 118.641 164.991C118.842 164.64 119.08 164.308 119.354 163.995C119.23 163.845 119.119 163.699 119.021 163.556C118.93 163.412 118.849 163.259 118.777 163.097C118.712 162.927 118.66 162.748 118.621 162.56C118.589 162.364 118.572 162.143 118.572 161.896C118.572 161.388 118.663 160.925 118.846 160.509C119.035 160.086 119.295 159.724 119.627 159.425C119.965 159.125 120.369 158.894 120.838 158.731C121.313 158.562 121.837 158.478 122.41 158.478C122.651 158.478 122.882 158.494 123.104 158.526C123.325 158.559 123.52 158.601 123.689 158.653H127.244V160.04H125.672ZM119.773 169.874C119.773 170.336 120.014 170.672 120.496 170.88C120.978 171.095 121.648 171.202 122.508 171.202C123.048 171.202 123.501 171.153 123.865 171.056C124.236 170.958 124.533 170.828 124.754 170.665C124.982 170.509 125.145 170.326 125.242 170.118C125.34 169.916 125.389 169.708 125.389 169.493C125.389 169.096 125.226 168.803 124.9 168.614C124.575 168.425 124.077 168.315 123.406 168.282L120.848 168.194C120.633 168.338 120.454 168.478 120.311 168.614C120.174 168.751 120.066 168.888 119.988 169.024C119.91 169.168 119.855 169.308 119.822 169.444C119.79 169.588 119.773 169.731 119.773 169.874ZM120.291 161.856C120.291 162.169 120.343 162.455 120.447 162.716C120.551 162.976 120.698 163.198 120.887 163.38C121.076 163.562 121.297 163.705 121.551 163.81C121.811 163.907 122.098 163.956 122.41 163.956C122.749 163.956 123.048 163.901 123.309 163.79C123.576 163.673 123.797 163.517 123.973 163.321C124.155 163.126 124.292 162.901 124.383 162.647C124.48 162.394 124.529 162.13 124.529 161.856C124.529 161.544 124.477 161.257 124.373 160.997C124.269 160.737 124.122 160.515 123.934 160.333C123.745 160.151 123.52 160.011 123.26 159.913C123.006 159.809 122.723 159.757 122.41 159.757C122.072 159.757 121.769 159.815 121.502 159.933C121.242 160.05 121.02 160.206 120.838 160.401C120.662 160.59 120.525 160.812 120.428 161.065C120.337 161.319 120.291 161.583 120.291 161.856ZM137.889 163.038C137.889 163.279 137.885 163.481 137.879 163.644C137.872 163.806 137.863 163.959 137.85 164.103H130.965C130.965 165.105 131.245 165.877 131.805 166.417C132.365 166.951 133.172 167.218 134.227 167.218C134.513 167.218 134.799 167.208 135.086 167.188C135.372 167.162 135.649 167.13 135.916 167.091C136.183 167.052 136.437 167.009 136.678 166.964C136.925 166.912 137.153 166.856 137.361 166.798V168.194C136.899 168.325 136.375 168.429 135.789 168.507C135.21 168.591 134.607 168.634 133.982 168.634C133.143 168.634 132.42 168.52 131.814 168.292C131.209 168.064 130.711 167.735 130.32 167.306C129.936 166.869 129.65 166.339 129.461 165.714C129.279 165.082 129.188 164.369 129.188 163.575C129.188 162.885 129.285 162.234 129.48 161.622C129.682 161.004 129.972 160.463 130.35 160.001C130.734 159.532 131.202 159.161 131.756 158.888C132.309 158.614 132.938 158.478 133.641 158.478C134.324 158.478 134.93 158.585 135.457 158.8C135.984 159.015 136.427 159.321 136.785 159.718C137.15 160.108 137.423 160.587 137.605 161.153C137.794 161.713 137.889 162.341 137.889 163.038ZM136.121 162.794C136.141 162.358 136.098 161.961 135.994 161.603C135.89 161.238 135.727 160.925 135.506 160.665C135.291 160.405 135.021 160.203 134.695 160.06C134.37 159.91 133.992 159.835 133.562 159.835C133.191 159.835 132.853 159.907 132.547 160.05C132.241 160.193 131.977 160.395 131.756 160.655C131.535 160.916 131.355 161.228 131.219 161.593C131.082 161.957 130.997 162.358 130.965 162.794H136.121Z" fill="#262626"/>
<path d="M84.7312 105.846V81.846C84.7312 81.0016 84.9205 80.2016 85.2992 79.446C85.6779 78.6905 86.1996 78.0682 86.8645 77.5794L102.865 65.5794C103.798 64.8683 104.865 64.5127 106.065 64.5127C107.265 64.5127 108.331 64.8683 109.265 65.5794L125.265 77.5794C125.931 78.0682 126.454 78.6905 126.833 79.446C127.211 80.2016 127.4 81.0016 127.398 81.846V105.846C127.398 107.313 126.875 108.569 125.83 109.614C124.785 110.659 123.529 111.181 122.065 111.179H114.065C113.309 111.179 112.676 110.923 112.166 110.411C111.656 109.899 111.4 109.266 111.398 108.513V95.1794C111.398 94.4238 111.142 93.7909 110.63 93.2807C110.118 92.7705 109.485 92.5145 108.731 92.5127H103.398C102.642 92.5127 102.009 92.7687 101.499 93.2807C100.989 93.7927 100.733 94.4256 100.731 95.1794V108.513C100.731 109.268 100.475 109.902 99.9632 110.414C99.4512 110.926 98.8183 111.181 98.0645 111.179H90.0645C88.5979 111.179 87.3428 110.658 86.2992 109.614C85.2556 108.57 84.733 107.314 84.7312 105.846Z" fill="#FFA51F"/>
</g>
<defs>
<filter id="filter0_d_31_63" x="-3.57628e-05" y="0" width="212.129" height="215.129" filterUnits="userSpaceOnUse" color-interpolation-filters="sRGB">
<feFlood flood-opacity="0" result="BackgroundImageFix"/>
<feColorMatrix in="SourceAlpha" type="matrix" values="0 0 0 0 0 0 0 0 0 0 0 0 0 0 0 0 0 0 127 0" result="hardAlpha"/>
<feOffset dy="3.06449"/>
<feGaussianBlur stdDeviation="1.53224"/>
<feComposite in2="hardAlpha" operator="out"/>
<feColorMatrix type="matrix" values="0 0 0 0 0 0 0 0 0 0 0 0 0 0 0 0 0 0 0.25 0"/>
<feBlend mode="normal" in2="BackgroundImageFix" result="effect1_dropShadow_31_63"/>
<feBlend mode="normal" in="SourceGraphic" in2="effect1_dropShadow_31_63" result="shape"/>
</filter>
</defs>
</svg>
