<svg width="213" height="216" viewBox="0 0 213 216" fill="none" xmlns="http://www.w3.org/2000/svg">
<g filter="url(#filter0_d_28_202)">
<rect x="3.08862" width="206" height="209" rx="19.3033" fill="white"/>
<path d="M61.1118 169.654H59.4126L59.1587 161.695L59.0513 158.638L58.4556 160.416L56.5708 165.494H55.3696L53.5728 160.611L52.9771 158.638L52.938 161.832L52.7134 169.654H51.0728L51.6978 156.89H53.7583L55.4771 161.695L56.0337 163.316L56.5708 161.695L58.3774 156.89H60.4966L61.1118 169.654ZM71.4341 164.234C71.4341 164.475 71.4308 164.677 71.4243 164.84C71.4178 165.002 71.408 165.155 71.395 165.299H64.5103C64.5103 166.301 64.7902 167.073 65.3501 167.613C65.91 168.147 66.7173 168.414 67.772 168.414C68.0584 168.414 68.3449 168.404 68.6313 168.385C68.9178 168.358 69.1945 168.326 69.4614 168.287C69.7284 168.248 69.9823 168.205 70.2231 168.16C70.4705 168.108 70.6984 168.052 70.9067 167.994V169.39C70.4445 169.521 69.9204 169.625 69.3345 169.703C68.755 169.788 68.1528 169.83 67.5278 169.83C66.688 169.83 65.9653 169.716 65.3599 169.488C64.7544 169.26 64.2563 168.931 63.8657 168.502C63.4816 168.066 63.1951 167.535 63.0063 166.91C62.8241 166.278 62.7329 165.566 62.7329 164.771C62.7329 164.081 62.8306 163.43 63.0259 162.818C63.2277 162.2 63.5174 161.659 63.895 161.197C64.2791 160.728 64.7479 160.357 65.3013 160.084C65.8547 159.81 66.4829 159.674 67.186 159.674C67.8696 159.674 68.4751 159.781 69.0024 159.996C69.5298 160.211 69.9725 160.517 70.3306 160.914C70.6951 161.304 70.9686 161.783 71.1509 162.349C71.3397 162.909 71.4341 163.538 71.4341 164.234ZM69.6665 163.99C69.686 163.554 69.6437 163.157 69.5396 162.799C69.4354 162.434 69.2726 162.122 69.0513 161.861C68.8364 161.601 68.5662 161.399 68.2407 161.256C67.9152 161.106 67.5376 161.031 67.1079 161.031C66.7368 161.031 66.3983 161.103 66.0923 161.246C65.7863 161.389 65.5226 161.591 65.3013 161.851C65.0799 162.112 64.9009 162.424 64.7642 162.789C64.6274 163.153 64.5428 163.554 64.5103 163.99H69.6665ZM80.4478 169.654L80.4087 168.336C79.8748 168.863 79.3312 169.244 78.7778 169.478C78.231 169.713 77.6548 169.83 77.0493 169.83C76.4894 169.83 76.0109 169.758 75.6138 169.615C75.2166 169.472 74.8879 169.276 74.6274 169.029C74.3735 168.775 74.1847 168.479 74.061 168.14C73.9438 167.802 73.8853 167.434 73.8853 167.037C73.8853 166.054 74.2498 165.286 74.979 164.732C75.7147 164.172 76.7987 163.892 78.231 163.892H80.2622V163.033C80.2622 162.454 80.0767 161.991 79.7056 161.646C79.3345 161.295 78.7681 161.119 78.0063 161.119C77.453 161.119 76.9061 161.181 76.3657 161.304C75.8319 161.428 75.2785 161.604 74.7056 161.832V160.299C74.9204 160.22 75.158 160.146 75.4185 160.074C75.6854 159.996 75.9653 159.927 76.2583 159.869C76.5513 159.81 76.8573 159.765 77.1763 159.732C77.4953 159.693 77.8175 159.674 78.1431 159.674C78.7355 159.674 79.2694 159.739 79.7446 159.869C80.2199 159.999 80.6203 160.198 80.9458 160.465C81.2778 160.732 81.5317 161.067 81.7075 161.47C81.8833 161.874 81.9712 162.349 81.9712 162.896V169.654H80.4478ZM80.2622 165.191H78.104C77.6808 165.191 77.3162 165.233 77.0103 165.318C76.7043 165.403 76.4536 165.523 76.2583 165.679C76.063 165.836 75.9165 166.024 75.8188 166.246C75.7277 166.461 75.6821 166.705 75.6821 166.978C75.6821 167.167 75.7114 167.349 75.77 167.525C75.8286 167.694 75.923 167.847 76.0532 167.984C76.1834 168.114 76.3527 168.219 76.561 168.297C76.7694 168.375 77.0233 168.414 77.3228 168.414C77.7134 168.414 78.1593 168.297 78.6606 168.062C79.1685 167.821 79.7023 167.444 80.2622 166.929V165.191ZM85.145 159.849H86.6587L86.7271 161.431C87.0135 161.093 87.2902 160.813 87.5571 160.592C87.8241 160.364 88.0845 160.181 88.3384 160.045C88.5988 159.908 88.8625 159.814 89.1294 159.761C89.3963 159.703 89.673 159.674 89.9595 159.674C90.9686 159.674 91.7303 159.973 92.2446 160.572C92.7655 161.164 93.0259 162.06 93.0259 163.258V169.654H91.3267V163.394C91.3267 162.626 91.1834 162.06 90.897 161.695C90.6105 161.324 90.1841 161.138 89.6177 161.138C89.4093 161.138 89.2043 161.171 89.0024 161.236C88.8071 161.295 88.6021 161.402 88.3872 161.558C88.1724 161.708 87.938 161.913 87.6841 162.174C87.4367 162.434 87.1567 162.76 86.8442 163.15V169.654H85.145V159.849ZM99.481 161.256H96.5806V159.849H101.2V168.238H104.12V169.654H96.2583V168.238H99.481V161.256ZM100.077 155.738C100.265 155.738 100.441 155.774 100.604 155.845C100.767 155.911 100.907 156.005 101.024 156.129C101.148 156.252 101.242 156.396 101.307 156.558C101.379 156.715 101.415 156.887 101.415 157.076C101.415 157.258 101.379 157.431 101.307 157.594C101.242 157.756 101.148 157.899 101.024 158.023C100.907 158.147 100.767 158.245 100.604 158.316C100.441 158.381 100.265 158.414 100.077 158.414C99.8879 158.414 99.7121 158.381 99.5493 158.316C99.3866 158.245 99.2433 158.147 99.1196 158.023C99.0024 157.899 98.908 157.756 98.8364 157.594C98.7713 157.431 98.7388 157.258 98.7388 157.076C98.7388 156.887 98.7713 156.715 98.8364 156.558C98.908 156.396 99.0024 156.252 99.1196 156.129C99.2433 156.005 99.3866 155.911 99.5493 155.845C99.7121 155.774 99.8879 155.738 100.077 155.738ZM107.137 159.849H108.651L108.719 161.431C109.006 161.093 109.282 160.813 109.549 160.592C109.816 160.364 110.077 160.181 110.331 160.045C110.591 159.908 110.855 159.814 111.122 159.761C111.389 159.703 111.665 159.674 111.952 159.674C112.961 159.674 113.722 159.973 114.237 160.572C114.758 161.164 115.018 162.06 115.018 163.258V169.654H113.319V163.394C113.319 162.626 113.176 162.06 112.889 161.695C112.603 161.324 112.176 161.138 111.61 161.138C111.402 161.138 111.196 161.171 110.995 161.236C110.799 161.295 110.594 161.402 110.379 161.558C110.165 161.708 109.93 161.913 109.676 162.174C109.429 162.434 109.149 162.76 108.836 163.15V169.654H107.137V159.849ZM125.194 161.236C125.376 161.464 125.516 161.731 125.614 162.037C125.718 162.336 125.77 162.662 125.77 163.013C125.77 163.521 125.676 163.987 125.487 164.41C125.305 164.827 125.044 165.185 124.706 165.484C124.367 165.784 123.96 166.018 123.485 166.187C123.016 166.35 122.499 166.431 121.932 166.431C121.522 166.431 121.138 166.389 120.78 166.304C120.422 166.213 120.139 166.103 119.93 165.972C119.806 166.155 119.702 166.327 119.618 166.49C119.533 166.653 119.491 166.835 119.491 167.037C119.491 167.284 119.608 167.489 119.842 167.652C120.083 167.815 120.399 167.903 120.79 167.916L123.368 168.013C123.856 168.026 124.305 168.088 124.715 168.199C125.132 168.31 125.487 168.469 125.78 168.677C126.079 168.886 126.31 169.143 126.473 169.449C126.642 169.755 126.727 170.11 126.727 170.513C126.727 170.95 126.633 171.363 126.444 171.754C126.255 172.144 125.962 172.486 125.565 172.779C125.174 173.079 124.676 173.316 124.071 173.492C123.465 173.668 122.746 173.756 121.913 173.756C121.118 173.756 120.441 173.691 119.881 173.56C119.328 173.437 118.872 173.261 118.514 173.033C118.156 172.812 117.896 172.545 117.733 172.232C117.57 171.926 117.489 171.588 117.489 171.217C117.489 170.741 117.599 170.325 117.821 169.967C118.042 169.608 118.384 169.263 118.846 168.931C118.677 168.853 118.53 168.756 118.407 168.638C118.283 168.521 118.182 168.394 118.104 168.258C118.026 168.114 117.967 167.965 117.928 167.808C117.889 167.652 117.87 167.499 117.87 167.349C117.87 166.926 117.967 166.539 118.163 166.187C118.364 165.836 118.602 165.504 118.875 165.191C118.752 165.041 118.641 164.895 118.543 164.752C118.452 164.608 118.371 164.455 118.299 164.293C118.234 164.123 118.182 163.944 118.143 163.756C118.111 163.56 118.094 163.339 118.094 163.092C118.094 162.584 118.185 162.122 118.368 161.705C118.556 161.282 118.817 160.92 119.149 160.621C119.487 160.321 119.891 160.09 120.36 159.927C120.835 159.758 121.359 159.674 121.932 159.674C122.173 159.674 122.404 159.69 122.625 159.722C122.847 159.755 123.042 159.797 123.211 159.849H126.766V161.236H125.194ZM119.295 171.07C119.295 171.532 119.536 171.868 120.018 172.076C120.5 172.291 121.17 172.398 122.03 172.398C122.57 172.398 123.023 172.349 123.387 172.252C123.758 172.154 124.055 172.024 124.276 171.861C124.504 171.705 124.667 171.523 124.764 171.314C124.862 171.112 124.911 170.904 124.911 170.689C124.911 170.292 124.748 169.999 124.422 169.81C124.097 169.622 123.599 169.511 122.928 169.478L120.37 169.39C120.155 169.534 119.976 169.674 119.833 169.81C119.696 169.947 119.588 170.084 119.51 170.22C119.432 170.364 119.377 170.504 119.344 170.64C119.312 170.784 119.295 170.927 119.295 171.07ZM119.813 163.052C119.813 163.365 119.865 163.651 119.969 163.912C120.073 164.172 120.22 164.394 120.409 164.576C120.597 164.758 120.819 164.901 121.073 165.006C121.333 165.103 121.62 165.152 121.932 165.152C122.271 165.152 122.57 165.097 122.831 164.986C123.097 164.869 123.319 164.713 123.495 164.517C123.677 164.322 123.814 164.097 123.905 163.844C124.002 163.59 124.051 163.326 124.051 163.052C124.051 162.74 123.999 162.454 123.895 162.193C123.791 161.933 123.644 161.711 123.456 161.529C123.267 161.347 123.042 161.207 122.782 161.109C122.528 161.005 122.245 160.953 121.932 160.953C121.594 160.953 121.291 161.011 121.024 161.129C120.764 161.246 120.542 161.402 120.36 161.597C120.184 161.786 120.047 162.008 119.95 162.261C119.859 162.515 119.813 162.779 119.813 163.052ZM137.831 157.437C136.939 157.248 136.17 157.154 135.526 157.154C133.996 157.154 133.231 157.955 133.231 159.556V161.275H137.528V162.691H133.231V169.654H131.502V162.691H128.348V161.275H131.502V159.654C131.502 157.043 132.863 155.738 135.584 155.738C136.262 155.738 137.01 155.816 137.831 155.972V157.437ZM148.006 169.654H146.483L146.424 168.072C146.131 168.411 145.851 168.694 145.584 168.922C145.324 169.143 145.064 169.322 144.803 169.459C144.543 169.595 144.279 169.69 144.012 169.742C143.752 169.801 143.475 169.83 143.182 169.83C142.173 169.83 141.411 169.534 140.897 168.941C140.383 168.349 140.125 167.454 140.125 166.256V159.849H141.825V166.119C141.825 167.623 142.391 168.375 143.524 168.375C143.732 168.375 143.934 168.345 144.129 168.287C144.331 168.222 144.54 168.114 144.754 167.965C144.976 167.808 145.21 167.6 145.458 167.34C145.711 167.079 145.995 166.75 146.307 166.353V159.849H148.006V169.654ZM154.461 157.252H151.561V155.855H156.18V168.238H159.1V169.654H151.239V168.238H154.461V157.252Z" fill="black"/>
<path d="M78.0098 76.2714C78.0098 76.2714 74.8965 72.6239 74.8965 70.0448C74.8965 68.488 78.7012 60.746 84.2368 56.0347C89.0058 51.9757 95.8346 47.3961 99.8032 51.3647C104.473 56.0346 106.03 57.5914 106.03 57.5914M106.03 57.5914L116.927 68.4881C118.75 70.3118 112.524 76.5385 110.7 74.7148L98.2466 62.2614L79.5665 80.9415C79.5665 80.9415 79.7638 84.2521 81.1232 85.6115C82.4825 86.9708 85.7932 87.1681 85.7932 87.1681C85.7932 87.1681 86.134 90.6223 87.3499 91.8382C88.5657 93.054 92.0199 93.3948 92.0199 93.3948C92.0199 93.3948 92.2172 96.7055 93.5765 98.0648C94.9359 99.4242 98.2466 99.6215 98.2466 99.6215C98.2466 99.6215 98.4439 102.932 99.8032 104.292C101.163 105.651 104.473 105.848 104.473 105.848C104.473 105.848 124.71 84.054 137.163 71.6007C141.833 66.9307 129.38 56.0339 129.38 56.0339C129.38 56.0339 118.483 45.1377 113.813 49.8078C110.7 52.9211 106.03 57.5914 106.03 57.5914ZM91.1112 82.618L97.2883 76.441M96.5161 88.7951L102.693 82.618M103.465 94.9721L109.642 88.7951" stroke="#FFA51F" stroke-width="4" stroke-linecap="round"/>
</g>
<defs>
<filter id="filter0_d_28_202" x="0.000100613" y="0" width="212.177" height="215.177" filterUnits="userSpaceOnUse" color-interpolation-filters="sRGB">
<feFlood flood-opacity="0" result="BackgroundImageFix"/>
<feColorMatrix in="SourceAlpha" type="matrix" values="0 0 0 0 0 0 0 0 0 0 0 0 0 0 0 0 0 0 127 0" result="hardAlpha"/>
<feOffset dy="3.08852"/>
<feGaussianBlur stdDeviation="1.54426"/>
<feComposite in2="hardAlpha" operator="out"/>
<feColorMatrix type="matrix" values="0 0 0 0 0 0 0 0 0 0 0 0 0 0 0 0 0 0 0.25 0"/>
<feBlend mode="normal" in2="BackgroundImageFix" result="effect1_dropShadow_28_202"/>
<feBlend mode="normal" in="SourceGraphic" in2="effect1_dropShadow_28_202" result="shape"/>
</filter>
</defs>
</svg>
