<svg width="213" height="216" viewBox="0 0 213 216" fill="none" xmlns="http://www.w3.org/2000/svg">
<g filter="url(#filter0_d_31_72)">
<rect x="3.06445" width="206" height="209" rx="19.1531" fill="white"/>
<path d="M89.1338 157.179H85.3545V168.458H83.5967V157.179H79.8174V155.694H89.1338V157.179ZM91.9365 158.653H93.4893L93.5381 160.46C94.1175 159.763 94.6872 159.259 95.2471 158.946C95.8135 158.634 96.3831 158.478 96.9561 158.478C97.9717 158.478 98.7399 158.806 99.2607 159.464C99.7881 160.121 100.032 161.098 99.9932 162.394H98.2744C98.2939 161.534 98.167 160.912 97.8936 160.528C97.6266 160.138 97.2327 159.942 96.7119 159.942C96.484 159.942 96.2529 159.985 96.0186 160.069C95.7907 160.147 95.5531 160.278 95.3057 160.46C95.0648 160.636 94.8076 160.864 94.5342 161.144C94.2607 161.424 93.9678 161.762 93.6553 162.159V168.458H91.9365V158.653ZM105.872 160.06H102.972V158.653H107.591V167.042H110.511V168.458H102.649V167.042H105.872V160.06ZM106.468 154.542C106.657 154.542 106.832 154.578 106.995 154.649C107.158 154.715 107.298 154.809 107.415 154.933C107.539 155.056 107.633 155.2 107.698 155.362C107.77 155.519 107.806 155.691 107.806 155.88C107.806 156.062 107.77 156.235 107.698 156.397C107.633 156.56 107.539 156.703 107.415 156.827C107.298 156.951 107.158 157.049 106.995 157.12C106.832 157.185 106.657 157.218 106.468 157.218C106.279 157.218 106.103 157.185 105.94 157.12C105.778 157.049 105.634 156.951 105.511 156.827C105.394 156.703 105.299 156.56 105.228 156.397C105.162 156.235 105.13 156.062 105.13 155.88C105.13 155.691 105.162 155.519 105.228 155.362C105.299 155.2 105.394 155.056 105.511 154.933C105.634 154.809 105.778 154.715 105.94 154.649C106.103 154.578 106.279 154.542 106.468 154.542ZM121.907 163.38C121.907 164.194 121.793 164.923 121.565 165.567C121.344 166.205 121.025 166.749 120.608 167.198C120.198 167.641 119.697 167.983 119.104 168.224C118.512 168.458 117.845 168.575 117.103 168.575C116.523 168.575 115.931 168.52 115.325 168.409C114.72 168.299 114.121 168.123 113.528 167.882V154.659H115.228V158.458L115.149 160.274C115.638 159.617 116.159 159.155 116.712 158.888C117.272 158.614 117.871 158.478 118.509 158.478C119.069 158.478 119.56 158.595 119.983 158.829C120.407 159.063 120.761 159.396 121.048 159.825C121.334 160.248 121.549 160.763 121.692 161.368C121.836 161.967 121.907 162.638 121.907 163.38ZM120.169 163.458C120.169 162.944 120.13 162.472 120.052 162.042C119.98 161.612 119.863 161.244 119.7 160.938C119.537 160.632 119.329 160.395 119.075 160.226C118.821 160.05 118.519 159.962 118.167 159.962C117.952 159.962 117.734 159.998 117.513 160.069C117.291 160.134 117.06 160.248 116.819 160.411C116.585 160.567 116.334 160.779 116.067 161.046C115.807 161.306 115.527 161.632 115.228 162.022V166.778C115.56 166.909 115.898 167.013 116.243 167.091C116.588 167.162 116.917 167.198 117.229 167.198C117.62 167.198 117.991 167.136 118.343 167.013C118.701 166.889 119.013 166.684 119.28 166.397C119.554 166.104 119.769 165.72 119.925 165.245C120.088 164.763 120.169 164.168 120.169 163.458ZM132.806 163.038C132.806 163.279 132.802 163.481 132.796 163.644C132.789 163.806 132.78 163.959 132.767 164.103H125.882C125.882 165.105 126.162 165.877 126.722 166.417C127.282 166.951 128.089 167.218 129.144 167.218C129.43 167.218 129.716 167.208 130.003 167.188C130.289 167.162 130.566 167.13 130.833 167.091C131.1 167.052 131.354 167.009 131.595 166.964C131.842 166.912 132.07 166.856 132.278 166.798V168.194C131.816 168.325 131.292 168.429 130.706 168.507C130.127 168.591 129.524 168.634 128.899 168.634C128.06 168.634 127.337 168.52 126.731 168.292C126.126 168.064 125.628 167.735 125.237 167.306C124.853 166.869 124.567 166.339 124.378 165.714C124.196 165.082 124.104 164.369 124.104 163.575C124.104 162.885 124.202 162.234 124.397 161.622C124.599 161.004 124.889 160.463 125.267 160.001C125.651 159.532 126.119 159.161 126.673 158.888C127.226 158.614 127.854 158.478 128.558 158.478C129.241 158.478 129.847 158.585 130.374 158.8C130.901 159.015 131.344 159.321 131.702 159.718C132.067 160.108 132.34 160.587 132.522 161.153C132.711 161.713 132.806 162.341 132.806 163.038ZM131.038 162.794C131.058 162.358 131.015 161.961 130.911 161.603C130.807 161.238 130.644 160.925 130.423 160.665C130.208 160.405 129.938 160.203 129.612 160.06C129.287 159.91 128.909 159.835 128.479 159.835C128.108 159.835 127.77 159.907 127.464 160.05C127.158 160.193 126.894 160.395 126.673 160.655C126.451 160.916 126.272 161.228 126.136 161.593C125.999 161.957 125.914 162.358 125.882 162.794H131.038Z" fill="#262626"/>
<g clip-path="url(#clip0_31_72)">
<path d="M105.978 67.7793C108.736 67.7793 111.381 68.875 113.331 70.8254C115.282 72.7758 116.378 75.421 116.378 78.1793C116.378 80.9375 115.282 83.5828 113.331 85.5332C111.381 87.4836 108.736 88.5793 105.978 88.5793C103.219 88.5793 100.574 87.4836 98.6236 85.5332C96.6733 83.5828 95.5775 80.9375 95.5775 78.1793C95.5775 75.421 96.6733 72.7758 98.6236 70.8254C100.574 68.875 103.219 67.7793 105.978 67.7793ZM83.5775 74.9793C84.5231 74.9793 85.4593 75.1655 86.3329 75.5274C87.2064 75.8892 88.0001 76.4195 88.6687 77.0881C89.3373 77.7567 89.8676 78.5504 90.2295 79.424C90.5913 80.2975 90.7775 81.2338 90.7775 82.1793C90.7775 83.1248 90.5913 84.0611 90.2295 84.9346C89.8676 85.8082 89.3373 86.6019 88.6687 87.2705C88.0001 87.939 87.2064 88.4694 86.3329 88.8312C85.4593 89.1931 84.5231 89.3793 83.5775 89.3793C82.632 89.3793 81.6958 89.1931 80.8222 88.8312C79.9487 88.4694 79.155 87.939 78.4864 87.2705C77.8178 86.6019 77.2874 85.8082 76.9256 84.9346C76.5638 84.0611 76.3775 83.1248 76.3775 82.1793C76.3775 81.2338 76.5638 80.2975 76.9256 79.424C77.2874 78.5504 77.8178 77.7567 78.4864 77.0881C79.155 76.4195 79.9487 75.8892 80.8222 75.5274C81.6958 75.1655 82.632 74.9793 83.5775 74.9793ZM73.9775 107.779C73.9775 100.709 79.7075 94.9793 86.7775 94.9793C88.0575 94.9793 89.2975 95.1693 90.4675 95.5193C87.1775 99.1993 85.1775 104.059 85.1775 109.379V110.979C85.1775 112.119 85.4175 113.199 85.8475 114.179H77.1775C75.4075 114.179 73.9775 112.749 73.9775 110.979V107.779ZM126.108 114.179C126.538 113.199 126.778 112.119 126.778 110.979V109.379C126.778 104.059 124.778 99.1993 121.488 95.5193C122.658 95.1693 123.898 94.9793 125.178 94.9793C132.248 94.9793 137.978 100.709 137.978 107.779V110.979C137.978 112.749 136.548 114.179 134.778 114.179H126.108ZM121.178 82.1793C121.178 80.2697 121.936 78.4384 123.286 77.0881C124.637 75.7379 126.468 74.9793 128.378 74.9793C130.287 74.9793 132.118 75.7379 133.469 77.0881C134.819 78.4384 135.578 80.2697 135.578 82.1793C135.578 84.0889 134.819 85.9202 133.469 87.2705C132.118 88.6207 130.287 89.3793 128.378 89.3793C126.468 89.3793 124.637 88.6207 123.286 87.2705C121.936 85.9202 121.178 84.0889 121.178 82.1793ZM89.9775 109.379C89.9775 100.539 97.1375 93.3793 105.978 93.3793C114.818 93.3793 121.978 100.539 121.978 109.379V110.979C121.978 112.749 120.548 114.179 118.778 114.179H93.1775C91.4075 114.179 89.9775 112.749 89.9775 110.979V109.379Z" fill="#FFA51F"/>
</g>
</g>
<defs>
<filter id="filter0_d_31_72" x="-3.57628e-05" y="0" width="212.129" height="215.129" filterUnits="userSpaceOnUse" color-interpolation-filters="sRGB">
<feFlood flood-opacity="0" result="BackgroundImageFix"/>
<feColorMatrix in="SourceAlpha" type="matrix" values="0 0 0 0 0 0 0 0 0 0 0 0 0 0 0 0 0 0 127 0" result="hardAlpha"/>
<feOffset dy="3.06449"/>
<feGaussianBlur stdDeviation="1.53224"/>
<feComposite in2="hardAlpha" operator="out"/>
<feColorMatrix type="matrix" values="0 0 0 0 0 0 0 0 0 0 0 0 0 0 0 0 0 0 0.25 0"/>
<feBlend mode="normal" in2="BackgroundImageFix" result="effect1_dropShadow_31_72"/>
<feBlend mode="normal" in="SourceGraphic" in2="effect1_dropShadow_31_72" result="shape"/>
</filter>
<clipPath id="clip0_31_72">
<rect width="64" height="51.2" fill="white" transform="translate(73.9775 66.1792)"/>
</clipPath>
</defs>
</svg>
