<svg width="209" height="452" viewBox="0 0 209 452" fill="none" xmlns="http://www.w3.org/2000/svg">
<rect x="0.473853" y="0.473853" width="207.894" height="451.007" rx="21.0683" fill="white"/>
<rect x="0.473853" y="0.473853" width="207.894" height="451.007" rx="21.0683" stroke="black" stroke-width="0.947705"/>
<path d="M20.7774 36.1682H21.7305V39.3276H25.7574V36.1682H26.7106V43.665H25.7574V40.2272H21.7305V43.665H20.7774V36.1682ZM30.8807 38.3423C31.2734 38.3423 31.634 38.4137 31.9624 38.5565C32.298 38.6993 32.5872 38.8956 32.8299 39.1455C33.0727 39.3883 33.2619 39.6738 33.3975 40.0023C33.5332 40.3307 33.601 40.6841 33.601 41.0626C33.601 41.441 33.5332 41.7944 33.3975 42.1228C33.2619 42.4513 33.0727 42.7404 32.8299 42.9903C32.5872 43.2331 32.298 43.4259 31.9624 43.5687C31.634 43.7114 31.2734 43.7828 30.8807 43.7828C30.488 43.7828 30.1239 43.7114 29.7883 43.5687C29.4599 43.4259 29.1743 43.2331 28.9316 42.9903C28.6888 42.7404 28.4996 42.4513 28.3639 42.1228C28.2283 41.7944 28.1604 41.441 28.1604 41.0626C28.1604 40.6841 28.2283 40.3307 28.3639 40.0023C28.4996 39.6738 28.6888 39.3883 28.9316 39.1455C29.1743 38.8956 29.4599 38.6993 29.7883 38.5565C30.1239 38.4137 30.488 38.3423 30.8807 38.3423ZM30.8807 39.1883C30.6237 39.1883 30.3845 39.2383 30.1632 39.3383C29.949 39.4311 29.7598 39.5632 29.5956 39.7345C29.4385 39.9059 29.3135 40.1058 29.2207 40.3343C29.135 40.5628 29.0922 40.8055 29.0922 41.0626C29.0922 41.3196 29.135 41.5623 29.2207 41.7908C29.3135 42.0193 29.4385 42.2192 29.5956 42.3906C29.7598 42.5619 29.949 42.6976 30.1632 42.7975C30.3845 42.8904 30.6237 42.9368 30.8807 42.9368C31.1378 42.9368 31.3734 42.8904 31.5876 42.7975C31.8089 42.6976 31.9981 42.5619 32.1552 42.3906C32.3194 42.2192 32.4444 42.0193 32.5301 41.7908C32.6229 41.5623 32.6693 41.3196 32.6693 41.0626C32.6693 40.8055 32.6229 40.5628 32.5301 40.3343C32.4444 40.1058 32.3194 39.9059 32.1552 39.7345C31.9981 39.5632 31.8089 39.4311 31.5876 39.3383C31.3734 39.2383 31.1378 39.1883 30.8807 39.1883ZM39.702 43.665L38.3311 39.8095L36.9602 43.665H36.2534L34.3149 38.4601H35.2681L36.6282 42.3584L38.0098 38.4601H38.6738L40.0554 42.3584L41.4155 38.4601H42.3473L40.4088 43.665H39.702ZM46.9853 43.665H46.0643V38.4601H46.9746V39.2098C47.1174 38.9384 47.3173 38.7278 47.5743 38.5779C47.8314 38.4208 48.142 38.3423 48.5061 38.3423C48.8916 38.3423 49.2201 38.4315 49.4914 38.61C49.7699 38.7885 49.9876 39.0384 50.1447 39.3597C50.209 39.2526 50.2911 39.1384 50.391 39.017C50.491 38.8956 50.6124 38.7849 50.7552 38.685C50.9051 38.585 51.0729 38.5029 51.2585 38.4386C51.4513 38.3744 51.6726 38.3423 51.9225 38.3423C52.5294 38.3423 53.0006 38.5386 53.3362 38.9313C53.6718 39.324 53.8396 39.8559 53.8396 40.5271V43.665H52.9185V40.6877C52.9185 40.2236 52.8186 39.8595 52.6187 39.5953C52.4259 39.324 52.1332 39.1883 51.7405 39.1883C51.3335 39.1883 51.0086 39.3454 50.7659 39.6596C50.5302 39.9737 50.4124 40.3985 50.4124 40.934V43.665H49.4914V40.7091C49.4914 40.2379 49.3914 39.8666 49.1915 39.5953C48.9916 39.324 48.6989 39.1883 48.3133 39.1883C47.9063 39.1883 47.5815 39.3454 47.3387 39.6596C47.1031 39.9737 46.9853 40.3985 46.9853 40.934V43.665ZM59.1292 38.4601H60.0503V43.665H59.1292V42.9154C58.965 43.1724 58.7472 43.383 58.4759 43.5472C58.2046 43.7043 57.8726 43.7828 57.4799 43.7828C56.8159 43.7828 56.3018 43.5794 55.9377 43.1724C55.5807 42.7583 55.4022 42.2049 55.4022 41.5124V38.4601H56.3233V41.4053C56.3233 41.8765 56.4375 42.2478 56.666 42.5191C56.8944 42.7904 57.23 42.9261 57.6727 42.9261C58.1154 42.9261 58.4688 42.769 58.733 42.4548C58.9971 42.1407 59.1292 41.7159 59.1292 41.1804V38.4601ZM61.3881 41.0626C61.3881 40.6841 61.4523 40.3307 61.5809 40.0023C61.7165 39.6667 61.9057 39.3775 62.1485 39.1348C62.3912 38.8849 62.6768 38.6921 63.0053 38.5565C63.3408 38.4137 63.7085 38.3423 64.1084 38.3423C64.651 38.3423 65.1437 38.4922 65.5863 38.7921V39.7238C65.1294 39.374 64.651 39.199 64.1512 39.199C63.887 39.199 63.6407 39.249 63.4122 39.349C63.1909 39.4418 62.9981 39.5739 62.8339 39.7452C62.6768 39.9095 62.5519 40.1058 62.4591 40.3343C62.3662 40.5556 62.3198 40.7984 62.3198 41.0626C62.3198 41.3196 62.3662 41.5623 62.4591 41.7908C62.5519 42.0193 62.6768 42.2192 62.8339 42.3906C62.9981 42.5548 63.1909 42.6869 63.4122 42.7868C63.6407 42.8797 63.887 42.9261 64.1512 42.9261C64.4225 42.9261 64.6831 42.8761 64.933 42.7761C65.1829 42.669 65.4114 42.5476 65.6185 42.412V43.3437C65.39 43.4865 65.1508 43.5936 64.9009 43.665C64.651 43.7436 64.3904 43.7828 64.1191 43.7828C63.7121 43.7828 63.3408 43.715 63.0053 43.5794C62.6697 43.4366 62.3805 43.2438 62.1378 43.001C61.9022 42.7511 61.7165 42.462 61.5809 42.1335C61.4523 41.8051 61.3881 41.4481 61.3881 41.0626ZM67.8506 43.665H66.9296V36.1682H67.8506V39.2098C68.0148 38.9527 68.2326 38.7457 68.5039 38.5886C68.7824 38.4244 69.118 38.3423 69.5106 38.3423C70.1818 38.3423 70.6994 38.5493 71.0636 38.9634C71.4277 39.3704 71.6098 39.9202 71.6098 40.6127V43.665H70.6887V40.7198C70.6887 40.2486 70.5709 39.8773 70.3353 39.606C70.1068 39.3347 69.7677 39.199 69.3179 39.199C68.8681 39.199 68.5111 39.3561 68.2469 39.6703C67.9827 39.9844 67.8506 40.4093 67.8506 40.9447V43.665ZM76.9536 36.9179C76.9536 37.0892 76.8929 37.2356 76.7715 37.357C76.6501 37.4783 76.5037 37.539 76.3324 37.539C76.161 37.539 76.0147 37.4783 75.8933 37.357C75.7719 37.2356 75.7112 37.0892 75.7112 36.9179C75.7112 36.7465 75.7719 36.6001 75.8933 36.4787C76.0147 36.3574 76.161 36.2967 76.3324 36.2967C76.5037 36.2967 76.6501 36.3574 76.7715 36.4787C76.8929 36.6001 76.9536 36.7465 76.9536 36.9179ZM76.7929 38.4601V43.665H75.8719V38.4601H76.7929ZM79.4285 43.665H78.5075V38.4601H79.4285V39.2098C79.5927 38.9527 79.8105 38.7457 80.0818 38.5886C80.3603 38.4244 80.6959 38.3423 81.0885 38.3423C81.7597 38.3423 82.2773 38.5493 82.6415 38.9634C83.0056 39.3704 83.1877 39.9202 83.1877 40.6127V43.665H82.2666V40.7198C82.2666 40.2486 82.1488 39.8773 81.9132 39.606C81.6847 39.3347 81.3456 39.199 80.8958 39.199C80.446 39.199 80.089 39.3561 79.8248 39.6703C79.5606 39.9844 79.4285 40.4093 79.4285 40.9447V43.665ZM86.3347 43.665L84.1606 38.4601H85.1459L86.7202 42.4013L88.2946 38.4601H89.2585L87.0844 43.665H86.3347ZM92.5862 43.7828C92.2007 43.7828 91.8437 43.715 91.5152 43.5794C91.1939 43.4437 90.9155 43.2581 90.6799 43.0224C90.4442 42.7797 90.2586 42.4941 90.123 42.1657C89.9944 41.8301 89.9302 41.4624 89.9302 41.0626C89.9302 40.677 89.9944 40.32 90.123 39.9916C90.2586 39.656 90.4407 39.3668 90.6692 39.1241C90.9048 38.8813 91.1797 38.6921 91.4938 38.5565C91.808 38.4137 92.1507 38.3423 92.522 38.3423C92.8861 38.3423 93.2217 38.4137 93.5287 38.5565C93.8428 38.6921 94.1106 38.8813 94.3319 39.1241C94.5604 39.3668 94.7353 39.6524 94.8567 39.9809C94.9852 40.3022 95.0495 40.6484 95.0495 41.0197C95.0495 41.0768 95.0459 41.1268 95.0388 41.1697C95.0388 41.2053 95.0388 41.2375 95.0388 41.266V41.3517H90.8512C90.8655 41.5802 90.9226 41.7944 91.0226 41.9943C91.1225 42.1871 91.2511 42.3549 91.4081 42.4977C91.5652 42.6405 91.7437 42.7547 91.9436 42.8404C92.1507 42.9189 92.3684 42.9582 92.5969 42.9582C92.9896 42.9582 93.2966 42.8761 93.518 42.7119C93.7464 42.5405 93.9428 42.3263 94.107 42.0693L94.8567 42.4548C94.6425 42.8475 94.3426 43.1688 93.9571 43.4187C93.5715 43.6615 93.1146 43.7828 92.5862 43.7828ZM94.1177 40.5913C94.0963 40.3843 94.0392 40.1951 93.9464 40.0237C93.8535 39.8452 93.7357 39.6917 93.5929 39.5632C93.4501 39.4347 93.2859 39.3347 93.1003 39.2633C92.9146 39.1848 92.7147 39.1455 92.5005 39.1455C92.2863 39.1455 92.0864 39.1883 91.9008 39.274C91.7151 39.3597 91.5474 39.4704 91.3974 39.606C91.2546 39.7417 91.1368 39.8952 91.044 40.0665C90.9512 40.2379 90.8941 40.4128 90.8726 40.5913H94.1177ZM96.6611 42.0586C96.7396 42.337 96.8824 42.5619 97.0894 42.7333C97.3036 42.8975 97.5464 42.9796 97.8177 42.9796C98.039 42.9796 98.239 42.9154 98.4175 42.7868C98.596 42.6583 98.6852 42.4798 98.6852 42.2513C98.6852 41.9158 98.4389 41.6659 97.9462 41.5017L97.3679 41.3089C96.8967 41.1518 96.554 40.9519 96.3398 40.7091C96.1327 40.4592 96.0292 40.1665 96.0292 39.8309C96.0292 39.6096 96.072 39.4097 96.1577 39.2312C96.2434 39.0455 96.3612 38.8885 96.5111 38.7599C96.6611 38.6243 96.8395 38.5208 97.0466 38.4494C97.2537 38.378 97.4786 38.3423 97.7213 38.3423C98.1497 38.3423 98.5174 38.4565 98.8244 38.685C99.1315 38.9063 99.3564 39.2133 99.4992 39.606L98.6959 39.9273C98.6031 39.6774 98.471 39.4846 98.2997 39.349C98.1283 39.2062 97.9284 39.1348 97.6999 39.1348C97.4857 39.1348 97.3036 39.1955 97.1537 39.3169C97.0109 39.4311 96.9395 39.581 96.9395 39.7667C96.9395 40.0737 97.193 40.3164 97.6999 40.4949L98.2354 40.677C98.7066 40.8412 99.0493 41.0518 99.2635 41.3089C99.4849 41.5588 99.5955 41.8551 99.5955 42.1978C99.5955 42.4263 99.5491 42.6405 99.4563 42.8404C99.3635 43.0332 99.235 43.2009 99.0708 43.3437C98.9137 43.4794 98.7245 43.5865 98.5031 43.665C98.2889 43.7436 98.0533 43.7828 97.7963 43.7828C97.3108 43.7828 96.8931 43.6543 96.5432 43.3973C96.2005 43.1403 95.9685 42.7975 95.8471 42.3692L96.6611 42.0586ZM101.962 36.8964V38.4601H103.418V39.2847H101.962V42.0371C101.962 42.3442 102.029 42.5691 102.165 42.7119C102.308 42.8547 102.529 42.9261 102.829 42.9261C102.929 42.9261 103.033 42.9154 103.14 42.8939C103.247 42.8654 103.34 42.8225 103.418 42.7654V43.6222C103.325 43.6722 103.211 43.7114 103.075 43.74C102.947 43.7686 102.793 43.7828 102.615 43.7828C102.122 43.7828 101.737 43.64 101.458 43.3545C101.18 43.0689 101.041 42.6726 101.041 42.1657V39.2847H100.237V38.4601H101.041V36.8964H101.962ZM105.726 36.9179C105.726 37.0892 105.665 37.2356 105.544 37.357C105.422 37.4783 105.276 37.539 105.105 37.539C104.933 37.539 104.787 37.4783 104.665 37.357C104.544 37.2356 104.483 37.0892 104.483 36.9179C104.483 36.7465 104.544 36.6001 104.665 36.4787C104.787 36.3574 104.933 36.2967 105.105 36.2967C105.276 36.2967 105.422 36.3574 105.544 36.4787C105.665 36.6001 105.726 36.7465 105.726 36.9179ZM105.565 38.4601V43.665H104.644V38.4601H105.565ZM108.201 43.665H107.28V38.4601H108.201V39.2098C108.365 38.9527 108.583 38.7457 108.854 38.5886C109.132 38.4244 109.468 38.3423 109.861 38.3423C110.532 38.3423 111.05 38.5493 111.414 38.9634C111.778 39.3704 111.96 39.9202 111.96 40.6127V43.665H111.039V40.7198C111.039 40.2486 110.921 39.8773 110.685 39.606C110.457 39.3347 110.118 39.199 109.668 39.199C109.218 39.199 108.861 39.3561 108.597 39.6703C108.333 39.9844 108.201 40.4093 108.201 40.9447V43.665ZM117.559 42.669C117.374 42.9546 117.12 43.1831 116.799 43.3545C116.478 43.5258 116.131 43.6115 115.76 43.6115C115.403 43.6115 115.071 43.5472 114.764 43.4187C114.457 43.2831 114.189 43.0974 113.961 42.8618C113.732 42.6262 113.55 42.3477 113.415 42.0264C113.286 41.7051 113.222 41.3589 113.222 40.9876C113.222 40.6163 113.286 40.27 113.415 39.9487C113.55 39.6274 113.732 39.349 113.961 39.1134C114.189 38.8706 114.457 38.6814 114.764 38.5457C115.071 38.4101 115.403 38.3423 115.76 38.3423C116.131 38.3423 116.478 38.4208 116.799 38.5779C117.12 38.735 117.374 38.9563 117.559 39.2419V38.4601H118.47V43.3652C118.47 43.7721 118.409 44.1363 118.288 44.4576C118.166 44.786 117.991 45.0645 117.763 45.2929C117.542 45.5285 117.27 45.707 116.949 45.8284C116.635 45.9569 116.281 46.0212 115.889 46.0212C115.346 46.0212 114.864 45.9034 114.443 45.6678C114.022 45.4393 113.69 45.1073 113.447 44.6718L114.175 44.1577C114.361 44.4933 114.6 44.7467 114.893 44.9181C115.193 45.0966 115.525 45.1858 115.889 45.1858C116.403 45.1858 116.81 45.0252 117.11 44.7039C117.409 44.3826 117.559 43.9435 117.559 43.3866V42.669ZM117.613 40.9876C117.613 40.7377 117.567 40.5021 117.474 40.2807C117.388 40.0594 117.267 39.8702 117.11 39.7131C116.96 39.5489 116.778 39.4204 116.563 39.3276C116.349 39.2347 116.121 39.1883 115.878 39.1883C115.628 39.1883 115.4 39.2347 115.193 39.3276C114.985 39.4204 114.803 39.5489 114.646 39.7131C114.489 39.8702 114.368 40.0594 114.282 40.2807C114.197 40.5021 114.154 40.7377 114.154 40.9876C114.154 41.2375 114.197 41.4731 114.282 41.6944C114.368 41.9158 114.489 42.1085 114.646 42.2728C114.803 42.4298 114.985 42.5548 115.193 42.6476C115.4 42.7404 115.628 42.7868 115.878 42.7868C116.121 42.7868 116.349 42.7404 116.563 42.6476C116.778 42.5548 116.96 42.4298 117.11 42.2728C117.267 42.1085 117.388 41.9158 117.474 41.6944C117.567 41.4731 117.613 41.2375 117.613 40.9876ZM123.732 43.665H122.811V36.1682H123.732V39.2098C123.896 38.9527 124.114 38.7457 124.385 38.5886C124.664 38.4244 124.999 38.3423 125.392 38.3423C126.063 38.3423 126.581 38.5493 126.945 38.9634C127.309 39.3704 127.491 39.9202 127.491 40.6127V43.665H126.57V40.7198C126.57 40.2486 126.452 39.8773 126.217 39.606C125.988 39.3347 125.649 39.199 125.199 39.199C124.749 39.199 124.392 39.3561 124.128 39.6703C123.864 39.9844 123.732 40.4093 123.732 40.9447V43.665ZM134.119 38.4601V43.665H133.209V42.8297C133.023 43.1224 132.766 43.3545 132.437 43.5258C132.109 43.6972 131.752 43.7828 131.366 43.7828C130.995 43.7828 130.649 43.715 130.328 43.5794C130.013 43.4366 129.739 43.2438 129.503 43.001C129.267 42.7583 129.082 42.4727 128.946 42.1442C128.818 41.8087 128.753 41.4481 128.753 41.0626C128.753 40.677 128.818 40.32 128.946 39.9916C129.082 39.6631 129.267 39.3775 129.503 39.1348C129.739 38.8849 130.013 38.6921 130.328 38.5565C130.649 38.4137 130.995 38.3423 131.366 38.3423C131.752 38.3423 132.105 38.4208 132.427 38.5779C132.755 38.735 133.016 38.9599 133.209 39.2526V38.4601H134.119ZM133.262 41.0626C133.262 40.7984 133.216 40.5521 133.123 40.3236C133.037 40.0951 132.912 39.8988 132.748 39.7345C132.591 39.5632 132.402 39.4311 132.18 39.3383C131.966 39.2383 131.731 39.1883 131.474 39.1883C131.217 39.1883 130.977 39.2383 130.756 39.3383C130.542 39.4311 130.353 39.5632 130.188 39.7345C130.031 39.8988 129.906 40.0951 129.814 40.3236C129.728 40.5521 129.685 40.7984 129.685 41.0626C129.685 41.3267 129.728 41.5731 129.814 41.8015C129.906 42.03 130.031 42.2299 130.188 42.4013C130.353 42.5655 130.542 42.6976 130.756 42.7975C130.977 42.8904 131.217 42.9368 131.474 42.9368C131.731 42.9368 131.966 42.8904 132.18 42.7975C132.402 42.6976 132.591 42.5655 132.748 42.4013C132.912 42.2299 133.037 42.03 133.123 41.8015C133.216 41.5731 133.262 41.3267 133.262 41.0626ZM137.342 43.665L135.168 38.4601H136.154L137.728 42.4013L139.302 38.4601H140.266L138.092 43.665H137.342ZM143.594 43.7828C143.208 43.7828 142.851 43.715 142.523 43.5794C142.202 43.4437 141.923 43.2581 141.687 43.0224C141.452 42.7797 141.266 42.4941 141.131 42.1657C141.002 41.8301 140.938 41.4624 140.938 41.0626C140.938 40.677 141.002 40.32 141.131 39.9916C141.266 39.656 141.448 39.3668 141.677 39.1241C141.912 38.8813 142.187 38.6921 142.501 38.5565C142.816 38.4137 143.158 38.3423 143.53 38.3423C143.894 38.3423 144.229 38.4137 144.536 38.5565C144.85 38.6921 145.118 38.8813 145.34 39.1241C145.568 39.3668 145.743 39.6524 145.864 39.9809C145.993 40.3022 146.057 40.6484 146.057 41.0197C146.057 41.0768 146.054 41.1268 146.046 41.1697C146.046 41.2053 146.046 41.2375 146.046 41.266V41.3517H141.859C141.873 41.5802 141.93 41.7944 142.03 41.9943C142.13 42.1871 142.259 42.3549 142.416 42.4977C142.573 42.6405 142.751 42.7547 142.951 42.8404C143.158 42.9189 143.376 42.9582 143.605 42.9582C143.997 42.9582 144.304 42.8761 144.526 42.7119C144.754 42.5405 144.95 42.3263 145.115 42.0693L145.864 42.4548C145.65 42.8475 145.35 43.1688 144.965 43.4187C144.579 43.6615 144.122 43.7828 143.594 43.7828ZM145.125 40.5913C145.104 40.3843 145.047 40.1951 144.954 40.0237C144.861 39.8452 144.743 39.6917 144.601 39.5632C144.458 39.4347 144.294 39.3347 144.108 39.2633C143.922 39.1848 143.722 39.1455 143.508 39.1455C143.294 39.1455 143.094 39.1883 142.908 39.274C142.723 39.3597 142.555 39.4704 142.405 39.606C142.262 39.7417 142.144 39.8952 142.052 40.0665C141.959 40.2379 141.902 40.4128 141.88 40.5913H145.125ZM151.911 44.4576C151.675 45.0216 151.429 45.4214 151.172 45.6571C150.915 45.8998 150.59 46.0212 150.197 46.0212C149.983 46.0212 149.794 45.9855 149.63 45.9141V45.1002C149.687 45.1216 149.758 45.1394 149.844 45.1537C149.93 45.1751 150.023 45.1858 150.122 45.1858C150.33 45.1858 150.501 45.118 150.637 44.9823C150.779 44.8467 150.922 44.6111 151.065 44.2755L151.376 43.5258L149.309 38.4601H150.294L151.857 42.4762L153.464 38.4601H154.417L151.911 44.4576ZM157.809 38.3423C158.202 38.3423 158.562 38.4137 158.891 38.5565C159.226 38.6993 159.515 38.8956 159.758 39.1455C160.001 39.3883 160.19 39.6738 160.326 40.0023C160.461 40.3307 160.529 40.6841 160.529 41.0626C160.529 41.441 160.461 41.7944 160.326 42.1228C160.19 42.4513 160.001 42.7404 159.758 42.9903C159.515 43.2331 159.226 43.4259 158.891 43.5687C158.562 43.7114 158.202 43.7828 157.809 43.7828C157.416 43.7828 157.052 43.7114 156.716 43.5687C156.388 43.4259 156.102 43.2331 155.86 42.9903C155.617 42.7404 155.428 42.4513 155.292 42.1228C155.156 41.7944 155.089 41.441 155.089 41.0626C155.089 40.6841 155.156 40.3307 155.292 40.0023C155.428 39.6738 155.617 39.3883 155.86 39.1455C156.102 38.8956 156.388 38.6993 156.716 38.5565C157.052 38.4137 157.416 38.3423 157.809 38.3423ZM157.809 39.1883C157.552 39.1883 157.313 39.2383 157.091 39.3383C156.877 39.4311 156.688 39.5632 156.524 39.7345C156.367 39.9059 156.242 40.1058 156.149 40.3343C156.063 40.5628 156.02 40.8055 156.02 41.0626C156.02 41.3196 156.063 41.5623 156.149 41.7908C156.242 42.0193 156.367 42.2192 156.524 42.3906C156.688 42.5619 156.877 42.6976 157.091 42.7975C157.313 42.8904 157.552 42.9368 157.809 42.9368C158.066 42.9368 158.302 42.8904 158.516 42.7975C158.737 42.6976 158.926 42.5619 159.083 42.3906C159.248 42.2192 159.372 42.0193 159.458 41.7908C159.551 41.5623 159.597 41.3196 159.597 41.0626C159.597 40.8055 159.551 40.5628 159.458 40.3343C159.372 40.1058 159.248 39.9059 159.083 39.7345C158.926 39.5632 158.737 39.4311 158.516 39.3383C158.302 39.2383 158.066 39.1883 157.809 39.1883ZM165.516 38.4601H166.437V43.665H165.516V42.9154C165.352 43.1724 165.134 43.383 164.863 43.5472C164.592 43.7043 164.26 43.7828 163.867 43.7828C163.203 43.7828 162.689 43.5794 162.325 43.1724C161.968 42.7583 161.789 42.2049 161.789 41.5124V38.4601H162.71V41.4053C162.71 41.8765 162.825 42.2478 163.053 42.5191C163.281 42.7904 163.617 42.9261 164.06 42.9261C164.502 42.9261 164.856 42.769 165.12 42.4548C165.384 42.1407 165.516 41.7159 165.516 41.1804V38.4601ZM25.661 51.1682V58.665H24.7507V57.8404C24.5651 58.126 24.308 58.3545 23.9796 58.5258C23.6512 58.6972 23.2942 58.7828 22.9086 58.7828C22.5373 58.7828 22.1911 58.715 21.8698 58.5794C21.5556 58.4366 21.2807 58.2438 21.0451 58.001C20.8095 57.7583 20.6239 57.4727 20.4882 57.1442C20.3597 56.8087 20.2954 56.4481 20.2954 56.0626C20.2954 55.677 20.3597 55.32 20.4882 54.9916C20.6239 54.6631 20.8095 54.3775 21.0451 54.1348C21.2807 53.8849 21.5556 53.6921 21.8698 53.5565C22.1911 53.4137 22.5373 53.3423 22.9086 53.3423C23.2942 53.3423 23.6476 53.4208 23.9689 53.5779C24.2973 53.735 24.5579 53.9563 24.7507 54.2419V51.1682H25.661ZM24.8043 56.0626C24.8043 55.7984 24.7578 55.5521 24.665 55.3236C24.5793 55.0951 24.4544 54.8988 24.2902 54.7345C24.1331 54.5632 23.9439 54.4311 23.7226 54.3383C23.5084 54.2383 23.2727 54.1883 23.0157 54.1883C22.7587 54.1883 22.5195 54.2383 22.2982 54.3383C22.084 54.4311 21.8948 54.5632 21.7305 54.7345C21.5735 54.8988 21.4485 55.0951 21.3557 55.3236C21.27 55.5521 21.2272 55.7984 21.2272 56.0626C21.2272 56.3267 21.27 56.5731 21.3557 56.8015C21.4485 57.03 21.5735 57.2299 21.7305 57.4013C21.8948 57.5655 22.084 57.6976 22.2982 57.7975C22.5195 57.8904 22.7587 57.9368 23.0157 57.9368C23.2727 57.9368 23.5084 57.8904 23.7226 57.7975C23.9439 57.6976 24.1331 57.5655 24.2902 57.4013C24.4544 57.2299 24.5793 57.03 24.665 56.8015C24.7578 56.5731 24.8043 56.3267 24.8043 56.0626ZM29.7198 53.3423C30.1125 53.3423 30.4731 53.4137 30.8015 53.5565C31.1371 53.6993 31.4262 53.8956 31.669 54.1455C31.9118 54.3883 32.101 54.6738 32.2366 55.0023C32.3723 55.3307 32.4401 55.6841 32.4401 56.0626C32.4401 56.441 32.3723 56.7944 32.2366 57.1228C32.101 57.4513 31.9118 57.7404 31.669 57.9903C31.4262 58.2331 31.1371 58.4259 30.8015 58.5687C30.4731 58.7114 30.1125 58.7828 29.7198 58.7828C29.3271 58.7828 28.963 58.7114 28.6274 58.5687C28.299 58.4259 28.0134 58.2331 27.7706 57.9903C27.5279 57.7404 27.3387 57.4513 27.203 57.1228C27.0673 56.7944 26.9995 56.441 26.9995 56.0626C26.9995 55.6841 27.0673 55.3307 27.203 55.0023C27.3387 54.6738 27.5279 54.3883 27.7706 54.1455C28.0134 53.8956 28.299 53.6993 28.6274 53.5565C28.963 53.4137 29.3271 53.3423 29.7198 53.3423ZM29.7198 54.1883C29.4628 54.1883 29.2236 54.2383 29.0023 54.3383C28.7881 54.4311 28.5988 54.5632 28.4346 54.7345C28.2776 54.9059 28.1526 55.1058 28.0598 55.3343C27.9741 55.5628 27.9313 55.8055 27.9313 56.0626C27.9313 56.3196 27.9741 56.5623 28.0598 56.7908C28.1526 57.0193 28.2776 57.2192 28.4346 57.3906C28.5988 57.5619 28.7881 57.6976 29.0023 57.7975C29.2236 57.8904 29.4628 57.9368 29.7198 57.9368C29.9768 57.9368 30.2125 57.8904 30.4267 57.7975C30.648 57.6976 30.8372 57.5619 30.9943 57.3906C31.1585 57.2192 31.2834 57.0193 31.3691 56.7908C31.4619 56.5623 31.5084 56.3196 31.5084 56.0626C31.5084 55.8055 31.4619 55.5628 31.3691 55.3343C31.2834 55.1058 31.1585 54.9059 30.9943 54.7345C30.8372 54.5632 30.648 54.4311 30.4267 54.3383C30.2125 54.2383 29.9768 54.1883 29.7198 54.1883ZM34.6962 58.665H33.7752V53.4601H34.6962V54.2098C34.8604 53.9527 35.0782 53.7457 35.3495 53.5886C35.628 53.4244 35.9635 53.3423 36.3562 53.3423C37.0274 53.3423 37.545 53.5493 37.9091 53.9634C38.2733 54.3704 38.4553 54.9202 38.4553 55.6127V58.665H37.5343V55.7198C37.5343 55.2486 37.4165 54.8773 37.1809 54.606C36.9524 54.3347 36.6133 54.199 36.1634 54.199C35.7136 54.199 35.3566 54.3561 35.0925 54.6703C34.8283 54.9844 34.6962 55.4093 34.6962 55.9447V58.665ZM42.3735 58.7828C41.9879 58.7828 41.6309 58.715 41.3025 58.5794C40.9812 58.4437 40.7027 58.2581 40.4671 58.0224C40.2315 57.7797 40.0459 57.4941 39.9102 57.1657C39.7817 56.8301 39.7174 56.4624 39.7174 56.0626C39.7174 55.677 39.7817 55.32 39.9102 54.9916C40.0459 54.656 40.2279 54.3668 40.4564 54.1241C40.692 53.8813 40.9669 53.6921 41.2811 53.5565C41.5952 53.4137 41.9379 53.3423 42.3092 53.3423C42.6733 53.3423 43.0089 53.4137 43.3159 53.5565C43.6301 53.6921 43.8978 53.8813 44.1192 54.1241C44.3476 54.3668 44.5226 54.6524 44.6439 54.9809C44.7725 55.3022 44.8367 55.6484 44.8367 56.0197C44.8367 56.0768 44.8332 56.1268 44.826 56.1697C44.826 56.2053 44.826 56.2375 44.826 56.266V56.3517H40.6385C40.6528 56.5802 40.7099 56.7944 40.8098 56.9943C40.9098 57.1871 41.0383 57.3549 41.1954 57.4977C41.3525 57.6405 41.531 57.7547 41.7309 57.8404C41.9379 57.9189 42.1557 57.9582 42.3842 57.9582C42.7769 57.9582 43.0839 57.8761 43.3052 57.7119C43.5337 57.5405 43.73 57.3263 43.8943 57.0693L44.6439 57.4548C44.4298 57.8475 44.1299 58.1688 43.7443 58.4187C43.3588 58.6615 42.9018 58.7828 42.3735 58.7828ZM43.905 55.5913C43.8835 55.3843 43.8264 55.1951 43.7336 55.0237C43.6408 54.8452 43.523 54.6917 43.3802 54.5632C43.2374 54.4347 43.0732 54.3347 42.8875 54.2633C42.7019 54.1848 42.502 54.1455 42.2878 54.1455C42.0736 54.1455 41.8737 54.1883 41.688 54.274C41.5024 54.3597 41.3346 54.4704 41.1847 54.606C41.0419 54.7417 40.9241 54.8952 40.8313 55.0665C40.7384 55.2379 40.6813 55.4128 40.6599 55.5913H43.905ZM48.7522 58.665V51.1682H49.6625V54.2847C49.8481 53.9991 50.1052 53.7707 50.4336 53.5993C50.762 53.4279 51.119 53.3423 51.5046 53.3423C51.8759 53.3423 52.2186 53.4137 52.5327 53.5565C52.854 53.6921 53.1325 53.8813 53.3681 54.1241C53.6037 54.3668 53.7858 54.656 53.9143 54.9916C54.05 55.32 54.1178 55.677 54.1178 56.0626C54.1178 56.4481 54.05 56.8051 53.9143 57.1335C53.7858 57.462 53.6037 57.7511 53.3681 58.001C53.1325 58.2438 52.854 58.4366 52.5327 58.5794C52.2186 58.715 51.8759 58.7828 51.5046 58.7828C51.119 58.7828 50.762 58.7043 50.4336 58.5472C50.1123 58.3902 49.8553 58.1688 49.6625 57.8832V58.665H48.7522ZM53.186 56.0626C53.186 55.7984 53.1396 55.5521 53.0468 55.3236C52.9611 55.0951 52.8362 54.8988 52.672 54.7345C52.5149 54.5632 52.3257 54.4311 52.1043 54.3383C51.8901 54.2383 51.6545 54.1883 51.3975 54.1883C51.1405 54.1883 50.9013 54.2383 50.6799 54.3383C50.4657 54.4311 50.2765 54.5632 50.1123 54.7345C49.9552 54.8988 49.8303 55.0951 49.7375 55.3236C49.6518 55.5521 49.609 55.7984 49.609 56.0626C49.609 56.3267 49.6518 56.5731 49.7375 56.8015C49.8303 57.03 49.9552 57.2299 50.1123 57.4013C50.2765 57.5655 50.4657 57.6976 50.6799 57.7975C50.9013 57.8904 51.1405 57.9368 51.3975 57.9368C51.6545 57.9368 51.8901 57.8904 52.1043 57.7975C52.3257 57.6976 52.5149 57.5655 52.672 57.4013C52.8362 57.2299 52.9611 57.03 53.0468 56.8015C53.1396 56.5731 53.186 56.3267 53.186 56.0626ZM57.7375 58.7828C57.3519 58.7828 56.9949 58.715 56.6665 58.5794C56.3452 58.4437 56.0667 58.2581 55.8311 58.0224C55.5955 57.7797 55.4099 57.4941 55.2742 57.1657C55.1457 56.8301 55.0814 56.4624 55.0814 56.0626C55.0814 55.677 55.1457 55.32 55.2742 54.9916C55.4099 54.656 55.5919 54.3668 55.8204 54.1241C56.056 53.8813 56.3309 53.6921 56.6451 53.5565C56.9592 53.4137 57.3019 53.3423 57.6732 53.3423C58.0373 53.3423 58.3729 53.4137 58.6799 53.5565C58.9941 53.6921 59.2618 53.8813 59.4832 54.1241C59.7116 54.3668 59.8866 54.6524 60.0079 54.9809C60.1365 55.3022 60.2007 55.6484 60.2007 56.0197C60.2007 56.0768 60.1971 56.1268 60.19 56.1697C60.19 56.2053 60.19 56.2375 60.19 56.266V56.3517H56.0025C56.0167 56.5802 56.0739 56.7944 56.1738 56.9943C56.2738 57.1871 56.4023 57.3549 56.5594 57.4977C56.7165 57.6405 56.895 57.7547 57.0949 57.8404C57.3019 57.9189 57.5197 57.9582 57.7482 57.9582C58.1409 57.9582 58.4479 57.8761 58.6692 57.7119C58.8977 57.5405 59.094 57.3263 59.2583 57.0693L60.0079 57.4548C59.7937 57.8475 59.4939 58.1688 59.1083 58.4187C58.7228 58.6615 58.2658 58.7828 57.7375 58.7828ZM59.269 55.5913C59.2475 55.3843 59.1904 55.1951 59.0976 55.0237C59.0048 54.8452 58.887 54.6917 58.7442 54.5632C58.6014 54.4347 58.4372 54.3347 58.2515 54.2633C58.0659 54.1848 57.866 54.1455 57.6518 54.1455C57.4376 54.1455 57.2377 54.1883 57.052 54.274C56.8664 54.3597 56.6986 54.4704 56.5487 54.606C56.4059 54.7417 56.2881 54.8952 56.1952 55.0665C56.1024 55.2379 56.0453 55.4128 56.0239 55.5913H59.269ZM61.7266 58.665V54.2847H60.9234V53.4601H61.7266V53.0103C61.7266 52.6818 61.7695 52.3927 61.8551 52.1428C61.948 51.8929 62.0729 51.6894 62.23 51.5323C62.3942 51.3681 62.5834 51.2467 62.7976 51.1682C63.0189 51.0825 63.2581 51.0396 63.5152 51.0396C63.7008 51.0396 63.8579 51.0539 63.9864 51.0825C64.1149 51.1039 64.2184 51.1325 64.297 51.1682V51.9928C64.2184 51.9571 64.1256 51.9321 64.0185 51.9179C63.9186 51.8964 63.8007 51.8857 63.6651 51.8857C63.3724 51.8857 63.1296 51.9678 62.9368 52.132C62.744 52.2963 62.6477 52.5819 62.6477 52.9888V53.4601H64.1042V54.2847H62.6477V58.665H61.7266ZM67.5389 53.3423C67.9316 53.3423 68.2921 53.4137 68.6206 53.5565C68.9561 53.6993 69.2453 53.8956 69.4881 54.1455C69.7308 54.3883 69.92 54.6738 70.0557 55.0023C70.1913 55.3307 70.2592 55.6841 70.2592 56.0626C70.2592 56.441 70.1913 56.7944 70.0557 57.1228C69.92 57.4513 69.7308 57.7404 69.4881 57.9903C69.2453 58.2331 68.9561 58.4259 68.6206 58.5687C68.2921 58.7114 67.9316 58.7828 67.5389 58.7828C67.1462 58.7828 66.782 58.7114 66.4465 58.5687C66.118 58.4259 65.8324 58.2331 65.5897 57.9903C65.3469 57.7404 65.1577 57.4513 65.0221 57.1228C64.8864 56.7944 64.8186 56.441 64.8186 56.0626C64.8186 55.6841 64.8864 55.3307 65.0221 55.0023C65.1577 54.6738 65.3469 54.3883 65.5897 54.1455C65.8324 53.8956 66.118 53.6993 66.4465 53.5565C66.782 53.4137 67.1462 53.3423 67.5389 53.3423ZM67.5389 54.1883C67.2818 54.1883 67.0426 54.2383 66.8213 54.3383C66.6071 54.4311 66.4179 54.5632 66.2537 54.7345C66.0966 54.9059 65.9717 55.1058 65.8788 55.3343C65.7932 55.5628 65.7503 55.8055 65.7503 56.0626C65.7503 56.3196 65.7932 56.5623 65.8788 56.7908C65.9717 57.0193 66.0966 57.2192 66.2537 57.3906C66.4179 57.5619 66.6071 57.6976 66.8213 57.7975C67.0426 57.8904 67.2818 57.9368 67.5389 57.9368C67.7959 57.9368 68.0315 57.8904 68.2457 57.7975C68.4671 57.6976 68.6563 57.5619 68.8133 57.3906C68.9776 57.2192 69.1025 57.0193 69.1882 56.7908C69.281 56.5623 69.3274 56.3196 69.3274 56.0626C69.3274 55.8055 69.281 55.5628 69.1882 55.3343C69.1025 55.1058 68.9776 54.9059 68.8133 54.7345C68.6563 54.5632 68.4671 54.4311 68.2457 54.3383C68.0315 54.2383 67.7959 54.1883 67.5389 54.1883ZM74.3145 54.3169C74.3002 54.3169 74.2788 54.3133 74.2502 54.3061C74.2288 54.3061 74.2003 54.3061 74.1646 54.3061C74.1289 54.299 74.0932 54.2954 74.0575 54.2954C73.572 54.2954 73.19 54.4704 72.9115 54.8202C72.6402 55.1701 72.5045 55.627 72.5045 56.1911V58.665H71.5942V53.4601H72.4938V54.3811C72.551 54.2312 72.6331 54.0955 72.7402 53.9741C72.8544 53.8456 72.9829 53.7385 73.1257 53.6528C73.2685 53.5672 73.422 53.4993 73.5862 53.4494C73.7505 53.3994 73.9182 53.3744 74.0896 53.3744C74.1253 53.3744 74.1539 53.378 74.1753 53.3851C74.2038 53.3851 74.2288 53.3851 74.2502 53.3851C74.2788 53.3922 74.3002 53.3958 74.3145 53.3958V54.3169ZM77.7347 58.7828C77.3491 58.7828 76.9922 58.715 76.6637 58.5794C76.3424 58.4437 76.064 58.2581 75.8284 58.0224C75.5927 57.7797 75.4071 57.4941 75.2714 57.1657C75.1429 56.8301 75.0787 56.4624 75.0787 56.0626C75.0787 55.677 75.1429 55.32 75.2714 54.9916C75.4071 54.656 75.5892 54.3668 75.8176 54.1241C76.0533 53.8813 76.3281 53.6921 76.6423 53.5565C76.9565 53.4137 77.2992 53.3423 77.6704 53.3423C78.0346 53.3423 78.3702 53.4137 78.6772 53.5565C78.9913 53.6921 79.2591 53.8813 79.4804 54.1241C79.7089 54.3668 79.8838 54.6524 80.0052 54.9809C80.1337 55.3022 80.198 55.6484 80.198 56.0197C80.198 56.0768 80.1944 56.1268 80.1873 56.1697C80.1873 56.2053 80.1873 56.2375 80.1873 56.266V56.3517H75.9997C76.014 56.5802 76.0711 56.7944 76.1711 56.9943C76.271 57.1871 76.3995 57.3549 76.5566 57.4977C76.7137 57.6405 76.8922 57.7547 77.0921 57.8404C77.2992 57.9189 77.5169 57.9582 77.7454 57.9582C78.1381 57.9582 78.4451 57.8761 78.6665 57.7119C78.8949 57.5405 79.0913 57.3263 79.2555 57.0693L80.0052 57.4548C79.791 57.8475 79.4911 58.1688 79.1056 58.4187C78.72 58.6615 78.2631 58.7828 77.7347 58.7828ZM79.2662 55.5913C79.2448 55.3843 79.1877 55.1951 79.0949 55.0237C79.002 54.8452 78.8842 54.6917 78.7414 54.5632C78.5986 54.4347 78.4344 54.3347 78.2488 54.2633C78.0631 54.1848 77.8632 54.1455 77.649 54.1455C77.4348 54.1455 77.2349 54.1883 77.0493 54.274C76.8636 54.3597 76.6959 54.4704 76.5459 54.606C76.4031 54.7417 76.2853 54.8952 76.1925 55.0665C76.0997 55.2379 76.0426 55.4128 76.0211 55.5913H79.2662ZM85.8257 53.1281C85.8257 53.4708 85.7472 53.7885 85.5901 54.0812C85.4402 54.374 85.1938 54.6774 84.8511 54.9916C84.7583 55.0701 84.6584 55.1558 84.5513 55.2486C84.4513 55.3414 84.3549 55.4414 84.2621 55.5485C84.1764 55.6484 84.1014 55.7591 84.0372 55.8805C83.9801 55.9947 83.9515 56.1197 83.9515 56.2553V56.5552H82.9983V56.1804C82.9983 55.9233 83.084 55.6591 83.2554 55.3878C83.4267 55.1094 83.6802 54.8345 84.0158 54.5632C84.587 54.0991 84.8725 53.6386 84.8725 53.1816C84.8725 53.0103 84.8368 52.8496 84.7654 52.6997C84.7012 52.5426 84.6048 52.4105 84.4763 52.3034C84.3549 52.1892 84.2121 52.0999 84.0479 52.0357C83.8837 51.9714 83.7052 51.9393 83.5124 51.9393C83.3125 51.9393 83.1268 51.9785 82.9555 52.0571C82.7841 52.1285 82.6342 52.2284 82.5057 52.357C82.3843 52.4855 82.2843 52.639 82.2058 52.8175C82.1344 52.9888 82.0987 53.178 82.0987 53.3851H81.1669C81.1669 53.0495 81.2241 52.7389 81.3383 52.4533C81.4597 52.1677 81.6239 51.9214 81.831 51.7144C82.0452 51.5002 82.2951 51.336 82.5806 51.2217C82.8662 51.1003 83.1804 51.0396 83.5231 51.0396C83.8515 51.0396 84.155 51.0932 84.4334 51.2003C84.7119 51.3074 84.9547 51.4538 85.1617 51.6394C85.3688 51.825 85.5294 52.0464 85.6437 52.3034C85.765 52.5533 85.8257 52.8282 85.8257 53.1281ZM84.1764 58.1081C84.1764 58.2866 84.1122 58.4401 83.9836 58.5687C83.8623 58.6972 83.7087 58.7614 83.5231 58.7614C83.3375 58.7614 83.1804 58.7007 83.0519 58.5794C82.9305 58.4508 82.8698 58.2938 82.8698 58.1081C82.8698 57.9225 82.9305 57.769 83.0519 57.6476C83.1804 57.5262 83.3375 57.4655 83.5231 57.4655C83.7087 57.4655 83.8623 57.5298 83.9836 57.6583C84.1122 57.7797 84.1764 57.9296 84.1764 58.1081Z" fill="black"/>
<g filter="url(#filter0_d_556_1739)">
<rect x="36.9531" y="357.708" width="135.479" height="30.523" rx="6.23934" fill="#F1F1F1" shape-rendering="crispEdges"/>
<path d="M99.3093 367.869V376.865H98.2298L92.7678 369.604V376.865H91.6625V367.869H92.832L98.2041 375.04V367.869H99.3093ZM104.237 377.007C103.774 377.007 103.346 376.925 102.951 376.762C102.566 376.6 102.232 376.377 101.949 376.094C101.666 375.803 101.443 375.46 101.281 375.066C101.126 374.663 101.049 374.222 101.049 373.742C101.049 373.28 101.126 372.851 101.281 372.457C101.443 372.054 101.662 371.707 101.936 371.416C102.219 371.125 102.549 370.898 102.926 370.735C103.303 370.564 103.714 370.478 104.159 370.478C104.596 370.478 104.999 370.564 105.368 370.735C105.745 370.898 106.066 371.125 106.331 371.416C106.606 371.707 106.816 372.05 106.961 372.444C107.115 372.83 107.192 373.245 107.192 373.691C107.192 373.759 107.188 373.819 107.18 373.871C107.18 373.914 107.18 373.952 107.18 373.986V374.089H102.155C102.172 374.363 102.24 374.62 102.36 374.86C102.48 375.092 102.634 375.293 102.823 375.464C103.011 375.636 103.226 375.773 103.465 375.876C103.714 375.97 103.975 376.017 104.249 376.017C104.721 376.017 105.089 375.918 105.355 375.721C105.629 375.516 105.864 375.259 106.062 374.95L106.961 375.413C106.704 375.884 106.344 376.27 105.882 376.57C105.419 376.861 104.871 377.007 104.237 377.007ZM106.074 373.177C106.049 372.928 105.98 372.701 105.869 372.496C105.757 372.281 105.616 372.097 105.445 371.943C105.273 371.789 105.076 371.669 104.853 371.583C104.631 371.489 104.391 371.442 104.134 371.442C103.877 371.442 103.637 371.493 103.414 371.596C103.191 371.699 102.99 371.832 102.81 371.994C102.639 372.157 102.497 372.341 102.386 372.547C102.275 372.753 102.206 372.963 102.18 373.177H106.074ZM110.913 374.449L109.191 376.865H107.944L110.27 373.678L108.047 370.619H109.332L110.938 372.881L112.558 370.619H113.817L111.594 373.652L113.92 376.865H112.622L110.913 374.449ZM116.529 368.743V370.619H118.277V371.609H116.529V374.912C116.529 375.28 116.61 375.55 116.773 375.721C116.944 375.893 117.21 375.978 117.57 375.978C117.69 375.978 117.814 375.966 117.942 375.94C118.071 375.906 118.182 375.854 118.277 375.786V376.814C118.165 376.874 118.028 376.921 117.865 376.955C117.711 376.989 117.527 377.007 117.313 377.007C116.721 377.007 116.259 376.835 115.925 376.493C115.591 376.15 115.423 375.674 115.423 375.066V371.609H114.46V370.619H115.423V368.743H116.529Z" fill="black"/>
</g>
<g filter="url(#filter1_d_556_1739)">
<rect x="31.6016" y="94.7812" width="135.479" height="42.8393" rx="6.23934" fill="#F1F1F1" shape-rendering="crispEdges"/>
<path d="M53.8718 111.101V120.098H52.7923L47.3303 112.836V120.098H46.225V111.101H47.3945L52.7666 118.273V111.101H53.8718ZM58.8762 113.71C59.3474 113.71 59.7801 113.796 60.1742 113.967C60.5769 114.139 60.9239 114.374 61.2152 114.674C61.5065 114.966 61.7336 115.308 61.8964 115.702C62.0592 116.096 62.1406 116.521 62.1406 116.975C62.1406 117.429 62.0592 117.853 61.8964 118.247C61.7336 118.641 61.5065 118.988 61.2152 119.288C60.9239 119.579 60.5769 119.811 60.1742 119.982C59.7801 120.153 59.3474 120.239 58.8762 120.239C58.405 120.239 57.968 120.153 57.5653 119.982C57.1712 119.811 56.8285 119.579 56.5372 119.288C56.2459 118.988 56.0188 118.641 55.856 118.247C55.6932 117.853 55.6118 117.429 55.6118 116.975C55.6118 116.521 55.6932 116.096 55.856 115.702C56.0188 115.308 56.2459 114.966 56.5372 114.674C56.8285 114.374 57.1712 114.139 57.5653 113.967C57.968 113.796 58.405 113.71 58.8762 113.71ZM58.8762 114.726C58.5678 114.726 58.2807 114.786 58.0151 114.906C57.7581 115.017 57.531 115.175 57.334 115.381C57.1455 115.587 56.9956 115.827 56.8842 116.101C56.7814 116.375 56.7299 116.666 56.7299 116.975C56.7299 117.283 56.7814 117.574 56.8842 117.849C56.9956 118.123 57.1455 118.363 57.334 118.568C57.531 118.774 57.7581 118.937 58.0151 119.057C58.2807 119.168 58.5678 119.224 58.8762 119.224C59.1846 119.224 59.4674 119.168 59.7244 119.057C59.99 118.937 60.2171 118.774 60.4056 118.568C60.6026 118.363 60.7526 118.123 60.8554 117.849C60.9668 117.574 61.0224 117.283 61.0224 116.975C61.0224 116.666 60.9668 116.375 60.8554 116.101C60.7526 115.827 60.6026 115.587 60.4056 115.381C60.2171 115.175 59.99 115.017 59.7244 114.906C59.4674 114.786 59.1846 114.726 58.8762 114.726ZM64.8479 120.098H63.7426V113.852H64.8479V114.751C65.0449 114.443 65.3062 114.194 65.6318 114.006C65.966 113.809 66.3687 113.71 66.8399 113.71C67.6453 113.71 68.2664 113.959 68.7034 114.456C69.1404 114.944 69.3588 115.604 69.3588 116.435V120.098H68.2536V116.563C68.2536 115.998 68.1122 115.552 67.8295 115.227C67.5553 114.901 67.1483 114.738 66.6086 114.738C66.0688 114.738 65.6404 114.927 65.3234 115.304C65.0064 115.681 64.8479 116.191 64.8479 116.833V120.098ZM74.0606 120.239C73.5979 120.239 73.1695 120.158 72.7754 119.995C72.3899 119.832 72.0557 119.609 71.773 119.327C71.4902 119.035 71.2675 118.693 71.1047 118.298C70.9505 117.896 70.8733 117.454 70.8733 116.975C70.8733 116.512 70.9505 116.084 71.1047 115.689C71.2675 115.287 71.4859 114.94 71.7601 114.648C72.0429 114.357 72.3727 114.13 72.7497 113.967C73.1267 113.796 73.5379 113.71 73.9835 113.71C74.4204 113.71 74.8231 113.796 75.1915 113.967C75.5685 114.13 75.8898 114.357 76.1554 114.648C76.4296 114.94 76.6395 115.283 76.7852 115.677C76.9394 116.062 77.0165 116.478 77.0165 116.923C77.0165 116.992 77.0122 117.052 77.0036 117.103C77.0036 117.146 77.0036 117.185 77.0036 117.219V117.322H71.9786C71.9957 117.596 72.0643 117.853 72.1842 118.093C72.3042 118.324 72.4584 118.525 72.6469 118.697C72.8354 118.868 73.0496 119.005 73.2895 119.108C73.5379 119.202 73.7993 119.249 74.0734 119.249C74.5447 119.249 74.9131 119.151 75.1787 118.954C75.4529 118.748 75.6885 118.491 75.8855 118.183L76.7852 118.645C76.5281 119.117 76.1683 119.502 75.7056 119.802C75.2429 120.093 74.6946 120.239 74.0606 120.239ZM75.8984 116.409C75.8727 116.161 75.8041 115.934 75.6928 115.728C75.5814 115.514 75.44 115.33 75.2687 115.175C75.0973 115.021 74.9002 114.901 74.6775 114.816C74.4547 114.721 74.2148 114.674 73.9578 114.674C73.7007 114.674 73.4608 114.726 73.2381 114.828C73.0153 114.931 72.814 115.064 72.634 115.227C72.4627 115.39 72.3213 115.574 72.2099 115.779C72.0985 115.985 72.03 116.195 72.0043 116.409H75.8984Z" fill="black"/>
</g>
<path fill-rule="evenodd" clip-rule="evenodd" d="M17.3232 411.537C17.3232 403.504 18.3941 409.127 23.749 414.215C24.2484 414.689 24.6751 415.159 25.0381 415.619H25.9062C25.895 415.505 25.8897 415.39 25.8896 415.273C25.8896 413.351 27.4478 411.792 29.3701 411.792C31.2924 411.792 32.8506 413.351 32.8506 415.273C32.8506 415.39 32.8452 415.505 32.834 415.619H40.3447C39.4607 422.818 33.3258 428.392 25.8877 428.392C18.4497 428.392 12.3146 422.818 11.4307 415.619H18.2959C17.7044 414.473 17.3233 413.122 17.3232 411.537Z" fill="#D9D9D9"/>
<path d="M14.2937 437.656V438.26C14.3494 438.157 14.4201 438.065 14.5058 437.984C14.5958 437.903 14.6943 437.832 14.8014 437.772C14.9085 437.712 15.022 437.667 15.142 437.637C15.2662 437.603 15.3926 437.586 15.5211 437.586C15.7439 437.586 15.9495 437.628 16.138 437.714C16.3308 437.795 16.4978 437.909 16.6392 438.055C16.7806 438.2 16.8919 438.372 16.9733 438.569C17.0547 438.766 17.0954 438.978 17.0954 439.205C17.0954 439.432 17.0547 439.644 16.9733 439.841C16.8919 440.038 16.7806 440.209 16.6392 440.355C16.4978 440.496 16.3308 440.61 16.138 440.696C15.9495 440.777 15.7439 440.818 15.5211 440.818C15.2598 440.818 15.0177 440.758 14.795 440.638C14.5722 440.518 14.4051 440.357 14.2937 440.156V442.084H13.9146V437.656H14.2937ZM15.4954 437.939C15.3197 437.939 15.157 437.973 15.007 438.042C14.8614 438.106 14.7328 438.196 14.6215 438.312C14.5101 438.423 14.4223 438.556 14.358 438.71C14.298 438.864 14.268 439.029 14.268 439.205C14.268 439.38 14.298 439.545 14.358 439.7C14.4223 439.85 14.5101 439.982 14.6215 440.098C14.7328 440.209 14.8614 440.299 15.007 440.368C15.157 440.432 15.3197 440.464 15.4954 440.464C15.6625 440.464 15.8188 440.432 15.9645 440.368C16.1144 440.304 16.2429 440.216 16.35 440.104C16.4614 439.989 16.5471 439.854 16.6071 439.7C16.6713 439.545 16.7035 439.38 16.7035 439.205C16.7035 439.025 16.6713 438.858 16.6071 438.704C16.5471 438.549 16.4614 438.417 16.35 438.305C16.2429 438.19 16.1144 438.1 15.9645 438.035C15.8188 437.971 15.6625 437.939 15.4954 437.939ZM20.9126 439.198C20.9126 439.425 20.8719 439.638 20.7905 439.835C20.7091 440.027 20.5956 440.199 20.4499 440.349C20.3085 440.494 20.1393 440.61 19.9423 440.696C19.7452 440.777 19.5331 440.818 19.3061 440.818C19.079 440.818 18.867 440.777 18.6699 440.696C18.4729 440.61 18.3015 440.494 18.1559 440.349C18.0145 440.199 17.9031 440.027 17.8217 439.835C17.7403 439.638 17.6996 439.425 17.6996 439.198C17.6996 438.976 17.7403 438.766 17.8217 438.569C17.9031 438.372 18.0145 438.2 18.1559 438.055C18.3015 437.909 18.4729 437.795 18.6699 437.714C18.867 437.628 19.079 437.586 19.3061 437.586C19.5331 437.586 19.7452 437.628 19.9423 437.714C20.1393 437.795 20.3085 437.909 20.4499 438.055C20.5956 438.2 20.7091 438.372 20.7905 438.569C20.8719 438.766 20.9126 438.976 20.9126 439.198ZM20.5206 439.198C20.5206 439.027 20.4885 438.864 20.4242 438.71C20.3642 438.556 20.2785 438.423 20.1672 438.312C20.0601 438.196 19.9315 438.106 19.7816 438.042C19.636 437.973 19.4775 437.939 19.3061 437.939C19.1347 437.939 18.9741 437.973 18.8242 438.042C18.6785 438.106 18.55 438.196 18.4386 438.312C18.3315 438.423 18.2458 438.556 18.1816 438.71C18.1216 438.864 18.0916 439.027 18.0916 439.198C18.0916 439.374 18.1216 439.539 18.1816 439.693C18.2458 439.847 18.3315 439.982 18.4386 440.098C18.55 440.209 18.6785 440.299 18.8242 440.368C18.9741 440.432 19.1347 440.464 19.3061 440.464C19.4775 440.464 19.636 440.432 19.7816 440.368C19.9315 440.299 20.0601 440.209 20.1672 440.098C20.2785 439.982 20.3642 439.847 20.4242 439.693C20.4885 439.539 20.5206 439.374 20.5206 439.198ZM23.2757 437.997H23.2371C23.2243 437.997 23.2114 437.997 23.1986 437.997C23.1857 437.993 23.1686 437.99 23.1472 437.99C22.9972 437.99 22.858 438.022 22.7295 438.087C22.6053 438.147 22.4982 438.232 22.4082 438.344C22.3182 438.451 22.2475 438.582 22.1961 438.736C22.149 438.886 22.1255 439.051 22.1255 439.231V440.747H21.7399V437.656H22.119V438.299C22.1533 438.205 22.2047 438.117 22.2732 438.035C22.3418 437.95 22.4232 437.875 22.5174 437.81C22.6117 437.746 22.7124 437.697 22.8195 437.663C22.9308 437.624 23.0444 437.605 23.16 437.605C23.1772 437.605 23.1922 437.607 23.205 437.611C23.2221 437.611 23.235 437.611 23.2436 437.611H23.2757V437.997ZM24.4627 436.705V437.656H25.3559V438.003H24.4627V439.867C24.4627 440.261 24.6426 440.458 25.0025 440.458C25.0668 440.458 25.1289 440.449 25.1888 440.432C25.2531 440.415 25.3109 440.392 25.3623 440.362V440.728C25.3152 440.749 25.2552 440.768 25.1824 440.786C25.1139 440.807 25.0325 440.818 24.9382 440.818C24.6684 440.818 24.4563 440.743 24.3021 440.593C24.1521 440.439 24.0772 440.214 24.0772 439.918V438.003H23.5824V437.656H24.0772V436.705H24.4627ZM26.2297 440.747V438.003H25.7414V437.656H26.2297V437.226C26.2297 436.87 26.3197 436.607 26.4996 436.435C26.6796 436.26 26.9066 436.172 27.1808 436.172C27.2836 436.172 27.3714 436.183 27.4442 436.204C27.5213 436.225 27.5835 436.249 27.6306 436.275V436.622C27.5835 436.6 27.5256 436.581 27.4571 436.564C27.3928 436.542 27.3136 436.532 27.2193 436.532C27.0437 436.532 26.898 436.585 26.7824 436.692C26.671 436.795 26.6153 436.973 26.6153 437.226V437.656H27.5021V438.003H26.6153V440.747H26.2297ZM31.1789 439.198C31.1789 439.425 31.1382 439.638 31.0568 439.835C30.9754 440.027 30.8619 440.199 30.7163 440.349C30.5749 440.494 30.4057 440.61 30.2086 440.696C30.0116 440.777 29.7995 440.818 29.5725 440.818C29.3454 440.818 29.1334 440.777 28.9363 440.696C28.7392 440.61 28.5679 440.494 28.4222 440.349C28.2809 440.199 28.1695 440.027 28.0881 439.835C28.0067 439.638 27.966 439.425 27.966 439.198C27.966 438.976 28.0067 438.766 28.0881 438.569C28.1695 438.372 28.2809 438.2 28.4222 438.055C28.5679 437.909 28.7392 437.795 28.9363 437.714C29.1334 437.628 29.3454 437.586 29.5725 437.586C29.7995 437.586 30.0116 437.628 30.2086 437.714C30.4057 437.795 30.5749 437.909 30.7163 438.055C30.8619 438.2 30.9754 438.372 31.0568 438.569C31.1382 438.766 31.1789 438.976 31.1789 439.198ZM30.787 439.198C30.787 439.027 30.7548 438.864 30.6906 438.71C30.6306 438.556 30.5449 438.423 30.4335 438.312C30.3264 438.196 30.1979 438.106 30.048 438.042C29.9023 437.973 29.7438 437.939 29.5725 437.939C29.4011 437.939 29.2405 437.973 29.0905 438.042C28.9449 438.106 28.8163 438.196 28.705 438.312C28.5979 438.423 28.5122 438.556 28.4479 438.71C28.388 438.864 28.358 439.027 28.358 439.198C28.358 439.374 28.388 439.539 28.4479 439.693C28.5122 439.847 28.5979 439.982 28.705 440.098C28.8163 440.209 28.9449 440.299 29.0905 440.368C29.2405 440.432 29.4011 440.464 29.5725 440.464C29.7438 440.464 29.9023 440.432 30.048 440.368C30.1979 440.299 30.3264 440.209 30.4335 440.098C30.5449 439.982 30.6306 439.847 30.6906 439.693C30.7548 439.539 30.787 439.374 30.787 439.198ZM32.3918 436.249V440.747H32.0063V436.249H32.3918ZM33.8289 437.656V440.747H33.4433V437.656H33.8289ZM33.3662 436.705C33.3662 436.632 33.3919 436.57 33.4433 436.519C33.499 436.463 33.5633 436.435 33.6361 436.435C33.7089 436.435 33.771 436.463 33.8224 436.519C33.8781 436.57 33.906 436.632 33.906 436.705C33.906 436.778 33.8781 436.842 33.8224 436.898C33.771 436.949 33.7089 436.975 33.6361 436.975C33.5633 436.975 33.499 436.949 33.4433 436.898C33.3919 436.842 33.3662 436.778 33.3662 436.705ZM37.8684 439.198C37.8684 439.425 37.8277 439.638 37.7463 439.835C37.6649 440.027 37.5514 440.199 37.4057 440.349C37.2644 440.494 37.0951 440.61 36.8981 440.696C36.701 440.777 36.489 440.818 36.2619 440.818C36.0349 440.818 35.8228 440.777 35.6258 440.696C35.4287 440.61 35.2573 440.494 35.1117 440.349C34.9703 440.199 34.8589 440.027 34.7775 439.835C34.6961 439.638 34.6554 439.425 34.6554 439.198C34.6554 438.976 34.6961 438.766 34.7775 438.569C34.8589 438.372 34.9703 438.2 35.1117 438.055C35.2573 437.909 35.4287 437.795 35.6258 437.714C35.8228 437.628 36.0349 437.586 36.2619 437.586C36.489 437.586 36.701 437.628 36.8981 437.714C37.0951 437.795 37.2644 437.909 37.4057 438.055C37.5514 438.2 37.6649 438.372 37.7463 438.569C37.8277 438.766 37.8684 438.976 37.8684 439.198ZM37.4764 439.198C37.4764 439.027 37.4443 438.864 37.38 438.71C37.32 438.556 37.2344 438.423 37.123 438.312C37.0159 438.196 36.8874 438.106 36.7374 438.042C36.5918 437.973 36.4333 437.939 36.2619 437.939C36.0906 437.939 35.9299 437.973 35.78 438.042C35.6343 438.106 35.5058 438.196 35.3944 438.312C35.2873 438.423 35.2016 438.556 35.1374 438.71C35.0774 438.864 35.0474 439.027 35.0474 439.198C35.0474 439.374 35.0774 439.539 35.1374 439.693C35.2016 439.847 35.2873 439.982 35.3944 440.098C35.5058 440.209 35.6343 440.299 35.78 440.368C35.9299 440.432 36.0906 440.464 36.2619 440.464C36.4333 440.464 36.5918 440.432 36.7374 440.368C36.8874 440.299 37.0159 440.209 37.123 440.098C37.2344 439.982 37.32 439.847 37.38 439.693C37.4443 439.539 37.4764 439.374 37.4764 439.198Z" fill="black"/>
<path d="M66.167 407.329C70.6031 407.329 74.1991 410.925 74.1992 415.361C74.1992 416.999 73.7077 418.521 72.8662 419.791L78.7256 425.65C79.3528 426.278 79.3529 427.295 78.7256 427.922C78.0983 428.549 77.0815 428.549 76.4541 427.922L70.5947 422.062C69.3252 422.903 67.8036 423.394 66.167 423.394C61.7309 423.393 58.1348 419.797 58.1348 415.361C58.1348 410.925 61.7309 407.329 66.167 407.329Z" fill="#D9D9D9"/>
<path d="M60.8716 440.008C60.7473 440.252 60.5695 440.449 60.3382 440.599C60.1069 440.745 59.837 440.818 59.5285 440.818C59.3015 440.818 59.0916 440.779 58.8988 440.702C58.7103 440.621 58.5454 440.509 58.404 440.368C58.2669 440.222 58.1598 440.051 58.0827 439.854C58.0056 439.653 57.9671 439.434 57.9671 439.198C57.9671 438.967 58.0056 438.753 58.0827 438.556C58.1598 438.359 58.2669 438.19 58.404 438.048C58.5411 437.903 58.7039 437.789 58.8924 437.708C59.0809 437.626 59.2844 437.586 59.5028 437.586C59.7213 437.586 59.9205 437.626 60.1005 437.708C60.2847 437.789 60.441 437.903 60.5695 438.048C60.7023 438.19 60.8052 438.359 60.878 438.556C60.9551 438.749 60.9937 438.956 60.9937 439.179C60.9937 439.201 60.9915 439.22 60.9872 439.237C60.9872 439.25 60.9872 439.263 60.9872 439.276V439.314H58.359V439.321C58.3633 439.488 58.3976 439.642 58.4618 439.783C58.5261 439.92 58.6096 440.04 58.7125 440.143C58.8196 440.242 58.9438 440.321 59.0852 440.381C59.2265 440.436 59.3765 440.464 59.535 440.464C59.7834 440.464 59.9869 440.409 60.1454 440.297C60.3082 440.186 60.4432 440.036 60.5503 439.847L60.8716 440.008ZM59.4964 437.926C59.3422 437.926 59.1987 437.956 59.0659 438.016C58.9331 438.072 58.8153 438.149 58.7125 438.247C58.6139 438.346 58.5325 438.459 58.4683 438.588C58.4083 438.712 58.374 438.845 58.3655 438.986H60.6017C60.5888 438.836 60.5524 438.697 60.4924 438.569C60.4325 438.436 60.3532 438.322 60.2547 438.228C60.1604 438.134 60.0469 438.061 59.9141 438.01C59.7856 437.954 59.6464 437.926 59.4964 437.926ZM62.8158 439.436L61.852 440.747H61.4086L62.5909 439.166L61.4664 437.656H61.9162L62.8287 438.884L63.7412 437.656H64.1781L63.0536 439.153L64.236 440.747H63.7797L62.8158 439.436ZM65.2919 437.656V438.26C65.3476 438.157 65.4183 438.065 65.504 437.984C65.5939 437.903 65.6925 437.832 65.7996 437.772C65.9067 437.712 66.0202 437.667 66.1401 437.637C66.2644 437.603 66.3907 437.586 66.5193 437.586C66.742 437.586 66.9477 437.628 67.1362 437.714C67.3289 437.795 67.496 437.909 67.6374 438.055C67.7787 438.2 67.8901 438.372 67.9715 438.569C68.0529 438.766 68.0936 438.978 68.0936 439.205C68.0936 439.432 68.0529 439.644 67.9715 439.841C67.8901 440.038 67.7787 440.209 67.6374 440.355C67.496 440.496 67.3289 440.61 67.1362 440.696C66.9477 440.777 66.742 440.818 66.5193 440.818C66.2579 440.818 66.0159 440.758 65.7931 440.638C65.5704 440.518 65.4033 440.357 65.2919 440.156V442.084H64.9128V437.656H65.2919ZM66.4936 437.939C66.3179 437.939 66.1551 437.973 66.0052 438.042C65.8595 438.106 65.731 438.196 65.6196 438.312C65.5083 438.423 65.4204 438.556 65.3562 438.71C65.2962 438.864 65.2662 439.029 65.2662 439.205C65.2662 439.38 65.2962 439.545 65.3562 439.7C65.4204 439.85 65.5083 439.982 65.6196 440.098C65.731 440.209 65.8595 440.299 66.0052 440.368C66.1551 440.432 66.3179 440.464 66.4936 440.464C66.6606 440.464 66.817 440.432 66.9627 440.368C67.1126 440.304 67.2411 440.216 67.3482 440.104C67.4596 439.989 67.5453 439.854 67.6052 439.7C67.6695 439.545 67.7016 439.38 67.7016 439.205C67.7016 439.025 67.6695 438.858 67.6052 438.704C67.5453 438.549 67.4596 438.417 67.3482 438.305C67.2411 438.19 67.1126 438.1 66.9627 438.035C66.817 437.971 66.6606 437.939 66.4936 437.939ZM69.3083 436.249V440.747H68.9227V436.249H69.3083ZM73.3478 439.198C73.3478 439.425 73.3071 439.638 73.2257 439.835C73.1443 440.027 73.0308 440.199 72.8851 440.349C72.7437 440.494 72.5745 440.61 72.3775 440.696C72.1804 440.777 71.9684 440.818 71.7413 440.818C71.5143 440.818 71.3022 440.777 71.1051 440.696C70.9081 440.61 70.7367 440.494 70.5911 440.349C70.4497 440.199 70.3383 440.027 70.2569 439.835C70.1755 439.638 70.1348 439.425 70.1348 439.198C70.1348 438.976 70.1755 438.766 70.2569 438.569C70.3383 438.372 70.4497 438.2 70.5911 438.055C70.7367 437.909 70.9081 437.795 71.1051 437.714C71.3022 437.628 71.5143 437.586 71.7413 437.586C71.9684 437.586 72.1804 437.628 72.3775 437.714C72.5745 437.795 72.7437 437.909 72.8851 438.055C73.0308 438.2 73.1443 438.372 73.2257 438.569C73.3071 438.766 73.3478 438.976 73.3478 439.198ZM72.9558 439.198C72.9558 439.027 72.9237 438.864 72.8594 438.71C72.7994 438.556 72.7138 438.423 72.6024 438.312C72.4953 438.196 72.3668 438.106 72.2168 438.042C72.0712 437.973 71.9127 437.939 71.7413 437.939C71.57 437.939 71.4093 437.973 71.2594 438.042C71.1137 438.106 70.9852 438.196 70.8738 438.312C70.7667 438.423 70.681 438.556 70.6168 438.71C70.5568 438.864 70.5268 439.027 70.5268 439.198C70.5268 439.374 70.5568 439.539 70.6168 439.693C70.681 439.847 70.7667 439.982 70.8738 440.098C70.9852 440.209 71.1137 440.299 71.2594 440.368C71.4093 440.432 71.57 440.464 71.7413 440.464C71.9127 440.464 72.0712 440.432 72.2168 440.368C72.3668 440.299 72.4953 440.209 72.6024 440.098C72.7138 439.982 72.7994 439.847 72.8594 439.693C72.9237 439.539 72.9558 439.374 72.9558 439.198ZM75.7109 437.997H75.6723C75.6595 437.997 75.6466 437.997 75.6338 437.997C75.6209 437.993 75.6038 437.99 75.5824 437.99C75.4324 437.99 75.2932 438.022 75.1647 438.087C75.0405 438.147 74.9334 438.232 74.8434 438.344C74.7534 438.451 74.6828 438.582 74.6314 438.736C74.5842 438.886 74.5607 439.051 74.5607 439.231V440.747H74.1751V437.656H74.5542V438.299C74.5885 438.205 74.6399 438.117 74.7085 438.035C74.777 437.95 74.8584 437.875 74.9526 437.81C75.0469 437.746 75.1476 437.697 75.2547 437.663C75.366 437.624 75.4796 437.605 75.5952 437.605C75.6124 437.605 75.6274 437.607 75.6402 437.611C75.6574 437.611 75.6702 437.611 75.6788 437.611H75.7109V437.997ZM79.0699 440.008C78.9457 440.252 78.7679 440.449 78.5365 440.599C78.3052 440.745 78.0353 440.818 77.7269 440.818C77.4998 440.818 77.2899 440.779 77.0971 440.702C76.9086 440.621 76.7437 440.509 76.6023 440.368C76.4653 440.222 76.3582 440.051 76.2811 439.854C76.2039 439.653 76.1654 439.434 76.1654 439.198C76.1654 438.967 76.2039 438.753 76.2811 438.556C76.3582 438.359 76.4653 438.19 76.6023 438.048C76.7394 437.903 76.9022 437.789 77.0907 437.708C77.2792 437.626 77.4827 437.586 77.7012 437.586C77.9197 437.586 78.1189 437.626 78.2988 437.708C78.483 437.789 78.6394 437.903 78.7679 438.048C78.9007 438.19 79.0035 438.359 79.0763 438.556C79.1534 438.749 79.192 438.956 79.192 439.179C79.192 439.201 79.1898 439.22 79.1856 439.237C79.1856 439.25 79.1856 439.263 79.1856 439.276V439.314H76.5574V439.321C76.5616 439.488 76.5959 439.642 76.6602 439.783C76.7244 439.92 76.808 440.04 76.9108 440.143C77.0179 440.242 77.1421 440.321 77.2835 440.381C77.4249 440.436 77.5748 440.464 77.7333 440.464C77.9818 440.464 78.1853 440.409 78.3438 440.297C78.5066 440.186 78.6415 440.036 78.7486 439.847L79.0699 440.008ZM77.6947 437.926C77.5405 437.926 77.397 437.956 77.2642 438.016C77.1314 438.072 77.0136 438.149 76.9108 438.247C76.8123 438.346 76.7309 438.459 76.6666 438.588C76.6066 438.712 76.5724 438.845 76.5638 438.986H78.8C78.7872 438.836 78.7507 438.697 78.6908 438.569C78.6308 438.436 78.5515 438.322 78.453 438.228C78.3588 438.134 78.2452 438.061 78.1124 438.01C77.9839 437.954 77.8447 437.926 77.6947 437.926Z" fill="black"/>
<path d="M118.724 424.374L106.945 428.391V428.393L106.943 428.392L106.942 428.393V428.391L95.1641 424.374V403.76L106.943 407.951L118.724 403.76V424.374Z" fill="#ED4C71"/>
<path d="M99.8558 436.249V440.747H99.4703V436.249H99.8558ZM103.587 440.008C103.463 440.252 103.285 440.449 103.054 440.599C102.822 440.745 102.552 440.818 102.244 440.818C102.017 440.818 101.807 440.779 101.614 440.702C101.426 440.621 101.261 440.509 101.119 440.368C100.982 440.222 100.875 440.051 100.798 439.854C100.721 439.653 100.682 439.434 100.682 439.198C100.682 438.967 100.721 438.753 100.798 438.556C100.875 438.359 100.982 438.19 101.119 438.048C101.256 437.903 101.419 437.789 101.608 437.708C101.796 437.626 102 437.586 102.218 437.586C102.437 437.586 102.636 437.626 102.816 437.708C103 437.789 103.156 437.903 103.285 438.048C103.418 438.19 103.521 438.359 103.593 438.556C103.67 438.749 103.709 438.956 103.709 439.179C103.709 439.201 103.707 439.22 103.703 439.237C103.703 439.25 103.703 439.263 103.703 439.276V439.314H101.074V439.321C101.079 439.488 101.113 439.642 101.177 439.783C101.241 439.92 101.325 440.04 101.428 440.143C101.535 440.242 101.659 440.321 101.801 440.381C101.942 440.436 102.092 440.464 102.25 440.464C102.499 440.464 102.702 440.409 102.861 440.297C103.024 440.186 103.159 440.036 103.266 439.847L103.587 440.008ZM102.212 437.926C102.058 437.926 101.914 437.956 101.781 438.016C101.648 438.072 101.531 438.149 101.428 438.247C101.329 438.346 101.248 438.459 101.184 438.588C101.124 438.712 101.089 438.845 101.081 438.986H103.317C103.304 438.836 103.268 438.697 103.208 438.569C103.148 438.436 103.069 438.322 102.97 438.228C102.876 438.134 102.762 438.061 102.629 438.01C102.501 437.954 102.362 437.926 102.212 437.926ZM107.459 437.656V440.747H107.08V440.143C107.024 440.246 106.951 440.338 106.861 440.419C106.776 440.501 106.679 440.571 106.572 440.631C106.465 440.691 106.349 440.736 106.225 440.766C106.105 440.801 105.981 440.818 105.852 440.818C105.63 440.818 105.422 440.777 105.229 440.696C105.041 440.61 104.876 440.494 104.734 440.349C104.593 440.203 104.482 440.032 104.4 439.835C104.319 439.638 104.278 439.425 104.278 439.198C104.278 438.971 104.319 438.759 104.4 438.562C104.482 438.365 104.593 438.196 104.734 438.055C104.876 437.909 105.041 437.795 105.229 437.714C105.422 437.628 105.63 437.586 105.852 437.586C106.114 437.586 106.356 437.646 106.579 437.765C106.801 437.885 106.968 438.046 107.08 438.247V437.656H107.459ZM105.878 440.464C106.05 440.464 106.21 440.432 106.36 440.368C106.51 440.299 106.641 440.209 106.752 440.098C106.864 439.982 106.949 439.847 107.009 439.693C107.073 439.539 107.106 439.374 107.106 439.198C107.106 439.027 107.073 438.864 107.009 438.71C106.949 438.556 106.864 438.423 106.752 438.312C106.641 438.196 106.51 438.106 106.36 438.042C106.21 437.973 106.05 437.939 105.878 437.939C105.711 437.939 105.553 437.971 105.403 438.035C105.257 438.1 105.129 438.19 105.017 438.305C104.91 438.417 104.824 438.549 104.76 438.704C104.7 438.858 104.67 439.023 104.67 439.198C104.67 439.378 104.7 439.545 104.76 439.7C104.824 439.854 104.91 439.989 105.017 440.104C105.129 440.216 105.257 440.304 105.403 440.368C105.553 440.432 105.711 440.464 105.878 440.464ZM110.049 437.997H110.01C109.997 437.997 109.984 437.997 109.972 437.997C109.959 437.993 109.942 437.99 109.92 437.99C109.77 437.99 109.631 438.022 109.503 438.087C109.378 438.147 109.271 438.232 109.181 438.344C109.091 438.451 109.021 438.582 108.969 438.736C108.922 438.886 108.899 439.051 108.899 439.231V440.747H108.513V437.656H108.892V438.299C108.926 438.205 108.978 438.117 109.046 438.035C109.115 437.95 109.196 437.875 109.291 437.81C109.385 437.746 109.485 437.697 109.593 437.663C109.704 437.624 109.817 437.605 109.933 437.605C109.95 437.605 109.965 437.607 109.978 437.611C109.995 437.611 110.008 437.611 110.017 437.611H110.049V437.997ZM110.728 437.656H111.114V438.19C111.208 438.018 111.347 437.875 111.531 437.759C111.72 437.643 111.945 437.586 112.206 437.586C112.403 437.586 112.579 437.618 112.733 437.682C112.892 437.746 113.024 437.838 113.131 437.958C113.243 438.074 113.328 438.217 113.388 438.389C113.448 438.556 113.478 438.742 113.478 438.948V440.747H113.093V438.993C113.093 438.672 113.007 438.417 112.836 438.228C112.669 438.035 112.433 437.939 112.129 437.939C111.979 437.939 111.842 437.969 111.718 438.029C111.593 438.085 111.486 438.164 111.396 438.267C111.306 438.369 111.236 438.489 111.184 438.627C111.137 438.764 111.114 438.911 111.114 439.07V440.747H110.728V437.656Z" fill="black"/>
<path d="M149.915 410.186H153.128V428.393H133.314V408.58H149.915V410.186Z" fill="#D9D9D9"/>
<path d="M137.704 440.747L136.785 438.222L135.859 440.747H135.557L134.394 437.656H134.799L135.718 440.201L136.643 437.656H136.932L137.858 440.201L138.777 437.656H139.169L138.012 440.747H137.704ZM142.824 437.656V440.747H142.445V440.143C142.389 440.246 142.317 440.338 142.227 440.419C142.141 440.501 142.044 440.571 141.937 440.631C141.83 440.691 141.715 440.736 141.59 440.766C141.47 440.801 141.346 440.818 141.218 440.818C140.995 440.818 140.787 440.777 140.594 440.696C140.406 440.61 140.241 440.494 140.1 440.349C139.958 440.203 139.847 440.032 139.765 439.835C139.684 439.638 139.643 439.425 139.643 439.198C139.643 438.971 139.684 438.759 139.765 438.562C139.847 438.365 139.958 438.196 140.1 438.055C140.241 437.909 140.406 437.795 140.594 437.714C140.787 437.628 140.995 437.586 141.218 437.586C141.479 437.586 141.721 437.646 141.944 437.765C142.167 437.885 142.334 438.046 142.445 438.247V437.656H142.824ZM141.243 440.464C141.415 440.464 141.575 440.432 141.725 440.368C141.875 440.299 142.006 440.209 142.117 440.098C142.229 439.982 142.314 439.847 142.374 439.693C142.439 439.539 142.471 439.374 142.471 439.198C142.471 439.027 142.439 438.864 142.374 438.71C142.314 438.556 142.229 438.423 142.117 438.312C142.006 438.196 141.875 438.106 141.725 438.042C141.575 437.973 141.415 437.939 141.243 437.939C141.076 437.939 140.918 437.971 140.768 438.035C140.622 438.1 140.494 438.19 140.382 438.305C140.275 438.417 140.19 438.549 140.125 438.704C140.065 438.858 140.035 439.023 140.035 439.198C140.035 439.378 140.065 439.545 140.125 439.7C140.19 439.854 140.275 439.989 140.382 440.104C140.494 440.216 140.622 440.304 140.768 440.368C140.918 440.432 141.076 440.464 141.243 440.464ZM144.264 436.249V440.747H143.878V436.249H144.264ZM145.701 436.249V440.747H145.315V436.249H145.701ZM149.432 440.008C149.308 440.252 149.13 440.449 148.898 440.599C148.667 440.745 148.397 440.818 148.089 440.818C147.862 440.818 147.652 440.779 147.459 440.702C147.271 440.621 147.106 440.509 146.964 440.368C146.827 440.222 146.72 440.051 146.643 439.854C146.566 439.653 146.527 439.434 146.527 439.198C146.527 438.967 146.566 438.753 146.643 438.556C146.72 438.359 146.827 438.19 146.964 438.048C147.101 437.903 147.264 437.789 147.453 437.708C147.641 437.626 147.845 437.586 148.063 437.586C148.282 437.586 148.481 437.626 148.661 437.708C148.845 437.789 149.001 437.903 149.13 438.048C149.263 438.19 149.365 438.359 149.438 438.556C149.515 438.749 149.554 438.956 149.554 439.179C149.554 439.201 149.552 439.22 149.548 439.237C149.548 439.25 149.548 439.263 149.548 439.276V439.314H146.919V439.321C146.924 439.488 146.958 439.642 147.022 439.783C147.086 439.92 147.17 440.04 147.273 440.143C147.38 440.242 147.504 440.321 147.645 440.381C147.787 440.436 147.937 440.464 148.095 440.464C148.344 440.464 148.547 440.409 148.706 440.297C148.869 440.186 149.003 440.036 149.111 439.847L149.432 440.008ZM148.057 437.926C147.902 437.926 147.759 437.956 147.626 438.016C147.493 438.072 147.376 438.149 147.273 438.247C147.174 438.346 147.093 438.459 147.029 438.588C146.969 438.712 146.934 438.845 146.926 438.986H149.162C149.149 438.836 149.113 438.697 149.053 438.569C148.993 438.436 148.913 438.322 148.815 438.228C148.721 438.134 148.607 438.061 148.474 438.01C148.346 437.954 148.207 437.926 148.057 437.926ZM150.856 436.705V437.656H151.749V438.003H150.856V439.867C150.856 440.261 151.036 440.458 151.395 440.458C151.46 440.458 151.522 440.449 151.582 440.432C151.646 440.415 151.704 440.392 151.755 440.362V440.728C151.708 440.749 151.648 440.768 151.575 440.786C151.507 440.807 151.425 440.818 151.331 440.818C151.061 440.818 150.849 440.743 150.695 440.593C150.545 440.439 150.47 440.214 150.47 439.918V438.003H149.975V437.656H150.47V436.705H150.856Z" fill="black"/>
<path d="M177.34 422.234C177.34 420.533 178.718 419.155 180.419 419.155H186.577C188.278 419.155 189.656 420.533 189.656 422.234V428.392H177.34V422.234Z" fill="#D9D9D9"/>
<path d="M188.117 412.227C188.117 414.778 186.049 416.846 183.498 416.846C180.947 416.846 178.879 414.778 178.879 412.227C178.879 409.676 180.947 407.608 183.498 407.608C186.049 407.608 188.117 409.676 188.117 412.227Z" fill="#D9D9D9"/>
<path d="M174.981 437.656V440.747H174.602V440.143C174.546 440.246 174.473 440.338 174.383 440.419C174.298 440.501 174.201 440.571 174.094 440.631C173.987 440.691 173.871 440.736 173.747 440.766C173.627 440.801 173.503 440.818 173.374 440.818C173.152 440.818 172.944 440.777 172.751 440.696C172.563 440.61 172.398 440.494 172.256 440.349C172.115 440.203 172.004 440.032 171.922 439.835C171.841 439.638 171.8 439.425 171.8 439.198C171.8 438.971 171.841 438.759 171.922 438.562C172.004 438.365 172.115 438.196 172.256 438.055C172.398 437.909 172.563 437.795 172.751 437.714C172.944 437.628 173.152 437.586 173.374 437.586C173.636 437.586 173.878 437.646 174.101 437.765C174.323 437.885 174.49 438.046 174.602 438.247V437.656H174.981ZM173.4 440.464C173.571 440.464 173.732 440.432 173.882 440.368C174.032 440.299 174.163 440.209 174.274 440.098C174.385 439.982 174.471 439.847 174.531 439.693C174.595 439.539 174.627 439.374 174.627 439.198C174.627 439.027 174.595 438.864 174.531 438.71C174.471 438.556 174.385 438.423 174.274 438.312C174.163 438.196 174.032 438.106 173.882 438.042C173.732 437.973 173.571 437.939 173.4 437.939C173.233 437.939 173.075 437.971 172.925 438.035C172.779 438.1 172.65 438.19 172.539 438.305C172.432 438.417 172.346 438.549 172.282 438.704C172.222 438.858 172.192 439.023 172.192 439.198C172.192 439.378 172.222 439.545 172.282 439.7C172.346 439.854 172.432 439.989 172.539 440.104C172.65 440.216 172.779 440.304 172.925 440.368C173.075 440.432 173.233 440.464 173.4 440.464ZM175.81 439.198C175.81 438.976 175.851 438.766 175.932 438.569C176.013 438.372 176.125 438.2 176.266 438.055C176.408 437.909 176.577 437.795 176.774 437.714C176.971 437.628 177.185 437.586 177.416 437.586C177.588 437.586 177.748 437.611 177.898 437.663C178.048 437.71 178.188 437.778 178.316 437.868V438.26C178.046 438.05 177.753 437.945 177.436 437.945C177.26 437.945 177.097 437.978 176.947 438.042C176.797 438.106 176.667 438.196 176.555 438.312C176.444 438.423 176.356 438.556 176.292 438.71C176.232 438.86 176.202 439.023 176.202 439.198C176.202 439.374 176.232 439.539 176.292 439.693C176.356 439.843 176.444 439.976 176.555 440.092C176.667 440.203 176.797 440.293 176.947 440.362C177.097 440.426 177.26 440.458 177.436 440.458C177.603 440.458 177.763 440.428 177.918 440.368C178.072 440.304 178.211 440.229 178.335 440.143V440.541C178.198 440.627 178.053 440.696 177.898 440.747C177.748 440.794 177.59 440.818 177.423 440.818C177.187 440.818 176.971 440.777 176.774 440.696C176.577 440.61 176.405 440.494 176.26 440.349C176.118 440.203 176.007 440.032 175.926 439.835C175.849 439.638 175.81 439.425 175.81 439.198ZM178.941 439.198C178.941 438.976 178.982 438.766 179.063 438.569C179.145 438.372 179.256 438.2 179.398 438.055C179.539 437.909 179.708 437.795 179.905 437.714C180.102 437.628 180.316 437.586 180.548 437.586C180.719 437.586 180.88 437.611 181.03 437.663C181.18 437.71 181.319 437.778 181.447 437.868V438.26C181.178 438.05 180.884 437.945 180.567 437.945C180.391 437.945 180.229 437.978 180.079 438.042C179.929 438.106 179.798 438.196 179.687 438.312C179.575 438.423 179.488 438.556 179.423 438.71C179.363 438.86 179.333 439.023 179.333 439.198C179.333 439.374 179.363 439.539 179.423 439.693C179.488 439.843 179.575 439.976 179.687 440.092C179.798 440.203 179.929 440.293 180.079 440.362C180.229 440.426 180.391 440.458 180.567 440.458C180.734 440.458 180.895 440.428 181.049 440.368C181.203 440.304 181.342 440.229 181.467 440.143V440.541C181.33 440.627 181.184 440.696 181.03 440.747C180.88 440.794 180.721 440.818 180.554 440.818C180.319 440.818 180.102 440.777 179.905 440.696C179.708 440.61 179.537 440.494 179.391 440.349C179.25 440.203 179.138 440.032 179.057 439.835C178.98 439.638 178.941 439.425 178.941 439.198ZM185.286 439.198C185.286 439.425 185.245 439.638 185.164 439.835C185.082 440.027 184.969 440.199 184.823 440.349C184.682 440.494 184.512 440.61 184.315 440.696C184.118 440.777 183.906 440.818 183.679 440.818C183.452 440.818 183.24 440.777 183.043 440.696C182.846 440.61 182.675 440.494 182.529 440.349C182.388 440.199 182.276 440.027 182.195 439.835C182.113 439.638 182.073 439.425 182.073 439.198C182.073 438.976 182.113 438.766 182.195 438.569C182.276 438.372 182.388 438.2 182.529 438.055C182.675 437.909 182.846 437.795 183.043 437.714C183.24 437.628 183.452 437.586 183.679 437.586C183.906 437.586 184.118 437.628 184.315 437.714C184.512 437.795 184.682 437.909 184.823 438.055C184.969 438.2 185.082 438.372 185.164 438.569C185.245 438.766 185.286 438.976 185.286 439.198ZM184.894 439.198C184.894 439.027 184.862 438.864 184.797 438.71C184.737 438.556 184.652 438.423 184.54 438.312C184.433 438.196 184.305 438.106 184.155 438.042C184.009 437.973 183.851 437.939 183.679 437.939C183.508 437.939 183.347 437.973 183.197 438.042C183.052 438.106 182.923 438.196 182.812 438.312C182.705 438.423 182.619 438.556 182.555 438.71C182.495 438.864 182.465 439.027 182.465 439.198C182.465 439.374 182.495 439.539 182.555 439.693C182.619 439.847 182.705 439.982 182.812 440.098C182.923 440.209 183.052 440.299 183.197 440.368C183.347 440.432 183.508 440.464 183.679 440.464C183.851 440.464 184.009 440.432 184.155 440.368C184.305 440.299 184.433 440.209 184.54 440.098C184.652 439.982 184.737 439.847 184.797 439.693C184.862 439.539 184.894 439.374 184.894 439.198ZM188.805 440.747H188.42V440.214C188.326 440.385 188.186 440.529 188.002 440.644C187.818 440.76 187.595 440.818 187.334 440.818C187.141 440.818 186.965 440.786 186.807 440.721C186.653 440.657 186.52 440.567 186.409 440.451C186.301 440.332 186.218 440.188 186.158 440.021C186.102 439.85 186.074 439.661 186.074 439.455V437.656H186.46V439.41C186.46 439.732 186.544 439.989 186.711 440.182C186.878 440.37 187.111 440.464 187.411 440.464C187.557 440.464 187.692 440.436 187.816 440.381C187.94 440.321 188.047 440.239 188.137 440.137C188.227 440.034 188.296 439.914 188.343 439.777C188.394 439.64 188.42 439.492 188.42 439.333V437.656H188.805V440.747ZM189.859 437.656H190.245V438.19C190.339 438.018 190.478 437.875 190.663 437.759C190.851 437.643 191.076 437.586 191.337 437.586C191.534 437.586 191.71 437.618 191.864 437.682C192.023 437.746 192.156 437.838 192.263 437.958C192.374 438.074 192.46 438.217 192.52 438.389C192.58 438.556 192.61 438.742 192.61 438.948V440.747H192.224V438.993C192.224 438.672 192.138 438.417 191.967 438.228C191.8 438.035 191.564 437.939 191.26 437.939C191.11 437.939 190.973 437.969 190.849 438.029C190.725 438.085 190.618 438.164 190.528 438.267C190.438 438.369 190.367 438.489 190.316 438.627C190.268 438.764 190.245 438.911 190.245 439.07V440.747H189.859V437.656ZM194.132 436.705V437.656H195.025V438.003H194.132V439.867C194.132 440.261 194.312 440.458 194.672 440.458C194.736 440.458 194.798 440.449 194.858 440.432C194.923 440.415 194.98 440.392 195.032 440.362V440.728C194.985 440.749 194.925 440.768 194.852 440.786C194.783 440.807 194.702 440.818 194.608 440.818C194.338 440.818 194.126 440.743 193.972 440.593C193.822 440.439 193.747 440.214 193.747 439.918V438.003H193.252V437.656H193.747V436.705H194.132Z" fill="black"/>
<g filter="url(#filter2_d_556_1739)">
<rect x="31.6016" y="151.009" width="135.479" height="42.8393" rx="6.23934" fill="#F1F1F1" shape-rendering="crispEdges"/>
<path d="M50.6977 167.329L54.399 176.325H53.1909L52.1371 173.716H48.3201L47.2663 176.325H46.0839L49.7981 167.329H50.6977ZM48.7314 172.675H51.7258L50.2222 168.935L48.7314 172.675ZM59.8355 167.329V176.325H58.7303V167.329H59.8355ZM63.191 168.229C63.191 168.434 63.1182 168.61 62.9726 168.755C62.8269 168.901 62.6513 168.974 62.4456 168.974C62.24 168.974 62.0644 168.901 61.9187 168.755C61.7731 168.61 61.7002 168.434 61.7002 168.229C61.7002 168.023 61.7731 167.847 61.9187 167.702C62.0644 167.556 62.24 167.483 62.4456 167.483C62.6513 167.483 62.8269 167.556 62.9726 167.702C63.1182 167.847 63.191 168.023 63.191 168.229ZM62.9983 170.079V176.325H61.893V170.079H62.9983ZM66.4052 168.203V170.079H68.153V171.069H66.4052V174.372C66.4052 174.74 66.4866 175.01 66.6494 175.181C66.8207 175.353 67.0863 175.438 67.4462 175.438C67.5661 175.438 67.6904 175.426 67.8189 175.4C67.9474 175.366 68.0588 175.314 68.153 175.246V176.274C68.0417 176.334 67.9046 176.381 67.7418 176.415C67.5876 176.449 67.4034 176.467 67.1892 176.467C66.598 176.467 66.1353 176.295 65.8012 175.952C65.467 175.61 65.2999 175.134 65.2999 174.526V171.069H64.3361V170.079H65.2999V168.203H66.4052ZM70.9736 168.203V170.079H72.7214V171.069H70.9736V174.372C70.9736 174.74 71.055 175.01 71.2178 175.181C71.3891 175.353 71.6547 175.438 72.0146 175.438C72.1345 175.438 72.2588 175.426 72.3873 175.4C72.5158 175.366 72.6272 175.314 72.7214 175.246V176.274C72.6101 176.334 72.473 176.381 72.3102 176.415C72.156 176.449 71.9718 176.467 71.7576 176.467C71.1664 176.467 70.7037 176.295 70.3696 175.952C70.0354 175.61 69.8683 175.134 69.8683 174.526V171.069H68.9045V170.079H69.8683V168.203H70.9736ZM75.2978 167.329V176.325H74.1926V167.329H75.2978ZM80.0927 176.467C79.6301 176.467 79.2017 176.385 78.8076 176.222C78.422 176.06 78.0879 175.837 77.8051 175.554C77.5224 175.263 77.2996 174.92 77.1368 174.526C76.9826 174.123 76.9055 173.682 76.9055 173.202C76.9055 172.74 76.9826 172.311 77.1368 171.917C77.2996 171.514 77.5181 171.167 77.7923 170.876C78.075 170.585 78.4049 170.358 78.7819 170.195C79.1589 170.024 79.5701 169.938 80.0156 169.938C80.4526 169.938 80.8553 170.024 81.2237 170.195C81.6007 170.358 81.922 170.585 82.1876 170.876C82.4618 171.167 82.6717 171.51 82.8173 171.904C82.9715 172.29 83.0487 172.705 83.0487 173.151C83.0487 173.219 83.0444 173.279 83.0358 173.331C83.0358 173.374 83.0358 173.412 83.0358 173.446V173.549H78.0108C78.0279 173.823 78.0964 174.08 78.2164 174.32C78.3363 174.552 78.4906 174.753 78.6791 174.924C78.8675 175.096 79.0817 175.233 79.3216 175.336C79.5701 175.43 79.8314 175.477 80.1056 175.477C80.5768 175.477 80.9453 175.378 81.2109 175.181C81.485 174.976 81.7206 174.719 81.9177 174.41L82.8173 174.873C82.5603 175.344 82.2004 175.73 81.7378 176.03C81.2751 176.321 80.7268 176.467 80.0927 176.467ZM81.9306 172.637C81.9049 172.388 81.8363 172.161 81.7249 171.956C81.6135 171.741 81.4722 171.557 81.3008 171.403C81.1295 171.249 80.9324 171.129 80.7096 171.043C80.4869 170.949 80.247 170.902 79.9899 170.902C79.7329 170.902 79.493 170.953 79.2702 171.056C79.0475 171.159 78.8461 171.292 78.6662 171.454C78.4948 171.617 78.3535 171.801 78.2421 172.007C78.1307 172.213 78.0622 172.423 78.0365 172.637H81.9306Z" fill="black"/>
</g>
<g filter="url(#filter3_d_556_1739)">
<rect x="31.6016" y="207.235" width="135.479" height="42.8393" rx="6.23934" fill="#F1F1F1" shape-rendering="crispEdges"/>
<path d="M47.7737 230.323C47.945 230.794 48.2021 231.179 48.5448 231.479C48.8875 231.779 49.3159 231.929 49.8299 231.929C50.0613 231.929 50.2755 231.899 50.4725 231.839C50.6782 231.771 50.8581 231.672 51.0123 231.543C51.1665 231.415 51.2865 231.261 51.3722 231.081C51.4664 230.892 51.5135 230.682 51.5135 230.451C51.5135 230.091 51.4021 229.791 51.1794 229.551C50.9652 229.312 50.631 229.106 50.1769 228.935L49.1231 228.536C48.4548 228.288 47.945 227.971 47.5937 227.585C47.2425 227.2 47.0668 226.711 47.0668 226.12C47.0668 225.752 47.1354 225.422 47.2724 225.13C47.4095 224.831 47.5937 224.578 47.8251 224.372C48.065 224.158 48.3434 223.995 48.6604 223.884C48.986 223.772 49.333 223.717 49.7014 223.717C50.344 223.717 50.9009 223.897 51.3722 224.256C51.852 224.608 52.2032 225.1 52.426 225.734L51.385 226.171C51.2394 225.786 51.0294 225.46 50.7553 225.195C50.4811 224.929 50.1255 224.796 49.6886 224.796C49.2773 224.796 48.9303 224.912 48.6476 225.143C48.3648 225.366 48.2235 225.67 48.2235 226.056C48.2235 226.381 48.3349 226.66 48.5576 226.891C48.7804 227.114 49.1231 227.311 49.5858 227.482L50.6268 227.881C51.3208 228.146 51.8348 228.48 52.169 228.883C52.5117 229.286 52.683 229.783 52.683 230.374C52.683 230.785 52.6059 231.154 52.4517 231.479C52.3061 231.805 52.1004 232.083 51.8348 232.315C51.5778 232.537 51.2736 232.709 50.9223 232.829C50.5711 232.949 50.1941 233.009 49.7914 233.009C49.0289 233.009 48.3777 232.807 47.8379 232.405C47.3067 232.002 46.9297 231.436 46.707 230.708L47.7737 230.323ZM57.0397 226.48C57.5109 226.48 57.9436 226.566 58.3377 226.737C58.7404 226.908 59.0874 227.144 59.3787 227.444C59.67 227.735 59.8971 228.078 60.0599 228.472C60.2227 228.866 60.3041 229.29 60.3041 229.744C60.3041 230.198 60.2227 230.622 60.0599 231.017C59.8971 231.411 59.67 231.758 59.3787 232.058C59.0874 232.349 58.7404 232.58 58.3377 232.752C57.9436 232.923 57.5109 233.009 57.0397 233.009C56.5685 233.009 56.1315 232.923 55.7288 232.752C55.3347 232.58 54.992 232.349 54.7007 232.058C54.4094 231.758 54.1823 231.411 54.0195 231.017C53.8567 230.622 53.7753 230.198 53.7753 229.744C53.7753 229.29 53.8567 228.866 54.0195 228.472C54.1823 228.078 54.4094 227.735 54.7007 227.444C54.992 227.144 55.3347 226.908 55.7288 226.737C56.1315 226.566 56.5685 226.48 57.0397 226.48ZM57.0397 227.495C56.7313 227.495 56.4442 227.555 56.1786 227.675C55.9216 227.786 55.6945 227.945 55.4975 228.151C55.309 228.356 55.1591 228.596 55.0477 228.87C54.9449 229.144 54.8934 229.436 54.8934 229.744C54.8934 230.053 54.9449 230.344 55.0477 230.618C55.1591 230.892 55.309 231.132 55.4975 231.338C55.6945 231.543 55.9216 231.706 56.1786 231.826C56.4442 231.938 56.7313 231.993 57.0397 231.993C57.3481 231.993 57.6309 231.938 57.8879 231.826C58.1535 231.706 58.3806 231.543 58.5691 231.338C58.7661 231.132 58.9161 230.892 59.0189 230.618C59.1303 230.344 59.1859 230.053 59.1859 229.744C59.1859 229.436 59.1303 229.144 59.0189 228.87C58.9161 228.596 58.7661 228.356 58.5691 228.151C58.3806 227.945 58.1535 227.786 57.8879 227.675C57.6309 227.555 57.3481 227.495 57.0397 227.495ZM63.0114 232.867H61.9061V226.621H62.9985V227.521C63.1699 227.195 63.4098 226.943 63.7182 226.763C64.0267 226.574 64.3994 226.48 64.8363 226.48C65.299 226.48 65.6931 226.587 66.0187 226.801C66.3528 227.015 66.6141 227.315 66.8026 227.701C66.8797 227.572 66.9783 227.435 67.0982 227.29C67.2182 227.144 67.3638 227.011 67.5352 226.891C67.7151 226.771 67.9165 226.673 68.1392 226.596C68.3706 226.518 68.6362 226.48 68.936 226.48C69.6643 226.48 70.2298 226.715 70.6325 227.187C71.0352 227.658 71.2365 228.296 71.2365 229.102V232.867H70.1313V229.294C70.1313 228.737 70.0113 228.301 69.7714 227.984C69.5401 227.658 69.1888 227.495 68.7176 227.495C68.2292 227.495 67.8393 227.684 67.548 228.061C67.2653 228.438 67.1239 228.947 67.1239 229.59V232.867H66.0187V229.32C66.0187 228.755 65.8987 228.309 65.6588 227.984C65.4189 227.658 65.0676 227.495 64.605 227.495C64.1166 227.495 63.7268 227.684 63.4355 228.061C63.1527 228.438 63.0114 228.947 63.0114 229.59V232.867ZM75.9391 233.009C75.4764 233.009 75.048 232.927 74.6539 232.764C74.2683 232.602 73.9342 232.379 73.6514 232.096C73.3687 231.805 73.1459 231.462 72.9831 231.068C72.8289 230.665 72.7518 230.224 72.7518 229.744C72.7518 229.282 72.8289 228.853 72.9831 228.459C73.1459 228.056 73.3644 227.709 73.6386 227.418C73.9213 227.127 74.2512 226.9 74.6282 226.737C75.0052 226.566 75.4164 226.48 75.8619 226.48C76.2989 226.48 76.7016 226.566 77.07 226.737C77.447 226.9 77.7683 227.127 78.0339 227.418C78.3081 227.709 78.518 228.052 78.6636 228.446C78.8179 228.832 78.895 229.247 78.895 229.693C78.895 229.761 78.8907 229.821 78.8821 229.873C78.8821 229.916 78.8821 229.954 78.8821 229.988V230.091H73.8571C73.8742 230.365 73.9427 230.622 74.0627 230.862C74.1826 231.094 74.3369 231.295 74.5254 231.466C74.7139 231.638 74.928 231.775 75.1679 231.878C75.4164 231.972 75.6777 232.019 75.9519 232.019C76.4231 232.019 76.7916 231.92 77.0572 231.723C77.3313 231.518 77.5669 231.261 77.764 230.952L78.6636 231.415C78.4066 231.886 78.0467 232.272 77.5841 232.572C77.1214 232.863 76.5731 233.009 75.9391 233.009ZM77.7769 229.179C77.7512 228.93 77.6826 228.703 77.5712 228.498C77.4598 228.283 77.3185 228.099 77.1471 227.945C76.9758 227.791 76.7787 227.671 76.5559 227.585C76.3332 227.491 76.0933 227.444 75.8362 227.444C75.5792 227.444 75.3393 227.495 75.1165 227.598C74.8938 227.701 74.6924 227.834 74.5125 227.996C74.3411 228.159 74.1998 228.343 74.0884 228.549C73.977 228.755 73.9085 228.965 73.8828 229.179H77.7769Z" fill="black"/>
</g>
<g filter="url(#filter4_d_556_1739)">
<rect x="31.0703" y="263.461" width="135.479" height="42.8393" rx="6.23934" fill="#F1F1F1" shape-rendering="crispEdges"/>
<path d="M49.6479 282.256L53.3492 291.252H52.1411L51.0873 288.643H47.2703L46.2165 291.252H45.0341L48.7483 282.256H49.6479ZM47.6816 287.602H50.676L49.1724 283.862L47.6816 287.602ZM58.7857 282.256V291.252H57.6805V282.256H58.7857ZM63.6577 284.865C64.129 284.865 64.5617 284.95 64.9558 285.122C65.3585 285.293 65.7055 285.529 65.9968 285.828C66.2881 286.12 66.5151 286.463 66.6779 286.857C66.8407 287.251 66.9221 287.675 66.9221 288.129C66.9221 288.583 66.8407 289.007 66.6779 289.401C66.5151 289.795 66.2881 290.142 65.9968 290.442C65.7055 290.734 65.3585 290.965 64.9558 291.136C64.5617 291.308 64.129 291.393 63.6577 291.393C63.1865 291.393 62.7496 291.308 62.3469 291.136C61.9527 290.965 61.61 290.734 61.3187 290.442C61.0274 290.142 60.8004 289.795 60.6376 289.401C60.4748 289.007 60.3934 288.583 60.3934 288.129C60.3934 287.675 60.4748 287.251 60.6376 286.857C60.8004 286.463 61.0274 286.12 61.3187 285.828C61.61 285.529 61.9527 285.293 62.3469 285.122C62.7496 284.95 63.1865 284.865 63.6577 284.865ZM63.6577 285.88C63.3493 285.88 63.0623 285.94 62.7967 286.06C62.5396 286.171 62.3126 286.33 62.1155 286.535C61.927 286.741 61.7771 286.981 61.6657 287.255C61.5629 287.529 61.5115 287.821 61.5115 288.129C61.5115 288.437 61.5629 288.729 61.6657 289.003C61.7771 289.277 61.927 289.517 62.1155 289.723C62.3126 289.928 62.5396 290.091 62.7967 290.211C63.0623 290.322 63.3493 290.378 63.6577 290.378C63.9662 290.378 64.2489 290.322 64.506 290.211C64.7716 290.091 64.9986 289.928 65.1871 289.723C65.3842 289.517 65.5341 289.277 65.6369 289.003C65.7483 288.729 65.804 288.437 65.804 288.129C65.804 287.821 65.7483 287.529 65.6369 287.255C65.5341 286.981 65.3842 286.741 65.1871 286.535C64.9986 286.33 64.7716 286.171 64.506 286.06C64.2489 285.94 63.9662 285.88 63.6577 285.88ZM69.8736 283.13V285.006H71.6214V285.996H69.8736V289.298C69.8736 289.667 69.955 289.937 70.1178 290.108C70.2891 290.28 70.5547 290.365 70.9146 290.365C71.0345 290.365 71.1588 290.352 71.2873 290.327C71.4158 290.292 71.5272 290.241 71.6214 290.172V291.201C71.5101 291.261 71.373 291.308 71.2102 291.342C71.056 291.376 70.8718 291.393 70.6576 291.393C70.0664 291.393 69.6037 291.222 69.2696 290.879C68.9354 290.537 68.7683 290.061 68.7683 289.453V285.996H67.8045V285.006H68.7683V283.13H69.8736Z" fill="black"/>
</g>
<path d="M17.1512 16.0645H9.6543" stroke="#111111" stroke-width="1.07098" stroke-linecap="round" stroke-linejoin="round"/>
<path d="M13.4027 19.8133L9.6543 16.0648L13.4027 12.3164" stroke="#111111" stroke-width="1.07098" stroke-linecap="round" stroke-linejoin="round"/>
<rect x="14.4477" y="29.3793" width="183.744" height="290.419" rx="3.79082" stroke="#DE7087" stroke-width="1.89541"/>
<defs>
<filter id="filter0_d_556_1739" x="34.4574" y="357.708" width="140.471" height="35.5149" filterUnits="userSpaceOnUse" color-interpolation-filters="sRGB">
<feFlood flood-opacity="0" result="BackgroundImageFix"/>
<feColorMatrix in="SourceAlpha" type="matrix" values="0 0 0 0 0 0 0 0 0 0 0 0 0 0 0 0 0 0 127 0" result="hardAlpha"/>
<feOffset dy="2.49573"/>
<feGaussianBlur stdDeviation="1.24787"/>
<feComposite in2="hardAlpha" operator="out"/>
<feColorMatrix type="matrix" values="0 0 0 0 0 0 0 0 0 0 0 0 0 0 0 0 0 0 0.25 0"/>
<feBlend mode="normal" in2="BackgroundImageFix" result="effect1_dropShadow_556_1739"/>
<feBlend mode="normal" in="SourceGraphic" in2="effect1_dropShadow_556_1739" result="shape"/>
</filter>
<filter id="filter1_d_556_1739" x="29.1058" y="94.7812" width="140.471" height="47.8303" filterUnits="userSpaceOnUse" color-interpolation-filters="sRGB">
<feFlood flood-opacity="0" result="BackgroundImageFix"/>
<feColorMatrix in="SourceAlpha" type="matrix" values="0 0 0 0 0 0 0 0 0 0 0 0 0 0 0 0 0 0 127 0" result="hardAlpha"/>
<feOffset dy="2.49573"/>
<feGaussianBlur stdDeviation="1.24787"/>
<feComposite in2="hardAlpha" operator="out"/>
<feColorMatrix type="matrix" values="0 0 0 0 0 0 0 0 0 0 0 0 0 0 0 0 0 0 0.25 0"/>
<feBlend mode="normal" in2="BackgroundImageFix" result="effect1_dropShadow_556_1739"/>
<feBlend mode="normal" in="SourceGraphic" in2="effect1_dropShadow_556_1739" result="shape"/>
</filter>
<filter id="filter2_d_556_1739" x="29.1058" y="151.009" width="140.471" height="47.8303" filterUnits="userSpaceOnUse" color-interpolation-filters="sRGB">
<feFlood flood-opacity="0" result="BackgroundImageFix"/>
<feColorMatrix in="SourceAlpha" type="matrix" values="0 0 0 0 0 0 0 0 0 0 0 0 0 0 0 0 0 0 127 0" result="hardAlpha"/>
<feOffset dy="2.49573"/>
<feGaussianBlur stdDeviation="1.24787"/>
<feComposite in2="hardAlpha" operator="out"/>
<feColorMatrix type="matrix" values="0 0 0 0 0 0 0 0 0 0 0 0 0 0 0 0 0 0 0.25 0"/>
<feBlend mode="normal" in2="BackgroundImageFix" result="effect1_dropShadow_556_1739"/>
<feBlend mode="normal" in="SourceGraphic" in2="effect1_dropShadow_556_1739" result="shape"/>
</filter>
<filter id="filter3_d_556_1739" x="29.1058" y="207.235" width="140.471" height="47.8303" filterUnits="userSpaceOnUse" color-interpolation-filters="sRGB">
<feFlood flood-opacity="0" result="BackgroundImageFix"/>
<feColorMatrix in="SourceAlpha" type="matrix" values="0 0 0 0 0 0 0 0 0 0 0 0 0 0 0 0 0 0 127 0" result="hardAlpha"/>
<feOffset dy="2.49573"/>
<feGaussianBlur stdDeviation="1.24787"/>
<feComposite in2="hardAlpha" operator="out"/>
<feColorMatrix type="matrix" values="0 0 0 0 0 0 0 0 0 0 0 0 0 0 0 0 0 0 0.25 0"/>
<feBlend mode="normal" in2="BackgroundImageFix" result="effect1_dropShadow_556_1739"/>
<feBlend mode="normal" in="SourceGraphic" in2="effect1_dropShadow_556_1739" result="shape"/>
</filter>
<filter id="filter4_d_556_1739" x="28.5746" y="263.461" width="140.471" height="47.8303" filterUnits="userSpaceOnUse" color-interpolation-filters="sRGB">
<feFlood flood-opacity="0" result="BackgroundImageFix"/>
<feColorMatrix in="SourceAlpha" type="matrix" values="0 0 0 0 0 0 0 0 0 0 0 0 0 0 0 0 0 0 127 0" result="hardAlpha"/>
<feOffset dy="2.49573"/>
<feGaussianBlur stdDeviation="1.24787"/>
<feComposite in2="hardAlpha" operator="out"/>
<feColorMatrix type="matrix" values="0 0 0 0 0 0 0 0 0 0 0 0 0 0 0 0 0 0 0.25 0"/>
<feBlend mode="normal" in2="BackgroundImageFix" result="effect1_dropShadow_556_1739"/>
<feBlend mode="normal" in="SourceGraphic" in2="effect1_dropShadow_556_1739" result="shape"/>
</filter>
</defs>
</svg>
