<svg width="208" height="450" viewBox="0 0 208 450" fill="none" xmlns="http://www.w3.org/2000/svg">
<rect x="0.463743" y="0.463743" width="206.744" height="448.496" rx="14.7338" fill="white"/>
<rect x="0.463743" y="0.463743" width="206.744" height="448.496" rx="14.7338" stroke="black" stroke-width="0.927485"/>
<path fill-rule="evenodd" clip-rule="evenodd" d="M17.2949 409.232C17.2949 401.245 18.3597 406.836 23.6846 411.894C24.1812 412.366 24.6057 412.834 24.9668 413.291H25.8242C25.8131 413.178 25.8076 413.063 25.8076 412.947C25.8078 411.036 27.3571 409.486 29.2686 409.486C31.18 409.486 32.7293 411.036 32.7295 412.947C32.7295 413.063 32.724 413.178 32.7129 413.291H40.1895C39.3106 420.45 33.2091 425.994 25.8125 425.994C18.4161 425.994 12.3154 420.45 11.4365 413.291H18.2617C17.6737 412.151 17.295 410.808 17.2949 409.232Z" fill="#D9D9D9"/>
<path d="M14.2145 435.246V435.846C14.2698 435.744 14.3401 435.653 14.4253 435.572C14.5148 435.491 14.6128 435.42 14.7193 435.361C14.8258 435.301 14.9386 435.256 15.0579 435.227C15.1815 435.193 15.3071 435.176 15.4349 435.176C15.6564 435.176 15.8609 435.218 16.0484 435.303C16.2401 435.384 16.4062 435.497 16.5468 435.642C16.6873 435.787 16.7981 435.957 16.879 436.153C16.96 436.349 17.0005 436.56 17.0005 436.786C17.0005 437.012 16.96 437.222 16.879 437.418C16.7981 437.614 16.6873 437.785 16.5468 437.93C16.4062 438.07 16.2401 438.183 16.0484 438.268C15.8609 438.349 15.6564 438.39 15.4349 438.39C15.1751 438.39 14.9344 438.33 14.7129 438.211C14.4913 438.091 14.3252 437.932 14.2145 437.731V439.648H13.8374V435.246H14.2145ZM15.4094 435.527C15.2347 435.527 15.0728 435.561 14.9237 435.629C14.7789 435.693 14.6511 435.783 14.5403 435.898C14.4296 436.008 14.3423 436.14 14.2784 436.294C14.2187 436.447 14.1889 436.611 14.1889 436.786C14.1889 436.96 14.2187 437.124 14.2784 437.278C14.3423 437.427 14.4296 437.559 14.5403 437.674C14.6511 437.785 14.7789 437.874 14.9237 437.942C15.0728 438.006 15.2347 438.038 15.4094 438.038C15.5755 438.038 15.731 438.006 15.8758 437.942C16.0249 437.878 16.1527 437.791 16.2592 437.68C16.37 437.565 16.4552 437.431 16.5148 437.278C16.5787 437.124 16.6107 436.96 16.6107 436.786C16.6107 436.607 16.5787 436.441 16.5148 436.287C16.4552 436.134 16.37 436.002 16.2592 435.891C16.1527 435.776 16.0249 435.687 15.8758 435.623C15.731 435.559 15.5755 435.527 15.4094 435.527ZM20.7962 436.779C20.7962 437.005 20.7557 437.216 20.6748 437.412C20.5939 437.604 20.481 437.774 20.3361 437.923C20.1956 438.068 20.0273 438.183 19.8313 438.268C19.6354 438.349 19.4245 438.39 19.1987 438.39C18.973 438.39 18.7621 438.349 18.5661 438.268C18.3702 438.183 18.1998 438.068 18.0549 437.923C17.9144 437.774 17.8036 437.604 17.7227 437.412C17.6417 437.216 17.6013 437.005 17.6013 436.779C17.6013 436.558 17.6417 436.349 17.7227 436.153C17.8036 435.957 17.9144 435.787 18.0549 435.642C18.1998 435.497 18.3702 435.384 18.5661 435.303C18.7621 435.218 18.973 435.176 19.1987 435.176C19.4245 435.176 19.6354 435.218 19.8313 435.303C20.0273 435.384 20.1956 435.497 20.3361 435.642C20.481 435.787 20.5939 435.957 20.6748 436.153C20.7557 436.349 20.7962 436.558 20.7962 436.779ZM20.4064 436.779C20.4064 436.609 20.3745 436.447 20.3106 436.294C20.2509 436.14 20.1657 436.008 20.055 435.898C19.9485 435.783 19.8207 435.693 19.6716 435.629C19.5267 435.561 19.3691 435.527 19.1987 435.527C19.0283 435.527 18.8686 435.561 18.7195 435.629C18.5746 435.693 18.4468 435.783 18.3361 435.898C18.2296 436.008 18.1444 436.14 18.0805 436.294C18.0209 436.447 17.991 436.609 17.991 436.779C17.991 436.954 18.0209 437.118 18.0805 437.271C18.1444 437.425 18.2296 437.559 18.3361 437.674C18.4468 437.785 18.5746 437.874 18.7195 437.942C18.8686 438.006 19.0283 438.038 19.1987 438.038C19.3691 438.038 19.5267 438.006 19.6716 437.942C19.8207 437.874 19.9485 437.785 20.055 437.674C20.1657 437.559 20.2509 437.425 20.3106 437.271C20.3745 437.118 20.4064 436.954 20.4064 436.779ZM23.1461 435.584H23.1078C23.095 435.584 23.0822 435.584 23.0694 435.584C23.0566 435.58 23.0396 435.578 23.0183 435.578C22.8692 435.578 22.7307 435.61 22.6029 435.674C22.4794 435.734 22.3729 435.819 22.2835 435.93C22.194 436.036 22.1237 436.166 22.0726 436.319C22.0257 436.468 22.0023 436.632 22.0023 436.811V438.319H21.6189V435.246H21.9959V435.885C22.03 435.791 22.0811 435.704 22.1493 435.623C22.2174 435.538 22.2984 435.463 22.3921 435.399C22.4858 435.335 22.5859 435.286 22.6924 435.252C22.8032 435.214 22.9161 435.195 23.0311 435.195C23.0481 435.195 23.063 435.197 23.0758 435.201C23.0928 435.201 23.1056 435.201 23.1141 435.201H23.1461V435.584ZM24.3265 434.3V435.246H25.2147V435.591H24.3265V437.444C24.3265 437.836 24.5054 438.032 24.8632 438.032C24.9271 438.032 24.9889 438.023 25.0485 438.006C25.1124 437.989 25.1699 437.966 25.2211 437.936V438.3C25.1742 438.321 25.1146 438.341 25.0421 438.358C24.974 438.379 24.893 438.39 24.7993 438.39C24.531 438.39 24.3201 438.315 24.1667 438.166C24.0176 438.013 23.9431 437.789 23.9431 437.495V435.591H23.4511V435.246H23.9431V434.3H24.3265ZM26.0836 438.319V435.591H25.598V435.246H26.0836V434.818C26.0836 434.464 26.1731 434.202 26.352 434.032C26.5309 433.857 26.7567 433.77 27.0293 433.77C27.1315 433.77 27.2189 433.78 27.2913 433.802C27.368 433.823 27.4297 433.846 27.4766 433.872V434.217C27.4297 434.196 27.3722 434.177 27.3041 434.16C27.2402 434.138 27.1614 434.128 27.0676 434.128C26.893 434.128 26.7481 434.181 26.6331 434.287C26.5224 434.39 26.467 434.566 26.467 434.818V435.246H27.3488V435.591H26.467V438.319H26.0836ZM31.0051 436.779C31.0051 437.005 30.9646 437.216 30.8837 437.412C30.8027 437.604 30.6898 437.774 30.545 437.923C30.4044 438.068 30.2362 438.183 30.0402 438.268C29.8442 438.349 29.6334 438.39 29.4076 438.39C29.1818 438.39 28.971 438.349 28.775 438.268C28.579 438.183 28.4086 438.068 28.2638 437.923C28.1232 437.774 28.0125 437.604 27.9315 437.412C27.8506 437.216 27.8101 437.005 27.8101 436.779C27.8101 436.558 27.8506 436.349 27.9315 436.153C28.0125 435.957 28.1232 435.787 28.2638 435.642C28.4086 435.497 28.579 435.384 28.775 435.303C28.971 435.218 29.1818 435.176 29.4076 435.176C29.6334 435.176 29.8442 435.218 30.0402 435.303C30.2362 435.384 30.4044 435.497 30.545 435.642C30.6898 435.787 30.8027 435.957 30.8837 436.153C30.9646 436.349 31.0051 436.558 31.0051 436.779ZM30.6153 436.779C30.6153 436.609 30.5833 436.447 30.5194 436.294C30.4598 436.14 30.3746 436.008 30.2638 435.898C30.1573 435.783 30.0295 435.693 29.8804 435.629C29.7356 435.561 29.578 435.527 29.4076 435.527C29.2372 435.527 29.0775 435.561 28.9284 435.629C28.7835 435.693 28.6557 435.783 28.545 435.898C28.4385 436.008 28.3533 436.14 28.2894 436.294C28.2297 436.447 28.1999 436.609 28.1999 436.779C28.1999 436.954 28.2297 437.118 28.2894 437.271C28.3533 437.425 28.4385 437.559 28.545 437.674C28.6557 437.785 28.7835 437.874 28.9284 437.942C29.0775 438.006 29.2372 438.038 29.4076 438.038C29.578 438.038 29.7356 438.006 29.8804 437.942C30.0295 437.874 30.1573 437.785 30.2638 437.674C30.3746 437.559 30.4598 437.425 30.5194 437.271C30.5833 437.118 30.6153 436.954 30.6153 436.779ZM32.2112 433.846V438.319H31.8278V433.846H32.2112ZM33.6402 435.246V438.319H33.2568V435.246H33.6402ZM33.1801 434.3C33.1801 434.228 33.2056 434.166 33.2568 434.115C33.3121 434.059 33.376 434.032 33.4485 434.032C33.5209 434.032 33.5826 434.059 33.6338 434.115C33.6891 434.166 33.7168 434.228 33.7168 434.3C33.7168 434.373 33.6891 434.436 33.6338 434.492C33.5826 434.543 33.5209 434.568 33.4485 434.568C33.376 434.568 33.3121 434.543 33.2568 434.492C33.2056 434.436 33.1801 434.373 33.1801 434.3ZM37.6571 436.779C37.6571 437.005 37.6166 437.216 37.5357 437.412C37.4547 437.604 37.3418 437.774 37.197 437.923C37.0564 438.068 36.8881 438.183 36.6922 438.268C36.4962 438.349 36.2854 438.39 36.0596 438.39C35.8338 438.39 35.6229 438.349 35.427 438.268C35.231 438.183 35.0606 438.068 34.9158 437.923C34.7752 437.774 34.6645 437.604 34.5835 437.412C34.5026 437.216 34.4621 437.005 34.4621 436.779C34.4621 436.558 34.5026 436.349 34.5835 436.153C34.6645 435.957 34.7752 435.787 34.9158 435.642C35.0606 435.497 35.231 435.384 35.427 435.303C35.6229 435.218 35.8338 435.176 36.0596 435.176C36.2854 435.176 36.4962 435.218 36.6922 435.303C36.8881 435.384 37.0564 435.497 37.197 435.642C37.3418 435.787 37.4547 435.957 37.5357 436.153C37.6166 436.349 37.6571 436.558 37.6571 436.779ZM37.2673 436.779C37.2673 436.609 37.2353 436.447 37.1714 436.294C37.1118 436.14 37.0266 436.008 36.9158 435.898C36.8093 435.783 36.6815 435.693 36.5324 435.629C36.3876 435.561 36.23 435.527 36.0596 435.527C35.8892 435.527 35.7294 435.561 35.5803 435.629C35.4355 435.693 35.3077 435.783 35.1969 435.898C35.0905 436.008 35.0053 436.14 34.9414 436.294C34.8817 436.447 34.8519 436.609 34.8519 436.779C34.8519 436.954 34.8817 437.118 34.9414 437.271C35.0053 437.425 35.0905 437.559 35.1969 437.674C35.3077 437.785 35.4355 437.874 35.5803 437.942C35.7294 438.006 35.8892 438.038 36.0596 438.038C36.23 438.038 36.3876 438.006 36.5324 437.942C36.6815 437.874 36.8093 437.785 36.9158 437.674C37.0266 437.559 37.1118 437.425 37.1714 437.271C37.2353 437.118 37.2673 436.954 37.2673 436.779Z" fill="black"/>
<path d="M66.001 405.049C70.4123 405.049 73.9882 408.625 73.9883 413.036C73.9883 414.665 73.4986 416.179 72.6611 417.442L78.4854 423.268C79.1089 423.891 79.109 424.903 78.4854 425.526C77.8615 426.15 76.8494 426.15 76.2256 425.526L70.4004 419.701C69.1385 420.536 67.6271 421.023 66.001 421.023C61.5897 421.023 58.0137 417.447 58.0137 413.036C58.0137 408.625 61.5897 405.049 66.001 405.049Z" fill="#D9D9D9"/>
<path d="M60.672 437.584C60.5484 437.827 60.3716 438.023 60.1416 438.172C59.9116 438.317 59.6432 438.39 59.3365 438.39C59.1107 438.39 58.902 438.351 58.7103 438.275C58.5228 438.194 58.3588 438.083 58.2182 437.942C58.0819 437.797 57.9754 437.627 57.8987 437.431C57.8221 437.231 57.7837 437.014 57.7837 436.779C57.7837 436.549 57.8221 436.336 57.8987 436.14C57.9754 435.944 58.0819 435.776 58.2182 435.636C58.3546 435.491 58.5164 435.378 58.7039 435.297C58.8913 435.216 59.0937 435.176 59.3109 435.176C59.5282 435.176 59.7263 435.216 59.9052 435.297C60.0883 435.378 60.2438 435.491 60.3716 435.636C60.5037 435.776 60.6059 435.944 60.6784 436.14C60.755 436.332 60.7934 436.539 60.7934 436.76C60.7934 436.781 60.7912 436.801 60.787 436.818C60.787 436.83 60.787 436.843 60.787 436.856V436.894H58.1735V436.901C58.1778 437.067 58.2118 437.22 58.2757 437.361C58.3396 437.497 58.4227 437.616 58.525 437.719C58.6315 437.817 58.755 437.895 58.8956 437.955C59.0361 438.01 59.1852 438.038 59.3429 438.038C59.5899 438.038 59.7923 437.983 59.9499 437.872C60.1118 437.761 60.246 437.612 60.3525 437.425L60.672 437.584ZM59.3045 435.514C59.1512 435.514 59.0085 435.544 58.8764 435.604C58.7443 435.659 58.6272 435.736 58.525 435.834C58.427 435.932 58.346 436.045 58.2821 436.172C58.2225 436.296 58.1884 436.428 58.1799 436.569H60.4036C60.3908 436.419 60.3546 436.281 60.295 436.153C60.2353 436.021 60.1565 435.908 60.0585 435.814C59.9648 435.721 59.8519 435.648 59.7199 435.597C59.5921 435.542 59.4536 435.514 59.3045 435.514ZM62.6054 437.016L61.6469 438.319H61.206L62.3817 436.747L61.2635 435.246H61.7108L62.6181 436.466L63.5255 435.246H63.96L62.8418 436.735L64.0175 438.319H63.5638L62.6054 437.016ZM65.0676 435.246V435.846C65.1229 435.744 65.1932 435.653 65.2784 435.572C65.3679 435.491 65.4659 435.42 65.5724 435.361C65.6789 435.301 65.7918 435.256 65.911 435.227C66.0346 435.193 66.1602 435.176 66.288 435.176C66.5096 435.176 66.714 435.218 66.9015 435.303C67.0932 435.384 67.2593 435.497 67.3999 435.642C67.5405 435.787 67.6512 435.957 67.7322 436.153C67.8131 436.349 67.8536 436.56 67.8536 436.786C67.8536 437.012 67.8131 437.222 67.7322 437.418C67.6512 437.614 67.5405 437.785 67.3999 437.93C67.2593 438.07 67.0932 438.183 66.9015 438.268C66.714 438.349 66.5096 438.39 66.288 438.39C66.0282 438.39 65.7875 438.33 65.566 438.211C65.3445 438.091 65.1783 437.932 65.0676 437.731V439.648H64.6906V435.246H65.0676ZM66.2625 435.527C66.0878 435.527 65.9259 435.561 65.7768 435.629C65.632 435.693 65.5042 435.783 65.3935 435.898C65.2827 436.008 65.1954 436.14 65.1315 436.294C65.0718 436.447 65.042 436.611 65.042 436.786C65.042 436.96 65.0718 437.124 65.1315 437.278C65.1954 437.427 65.2827 437.559 65.3935 437.674C65.5042 437.785 65.632 437.874 65.7768 437.942C65.9259 438.006 66.0878 438.038 66.2625 438.038C66.4286 438.038 66.5841 438.006 66.7289 437.942C66.878 437.878 67.0058 437.791 67.1123 437.68C67.2231 437.565 67.3083 437.431 67.3679 437.278C67.4318 437.124 67.4638 436.96 67.4638 436.786C67.4638 436.607 67.4318 436.441 67.3679 436.287C67.3083 436.134 67.2231 436.002 67.1123 435.891C67.0058 435.776 66.878 435.687 66.7289 435.623C66.5841 435.559 66.4286 435.527 66.2625 435.527ZM69.0614 433.846V438.319H68.678V433.846H69.0614ZM73.0783 436.779C73.0783 437.005 73.0378 437.216 72.9569 437.412C72.876 437.604 72.7631 437.774 72.6182 437.923C72.4777 438.068 72.3094 438.183 72.1134 438.268C71.9175 438.349 71.7066 438.39 71.4808 438.39C71.2551 438.39 71.0442 438.349 70.8482 438.268C70.6523 438.183 70.4819 438.068 70.337 437.923C70.1965 437.774 70.0857 437.604 70.0048 437.412C69.9238 437.216 69.8834 437.005 69.8834 436.779C69.8834 436.558 69.9238 436.349 70.0048 436.153C70.0857 435.957 70.1965 435.787 70.337 435.642C70.4819 435.497 70.6523 435.384 70.8482 435.303C71.0442 435.218 71.2551 435.176 71.4808 435.176C71.7066 435.176 71.9175 435.218 72.1134 435.303C72.3094 435.384 72.4777 435.497 72.6182 435.642C72.7631 435.787 72.876 435.957 72.9569 436.153C73.0378 436.349 73.0783 436.558 73.0783 436.779ZM72.6885 436.779C72.6885 436.609 72.6566 436.447 72.5927 436.294C72.533 436.14 72.4478 436.008 72.3371 435.898C72.2306 435.783 72.1028 435.693 71.9537 435.629C71.8088 435.561 71.6512 435.527 71.4808 435.527C71.3104 435.527 71.1507 435.561 71.0016 435.629C70.8568 435.693 70.729 435.783 70.6182 435.898C70.5117 436.008 70.4265 436.14 70.3626 436.294C70.303 436.447 70.2731 436.609 70.2731 436.779C70.2731 436.954 70.303 437.118 70.3626 437.271C70.4265 437.425 70.5117 437.559 70.6182 437.674C70.729 437.785 70.8568 437.874 71.0016 437.942C71.1507 438.006 71.3104 438.038 71.4808 438.038C71.6512 438.038 71.8088 438.006 71.9537 437.942C72.1028 437.874 72.2306 437.785 72.3371 437.674C72.4478 437.559 72.533 437.425 72.5927 437.271C72.6566 437.118 72.6885 436.954 72.6885 436.779ZM75.4282 435.584H75.3899C75.3771 435.584 75.3643 435.584 75.3515 435.584C75.3387 435.58 75.3217 435.578 75.3004 435.578C75.1513 435.578 75.0129 435.61 74.8851 435.674C74.7615 435.734 74.655 435.819 74.5656 435.93C74.4761 436.036 74.4058 436.166 74.3547 436.319C74.3078 436.468 74.2844 436.632 74.2844 436.811V438.319H73.901V435.246H74.278V435.885C74.3121 435.791 74.3632 435.704 74.4314 435.623C74.4995 435.538 74.5805 435.463 74.6742 435.399C74.7679 435.335 74.868 435.286 74.9745 435.252C75.0853 435.214 75.1982 435.195 75.3132 435.195C75.3302 435.195 75.3451 435.197 75.3579 435.201C75.3749 435.201 75.3877 435.201 75.3962 435.201H75.4282V435.584ZM78.7684 437.584C78.6448 437.827 78.468 438.023 78.238 438.172C78.008 438.317 77.7396 438.39 77.4329 438.39C77.2071 438.39 76.9984 438.351 76.8067 438.275C76.6192 438.194 76.4552 438.083 76.3146 437.942C76.1783 437.797 76.0718 437.627 75.9951 437.431C75.9185 437.231 75.8801 437.014 75.8801 436.779C75.8801 436.549 75.9185 436.336 75.9951 436.14C76.0718 435.944 76.1783 435.776 76.3146 435.636C76.451 435.491 76.6128 435.378 76.8003 435.297C76.9877 435.216 77.1901 435.176 77.4073 435.176C77.6246 435.176 77.8227 435.216 78.0016 435.297C78.1848 435.378 78.3402 435.491 78.468 435.636C78.6001 435.776 78.7023 435.944 78.7748 436.14C78.8514 436.332 78.8898 436.539 78.8898 436.76C78.8898 436.781 78.8876 436.801 78.8834 436.818C78.8834 436.83 78.8834 436.843 78.8834 436.856V436.894H76.2699V436.901C76.2742 437.067 76.3083 437.22 76.3722 437.361C76.4361 437.497 76.5191 437.616 76.6214 437.719C76.7279 437.817 76.8514 437.895 76.992 437.955C77.1326 438.01 77.2816 438.038 77.4393 438.038C77.6863 438.038 77.8887 437.983 78.0463 437.872C78.2082 437.761 78.3424 437.612 78.4489 437.425L78.7684 437.584ZM77.4009 435.514C77.2476 435.514 77.1049 435.544 76.9728 435.604C76.8407 435.659 76.7236 435.736 76.6214 435.834C76.5234 435.932 76.4424 436.045 76.3785 436.172C76.3189 436.296 76.2848 436.428 76.2763 436.569H78.5C78.4872 436.419 78.451 436.281 78.3914 436.153C78.3317 436.021 78.2529 435.908 78.1549 435.814C78.0612 435.721 77.9483 435.648 77.8163 435.597C77.6885 435.542 77.55 435.514 77.4009 435.514Z" fill="black"/>
<path d="M106.151 405.668V425.994L94.4365 421.998V401.499L106.151 405.668ZM117.87 421.998L106.155 425.994V405.668L117.87 401.499V421.998Z" fill="#ED4C71"/>
<path d="M99.5607 433.846V438.319H99.1773V433.846H99.5607ZM103.271 437.584C103.147 437.827 102.971 438.023 102.741 438.172C102.51 438.317 102.242 438.39 101.935 438.39C101.71 438.39 101.501 438.351 101.309 438.275C101.122 438.194 100.958 438.083 100.817 437.942C100.681 437.797 100.574 437.627 100.498 437.431C100.421 437.231 100.383 437.014 100.383 436.779C100.383 436.549 100.421 436.336 100.498 436.14C100.574 435.944 100.681 435.776 100.817 435.636C100.953 435.491 101.115 435.378 101.303 435.297C101.49 435.216 101.693 435.176 101.91 435.176C102.127 435.176 102.325 435.216 102.504 435.297C102.687 435.378 102.843 435.491 102.971 435.636C103.103 435.776 103.205 435.944 103.277 436.14C103.354 436.332 103.392 436.539 103.392 436.76C103.392 436.781 103.39 436.801 103.386 436.818C103.386 436.83 103.386 436.843 103.386 436.856V436.894H100.772V436.901C100.777 437.067 100.811 437.22 100.875 437.361C100.939 437.497 101.022 437.616 101.124 437.719C101.23 437.817 101.354 437.895 101.494 437.955C101.635 438.01 101.784 438.038 101.942 438.038C102.189 438.038 102.391 437.983 102.549 437.872C102.711 437.761 102.845 437.612 102.951 437.425L103.271 437.584ZM101.903 435.514C101.75 435.514 101.607 435.544 101.475 435.604C101.343 435.659 101.226 435.736 101.124 435.834C101.026 435.932 100.945 436.045 100.881 436.172C100.821 436.296 100.787 436.428 100.779 436.569H103.002C102.99 436.419 102.954 436.281 102.894 436.153C102.834 436.021 102.755 435.908 102.657 435.814C102.564 435.721 102.451 435.648 102.319 435.597C102.191 435.542 102.053 435.514 101.903 435.514ZM107.121 435.246V438.319H106.744V437.719C106.689 437.821 106.616 437.913 106.527 437.993C106.442 438.074 106.346 438.145 106.239 438.204C106.133 438.264 106.018 438.309 105.894 438.339C105.775 438.373 105.652 438.39 105.524 438.39C105.302 438.39 105.096 438.349 104.904 438.268C104.717 438.183 104.552 438.068 104.412 437.923C104.271 437.778 104.161 437.608 104.08 437.412C103.999 437.216 103.958 437.005 103.958 436.779C103.958 436.554 103.999 436.343 104.08 436.147C104.161 435.951 104.271 435.783 104.412 435.642C104.552 435.497 104.717 435.384 104.904 435.303C105.096 435.218 105.302 435.176 105.524 435.176C105.784 435.176 106.024 435.235 106.246 435.354C106.467 435.474 106.633 435.633 106.744 435.834V435.246H107.121ZM105.549 438.038C105.72 438.038 105.879 438.006 106.029 437.942C106.178 437.874 106.308 437.785 106.418 437.674C106.529 437.559 106.614 437.425 106.674 437.271C106.738 437.118 106.77 436.954 106.77 436.779C106.77 436.609 106.738 436.447 106.674 436.294C106.614 436.14 106.529 436.008 106.418 435.898C106.308 435.783 106.178 435.693 106.029 435.629C105.879 435.561 105.72 435.527 105.549 435.527C105.383 435.527 105.226 435.559 105.076 435.623C104.932 435.687 104.804 435.776 104.693 435.891C104.587 436.002 104.501 436.134 104.437 436.287C104.378 436.441 104.348 436.605 104.348 436.779C104.348 436.958 104.378 437.124 104.437 437.278C104.501 437.431 104.587 437.565 104.693 437.68C104.804 437.791 104.932 437.878 105.076 437.942C105.226 438.006 105.383 438.038 105.549 438.038ZM109.697 435.584H109.658C109.645 435.584 109.633 435.584 109.62 435.584C109.607 435.58 109.59 435.578 109.569 435.578C109.42 435.578 109.281 435.61 109.153 435.674C109.03 435.734 108.923 435.819 108.834 435.93C108.744 436.036 108.674 436.166 108.623 436.319C108.576 436.468 108.553 436.632 108.553 436.811V438.319H108.169V435.246H108.546V435.885C108.58 435.791 108.632 435.704 108.7 435.623C108.768 435.538 108.849 435.463 108.943 435.399C109.036 435.335 109.136 435.286 109.243 435.252C109.354 435.214 109.466 435.195 109.582 435.195C109.599 435.195 109.613 435.197 109.626 435.201C109.643 435.201 109.656 435.201 109.665 435.201H109.697V435.584ZM110.372 435.246H110.755V435.776C110.849 435.606 110.988 435.463 111.171 435.348C111.358 435.233 111.582 435.176 111.842 435.176C112.038 435.176 112.212 435.207 112.366 435.271C112.523 435.335 112.655 435.427 112.762 435.546C112.873 435.661 112.958 435.804 113.018 435.974C113.077 436.14 113.107 436.326 113.107 436.53V438.319H112.724V436.575C112.724 436.255 112.638 436.002 112.468 435.814C112.302 435.623 112.068 435.527 111.765 435.527C111.616 435.527 111.48 435.557 111.356 435.616C111.233 435.672 111.126 435.751 111.037 435.853C110.947 435.955 110.877 436.074 110.826 436.211C110.779 436.347 110.755 436.494 110.755 436.652V438.319H110.372V435.246Z" fill="black"/>
<path d="M148.478 407.889H151.673V425.994H131.971V406.292H148.478V407.889Z" fill="#D9D9D9"/>
<path d="M136.286 438.319L135.372 435.808L134.452 438.319H134.151L132.995 435.246H133.397L134.311 437.776L135.231 435.246H135.519L136.439 437.776L137.353 435.246H137.742L136.592 438.319H136.286ZM141.378 435.246V438.319H141.001V437.719C140.945 437.821 140.873 437.913 140.783 437.993C140.698 438.074 140.602 438.145 140.496 438.204C140.389 438.264 140.274 438.309 140.151 438.339C140.031 438.373 139.908 438.39 139.78 438.39C139.559 438.39 139.352 438.349 139.16 438.268C138.973 438.183 138.809 438.068 138.668 437.923C138.528 437.778 138.417 437.608 138.336 437.412C138.255 437.216 138.215 437.005 138.215 436.779C138.215 436.554 138.255 436.343 138.336 436.147C138.417 435.951 138.528 435.783 138.668 435.642C138.809 435.497 138.973 435.384 139.16 435.303C139.352 435.218 139.559 435.176 139.78 435.176C140.04 435.176 140.281 435.235 140.502 435.354C140.724 435.474 140.89 435.633 141.001 435.834V435.246H141.378ZM139.806 438.038C139.976 438.038 140.136 438.006 140.285 437.942C140.434 437.874 140.564 437.785 140.675 437.674C140.785 437.559 140.871 437.425 140.93 437.271C140.994 437.118 141.026 436.954 141.026 436.779C141.026 436.609 140.994 436.447 140.93 436.294C140.871 436.14 140.785 436.008 140.675 435.898C140.564 435.783 140.434 435.693 140.285 435.629C140.136 435.561 139.976 435.527 139.806 435.527C139.639 435.527 139.482 435.559 139.333 435.623C139.188 435.687 139.06 435.776 138.949 435.891C138.843 436.002 138.758 436.134 138.694 436.287C138.634 436.441 138.604 436.605 138.604 436.779C138.604 436.958 138.634 437.124 138.694 437.278C138.758 437.431 138.843 437.565 138.949 437.68C139.06 437.791 139.188 437.878 139.333 437.942C139.482 438.006 139.639 438.038 139.806 438.038ZM142.809 433.846V438.319H142.426V433.846H142.809ZM144.238 433.846V438.319H143.855V433.846H144.238ZM147.948 437.584C147.825 437.827 147.648 438.023 147.418 438.172C147.188 438.317 146.919 438.39 146.613 438.39C146.387 438.39 146.178 438.351 145.987 438.275C145.799 438.194 145.635 438.083 145.494 437.942C145.358 437.797 145.252 437.627 145.175 437.431C145.098 437.231 145.06 437.014 145.06 436.779C145.06 436.549 145.098 436.336 145.175 436.14C145.252 435.944 145.358 435.776 145.494 435.636C145.631 435.491 145.793 435.378 145.98 435.297C146.168 435.216 146.37 435.176 146.587 435.176C146.804 435.176 147.003 435.216 147.181 435.297C147.365 435.378 147.52 435.491 147.648 435.636C147.78 435.776 147.882 435.944 147.955 436.14C148.031 436.332 148.07 436.539 148.07 436.76C148.07 436.781 148.067 436.801 148.063 436.818C148.063 436.83 148.063 436.843 148.063 436.856V436.894H145.45V436.901C145.454 437.067 145.488 437.22 145.552 437.361C145.616 437.497 145.699 437.616 145.801 437.719C145.908 437.817 146.031 437.895 146.172 437.955C146.312 438.01 146.461 438.038 146.619 438.038C146.866 438.038 147.069 437.983 147.226 437.872C147.388 437.761 147.522 437.612 147.629 437.425L147.948 437.584ZM146.581 435.514C146.427 435.514 146.285 435.544 146.153 435.604C146.021 435.659 145.903 435.736 145.801 435.834C145.703 435.932 145.622 436.045 145.558 436.172C145.499 436.296 145.465 436.428 145.456 436.569H147.68C147.667 436.419 147.631 436.281 147.571 436.153C147.512 436.021 147.433 435.908 147.335 435.814C147.241 435.721 147.128 435.648 146.996 435.597C146.868 435.542 146.73 435.514 146.581 435.514ZM149.364 434.3V435.246H150.252V435.591H149.364V437.444C149.364 437.836 149.543 438.032 149.901 438.032C149.965 438.032 150.026 438.023 150.086 438.006C150.15 437.989 150.207 437.966 150.259 437.936V438.3C150.212 438.321 150.152 438.341 150.08 438.358C150.012 438.379 149.931 438.39 149.837 438.39C149.569 438.39 149.358 438.315 149.204 438.166C149.055 438.013 148.981 437.789 148.981 437.495V435.591H148.489V435.246H148.981V434.3H149.364Z" fill="black"/>
<path d="M175.868 419.871C175.868 418.18 177.239 416.809 178.93 416.809H185.054C186.745 416.809 188.115 418.18 188.115 419.871V425.994H175.868V419.871Z" fill="#D9D9D9"/>
<path d="M186.585 409.92C186.585 412.456 184.528 414.513 181.992 414.513C179.455 414.513 177.399 412.456 177.399 409.92C177.399 407.383 179.455 405.327 181.992 405.327C184.528 405.327 186.585 407.383 186.585 409.92Z" fill="#D9D9D9"/>
<path d="M173.456 435.246V438.319H173.079V437.719C173.023 437.821 172.951 437.913 172.861 437.993C172.776 438.074 172.68 438.145 172.574 438.204C172.467 438.264 172.352 438.309 172.229 438.339C172.109 438.373 171.986 438.39 171.858 438.39C171.637 438.39 171.43 438.349 171.238 438.268C171.051 438.183 170.887 438.068 170.746 437.923C170.606 437.778 170.495 437.608 170.414 437.412C170.333 437.216 170.293 437.005 170.293 436.779C170.293 436.554 170.333 436.343 170.414 436.147C170.495 435.951 170.606 435.783 170.746 435.642C170.887 435.497 171.051 435.384 171.238 435.303C171.43 435.218 171.637 435.176 171.858 435.176C172.118 435.176 172.359 435.235 172.58 435.354C172.802 435.474 172.968 435.633 173.079 435.834V435.246H173.456ZM171.884 438.038C172.054 438.038 172.214 438.006 172.363 437.942C172.512 437.874 172.642 437.785 172.753 437.674C172.863 437.559 172.949 437.425 173.008 437.271C173.072 437.118 173.104 436.954 173.104 436.779C173.104 436.609 173.072 436.447 173.008 436.294C172.949 436.14 172.863 436.008 172.753 435.898C172.642 435.783 172.512 435.693 172.363 435.629C172.214 435.561 172.054 435.527 171.884 435.527C171.717 435.527 171.56 435.559 171.411 435.623C171.266 435.687 171.138 435.776 171.027 435.891C170.921 436.002 170.836 436.134 170.772 436.287C170.712 436.441 170.682 436.605 170.682 436.779C170.682 436.958 170.712 437.124 170.772 437.278C170.836 437.431 170.921 437.565 171.027 437.68C171.138 437.791 171.266 437.878 171.411 437.942C171.56 438.006 171.717 438.038 171.884 438.038ZM174.28 436.779C174.28 436.558 174.32 436.349 174.401 436.153C174.482 435.957 174.593 435.787 174.734 435.642C174.874 435.497 175.042 435.384 175.238 435.303C175.434 435.218 175.647 435.176 175.877 435.176C176.048 435.176 176.208 435.201 176.357 435.252C176.506 435.299 176.644 435.367 176.772 435.457V435.846C176.504 435.638 176.212 435.533 175.897 435.533C175.722 435.533 175.56 435.565 175.411 435.629C175.262 435.693 175.132 435.783 175.021 435.898C174.91 436.008 174.823 436.14 174.759 436.294C174.7 436.443 174.67 436.605 174.67 436.779C174.67 436.954 174.7 437.118 174.759 437.271C174.823 437.42 174.91 437.553 175.021 437.668C175.132 437.778 175.262 437.868 175.411 437.936C175.56 438 175.722 438.032 175.897 438.032C176.063 438.032 176.222 438.002 176.376 437.942C176.529 437.878 176.668 437.804 176.791 437.719V438.115C176.655 438.2 176.51 438.268 176.357 438.319C176.208 438.366 176.05 438.39 175.884 438.39C175.65 438.39 175.434 438.349 175.238 438.268C175.042 438.183 174.872 438.068 174.727 437.923C174.587 437.778 174.476 437.608 174.395 437.412C174.318 437.216 174.28 437.005 174.28 436.779ZM177.394 436.779C177.394 436.558 177.434 436.349 177.515 436.153C177.596 435.957 177.707 435.787 177.847 435.642C177.988 435.497 178.156 435.384 178.352 435.303C178.548 435.218 178.761 435.176 178.991 435.176C179.162 435.176 179.321 435.201 179.471 435.252C179.62 435.299 179.758 435.367 179.886 435.457V435.846C179.617 435.638 179.326 435.533 179.01 435.533C178.836 435.533 178.674 435.565 178.525 435.629C178.376 435.693 178.246 435.783 178.135 435.898C178.024 436.008 177.937 436.14 177.873 436.294C177.813 436.443 177.784 436.605 177.784 436.779C177.784 436.954 177.813 437.118 177.873 437.271C177.937 437.42 178.024 437.553 178.135 437.668C178.246 437.778 178.376 437.868 178.525 437.936C178.674 438 178.836 438.032 179.01 438.032C179.177 438.032 179.336 438.002 179.49 437.942C179.643 437.878 179.781 437.804 179.905 437.719V438.115C179.769 438.2 179.624 438.268 179.471 438.319C179.321 438.366 179.164 438.39 178.998 438.39C178.763 438.39 178.548 438.349 178.352 438.268C178.156 438.183 177.986 438.068 177.841 437.923C177.701 437.778 177.59 437.608 177.509 437.412C177.432 437.216 177.394 437.005 177.394 436.779ZM183.703 436.779C183.703 437.005 183.662 437.216 183.581 437.412C183.5 437.604 183.387 437.774 183.243 437.923C183.102 438.068 182.934 438.183 182.738 438.268C182.542 438.349 182.331 438.39 182.105 438.39C181.879 438.39 181.668 438.349 181.472 438.268C181.277 438.183 181.106 438.068 180.961 437.923C180.821 437.774 180.71 437.604 180.629 437.412C180.548 437.216 180.508 437.005 180.508 436.779C180.508 436.558 180.548 436.349 180.629 436.153C180.71 435.957 180.821 435.787 180.961 435.642C181.106 435.497 181.277 435.384 181.472 435.303C181.668 435.218 181.879 435.176 182.105 435.176C182.331 435.176 182.542 435.218 182.738 435.303C182.934 435.384 183.102 435.497 183.243 435.642C183.387 435.787 183.5 435.957 183.581 436.153C183.662 436.349 183.703 436.558 183.703 436.779ZM183.313 436.779C183.313 436.609 183.281 436.447 183.217 436.294C183.157 436.14 183.072 436.008 182.961 435.898C182.855 435.783 182.727 435.693 182.578 435.629C182.433 435.561 182.275 435.527 182.105 435.527C181.935 435.527 181.775 435.561 181.626 435.629C181.481 435.693 181.353 435.783 181.242 435.898C181.136 436.008 181.051 436.14 180.987 436.294C180.927 436.447 180.897 436.609 180.897 436.779C180.897 436.954 180.927 437.118 180.987 437.271C181.051 437.425 181.136 437.559 181.242 437.674C181.353 437.785 181.481 437.874 181.626 437.942C181.775 438.006 181.935 438.038 182.105 438.038C182.275 438.038 182.433 438.006 182.578 437.942C182.727 437.874 182.855 437.785 182.961 437.674C183.072 437.559 183.157 437.425 183.217 437.271C183.281 437.118 183.313 436.954 183.313 436.779ZM187.203 438.319H186.819V437.789C186.726 437.959 186.587 438.102 186.404 438.217C186.221 438.332 185.999 438.39 185.739 438.39C185.548 438.39 185.373 438.358 185.215 438.294C185.062 438.23 184.93 438.14 184.819 438.025C184.713 437.906 184.63 437.763 184.57 437.597C184.515 437.427 184.487 437.239 184.487 437.035V435.246H184.87V436.99C184.87 437.31 184.953 437.565 185.12 437.757C185.286 437.944 185.518 438.038 185.816 438.038C185.961 438.038 186.095 438.01 186.219 437.955C186.342 437.895 186.449 437.815 186.538 437.712C186.628 437.61 186.696 437.491 186.743 437.354C186.794 437.218 186.819 437.071 186.819 436.914V435.246H187.203V438.319ZM188.251 435.246H188.634V435.776C188.728 435.606 188.866 435.463 189.049 435.348C189.237 435.233 189.46 435.176 189.72 435.176C189.916 435.176 190.091 435.207 190.244 435.271C190.402 435.335 190.534 435.427 190.64 435.546C190.751 435.661 190.836 435.804 190.896 435.974C190.956 436.14 190.986 436.326 190.986 436.53V438.319H190.602V436.575C190.602 436.255 190.517 436.002 190.347 435.814C190.18 435.623 189.946 435.527 189.644 435.527C189.495 435.527 189.358 435.557 189.235 435.616C189.111 435.672 189.005 435.751 188.915 435.853C188.826 435.955 188.755 436.074 188.704 436.211C188.657 436.347 188.634 436.494 188.634 436.652V438.319H188.251V435.246ZM192.5 434.3V435.246H193.388V435.591H192.5V437.444C192.5 437.836 192.678 438.032 193.036 438.032C193.1 438.032 193.162 438.023 193.222 438.006C193.285 437.989 193.343 437.966 193.394 437.936V438.3C193.347 438.321 193.288 438.341 193.215 438.358C193.147 438.379 193.066 438.39 192.972 438.39C192.704 438.39 192.493 438.315 192.34 438.166C192.191 438.013 192.116 437.789 192.116 437.495V435.591H191.624V435.246H192.116V434.3H192.5Z" fill="black"/>
<mask id="mask0_556_1595" style="mask-type:alpha" maskUnits="userSpaceOnUse" x="30" y="37" width="30" height="47">
<path fill-rule="evenodd" clip-rule="evenodd" d="M44.5899 42.9553C51.4713 30.9131 57.3925 41.7753 56.7237 41.6711C55.1637 41.4281 53.8016 41.3852 52.6182 41.506C55.3636 42.3982 57.0368 45.7438 56.6641 45.6857C53.9042 45.2559 51.7644 45.453 50.1368 46.0764C54.2101 46.8417 59.638 49.7774 59.0733 49.6789C54.97 48.9612 51.6585 49.9539 49.2412 51.51C54.2503 53.8681 57.8173 59.9549 57.8174 67.093C57.8174 76.2772 51.913 83.7227 44.6289 83.7228C37.3448 83.7228 31.4395 76.2773 31.4395 67.093C31.4396 59.8967 35.0652 53.7682 40.1387 51.4523C37.7298 49.9305 34.4514 48.9704 30.4004 49.6789C29.8819 49.7685 34.3744 47.0891 38.2744 46.0656C36.7942 45.5442 34.9617 45.3364 32.7188 45.6857C32.3584 45.7398 33.8314 42.5882 36.3487 41.5891C35.2949 41.4552 34.1089 41.4638 32.7784 41.6711C32.1107 41.7733 37.7091 30.9144 44.5899 42.9553Z" fill="#2C2C2C"/>
</mask>
<g mask="url(#mask0_556_1595)">
<rect x="26.5312" y="31.7012" width="52.9515" height="67.815" fill="#FFC83C"/>
</g>
<mask id="mask1_556_1595" style="mask-type:alpha" maskUnits="userSpaceOnUse" x="75" y="92" width="29" height="47">
<path fill-rule="evenodd" clip-rule="evenodd" d="M89.3311 97.801C96.2125 85.7588 102.134 96.621 101.465 96.5168C99.9049 96.2738 98.5428 96.2309 97.3594 96.3517C100.105 97.2439 101.778 100.589 101.405 100.531C98.6454 100.102 96.5056 100.299 94.878 100.922C98.9513 101.687 104.379 104.623 103.814 104.525C99.7112 103.807 96.3997 104.8 93.9825 106.356C98.9915 108.714 102.558 114.801 102.559 121.939C102.559 131.123 96.6542 138.568 89.3701 138.569C82.086 138.569 76.1807 131.123 76.1807 121.939C76.1809 114.742 79.8064 108.614 84.8799 106.298C82.471 104.776 79.1926 103.816 75.1416 104.525C74.6231 104.614 79.1156 101.935 83.0157 100.911C81.5354 100.39 79.7029 100.182 77.46 100.531C77.0996 100.585 78.5726 97.4339 81.0899 96.4348C80.0361 96.3009 78.8501 96.3095 77.5196 96.5168C76.8519 96.619 82.4503 85.7601 89.3311 97.801Z" fill="#2C2C2C"/>
</mask>
<g mask="url(#mask1_556_1595)">
<rect x="71.2676" y="86.5469" width="52.9515" height="67.815" fill="#C6C6C6"/>
</g>
<mask id="mask2_556_1595" style="mask-type:alpha" maskUnits="userSpaceOnUse" x="27" y="159" width="30" height="48">
<path fill-rule="evenodd" clip-rule="evenodd" d="M41.9375 165.429C48.819 153.387 54.7401 164.249 54.0713 164.145C52.5114 163.902 51.1493 163.859 49.9659 163.98C52.7112 164.872 54.3844 168.217 54.0118 168.159C51.2519 167.73 49.112 167.927 47.4844 168.55C51.5577 169.315 56.9857 172.251 56.4209 172.153C52.3176 171.435 49.0062 172.428 46.5889 173.984C51.598 176.342 55.1649 182.429 55.1651 189.567C55.1651 198.751 49.2606 206.196 41.9766 206.196C34.6924 206.196 28.7871 198.751 28.7871 189.567C28.7873 182.37 32.4129 176.242 37.4864 173.926C35.0775 172.404 31.799 171.444 27.7481 172.153C27.2296 172.242 31.7221 169.563 35.6221 168.539C34.1418 168.018 32.3093 167.81 30.0664 168.159C29.706 168.213 31.179 165.062 33.6963 164.063C32.6425 163.929 31.4566 163.937 30.126 164.145C29.4584 164.247 35.0567 153.388 41.9375 165.429Z" fill="#2C2C2C"/>
</mask>
<g mask="url(#mask2_556_1595)">
<rect x="23.875" y="154.175" width="52.9515" height="67.815" fill="#C6C6C6"/>
</g>
<mask id="mask3_556_1595" style="mask-type:alpha" maskUnits="userSpaceOnUse" x="83" y="212" width="29" height="48">
<path fill-rule="evenodd" clip-rule="evenodd" d="M97.2959 218.678C104.177 206.636 110.099 217.498 109.43 217.394C107.869 217.151 106.507 217.108 105.323 217.229C108.069 218.12 109.743 221.466 109.37 221.408C106.611 220.979 104.471 221.176 102.844 221.799C106.917 222.565 112.344 225.5 111.779 225.402C107.676 224.684 104.365 225.677 101.947 227.233C106.956 229.591 110.523 235.678 110.523 242.817C110.523 252.001 104.619 259.446 97.335 259.446C90.0509 259.446 84.1457 252.001 84.1455 242.817C84.1455 235.62 87.7716 229.491 92.8457 227.175C90.4368 225.653 87.1578 224.693 83.1065 225.402C82.588 225.491 87.0805 222.812 90.9805 221.788C89.5002 221.267 87.6678 221.059 85.4248 221.408C85.0635 221.464 86.5377 218.31 89.0567 217.312C88.0024 217.178 86.8158 217.186 85.4844 217.394C84.8168 217.496 90.4151 206.637 97.2959 218.678Z" fill="#2C2C2C"/>
</mask>
<g mask="url(#mask3_556_1595)">
<rect x="79.252" y="207.423" width="52.9515" height="67.815" fill="#C6C6C6"/>
</g>
<mask id="mask4_556_1595" style="mask-type:alpha" maskUnits="userSpaceOnUse" x="117" y="282" width="30" height="48">
<path fill-rule="evenodd" clip-rule="evenodd" d="M131.897 288.435C138.778 276.393 144.699 287.255 144.03 287.151C142.47 286.908 141.108 286.865 139.925 286.986C142.67 287.878 144.343 291.223 143.971 291.165C141.211 290.735 139.071 290.932 137.443 291.556C141.517 292.321 146.945 295.257 146.38 295.158C142.277 294.441 138.965 295.433 136.548 296.989C141.557 299.348 145.124 305.434 145.124 312.572C145.124 321.757 139.22 329.202 131.936 329.202C124.651 329.202 118.746 321.757 118.746 312.572C118.746 305.376 122.372 299.248 127.445 296.932C125.036 295.41 121.758 294.45 117.707 295.158C117.189 295.248 121.681 292.569 125.581 291.545C124.101 291.024 122.268 290.816 120.025 291.165C119.665 291.219 121.138 288.068 123.655 287.069C122.602 286.935 121.416 286.943 120.085 287.151C119.417 287.253 125.016 276.394 131.897 288.435Z" fill="#2C2C2C"/>
</mask>
<g mask="url(#mask4_556_1595)">
<rect x="113.856" y="277.18" width="52.9515" height="67.815" fill="#C6C6C6"/>
</g>
<mask id="mask5_556_1595" style="mask-type:alpha" maskUnits="userSpaceOnUse" x="39" y="329" width="30" height="47">
<path fill-rule="evenodd" clip-rule="evenodd" d="M54.1465 334.761C61.028 322.719 66.9491 333.581 66.2803 333.477C64.7204 333.234 63.3583 333.191 62.1748 333.312C64.9202 334.204 66.5934 337.549 66.2207 337.491C63.4608 337.062 61.321 337.259 59.6934 337.882C63.7667 338.647 69.1947 341.583 68.6299 341.485C64.5266 340.767 61.2152 341.76 58.7979 343.316C63.807 345.674 67.3739 351.761 67.3741 358.899C67.3741 368.083 61.4696 375.528 54.1856 375.529C46.9014 375.529 40.9961 368.083 40.9961 358.899C40.9963 351.702 44.6218 345.574 49.6953 343.258C47.2864 341.736 44.008 340.776 39.9571 341.485C39.4386 341.574 43.9311 338.895 47.8311 337.871C46.3508 337.35 44.5183 337.142 42.2754 337.491C41.915 337.545 43.388 334.394 45.9053 333.395C44.8515 333.261 43.6656 333.269 42.335 333.477C41.6673 333.579 47.2657 322.72 54.1465 334.761Z" fill="#2C2C2C"/>
</mask>
<g mask="url(#mask5_556_1595)">
<rect x="36.1064" y="323.506" width="52.9515" height="67.815" fill="#C6C6C6"/>
</g>
<path d="M47.3925 96.3809C44.0201 108.451 43.5586 131.898 68.6922 129.129" stroke="black" stroke-width="0.532492" stroke-dasharray="1.06 1.06"/>
<path d="M63.6299 182.112C76.6759 183.532 101.117 178.491 94.5144 146.968" stroke="black" stroke-width="0.532492" stroke-dasharray="1.06 1.06"/>
<path d="M45.2643 215.925C37.1882 232.61 32.9638 263.263 80.675 252.401" stroke="black" stroke-width="0.532492" stroke-dasharray="1.06 1.06"/>
<path d="M121.944 239.621C147.326 232.788 175.407 246.224 152.829 300.325" stroke="black" stroke-width="0.532492" stroke-dasharray="1.06 1.06"/>
<path d="M119.81 340.263C117.413 349.67 107.935 367.952 89.1914 365.822" stroke="black" stroke-width="0.532492" stroke-dasharray="1.06 1.06"/>
<rect x="17.7781" y="29.822" width="54.5332" height="61.3716" rx="3.70994" stroke="#DE7087" stroke-width="1.85497"/>
<rect x="112.747" y="49.3142" width="89.3284" height="132.083" rx="3.70994" stroke="#DE7087" stroke-width="1.85497"/>
<path d="M129.931 56.5049H184.777C190.512 56.5049 195.161 61.1532 195.161 66.8877V94.8438H119.548V66.8877C119.548 61.1533 124.196 56.5051 129.931 56.5049Z" fill="#8F8F8F"/>
<path d="M129.931 56.5049H184.777C190.512 56.5049 195.161 61.1532 195.161 66.8877V94.8438H119.548V66.8877C119.548 61.1533 124.196 56.5051 129.931 56.5049Z" stroke="black" stroke-width="0.532492"/>
<path d="M129.608 69.2553C129.46 68.9657 129.253 68.7441 128.986 68.5908C128.719 68.4374 128.412 68.3607 128.066 68.3607C127.81 68.3607 127.571 68.409 127.35 68.5056C127.134 68.6021 126.944 68.7356 126.779 68.906C126.614 69.0764 126.484 69.278 126.387 69.5109C126.296 69.7381 126.251 69.9824 126.251 70.2436C126.251 70.5049 126.296 70.752 126.387 70.9849C126.484 71.2121 126.614 71.4109 126.779 71.5813C126.944 71.7516 127.137 71.888 127.358 71.9902C127.58 72.0868 127.818 72.135 128.074 72.135C128.472 72.135 128.812 72.03 129.096 71.8198C129.38 71.604 129.562 71.3257 129.642 70.9849H127.912V69.9114H131.013V70.3885C131.013 70.8031 130.94 71.1922 130.792 71.5557C130.644 71.9135 130.44 72.2259 130.178 72.4929C129.917 72.7542 129.605 72.9615 129.241 73.1148C128.883 73.2625 128.492 73.3363 128.066 73.3363C127.628 73.3363 127.219 73.2568 126.839 73.0978C126.464 72.9331 126.137 72.7116 125.859 72.4332C125.581 72.1492 125.359 71.8198 125.194 71.4449C125.035 71.0701 124.956 70.6696 124.956 70.2436C124.956 69.8176 125.038 69.4172 125.203 69.0423C125.368 68.6675 125.589 68.3409 125.867 68.0625C126.151 67.7785 126.484 67.557 126.864 67.398C127.245 67.2333 127.648 67.1509 128.074 67.1509C128.676 67.1509 129.213 67.2872 129.684 67.5599C130.161 67.8325 130.522 68.2102 130.766 68.693L129.608 69.2553ZM135.811 72.2202C135.635 72.5667 135.379 72.8394 135.044 73.0381C134.714 73.2369 134.32 73.3363 133.86 73.3363C133.53 73.3363 133.229 73.2824 132.956 73.1745C132.684 73.0665 132.448 72.916 132.249 72.7229C132.056 72.5241 131.903 72.2884 131.789 72.0158C131.681 71.7431 131.627 71.4449 131.627 71.1212C131.627 70.8031 131.681 70.5106 131.789 70.2436C131.903 69.971 132.056 69.7353 132.249 69.5365C132.448 69.3377 132.678 69.1843 132.939 69.0764C133.206 68.9628 133.496 68.906 133.808 68.906C134.127 68.906 134.416 68.9628 134.677 69.0764C134.944 69.1843 135.172 69.3377 135.359 69.5365C135.546 69.7353 135.691 69.9738 135.794 70.2522C135.901 70.5248 135.955 70.8258 135.955 71.1553C135.955 71.2291 135.953 71.2916 135.947 71.3427C135.947 71.3938 135.944 71.4336 135.938 71.462H132.846C132.857 71.5869 132.891 71.7005 132.948 71.8028C133.005 71.905 133.079 71.9959 133.169 72.0754C133.266 72.1492 133.371 72.2089 133.485 72.2543C133.604 72.2941 133.729 72.314 133.86 72.314C134.092 72.314 134.277 72.2685 134.413 72.1776C134.55 72.0868 134.666 71.9618 134.763 71.8028L135.811 72.2202ZM134.737 70.6526C134.709 70.4254 134.609 70.2408 134.439 70.0988C134.269 69.9511 134.056 69.8773 133.8 69.8773C133.675 69.8773 133.559 69.9 133.451 69.9454C133.343 69.9852 133.246 70.042 133.161 70.1158C133.076 70.1897 133.005 70.272 132.948 70.3629C132.897 70.4538 132.866 70.5503 132.854 70.6526H134.737ZM138.173 67.7814V69.0168H139.238V70.0392H138.173V71.5813C138.173 71.8084 138.221 71.9703 138.318 72.0669C138.42 72.1634 138.573 72.2117 138.778 72.2117C138.857 72.2117 138.937 72.2032 139.016 72.1862C139.096 72.1634 139.17 72.1294 139.238 72.0839V73.1574C139.141 73.2029 139.022 73.2426 138.88 73.2767C138.738 73.3108 138.568 73.3278 138.369 73.3278C137.926 73.3278 137.576 73.2 137.321 72.9444C137.065 72.6832 136.937 72.3168 136.937 71.8454V70.0392H136.341V69.0168H136.937V67.7814H138.173ZM141.418 67.7814V69.0168H142.483V70.0392H141.418V71.5813C141.418 71.8084 141.466 71.9703 141.563 72.0669C141.665 72.1634 141.818 72.2117 142.023 72.2117C142.102 72.2117 142.182 72.2032 142.261 72.1862C142.341 72.1634 142.415 72.1294 142.483 72.0839V73.1574C142.386 73.2029 142.267 73.2426 142.125 73.2767C141.983 73.3108 141.813 73.3278 141.614 73.3278C141.171 73.3278 140.821 73.2 140.566 72.9444C140.31 72.6832 140.182 72.3168 140.182 71.8454V70.0392H139.586V69.0168H140.182V67.7814H141.418ZM143.24 73.2256V69.0168H144.484V73.2256H143.24ZM144.586 67.7984C144.586 67.895 144.566 67.9887 144.526 68.0796C144.492 68.1648 144.441 68.2415 144.373 68.3096C144.31 68.3721 144.234 68.4232 144.143 68.463C144.058 68.5027 143.964 68.5226 143.862 68.5226C143.76 68.5226 143.663 68.5027 143.572 68.463C143.487 68.4232 143.41 68.3721 143.342 68.3096C143.28 68.2415 143.228 68.1648 143.189 68.0796C143.155 67.9887 143.138 67.895 143.138 67.7984C143.138 67.7019 143.155 67.611 143.189 67.5258C143.228 67.4349 143.28 67.3582 143.342 67.2958C143.41 67.2276 143.487 67.1736 143.572 67.1339C143.663 67.0941 143.76 67.0742 143.862 67.0742C143.964 67.0742 144.058 67.0941 144.143 67.1339C144.234 67.1736 144.31 67.2276 144.373 67.2958C144.441 67.3582 144.492 67.4349 144.526 67.5258C144.566 67.611 144.586 67.7019 144.586 67.7984ZM146.822 73.2256H145.578V69.0168H146.822V69.5535C146.952 69.349 147.12 69.19 147.324 69.0764C147.535 68.9628 147.782 68.906 148.066 68.906C148.548 68.906 148.926 69.0594 149.199 69.3661C149.477 69.6728 149.616 70.0931 149.616 70.627V73.2256H148.372V70.9167C148.372 70.6384 148.307 70.4254 148.176 70.2777C148.046 70.1244 147.858 70.0477 147.614 70.0477C147.375 70.0477 147.182 70.1329 147.035 70.3033C146.893 70.468 146.822 70.698 146.822 70.9934V73.2256ZM153.72 72.561C153.589 72.7542 153.407 72.9075 153.175 73.0211C152.942 73.129 152.686 73.183 152.408 73.183C152.124 73.183 151.86 73.129 151.615 73.0211C151.371 72.9132 151.161 72.7655 150.985 72.5781C150.809 72.3906 150.67 72.1691 150.567 71.9135C150.471 71.6522 150.423 71.3711 150.423 71.0701C150.423 70.7633 150.471 70.4793 150.567 70.2181C150.67 69.9511 150.809 69.7211 150.985 69.528C151.167 69.3348 151.377 69.1843 151.615 69.0764C151.86 68.9628 152.124 68.906 152.408 68.906C152.692 68.906 152.95 68.9657 153.183 69.0849C153.422 69.1985 153.601 69.3576 153.72 69.562V69.0168H154.947V72.953C154.947 73.2824 154.896 73.5834 154.793 73.8561C154.691 74.1287 154.541 74.3616 154.342 74.5547C154.143 74.7535 153.899 74.9068 153.609 75.0148C153.325 75.1227 152.998 75.1766 152.629 75.1766C152.129 75.1766 151.695 75.0772 151.326 74.8784C150.962 74.6796 150.698 74.407 150.533 74.0605L151.522 73.4727C151.635 73.6828 151.789 73.8447 151.982 73.9583C152.175 74.0719 152.391 74.1287 152.629 74.1287C152.97 74.1287 153.237 74.0265 153.43 73.822C153.623 73.6175 153.72 73.3278 153.72 72.953V72.561ZM153.762 71.0701C153.762 70.9224 153.734 70.7832 153.677 70.6526C153.626 70.5219 153.552 70.4083 153.456 70.3118C153.359 70.2152 153.246 70.1414 153.115 70.0903C152.99 70.0335 152.856 70.0051 152.714 70.0051C152.572 70.0051 152.436 70.0335 152.306 70.0903C152.181 70.1414 152.07 70.2152 151.973 70.3118C151.882 70.4083 151.809 70.5219 151.752 70.6526C151.701 70.7832 151.675 70.9224 151.675 71.0701C151.675 71.2177 151.701 71.3569 151.752 71.4875C151.809 71.6182 151.882 71.7318 151.973 71.8283C152.07 71.9249 152.181 72.0016 152.306 72.0584C152.436 72.1095 152.572 72.135 152.714 72.135C152.856 72.135 152.99 72.1095 153.115 72.0584C153.246 72.0016 153.359 71.9249 153.456 71.8283C153.552 71.7318 153.626 71.6182 153.677 71.4875C153.734 71.3569 153.762 71.2177 153.762 71.0701ZM159.405 69.9028C159.291 69.9028 159.198 69.9312 159.124 69.988C159.05 70.0392 159.013 70.1073 159.013 70.1925C159.013 70.3459 159.13 70.4538 159.362 70.5163L159.891 70.6526C160.288 70.7548 160.589 70.9139 160.794 71.1297C161.004 71.3399 161.109 71.5955 161.109 71.8965C161.109 72.1066 161.066 72.2998 160.981 72.4758C160.896 72.6519 160.777 72.8053 160.623 72.9359C160.476 73.0609 160.297 73.1574 160.087 73.2256C159.882 73.2994 159.658 73.3363 159.414 73.3363C158.993 73.3363 158.627 73.2455 158.314 73.0637C158.002 72.882 157.775 72.6292 157.633 72.3054L158.638 71.7516C158.718 71.9277 158.828 72.0669 158.97 72.1691C159.112 72.2714 159.263 72.3225 159.422 72.3225C159.553 72.3225 159.658 72.2941 159.737 72.2373C159.822 72.1805 159.865 72.101 159.865 71.9987C159.865 71.851 159.737 71.746 159.482 71.6835L158.988 71.5642C158.187 71.3768 157.786 70.9451 157.786 70.2692C157.786 70.0704 157.826 69.8886 157.905 69.7239C157.985 69.5535 158.096 69.4087 158.238 69.2894C158.38 69.1701 158.55 69.0764 158.749 69.0082C158.953 68.9401 159.175 68.906 159.414 68.906C159.595 68.906 159.771 68.9316 159.942 68.9827C160.112 69.0281 160.271 69.0934 160.419 69.1786C160.567 69.2638 160.697 69.3661 160.811 69.4854C160.924 69.6046 161.015 69.7381 161.083 69.8858L160.07 70.4225C160.007 70.2635 159.913 70.1386 159.788 70.0477C159.663 69.9511 159.536 69.9028 159.405 69.9028ZM163.292 67.7814V69.0168H164.356V70.0392H163.292V71.5813C163.292 71.8084 163.34 71.9703 163.436 72.0669C163.539 72.1634 163.692 72.2117 163.896 72.2117C163.976 72.2117 164.055 72.2032 164.135 72.1862C164.215 72.1634 164.288 72.1294 164.356 72.0839V73.1574C164.26 73.2029 164.141 73.2426 163.999 73.2767C163.857 73.3108 163.686 73.3278 163.487 73.3278C163.044 73.3278 162.695 73.2 162.44 72.9444C162.184 72.6832 162.056 72.3168 162.056 71.8454V70.0392H161.46V69.0168H162.056V67.7814H163.292ZM169.442 69.0168V73.2256H168.223V72.6633C168.076 72.8791 167.88 73.0438 167.635 73.1574C167.397 73.271 167.138 73.3278 166.86 73.3278C166.576 73.3278 166.312 73.271 166.068 73.1574C165.829 73.0438 165.619 72.8905 165.437 72.6974C165.261 72.4986 165.122 72.2657 165.02 71.9987C164.918 71.7261 164.866 71.4336 164.866 71.1212C164.866 70.8088 164.918 70.5191 165.02 70.2522C165.122 69.9852 165.261 69.7523 165.437 69.5535C165.619 69.3547 165.829 69.1985 166.068 69.0849C166.312 68.9713 166.576 68.9145 166.86 68.9145C167.138 68.9145 167.397 68.9685 167.635 69.0764C167.88 69.1843 168.076 69.3462 168.223 69.562V69.0168H169.442ZM166.102 71.1212C166.102 71.2745 166.13 71.4165 166.187 71.5472C166.244 71.6778 166.321 71.7942 166.417 71.8965C166.514 71.993 166.627 72.0697 166.758 72.1265C166.889 72.1833 167.031 72.2117 167.184 72.2117C167.337 72.2117 167.479 72.1833 167.61 72.1265C167.741 72.0697 167.854 71.993 167.951 71.8965C168.047 71.7942 168.124 71.6778 168.181 71.5472C168.238 71.4165 168.266 71.2745 168.266 71.1212C168.266 70.9678 168.238 70.8258 168.181 70.6952C168.124 70.5645 168.047 70.4509 167.951 70.3544C167.854 70.2522 167.741 70.1726 167.61 70.1158C167.479 70.059 167.337 70.0306 167.184 70.0306C167.031 70.0306 166.889 70.059 166.758 70.1158C166.627 70.1726 166.514 70.2522 166.417 70.3544C166.321 70.4509 166.244 70.5645 166.187 70.6952C166.13 70.8258 166.102 70.9678 166.102 71.1212ZM173.188 70.2266C173.12 70.1925 173.015 70.1755 172.873 70.1755C172.526 70.1755 172.257 70.2948 172.063 70.5333C171.87 70.7719 171.774 71.0985 171.774 71.5131V73.2256H170.538V69.0168H171.765V69.7069C171.879 69.4626 172.041 69.2724 172.251 69.136C172.461 68.9941 172.702 68.9231 172.975 68.9231C173.02 68.9231 173.063 68.9259 173.103 68.9316C173.148 68.9373 173.177 68.9429 173.188 68.9486V70.2266ZM175.339 67.7814V69.0168H176.404V70.0392H175.339V71.5813C175.339 71.8084 175.387 71.9703 175.484 72.0669C175.586 72.1634 175.74 72.2117 175.944 72.2117C176.024 72.2117 176.103 72.2032 176.183 72.1862C176.262 72.1634 176.336 72.1294 176.404 72.0839V73.1574C176.308 73.2029 176.188 73.2426 176.046 73.2767C175.904 73.3108 175.734 73.3278 175.535 73.3278C175.092 73.3278 174.743 73.2 174.487 72.9444C174.232 72.6832 174.104 72.3168 174.104 71.8454V70.0392H173.507V69.0168H174.104V67.7814H175.339ZM181.097 72.2202C180.921 72.5667 180.666 72.8394 180.331 73.0381C180.001 73.2369 179.606 73.3363 179.146 73.3363C178.817 73.3363 178.516 73.2824 178.243 73.1745C177.971 73.0665 177.735 72.916 177.536 72.7229C177.343 72.5241 177.19 72.2884 177.076 72.0158C176.968 71.7431 176.914 71.4449 176.914 71.1212C176.914 70.8031 176.968 70.5106 177.076 70.2436C177.19 69.971 177.343 69.7353 177.536 69.5365C177.735 69.3377 177.965 69.1843 178.226 69.0764C178.493 68.9628 178.783 68.906 179.095 68.906C179.413 68.906 179.703 68.9628 179.964 69.0764C180.231 69.1843 180.458 69.3377 180.646 69.5365C180.833 69.7353 180.978 69.9738 181.08 70.2522C181.188 70.5248 181.242 70.8258 181.242 71.1553C181.242 71.2291 181.239 71.2916 181.234 71.3427C181.234 71.3938 181.231 71.4336 181.225 71.462H178.132C178.144 71.5869 178.178 71.7005 178.235 71.8028C178.292 71.905 178.365 71.9959 178.456 72.0754C178.553 72.1492 178.658 72.2089 178.771 72.2543C178.891 72.2941 179.016 72.314 179.146 72.314C179.379 72.314 179.564 72.2685 179.7 72.1776C179.836 72.0868 179.953 71.9618 180.049 71.8028L181.097 72.2202ZM180.024 70.6526C179.995 70.4254 179.896 70.2408 179.726 70.0988C179.555 69.9511 179.342 69.8773 179.087 69.8773C178.962 69.8773 178.845 69.9 178.737 69.9454C178.629 69.9852 178.533 70.042 178.448 70.1158C178.363 70.1897 178.292 70.272 178.235 70.3629C178.184 70.4538 178.152 70.5503 178.141 70.6526H180.024ZM186.382 67.2617V73.2256H185.147V72.6633C184.999 72.8791 184.803 73.0438 184.559 73.1574C184.32 73.271 184.062 73.3278 183.783 73.3278C183.499 73.3278 183.235 73.271 182.991 73.1574C182.752 73.0438 182.542 72.8905 182.361 72.6974C182.185 72.4986 182.045 72.2657 181.943 71.9987C181.841 71.7261 181.79 71.4336 181.79 71.1212C181.79 70.8088 181.841 70.5191 181.943 70.2522C182.045 69.9852 182.185 69.7523 182.361 69.5535C182.542 69.3547 182.752 69.1985 182.991 69.0849C183.235 68.9713 183.499 68.9145 183.783 68.9145C184.062 68.9145 184.32 68.9685 184.559 69.0764C184.803 69.1843 184.999 69.3462 185.147 69.562V67.2617H186.382ZM183.025 71.1212C183.025 71.2745 183.054 71.4165 183.11 71.5472C183.167 71.6778 183.244 71.7942 183.34 71.8965C183.437 71.993 183.551 72.0697 183.681 72.1265C183.812 72.1833 183.954 72.2117 184.107 72.2117C184.261 72.2117 184.403 72.1833 184.533 72.1265C184.664 72.0697 184.777 71.993 184.874 71.8965C184.971 71.7942 185.047 71.6778 185.104 71.5472C185.161 71.4165 185.189 71.2745 185.189 71.1212C185.189 70.9678 185.161 70.8258 185.104 70.6952C185.047 70.5645 184.971 70.4509 184.874 70.3544C184.777 70.2522 184.664 70.1726 184.533 70.1158C184.403 70.059 184.261 70.0306 184.107 70.0306C183.954 70.0306 183.812 70.059 183.681 70.1158C183.551 70.1726 183.437 70.2522 183.34 70.3544C183.244 70.4509 183.167 70.5645 183.11 70.6952C183.054 70.8258 183.025 70.9678 183.025 71.1212ZM128.986 85.2256L128.108 82.6526L127.231 85.2256H126.191L124.709 81.0168H125.978L126.796 83.5642L127.665 81.0168H128.577L129.437 83.5642L130.272 81.0168H131.508L130.017 85.2256H128.986ZM132.157 85.2256V81.0168H133.401V85.2256H132.157ZM133.503 79.7984C133.503 79.895 133.484 79.9887 133.444 80.0796C133.41 80.1648 133.359 80.2415 133.29 80.3096C133.228 80.3721 133.151 80.4232 133.06 80.463C132.975 80.5027 132.882 80.5226 132.779 80.5226C132.677 80.5226 132.58 80.5027 132.49 80.463C132.404 80.4232 132.328 80.3721 132.26 80.3096C132.197 80.2415 132.146 80.1648 132.106 80.0796C132.072 79.9887 132.055 79.895 132.055 79.7984C132.055 79.7019 132.072 79.611 132.106 79.5258C132.146 79.4349 132.197 79.3582 132.26 79.2958C132.328 79.2276 132.404 79.1736 132.49 79.1339C132.58 79.0941 132.677 79.0742 132.779 79.0742C132.882 79.0742 132.975 79.0941 133.06 79.1339C133.151 79.1736 133.228 79.2276 133.29 79.2958C133.359 79.3582 133.41 79.4349 133.444 79.5258C133.484 79.611 133.503 79.7019 133.503 79.7984ZM135.918 79.7814V81.0168H136.983V82.0392H135.918V83.5813C135.918 83.8084 135.966 83.9703 136.063 84.0669C136.165 84.1634 136.319 84.2117 136.523 84.2117C136.603 84.2117 136.682 84.2032 136.762 84.1862C136.841 84.1634 136.915 84.1294 136.983 84.0839V85.1574C136.887 85.2029 136.767 85.2426 136.625 85.2767C136.483 85.3108 136.313 85.3278 136.114 85.3278C135.671 85.3278 135.322 85.2 135.066 84.9444C134.811 84.6832 134.683 84.3168 134.683 83.8454V82.0392H134.086V81.0168H134.683V79.7814H135.918ZM138.984 85.2256H137.74V79.2617H138.984V81.5535C139.115 81.349 139.282 81.19 139.487 81.0764C139.697 80.9628 139.944 80.906 140.228 80.906C140.711 80.906 141.088 81.0594 141.361 81.3661C141.639 81.6728 141.779 82.0931 141.779 82.627V85.2256H140.535V82.9082C140.535 82.6355 140.469 82.4254 140.339 82.2777C140.208 82.1244 140.023 82.0477 139.785 82.0477C139.541 82.0477 139.345 82.1329 139.197 82.3033C139.055 82.4737 138.984 82.7037 138.984 82.9934V85.2256ZM144.821 85.2256V81.0168H146.065V85.2256H144.821ZM146.167 79.7984C146.167 79.895 146.147 79.9887 146.107 80.0796C146.073 80.1648 146.022 80.2415 145.954 80.3096C145.891 80.3721 145.815 80.4232 145.724 80.463C145.639 80.5027 145.545 80.5226 145.443 80.5226C145.34 80.5226 145.244 80.5027 145.153 80.463C145.068 80.4232 144.991 80.3721 144.923 80.3096C144.86 80.2415 144.809 80.1648 144.77 80.0796C144.735 79.9887 144.718 79.895 144.718 79.7984C144.718 79.7019 144.735 79.611 144.77 79.5258C144.809 79.4349 144.86 79.3582 144.923 79.2958C144.991 79.2276 145.068 79.1736 145.153 79.1339C145.244 79.0941 145.34 79.0742 145.443 79.0742C145.545 79.0742 145.639 79.0941 145.724 79.1339C145.815 79.1736 145.891 79.2276 145.954 79.2958C146.022 79.3582 146.073 79.4349 146.107 79.5258C146.147 79.611 146.167 79.7019 146.167 79.7984ZM148.403 85.2256H147.159V81.0168H148.403V81.5535C148.533 81.349 148.701 81.19 148.905 81.0764C149.115 80.9628 149.362 80.906 149.646 80.906C150.129 80.906 150.507 81.0594 150.78 81.3661C151.058 81.6728 151.197 82.0931 151.197 82.627V85.2256H149.953V82.9167C149.953 82.6384 149.888 82.4254 149.757 82.2777C149.627 82.1244 149.439 82.0477 149.195 82.0477C148.956 82.0477 148.763 82.1329 148.616 82.3033C148.474 82.468 148.403 82.698 148.403 82.9934V85.2256ZM151.79 81.0168H153.103L154.091 83.675L155.079 81.0168H156.357L154.645 85.2256H153.503L151.79 81.0168ZM160.921 84.2202C160.745 84.5667 160.489 84.8394 160.154 85.0381C159.825 85.2369 159.43 85.3363 158.97 85.3363C158.64 85.3363 158.339 85.2824 158.067 85.1745C157.794 85.0665 157.558 84.916 157.36 84.7229C157.167 84.5241 157.013 84.2884 156.9 84.0158C156.792 83.7431 156.738 83.4449 156.738 83.1212C156.738 82.8031 156.792 82.5106 156.9 82.2436C157.013 81.971 157.167 81.7353 157.36 81.5365C157.558 81.3377 157.788 81.1843 158.05 81.0764C158.317 80.9628 158.606 80.906 158.919 80.906C159.237 80.906 159.527 80.9628 159.788 81.0764C160.055 81.1843 160.282 81.3377 160.469 81.5365C160.657 81.7353 160.802 81.9738 160.904 82.2522C161.012 82.5248 161.066 82.8258 161.066 83.1553C161.066 83.2291 161.063 83.2916 161.057 83.3427C161.057 83.3938 161.054 83.4336 161.049 83.462H157.956C157.967 83.5869 158.001 83.7005 158.058 83.8028C158.115 83.905 158.189 83.9959 158.28 84.0754C158.376 84.1492 158.481 84.2089 158.595 84.2543C158.714 84.2941 158.839 84.314 158.97 84.314C159.203 84.314 159.387 84.2685 159.524 84.1776C159.66 84.0868 159.776 83.9618 159.873 83.8028L160.921 84.2202ZM159.847 82.6526C159.819 82.4254 159.72 82.2408 159.549 82.0988C159.379 81.9511 159.166 81.8773 158.91 81.8773C158.785 81.8773 158.669 81.9 158.561 81.9454C158.453 81.9852 158.356 82.042 158.271 82.1158C158.186 82.1897 158.115 82.272 158.058 82.3629C158.007 82.4538 157.976 82.5503 157.965 82.6526H159.847ZM163.241 81.9028C163.127 81.9028 163.033 81.9312 162.959 81.988C162.886 82.0392 162.849 82.1073 162.849 82.1925C162.849 82.3459 162.965 82.4538 163.198 82.5163L163.726 82.6526C164.124 82.7548 164.425 82.9139 164.629 83.1297C164.839 83.3399 164.945 83.5955 164.945 83.8965C164.945 84.1066 164.902 84.2998 164.817 84.4758C164.732 84.6519 164.612 84.8053 164.459 84.9359C164.311 85.0609 164.132 85.1574 163.922 85.2256C163.718 85.2994 163.493 85.3363 163.249 85.3363C162.829 85.3363 162.462 85.2455 162.15 85.0637C161.838 84.882 161.61 84.6292 161.468 84.3054L162.474 83.7516C162.553 83.9277 162.664 84.0669 162.806 84.1691C162.948 84.2714 163.099 84.3225 163.258 84.3225C163.388 84.3225 163.493 84.2941 163.573 84.2373C163.658 84.1805 163.701 84.101 163.701 83.9987C163.701 83.851 163.573 83.746 163.317 83.6835L162.823 83.5642C162.022 83.3768 161.622 82.9451 161.622 82.2692C161.622 82.0704 161.662 81.8886 161.741 81.7239C161.821 81.5535 161.931 81.4087 162.073 81.2894C162.215 81.1701 162.386 81.0764 162.585 81.0082C162.789 80.9401 163.011 80.906 163.249 80.906C163.431 80.906 163.607 80.9316 163.777 80.9827C163.948 81.0281 164.107 81.0934 164.254 81.1786C164.402 81.2638 164.533 81.3661 164.646 81.4854C164.76 81.6046 164.851 81.7381 164.919 81.8858L163.905 82.4225C163.843 82.2635 163.749 82.1386 163.624 82.0477C163.499 81.9511 163.371 81.9028 163.241 81.9028ZM167.127 79.7814V81.0168H168.192V82.0392H167.127V83.5813C167.127 83.8084 167.175 83.9703 167.272 84.0669C167.374 84.1634 167.528 84.2117 167.732 84.2117C167.812 84.2117 167.891 84.2032 167.971 84.1862C168.05 84.1634 168.124 84.1294 168.192 84.0839V85.1574C168.096 85.2029 167.976 85.2426 167.834 85.2767C167.692 85.3108 167.522 85.3278 167.323 85.3278C166.88 85.3278 166.531 85.2 166.275 84.9444C166.02 84.6832 165.892 84.3168 165.892 83.8454V82.0392H165.295V81.0168H165.892V79.7814H167.127ZM168.949 85.2256V81.0168H170.193V85.2256H168.949ZM170.295 79.7984C170.295 79.895 170.275 79.9887 170.236 80.0796C170.202 80.1648 170.15 80.2415 170.082 80.3096C170.02 80.3721 169.943 80.4232 169.852 80.463C169.767 80.5027 169.673 80.5226 169.571 80.5226C169.469 80.5226 169.372 80.5027 169.281 80.463C169.196 80.4232 169.12 80.3721 169.051 80.3096C168.989 80.2415 168.938 80.1648 168.898 80.0796C168.864 79.9887 168.847 79.895 168.847 79.7984C168.847 79.7019 168.864 79.611 168.898 79.5258C168.938 79.4349 168.989 79.3582 169.051 79.2958C169.12 79.2276 169.196 79.1736 169.281 79.1339C169.372 79.0941 169.469 79.0742 169.571 79.0742C169.673 79.0742 169.767 79.0941 169.852 79.1339C169.943 79.1736 170.02 79.2276 170.082 79.2958C170.15 79.3582 170.202 79.4349 170.236 79.5258C170.275 79.611 170.295 79.7019 170.295 79.7984ZM172.531 85.2256H171.287V81.0168H172.531V81.5535C172.662 81.349 172.829 81.19 173.034 81.0764C173.244 80.9628 173.491 80.906 173.775 80.906C174.258 80.906 174.635 81.0594 174.908 81.3661C175.186 81.6728 175.326 82.0931 175.326 82.627V85.2256H174.082V82.9167C174.082 82.6384 174.016 82.4254 173.886 82.2777C173.755 82.1244 173.568 82.0477 173.323 82.0477C173.085 82.0477 172.892 82.1329 172.744 82.3033C172.602 82.468 172.531 82.698 172.531 82.9934V85.2256ZM179.429 84.561C179.299 84.7542 179.117 84.9075 178.884 85.0211C178.651 85.129 178.395 85.183 178.117 85.183C177.833 85.183 177.569 85.129 177.325 85.0211C177.081 84.9132 176.87 84.7655 176.694 84.5781C176.518 84.3906 176.379 84.1691 176.277 83.9135C176.18 83.6522 176.132 83.3711 176.132 83.0701C176.132 82.7633 176.18 82.4793 176.277 82.2181C176.379 81.9511 176.518 81.7211 176.694 81.528C176.876 81.3348 177.086 81.1843 177.325 81.0764C177.569 80.9628 177.833 80.906 178.117 80.906C178.401 80.906 178.66 80.9657 178.892 81.0849C179.131 81.1985 179.31 81.3576 179.429 81.562V81.0168H180.656V84.953C180.656 85.2824 180.605 85.5834 180.503 85.8561C180.4 86.1287 180.25 86.3616 180.051 86.5547C179.852 86.7535 179.608 86.9068 179.318 87.0148C179.034 87.1227 178.708 87.1766 178.339 87.1766C177.839 87.1766 177.404 87.0772 177.035 86.8784C176.672 86.6796 176.408 86.407 176.243 86.0605L177.231 85.4727C177.345 85.6828 177.498 85.8447 177.691 85.9583C177.884 86.0719 178.1 86.1287 178.339 86.1287C178.679 86.1287 178.946 86.0265 179.14 85.822C179.333 85.6175 179.429 85.3278 179.429 84.953V84.561ZM179.472 83.0701C179.472 82.9224 179.443 82.7832 179.387 82.6526C179.335 82.5219 179.262 82.4083 179.165 82.3118C179.069 82.2152 178.955 82.1414 178.824 82.0903C178.699 82.0335 178.566 82.0051 178.424 82.0051C178.282 82.0051 178.146 82.0335 178.015 82.0903C177.89 82.1414 177.779 82.2152 177.683 82.3118C177.592 82.4083 177.518 82.5219 177.461 82.6526C177.41 82.7832 177.384 82.9224 177.384 83.0701C177.384 83.2177 177.41 83.3569 177.461 83.4875C177.518 83.6182 177.592 83.7318 177.683 83.8283C177.779 83.9249 177.89 84.0016 178.015 84.0584C178.146 84.1095 178.282 84.135 178.424 84.135C178.566 84.135 178.699 84.1095 178.824 84.0584C178.955 84.0016 179.069 83.9249 179.165 83.8283C179.262 83.7318 179.335 83.6182 179.387 83.4875C179.443 83.3569 179.472 83.2177 179.472 83.0701Z" fill="white"/>
<path d="M195.161 94.8447V163.802C195.161 169.536 190.512 174.186 184.777 174.186H129.931C124.196 174.185 119.548 169.536 119.548 163.802V94.8447H195.161Z" fill="white"/>
<path d="M195.161 94.8447V163.802C195.161 169.536 190.512 174.186 184.777 174.186H129.931C124.196 174.185 119.548 169.536 119.548 163.802V94.8447H195.161Z" stroke="black" stroke-width="0.532492"/>
<path d="M126.428 109.565L124.683 105.092H125.284L126.626 108.613L127.961 105.092H128.549L126.811 109.565H126.428ZM132.114 106.46V109.565H131.571V109.067C131.46 109.242 131.307 109.38 131.111 109.482C130.915 109.585 130.702 109.636 130.472 109.636C130.25 109.636 130.044 109.595 129.852 109.514C129.665 109.429 129.501 109.314 129.36 109.169C129.219 109.024 129.109 108.854 129.028 108.658C128.951 108.458 128.913 108.243 128.913 108.013C128.913 107.783 128.951 107.57 129.028 107.374C129.109 107.178 129.219 107.007 129.36 106.863C129.501 106.713 129.665 106.598 129.852 106.517C130.044 106.432 130.25 106.39 130.472 106.39C130.702 106.39 130.913 106.437 131.104 106.53C131.3 106.624 131.456 106.758 131.571 106.933V106.46H132.114ZM131.603 108.013C131.603 107.855 131.575 107.708 131.52 107.572C131.469 107.435 131.394 107.318 131.296 107.22C131.202 107.118 131.089 107.039 130.957 106.984C130.83 106.924 130.689 106.894 130.536 106.894C130.382 106.894 130.24 106.924 130.108 106.984C129.98 107.039 129.867 107.118 129.769 107.22C129.675 107.318 129.601 107.435 129.545 107.572C129.494 107.708 129.469 107.855 129.469 108.013C129.469 108.17 129.494 108.317 129.545 108.454C129.601 108.59 129.675 108.709 129.769 108.811C129.867 108.909 129.98 108.988 130.108 109.048C130.24 109.103 130.382 109.131 130.536 109.131C130.689 109.131 130.83 109.103 130.957 109.048C131.089 108.988 131.202 108.909 131.296 108.811C131.394 108.709 131.469 108.59 131.52 108.454C131.575 108.317 131.603 108.17 131.603 108.013ZM133.686 105.092V109.565H133.136V105.092H133.686ZM136.888 106.46H137.437V109.565H136.888V109.118C136.79 109.271 136.66 109.397 136.498 109.495C136.336 109.589 136.138 109.636 135.904 109.636C135.507 109.636 135.201 109.514 134.983 109.271C134.771 109.024 134.664 108.694 134.664 108.281V106.46H135.214V108.217C135.214 108.498 135.282 108.72 135.418 108.882C135.554 109.044 135.755 109.125 136.019 109.125C136.283 109.125 136.494 109.031 136.651 108.843C136.809 108.656 136.888 108.402 136.888 108.083V106.46ZM139.82 109.636C139.59 109.636 139.377 109.595 139.181 109.514C138.989 109.433 138.823 109.323 138.683 109.182C138.542 109.037 138.431 108.867 138.35 108.671C138.274 108.471 138.235 108.251 138.235 108.013C138.235 107.783 138.274 107.57 138.35 107.374C138.431 107.173 138.54 107.001 138.676 106.856C138.817 106.711 138.981 106.598 139.168 106.517C139.356 106.432 139.56 106.39 139.782 106.39C139.999 106.39 140.199 106.432 140.382 106.517C140.57 106.598 140.73 106.711 140.862 106.856C140.998 107.001 141.102 107.171 141.175 107.367C141.251 107.559 141.29 107.766 141.29 107.987C141.29 108.021 141.288 108.051 141.283 108.077C141.283 108.098 141.283 108.117 141.283 108.134V108.185H138.785C138.793 108.322 138.828 108.449 138.887 108.569C138.947 108.684 139.023 108.784 139.117 108.869C139.211 108.954 139.317 109.022 139.437 109.073C139.56 109.12 139.69 109.144 139.826 109.144C140.061 109.144 140.244 109.095 140.376 108.997C140.512 108.894 140.629 108.767 140.727 108.613L141.175 108.843C141.047 109.078 140.868 109.269 140.638 109.418C140.408 109.563 140.135 109.636 139.82 109.636ZM140.734 107.732C140.721 107.608 140.687 107.495 140.632 107.393C140.576 107.286 140.506 107.195 140.421 107.118C140.336 107.041 140.238 106.982 140.127 106.939C140.016 106.892 139.897 106.869 139.769 106.869C139.641 106.869 139.522 106.894 139.411 106.946C139.3 106.997 139.2 107.063 139.111 107.144C139.026 107.225 138.955 107.316 138.9 107.418C138.845 107.521 138.811 107.625 138.798 107.732H140.734ZM142.251 108.607C142.298 108.773 142.383 108.907 142.507 109.01C142.635 109.107 142.78 109.156 142.941 109.156C143.073 109.156 143.193 109.118 143.299 109.041C143.406 108.965 143.459 108.858 143.459 108.722C143.459 108.522 143.312 108.373 143.018 108.275L142.673 108.16C142.392 108.066 142.187 107.947 142.06 107.802C141.936 107.653 141.874 107.478 141.874 107.278C141.874 107.146 141.9 107.027 141.951 106.92C142.002 106.809 142.072 106.716 142.162 106.639C142.251 106.558 142.358 106.496 142.481 106.454C142.605 106.411 142.739 106.39 142.884 106.39C143.14 106.39 143.359 106.458 143.542 106.594C143.725 106.726 143.859 106.909 143.945 107.144L143.465 107.335C143.41 107.186 143.331 107.071 143.229 106.99C143.127 106.905 143.007 106.863 142.871 106.863C142.743 106.863 142.635 106.899 142.545 106.971C142.46 107.039 142.417 107.129 142.417 107.24C142.417 107.423 142.569 107.568 142.871 107.674L143.191 107.783C143.472 107.881 143.676 108.006 143.804 108.16C143.936 108.309 144.002 108.486 144.002 108.69C144.002 108.826 143.974 108.954 143.919 109.073C143.864 109.188 143.787 109.289 143.689 109.374C143.595 109.455 143.482 109.519 143.35 109.565C143.223 109.612 143.082 109.636 142.929 109.636C142.639 109.636 142.39 109.559 142.181 109.406C141.977 109.252 141.838 109.048 141.766 108.792L142.251 108.607ZM124.734 114.092H127.916V114.616H126.613V118.565H126.038V114.616H124.734V114.092ZM129.201 114.54C129.201 114.642 129.165 114.729 129.093 114.802C129.02 114.874 128.933 114.91 128.831 114.91C128.728 114.91 128.641 114.874 128.569 114.802C128.496 114.729 128.46 114.642 128.46 114.54C128.46 114.438 128.496 114.35 128.569 114.278C128.641 114.205 128.728 114.169 128.831 114.169C128.933 114.169 129.02 114.205 129.093 114.278C129.165 114.35 129.201 114.438 129.201 114.54ZM129.105 115.46V118.565H128.556V115.46H129.105ZM130.678 118.565H130.128V115.46H130.672V115.907C130.757 115.745 130.876 115.62 131.029 115.53C131.183 115.437 131.368 115.39 131.585 115.39C131.815 115.39 132.011 115.443 132.173 115.549C132.339 115.656 132.469 115.805 132.563 115.997C132.601 115.933 132.65 115.865 132.71 115.792C132.77 115.72 132.842 115.654 132.927 115.594C133.017 115.534 133.117 115.485 133.228 115.447C133.343 115.409 133.475 115.39 133.624 115.39C133.986 115.39 134.267 115.507 134.467 115.741C134.667 115.975 134.768 116.293 134.768 116.693V118.565H134.218V116.789C134.218 116.512 134.158 116.295 134.039 116.137C133.924 115.975 133.749 115.894 133.515 115.894C133.272 115.894 133.078 115.988 132.934 116.176C132.793 116.363 132.723 116.617 132.723 116.936V118.565H132.173V116.802C132.173 116.521 132.114 116.299 131.994 116.137C131.875 115.975 131.7 115.894 131.47 115.894C131.228 115.894 131.034 115.988 130.889 116.176C130.748 116.363 130.678 116.617 130.678 116.936V118.565ZM137.106 118.636C136.876 118.636 136.663 118.595 136.467 118.514C136.275 118.433 136.109 118.323 135.968 118.182C135.828 118.037 135.717 117.867 135.636 117.671C135.559 117.471 135.521 117.251 135.521 117.013C135.521 116.783 135.559 116.57 135.636 116.374C135.717 116.173 135.826 116.001 135.962 115.856C136.102 115.711 136.266 115.598 136.454 115.517C136.641 115.432 136.846 115.39 137.067 115.39C137.285 115.39 137.485 115.432 137.668 115.517C137.855 115.598 138.015 115.711 138.147 115.856C138.284 116.001 138.388 116.171 138.46 116.367C138.537 116.559 138.575 116.766 138.575 116.987C138.575 117.021 138.573 117.051 138.569 117.077C138.569 117.098 138.569 117.117 138.569 117.134V117.185H136.07C136.079 117.322 136.113 117.449 136.173 117.569C136.232 117.684 136.309 117.784 136.403 117.869C136.496 117.954 136.603 118.022 136.722 118.073C136.846 118.12 136.976 118.144 137.112 118.144C137.346 118.144 137.53 118.095 137.662 117.997C137.798 117.894 137.915 117.767 138.013 117.613L138.46 117.843C138.333 118.078 138.154 118.269 137.924 118.418C137.694 118.563 137.421 118.636 137.106 118.636ZM138.019 116.732C138.007 116.608 137.973 116.495 137.917 116.393C137.862 116.286 137.791 116.195 137.706 116.118C137.621 116.041 137.523 115.982 137.412 115.939C137.302 115.892 137.182 115.869 137.055 115.869C136.927 115.869 136.807 115.894 136.697 115.946C136.586 115.997 136.486 116.063 136.396 116.144C136.311 116.225 136.241 116.316 136.185 116.418C136.13 116.521 136.096 116.625 136.083 116.732H138.019ZM141.461 118.565H140.911V114.092H141.461V115.907C141.559 115.754 141.689 115.63 141.851 115.537C142.017 115.439 142.217 115.39 142.451 115.39C142.852 115.39 143.161 115.513 143.378 115.76C143.595 116.003 143.704 116.331 143.704 116.744V118.565H143.154V116.808C143.154 116.527 143.084 116.306 142.943 116.144C142.807 115.982 142.605 115.901 142.336 115.901C142.068 115.901 141.855 115.995 141.697 116.182C141.54 116.369 141.461 116.623 141.461 116.942V118.565ZM146.08 115.39C146.314 115.39 146.529 115.432 146.725 115.517C146.925 115.603 147.098 115.72 147.243 115.869C147.388 116.014 147.501 116.184 147.581 116.38C147.662 116.576 147.703 116.787 147.703 117.013C147.703 117.238 147.662 117.449 147.581 117.645C147.501 117.841 147.388 118.014 147.243 118.163C147.098 118.308 146.925 118.423 146.725 118.508C146.529 118.593 146.314 118.636 146.08 118.636C145.846 118.636 145.628 118.593 145.428 118.508C145.232 118.423 145.062 118.308 144.917 118.163C144.772 118.014 144.659 117.841 144.578 117.645C144.497 117.449 144.457 117.238 144.457 117.013C144.457 116.787 144.497 116.576 144.578 116.38C144.659 116.184 144.772 116.014 144.917 115.869C145.062 115.72 145.232 115.603 145.428 115.517C145.628 115.432 145.846 115.39 146.08 115.39ZM146.08 115.894C145.927 115.894 145.784 115.924 145.652 115.984C145.524 116.039 145.411 116.118 145.313 116.22C145.219 116.323 145.145 116.442 145.089 116.578C145.038 116.714 145.013 116.859 145.013 117.013C145.013 117.166 145.038 117.311 145.089 117.447C145.145 117.584 145.219 117.703 145.313 117.805C145.411 117.907 145.524 117.988 145.652 118.048C145.784 118.103 145.927 118.131 146.08 118.131C146.233 118.131 146.374 118.103 146.502 118.048C146.634 117.988 146.747 117.907 146.84 117.805C146.938 117.703 147.013 117.584 147.064 117.447C147.119 117.311 147.147 117.166 147.147 117.013C147.147 116.859 147.119 116.714 147.064 116.578C147.013 116.442 146.938 116.323 146.84 116.22C146.747 116.118 146.634 116.039 146.502 115.984C146.374 115.924 146.233 115.894 146.08 115.894ZM150.122 115.971C150.114 115.971 150.101 115.969 150.084 115.965C150.071 115.965 150.054 115.965 150.033 115.965C150.012 115.96 149.99 115.958 149.969 115.958C149.679 115.958 149.452 116.063 149.285 116.271C149.124 116.48 149.043 116.753 149.043 117.089V118.565H148.499V115.46H149.036V116.009C149.07 115.92 149.119 115.839 149.183 115.767C149.251 115.69 149.328 115.626 149.413 115.575C149.498 115.524 149.59 115.483 149.688 115.454C149.786 115.424 149.886 115.409 149.988 115.409C150.01 115.409 150.027 115.411 150.039 115.415C150.056 115.415 150.071 115.415 150.084 115.415C150.101 115.419 150.114 115.422 150.122 115.422V115.971ZM151.447 114.54C151.447 114.642 151.411 114.729 151.339 114.802C151.266 114.874 151.179 114.91 151.077 114.91C150.975 114.91 150.887 114.874 150.815 114.802C150.742 114.729 150.706 114.642 150.706 114.54C150.706 114.438 150.742 114.35 150.815 114.278C150.887 114.205 150.975 114.169 151.077 114.169C151.179 114.169 151.266 114.205 151.339 114.278C151.411 114.35 151.447 114.438 151.447 114.54ZM151.352 115.46V118.565H150.802V115.46H151.352ZM152.145 115.46H154.547V115.786L152.752 118.086H154.573V118.565H152.03V118.227L153.812 115.939H152.145V115.46ZM156.651 115.39C156.885 115.39 157.1 115.432 157.296 115.517C157.496 115.603 157.669 115.72 157.814 115.869C157.958 116.014 158.071 116.184 158.152 116.38C158.233 116.576 158.274 116.787 158.274 117.013C158.274 117.238 158.233 117.449 158.152 117.645C158.071 117.841 157.958 118.014 157.814 118.163C157.669 118.308 157.496 118.423 157.296 118.508C157.1 118.593 156.885 118.636 156.651 118.636C156.416 118.636 156.199 118.593 155.999 118.508C155.803 118.423 155.633 118.308 155.488 118.163C155.343 118.014 155.23 117.841 155.149 117.645C155.068 117.449 155.028 117.238 155.028 117.013C155.028 116.787 155.068 116.576 155.149 116.38C155.23 116.184 155.343 116.014 155.488 115.869C155.633 115.72 155.803 115.603 155.999 115.517C156.199 115.432 156.416 115.39 156.651 115.39ZM156.651 115.894C156.497 115.894 156.355 115.924 156.223 115.984C156.095 116.039 155.982 116.118 155.884 116.22C155.79 116.323 155.716 116.442 155.66 116.578C155.609 116.714 155.584 116.859 155.584 117.013C155.584 117.166 155.609 117.311 155.66 117.447C155.716 117.584 155.79 117.703 155.884 117.805C155.982 117.907 156.095 117.988 156.223 118.048C156.355 118.103 156.497 118.131 156.651 118.131C156.804 118.131 156.945 118.103 157.072 118.048C157.204 117.988 157.317 117.907 157.411 117.805C157.509 117.703 157.584 117.584 157.635 117.447C157.69 117.311 157.718 117.166 157.718 117.013C157.718 116.859 157.69 116.714 157.635 116.578C157.584 116.442 157.509 116.323 157.411 116.22C157.317 116.118 157.204 116.039 157.072 115.984C156.945 115.924 156.804 115.894 156.651 115.894ZM159.62 118.565H159.07V115.46H159.62V115.907C159.718 115.754 159.848 115.63 160.01 115.537C160.176 115.439 160.376 115.39 160.61 115.39C161.011 115.39 161.319 115.513 161.537 115.76C161.754 116.003 161.863 116.331 161.863 116.744V118.565H161.313V116.808C161.313 116.527 161.243 116.306 161.102 116.144C160.966 115.982 160.764 115.901 160.495 115.901C160.227 115.901 160.014 115.995 159.856 116.182C159.699 116.369 159.62 116.623 159.62 116.942V118.565ZM163.031 117.607C163.078 117.773 163.163 117.907 163.287 118.01C163.414 118.107 163.559 118.156 163.721 118.156C163.853 118.156 163.972 118.118 164.079 118.041C164.185 117.965 164.239 117.858 164.239 117.722C164.239 117.522 164.092 117.373 163.798 117.275L163.453 117.16C163.172 117.066 162.967 116.947 162.839 116.802C162.716 116.653 162.654 116.478 162.654 116.278C162.654 116.146 162.68 116.027 162.731 115.92C162.782 115.809 162.852 115.716 162.942 115.639C163.031 115.558 163.137 115.496 163.261 115.454C163.385 115.411 163.519 115.39 163.664 115.39C163.919 115.39 164.139 115.458 164.322 115.594C164.505 115.726 164.639 115.909 164.724 116.144L164.245 116.335C164.19 116.186 164.111 116.071 164.009 115.99C163.906 115.905 163.787 115.863 163.651 115.863C163.523 115.863 163.414 115.899 163.325 115.971C163.24 116.039 163.197 116.129 163.197 116.24C163.197 116.423 163.348 116.568 163.651 116.674L163.97 116.783C164.251 116.881 164.456 117.006 164.584 117.16C164.716 117.309 164.782 117.486 164.782 117.69C164.782 117.826 164.754 117.954 164.699 118.073C164.643 118.188 164.567 118.289 164.469 118.374C164.375 118.455 164.262 118.519 164.13 118.565C164.002 118.612 163.862 118.636 163.708 118.636C163.419 118.636 163.169 118.559 162.961 118.406C162.756 118.252 162.618 118.048 162.545 117.792L163.031 117.607ZM125.75 127.565H125.182V123.092H126.491C126.7 123.092 126.892 123.122 127.067 123.182C127.245 123.237 127.399 123.32 127.527 123.431C127.654 123.538 127.752 123.672 127.821 123.834C127.893 123.996 127.929 124.179 127.929 124.383C127.929 124.558 127.902 124.716 127.846 124.856C127.791 124.997 127.714 125.12 127.616 125.227C127.518 125.333 127.401 125.423 127.265 125.495C127.128 125.563 126.979 125.612 126.817 125.642L128.223 127.565H127.552L126.185 125.668H125.75V127.565ZM125.75 125.163H126.485C126.741 125.163 126.949 125.095 127.111 124.958C127.273 124.822 127.354 124.63 127.354 124.383C127.354 124.132 127.273 123.942 127.111 123.815C126.949 123.682 126.741 123.616 126.485 123.616H125.75V125.163ZM129.52 123.54C129.52 123.642 129.483 123.729 129.411 123.802C129.339 123.874 129.251 123.91 129.149 123.91C129.047 123.91 128.959 123.874 128.887 123.802C128.815 123.729 128.778 123.642 128.778 123.54C128.778 123.438 128.815 123.35 128.887 123.278C128.959 123.205 129.047 123.169 129.149 123.169C129.251 123.169 129.339 123.205 129.411 123.278C129.483 123.35 129.52 123.438 129.52 123.54ZM129.424 124.46V127.565H128.874V124.46H129.424ZM130.638 126.607C130.685 126.773 130.77 126.907 130.894 127.01C131.022 127.107 131.167 127.156 131.329 127.156C131.461 127.156 131.58 127.118 131.686 127.041C131.793 126.965 131.846 126.858 131.846 126.722C131.846 126.522 131.699 126.373 131.405 126.275L131.06 126.16C130.779 126.066 130.575 125.947 130.447 125.802C130.323 125.653 130.261 125.478 130.261 125.278C130.261 125.146 130.287 125.027 130.338 124.92C130.389 124.809 130.459 124.716 130.549 124.639C130.638 124.558 130.745 124.496 130.868 124.454C130.992 124.411 131.126 124.39 131.271 124.39C131.527 124.39 131.746 124.458 131.929 124.594C132.112 124.726 132.247 124.909 132.332 125.144L131.852 125.335C131.797 125.186 131.718 125.071 131.616 124.99C131.514 124.905 131.395 124.863 131.258 124.863C131.13 124.863 131.022 124.899 130.932 124.971C130.847 125.039 130.805 125.129 130.805 125.24C130.805 125.423 130.956 125.568 131.258 125.674L131.578 125.783C131.859 125.881 132.063 126.006 132.191 126.16C132.323 126.309 132.389 126.486 132.389 126.69C132.389 126.826 132.362 126.954 132.306 127.073C132.251 127.188 132.174 127.289 132.076 127.374C131.982 127.455 131.87 127.519 131.737 127.565C131.61 127.612 131.469 127.636 131.316 127.636C131.026 127.636 130.777 127.559 130.568 127.406C130.364 127.252 130.225 127.048 130.153 126.792L130.638 126.607ZM133.673 125.693L134.977 124.46H135.68L134.267 125.783L135.801 127.565H135.104L133.884 126.121L133.673 126.319V127.565H133.13V123.092H133.673V125.693ZM124.734 132.092H127.916V132.616H126.613V136.565H126.038V132.616H124.734V132.092ZM129.713 137.038C129.572 137.375 129.425 137.613 129.272 137.754C129.118 137.899 128.924 137.971 128.69 137.971C128.562 137.971 128.449 137.95 128.351 137.907V137.422C128.386 137.434 128.428 137.445 128.479 137.454C128.53 137.466 128.586 137.473 128.645 137.473C128.769 137.473 128.871 137.432 128.952 137.351C129.037 137.27 129.123 137.13 129.208 136.93L129.393 136.482L128.16 133.46H128.748L129.681 135.856L130.639 133.46H131.208L129.713 137.038ZM131.832 137.895V133.46H132.375V133.952C132.486 133.782 132.639 133.645 132.835 133.543C133.031 133.441 133.244 133.39 133.474 133.39C133.696 133.39 133.9 133.432 134.088 133.517C134.279 133.598 134.445 133.711 134.586 133.856C134.727 134.001 134.835 134.173 134.912 134.374C134.993 134.57 135.033 134.783 135.033 135.013C135.033 135.243 134.993 135.456 134.912 135.652C134.835 135.848 134.727 136.02 134.586 136.169C134.445 136.314 134.279 136.429 134.088 136.514C133.9 136.595 133.696 136.636 133.474 136.636C133.244 136.636 133.031 136.589 132.835 136.495C132.644 136.401 132.49 136.269 132.375 136.099V137.895H131.832ZM134.477 135.013C134.477 134.855 134.45 134.708 134.394 134.572C134.343 134.435 134.269 134.318 134.171 134.22C134.077 134.118 133.964 134.039 133.832 133.984C133.704 133.924 133.564 133.894 133.41 133.894C133.257 133.894 133.114 133.924 132.982 133.984C132.854 134.039 132.742 134.118 132.644 134.22C132.55 134.318 132.475 134.435 132.42 134.572C132.369 134.708 132.343 134.855 132.343 135.013C132.343 135.17 132.369 135.317 132.42 135.454C132.475 135.59 132.55 135.709 132.644 135.811C132.742 135.909 132.854 135.988 132.982 136.048C133.114 136.103 133.257 136.131 133.41 136.131C133.564 136.131 133.704 136.103 133.832 136.048C133.964 135.988 134.077 135.909 134.171 135.811C134.269 135.709 134.343 135.59 134.394 135.454C134.45 135.317 134.477 135.17 134.477 135.013ZM137.193 136.636C136.963 136.636 136.75 136.595 136.554 136.514C136.362 136.433 136.196 136.323 136.056 136.182C135.915 136.037 135.804 135.867 135.723 135.671C135.647 135.471 135.608 135.251 135.608 135.013C135.608 134.783 135.647 134.57 135.723 134.374C135.804 134.173 135.913 134.001 136.049 133.856C136.19 133.711 136.354 133.598 136.541 133.517C136.729 133.432 136.933 133.39 137.155 133.39C137.372 133.39 137.572 133.432 137.755 133.517C137.943 133.598 138.103 133.711 138.235 133.856C138.371 134.001 138.475 134.171 138.548 134.367C138.624 134.559 138.663 134.766 138.663 134.987C138.663 135.021 138.661 135.051 138.656 135.077C138.656 135.098 138.656 135.117 138.656 135.134V135.185H136.158C136.166 135.322 136.2 135.449 136.26 135.569C136.32 135.684 136.396 135.784 136.49 135.869C136.584 135.954 136.69 136.022 136.81 136.073C136.933 136.12 137.063 136.144 137.199 136.144C137.434 136.144 137.617 136.095 137.749 135.997C137.885 135.894 138.002 135.767 138.1 135.613L138.548 135.843C138.42 136.078 138.241 136.269 138.011 136.418C137.781 136.563 137.508 136.636 137.193 136.636ZM138.107 134.732C138.094 134.608 138.06 134.495 138.005 134.393C137.949 134.286 137.879 134.195 137.794 134.118C137.708 134.041 137.61 133.982 137.5 133.939C137.389 133.892 137.27 133.869 137.142 133.869C137.014 133.869 136.895 133.894 136.784 133.946C136.673 133.997 136.573 134.063 136.484 134.144C136.399 134.225 136.328 134.316 136.273 134.418C136.217 134.521 136.183 134.625 136.171 134.732H138.107ZM139.624 135.607C139.671 135.773 139.756 135.907 139.88 136.01C140.008 136.107 140.152 136.156 140.314 136.156C140.446 136.156 140.566 136.118 140.672 136.041C140.779 135.965 140.832 135.858 140.832 135.722C140.832 135.522 140.685 135.373 140.391 135.275L140.046 135.16C139.765 135.066 139.56 134.947 139.433 134.802C139.309 134.653 139.247 134.478 139.247 134.278C139.247 134.146 139.273 134.027 139.324 133.92C139.375 133.809 139.445 133.716 139.535 133.639C139.624 133.558 139.731 133.496 139.854 133.454C139.978 133.411 140.112 133.39 140.257 133.39C140.512 133.39 140.732 133.458 140.915 133.594C141.098 133.726 141.232 133.909 141.318 134.144L140.838 134.335C140.783 134.186 140.704 134.071 140.602 133.99C140.5 133.905 140.38 133.863 140.244 133.863C140.116 133.863 140.008 133.899 139.918 133.971C139.833 134.039 139.79 134.129 139.79 134.24C139.79 134.423 139.942 134.568 140.244 134.674L140.564 134.783C140.845 134.881 141.049 135.006 141.177 135.16C141.309 135.309 141.375 135.486 141.375 135.69C141.375 135.826 141.347 135.954 141.292 136.073C141.237 136.188 141.16 136.289 141.062 136.374C140.968 136.455 140.855 136.519 140.723 136.565C140.595 136.612 140.455 136.636 140.302 136.636C140.012 136.636 139.763 136.559 139.554 136.406C139.349 136.252 139.211 136.048 139.139 135.792L139.624 135.607ZM145.081 133.39C145.316 133.39 145.531 133.432 145.727 133.517C145.927 133.603 146.1 133.72 146.244 133.869C146.389 134.014 146.502 134.184 146.583 134.38C146.664 134.576 146.704 134.787 146.704 135.013C146.704 135.238 146.664 135.449 146.583 135.645C146.502 135.841 146.389 136.014 146.244 136.163C146.1 136.308 145.927 136.423 145.727 136.508C145.531 136.593 145.316 136.636 145.081 136.636C144.847 136.636 144.63 136.593 144.43 136.508C144.234 136.423 144.063 136.308 143.918 136.163C143.774 136.014 143.661 135.841 143.58 135.645C143.499 135.449 143.458 135.238 143.458 135.013C143.458 134.787 143.499 134.576 143.58 134.38C143.661 134.184 143.774 134.014 143.918 133.869C144.063 133.72 144.234 133.603 144.43 133.517C144.63 133.432 144.847 133.39 145.081 133.39ZM145.081 133.894C144.928 133.894 144.785 133.924 144.653 133.984C144.526 134.039 144.413 134.118 144.315 134.22C144.221 134.323 144.146 134.442 144.091 134.578C144.04 134.714 144.014 134.859 144.014 135.013C144.014 135.166 144.04 135.311 144.091 135.447C144.146 135.584 144.221 135.703 144.315 135.805C144.413 135.907 144.526 135.988 144.653 136.048C144.785 136.103 144.928 136.131 145.081 136.131C145.235 136.131 145.375 136.103 145.503 136.048C145.635 135.988 145.748 135.907 145.842 135.805C145.94 135.703 146.014 135.584 146.065 135.447C146.121 135.311 146.149 135.166 146.149 135.013C146.149 134.859 146.121 134.714 146.065 134.578C146.014 134.442 145.94 134.323 145.842 134.22C145.748 134.118 145.635 134.039 145.503 133.984C145.375 133.924 145.235 133.894 145.081 133.894ZM147.642 136.565V133.952H147.162V133.46H147.642V133.192C147.642 132.996 147.667 132.823 147.718 132.674C147.774 132.525 147.848 132.403 147.942 132.31C148.04 132.212 148.153 132.139 148.281 132.092C148.413 132.041 148.555 132.016 148.709 132.016C148.819 132.016 148.913 132.024 148.99 132.041C149.067 132.054 149.128 132.071 149.175 132.092V132.585C149.128 132.563 149.073 132.548 149.009 132.54C148.949 132.527 148.879 132.521 148.798 132.521C148.624 132.521 148.479 132.57 148.364 132.668C148.249 132.766 148.191 132.936 148.191 133.179V133.46H149.06V133.952H148.191V136.565H147.642ZM151.922 132.54C151.922 132.642 151.885 132.729 151.813 132.802C151.741 132.874 151.653 132.91 151.551 132.91C151.449 132.91 151.362 132.874 151.289 132.802C151.217 132.729 151.18 132.642 151.18 132.54C151.18 132.438 151.217 132.35 151.289 132.278C151.362 132.205 151.449 132.169 151.551 132.169C151.653 132.169 151.741 132.205 151.813 132.278C151.885 132.35 151.922 132.438 151.922 132.54ZM151.826 133.46V136.565H151.276V133.46H151.826ZM153.398 136.565H152.849V133.46H153.398V133.907C153.496 133.754 153.626 133.63 153.788 133.537C153.954 133.439 154.154 133.39 154.389 133.39C154.789 133.39 155.098 133.513 155.315 133.76C155.533 134.003 155.641 134.331 155.641 134.744V136.565H155.092V134.808C155.092 134.527 155.021 134.306 154.881 134.144C154.744 133.982 154.542 133.901 154.274 133.901C154.005 133.901 153.792 133.995 153.635 134.182C153.477 134.369 153.398 134.623 153.398 134.942V136.565ZM157.519 136.565L156.222 133.46H156.81L157.749 135.811L158.688 133.46H159.263L157.966 136.565H157.519ZM161.249 136.636C161.019 136.636 160.806 136.595 160.61 136.514C160.418 136.433 160.252 136.323 160.111 136.182C159.971 136.037 159.86 135.867 159.779 135.671C159.702 135.471 159.664 135.251 159.664 135.013C159.664 134.783 159.702 134.57 159.779 134.374C159.86 134.173 159.969 134.001 160.105 133.856C160.246 133.711 160.41 133.598 160.597 133.517C160.784 133.432 160.989 133.39 161.21 133.39C161.428 133.39 161.628 133.432 161.811 133.517C161.998 133.598 162.158 133.711 162.29 133.856C162.427 134.001 162.531 134.171 162.603 134.367C162.68 134.559 162.718 134.766 162.718 134.987C162.718 135.021 162.716 135.051 162.712 135.077C162.712 135.098 162.712 135.117 162.712 135.134V135.185H160.214C160.222 135.322 160.256 135.449 160.316 135.569C160.375 135.684 160.452 135.784 160.546 135.869C160.64 135.954 160.746 136.022 160.865 136.073C160.989 136.12 161.119 136.144 161.255 136.144C161.489 136.144 161.673 136.095 161.805 135.997C161.941 135.894 162.058 135.767 162.156 135.613L162.603 135.843C162.476 136.078 162.297 136.269 162.067 136.418C161.837 136.563 161.564 136.636 161.249 136.636ZM162.163 134.732C162.15 134.608 162.116 134.495 162.06 134.393C162.005 134.286 161.935 134.195 161.849 134.118C161.764 134.041 161.666 133.982 161.555 133.939C161.445 133.892 161.325 133.869 161.198 133.869C161.07 133.869 160.951 133.894 160.84 133.946C160.729 133.997 160.629 134.063 160.539 134.144C160.454 134.225 160.384 134.316 160.329 134.418C160.273 134.521 160.239 134.625 160.226 134.732H162.163ZM163.68 135.607C163.727 135.773 163.812 135.907 163.936 136.01C164.063 136.107 164.208 136.156 164.37 136.156C164.502 136.156 164.621 136.118 164.728 136.041C164.834 135.965 164.888 135.858 164.888 135.722C164.888 135.522 164.741 135.373 164.447 135.275L164.102 135.16C163.821 135.066 163.616 134.947 163.488 134.802C163.365 134.653 163.303 134.478 163.303 134.278C163.303 134.146 163.329 134.027 163.38 133.92C163.431 133.809 163.501 133.716 163.59 133.639C163.68 133.558 163.786 133.496 163.91 133.454C164.034 133.411 164.168 133.39 164.313 133.39C164.568 133.39 164.788 133.458 164.971 133.594C165.154 133.726 165.288 133.909 165.373 134.144L164.894 134.335C164.839 134.186 164.76 134.071 164.658 133.99C164.555 133.905 164.436 133.863 164.3 133.863C164.172 133.863 164.063 133.899 163.974 133.971C163.889 134.039 163.846 134.129 163.846 134.24C163.846 134.423 163.997 134.568 164.3 134.674L164.619 134.783C164.9 134.881 165.105 135.006 165.233 135.16C165.365 135.309 165.431 135.486 165.431 135.69C165.431 135.826 165.403 135.954 165.348 136.073C165.292 136.188 165.216 136.289 165.118 136.374C165.024 136.455 164.911 136.519 164.779 136.565C164.651 136.612 164.511 136.636 164.357 136.636C164.068 136.636 163.818 136.559 163.61 136.406C163.405 136.252 163.267 136.048 163.194 135.792L163.68 135.607ZM166.842 132.527V133.46H167.711V133.952H166.842V135.594C166.842 135.777 166.883 135.912 166.964 135.997C167.049 136.082 167.181 136.125 167.36 136.125C167.42 136.125 167.481 136.118 167.545 136.105C167.609 136.088 167.665 136.063 167.711 136.029V136.54C167.656 136.57 167.588 136.593 167.507 136.61C167.43 136.627 167.339 136.636 167.232 136.636C166.938 136.636 166.708 136.551 166.542 136.38C166.376 136.21 166.293 135.973 166.293 135.671V133.952H165.814V133.46H166.293V132.527H166.842ZM168.992 136.565H168.443V133.46H168.986V133.907C169.071 133.745 169.191 133.62 169.344 133.53C169.497 133.437 169.683 133.39 169.9 133.39C170.13 133.39 170.326 133.443 170.488 133.549C170.654 133.656 170.784 133.805 170.877 133.997C170.916 133.933 170.965 133.865 171.024 133.792C171.084 133.72 171.157 133.654 171.242 133.594C171.331 133.534 171.431 133.485 171.542 133.447C171.657 133.409 171.789 133.39 171.938 133.39C172.3 133.39 172.581 133.507 172.782 133.741C172.982 133.975 173.082 134.293 173.082 134.693V136.565H172.532V134.789C172.532 134.512 172.473 134.295 172.354 134.137C172.239 133.975 172.064 133.894 171.83 133.894C171.587 133.894 171.393 133.988 171.248 134.176C171.108 134.363 171.037 134.617 171.037 134.936V136.565H170.488V134.802C170.488 134.521 170.428 134.299 170.309 134.137C170.19 133.975 170.015 133.894 169.785 133.894C169.542 133.894 169.348 133.988 169.203 134.176C169.063 134.363 168.992 134.617 168.992 134.936V136.565ZM175.42 136.636C175.19 136.636 174.977 136.595 174.781 136.514C174.589 136.433 174.423 136.323 174.283 136.182C174.142 136.037 174.031 135.867 173.95 135.671C173.874 135.471 173.835 135.251 173.835 135.013C173.835 134.783 173.874 134.57 173.95 134.374C174.031 134.173 174.14 134.001 174.276 133.856C174.417 133.711 174.581 133.598 174.768 133.517C174.956 133.432 175.16 133.39 175.382 133.39C175.599 133.39 175.799 133.432 175.982 133.517C176.17 133.598 176.33 133.711 176.462 133.856C176.598 134.001 176.702 134.171 176.775 134.367C176.851 134.559 176.89 134.766 176.89 134.987C176.89 135.021 176.888 135.051 176.883 135.077C176.883 135.098 176.883 135.117 176.883 135.134V135.185H174.385C174.393 135.322 174.428 135.449 174.487 135.569C174.547 135.684 174.623 135.784 174.717 135.869C174.811 135.954 174.917 136.022 175.037 136.073C175.16 136.12 175.29 136.144 175.426 136.144C175.661 136.144 175.844 136.095 175.976 135.997C176.112 135.894 176.229 135.767 176.327 135.613L176.775 135.843C176.647 136.078 176.468 136.269 176.238 136.418C176.008 136.563 175.735 136.636 175.42 136.636ZM176.334 134.732C176.321 134.608 176.287 134.495 176.232 134.393C176.176 134.286 176.106 134.195 176.021 134.118C175.936 134.041 175.838 133.982 175.727 133.939C175.616 133.892 175.497 133.869 175.369 133.869C175.241 133.869 175.122 133.894 175.011 133.946C174.9 133.997 174.8 134.063 174.711 134.144C174.626 134.225 174.555 134.316 174.5 134.418C174.445 134.521 174.411 134.625 174.398 134.732H176.334ZM178.209 136.565H177.66V133.46H178.209V133.907C178.307 133.754 178.437 133.63 178.599 133.537C178.765 133.439 178.965 133.39 179.2 133.39C179.6 133.39 179.909 133.513 180.126 133.76C180.343 134.003 180.452 134.331 180.452 134.744V136.565H179.902V134.808C179.902 134.527 179.832 134.306 179.692 134.144C179.555 133.982 179.353 133.901 179.085 133.901C178.816 133.901 178.603 133.995 178.446 134.182C178.288 134.369 178.209 134.623 178.209 134.942V136.565ZM182.1 132.527V133.46H182.969V133.952H182.1V135.594C182.1 135.777 182.14 135.912 182.221 135.997C182.306 136.082 182.438 136.125 182.617 136.125C182.677 136.125 182.739 136.118 182.802 136.105C182.866 136.088 182.922 136.063 182.969 136.029V136.54C182.913 136.57 182.845 136.593 182.764 136.61C182.687 136.627 182.596 136.636 182.489 136.636C182.195 136.636 181.965 136.551 181.799 136.38C181.633 136.21 181.55 135.973 181.55 135.671V133.952H181.071V133.46H181.55V132.527H182.1Z" fill="black"/>
<rect x="126.996" y="145.43" width="29.2871" height="17.8574" rx="2.39621" fill="#8F8F8F"/>
<rect x="126.996" y="145.43" width="29.2871" height="17.8574" rx="2.39621" stroke="black" stroke-width="0.532492"/>
<path d="M139.718 153.389C139.57 153.099 139.363 152.878 139.096 152.725C138.829 152.571 138.522 152.495 138.176 152.495C137.92 152.495 137.682 152.543 137.46 152.639C137.244 152.736 137.054 152.869 136.889 153.04C136.725 153.21 136.594 153.412 136.497 153.645C136.407 153.872 136.361 154.116 136.361 154.377C136.361 154.639 136.407 154.886 136.497 155.119C136.594 155.346 136.725 155.545 136.889 155.715C137.054 155.885 137.247 156.022 137.469 156.124C137.69 156.221 137.929 156.269 138.184 156.269C138.582 156.269 138.923 156.164 139.207 155.954C139.491 155.738 139.673 155.459 139.752 155.119H138.023V154.045H141.124V154.522C141.124 154.937 141.05 155.326 140.902 155.689C140.755 156.047 140.55 156.36 140.289 156.627C140.028 156.888 139.715 157.095 139.352 157.249C138.994 157.396 138.602 157.47 138.176 157.47C137.739 157.47 137.33 157.391 136.949 157.232C136.574 157.067 136.248 156.845 135.969 156.567C135.691 156.283 135.469 155.954 135.305 155.579C135.146 155.204 135.066 154.803 135.066 154.377C135.066 153.951 135.148 153.551 135.313 153.176C135.478 152.801 135.699 152.475 135.978 152.196C136.262 151.912 136.594 151.691 136.975 151.532C137.355 151.367 137.758 151.285 138.184 151.285C138.786 151.285 139.323 151.421 139.795 151.694C140.272 151.966 140.632 152.344 140.877 152.827L139.718 153.389ZM141.738 155.255C141.738 154.943 141.795 154.653 141.908 154.386C142.027 154.113 142.189 153.878 142.394 153.679C142.598 153.48 142.84 153.324 143.118 153.21C143.396 153.097 143.697 153.04 144.021 153.04C144.345 153.04 144.646 153.097 144.924 153.21C145.202 153.324 145.444 153.48 145.648 153.679C145.853 153.878 146.012 154.113 146.125 154.386C146.245 154.653 146.304 154.943 146.304 155.255C146.304 155.567 146.245 155.86 146.125 156.133C146.012 156.399 145.853 156.632 145.648 156.831C145.444 157.03 145.202 157.186 144.924 157.3C144.646 157.413 144.345 157.47 144.021 157.47C143.697 157.47 143.396 157.413 143.118 157.3C142.84 157.186 142.598 157.03 142.394 156.831C142.189 156.632 142.027 156.399 141.908 156.133C141.795 155.86 141.738 155.567 141.738 155.255ZM142.965 155.255C142.965 155.408 142.993 155.55 143.05 155.681C143.107 155.812 143.18 155.925 143.271 156.022C143.368 156.118 143.479 156.195 143.604 156.252C143.734 156.309 143.873 156.337 144.021 156.337C144.163 156.337 144.299 156.309 144.43 156.252C144.561 156.195 144.671 156.118 144.762 156.022C144.859 155.925 144.935 155.812 144.992 155.681C145.049 155.55 145.077 155.408 145.077 155.255C145.077 155.102 145.049 154.96 144.992 154.829C144.935 154.698 144.859 154.585 144.762 154.488C144.671 154.392 144.561 154.315 144.43 154.258C144.299 154.201 144.163 154.173 144.021 154.173C143.873 154.173 143.734 154.201 143.604 154.258C143.479 154.315 143.368 154.392 143.271 154.488C143.18 154.585 143.107 154.698 143.05 154.829C142.993 154.96 142.965 155.102 142.965 155.255Z" fill="white"/>
<path d="M17.0311 15.9746H9.57617" stroke="#111111" stroke-width="1.06498" stroke-linecap="round" stroke-linejoin="round"/>
<path d="M13.3036 19.702L9.57617 15.9745L13.3036 12.2471" stroke="#111111" stroke-width="1.06498" stroke-linecap="round" stroke-linejoin="round"/>
</svg>
