<svg width="218" height="216" viewBox="0 0 218 216" fill="none" xmlns="http://www.w3.org/2000/svg">
<g filter="url(#filter0_d_411_719)">
<rect x="3.06445" width="211" height="209" rx="19.1531" fill="white"/>
<path d="M52.8887 157.882C52.4134 157.628 51.9251 157.433 51.4238 157.296C50.9225 157.153 50.3757 157.081 49.7832 157.081C49.1061 157.081 48.5039 157.201 47.9766 157.442C47.4492 157.683 47.0033 158.025 46.6387 158.468C46.2806 158.904 46.0039 159.431 45.8086 160.05C45.6198 160.668 45.5254 161.352 45.5254 162.101C45.5254 162.882 45.6035 163.582 45.7598 164.2C45.916 164.819 46.1602 165.343 46.4922 165.772C46.8242 166.202 47.2474 166.531 47.7617 166.759C48.2826 166.987 48.9043 167.101 49.627 167.101C49.7507 167.101 49.8841 167.094 50.0273 167.081C50.1706 167.068 50.3138 167.052 50.457 167.032C50.6003 167.006 50.737 166.977 50.8672 166.944C51.0039 166.912 51.1243 166.876 51.2285 166.837V162.774H48.6211V161.339H52.9473V167.862C52.6803 167.986 52.3971 168.097 52.0977 168.194C51.8047 168.292 51.502 168.373 51.1895 168.438C50.8835 168.504 50.5775 168.552 50.2715 168.585C49.9655 168.618 49.6693 168.634 49.3828 168.634C48.5104 168.634 47.7227 168.497 47.0195 168.224C46.3229 167.95 45.7272 167.547 45.2324 167.013C44.7441 166.472 44.3665 165.802 44.0996 165.001C43.8392 164.2 43.709 163.272 43.709 162.218C43.709 161.17 43.8555 160.232 44.1484 159.405C44.4414 158.572 44.8516 157.869 45.3789 157.296C45.9128 156.716 46.5508 156.277 47.293 155.978C48.0417 155.672 48.8652 155.519 49.7637 155.519C50.3366 155.519 50.8802 155.571 51.3945 155.675C51.9154 155.772 52.4134 155.932 52.8887 156.153V157.882ZM61.9219 168.458L61.8828 167.14C61.349 167.667 60.8053 168.048 60.252 168.282C59.7051 168.517 59.1289 168.634 58.5234 168.634C57.9635 168.634 57.485 168.562 57.0879 168.419C56.6908 168.276 56.362 168.08 56.1016 167.833C55.8477 167.579 55.6589 167.283 55.5352 166.944C55.418 166.606 55.3594 166.238 55.3594 165.841C55.3594 164.858 55.724 164.09 56.4531 163.536C57.1888 162.976 58.2728 162.696 59.7051 162.696H61.7363V161.837C61.7363 161.257 61.5508 160.795 61.1797 160.45C60.8086 160.099 60.2422 159.923 59.4805 159.923C58.9271 159.923 58.3802 159.985 57.8398 160.108C57.306 160.232 56.7526 160.408 56.1797 160.636V159.103C56.3945 159.024 56.6322 158.95 56.8926 158.878C57.1595 158.8 57.4395 158.731 57.7324 158.673C58.0254 158.614 58.3314 158.569 58.6504 158.536C58.9694 158.497 59.2917 158.478 59.6172 158.478C60.2096 158.478 60.7435 158.543 61.2188 158.673C61.694 158.803 62.0944 159.002 62.4199 159.269C62.752 159.535 63.0059 159.871 63.1816 160.274C63.3574 160.678 63.4453 161.153 63.4453 161.7V168.458H61.9219ZM61.7363 163.995H59.5781C59.1549 163.995 58.7904 164.037 58.4844 164.122C58.1784 164.207 57.9277 164.327 57.7324 164.483C57.5371 164.64 57.3906 164.828 57.293 165.05C57.2018 165.265 57.1562 165.509 57.1562 165.782C57.1562 165.971 57.1855 166.153 57.2441 166.329C57.3027 166.498 57.3971 166.651 57.5273 166.788C57.6576 166.918 57.8268 167.022 58.0352 167.101C58.2435 167.179 58.4974 167.218 58.7969 167.218C59.1875 167.218 59.6335 167.101 60.1348 166.866C60.6426 166.625 61.1764 166.248 61.7363 165.733V163.995ZM73.6113 168.458V161.417C73.6113 161.111 73.5983 160.86 73.5723 160.665C73.5527 160.47 73.5169 160.317 73.4648 160.206C73.4193 160.089 73.3574 160.007 73.2793 159.962C73.2077 159.916 73.1165 159.894 73.0059 159.894C72.8757 159.894 72.7552 159.933 72.6445 160.011C72.5339 160.089 72.4134 160.216 72.2832 160.392C72.1595 160.567 72.0195 160.802 71.8633 161.095C71.7135 161.381 71.5345 161.736 71.3262 162.159V168.458H69.7734V161.603C69.7734 161.244 69.7604 160.955 69.7344 160.733C69.7148 160.512 69.679 160.34 69.627 160.216C69.5814 160.092 69.5195 160.007 69.4414 159.962C69.3633 159.916 69.2689 159.894 69.1582 159.894C69.041 159.894 68.9303 159.926 68.8262 159.991C68.722 160.056 68.6048 160.174 68.4746 160.343C68.3509 160.512 68.2109 160.743 68.0547 161.036C67.8984 161.329 67.7129 161.703 67.498 162.159V168.458H65.9355V158.653H67.2344L67.3125 160.519C67.4818 160.147 67.6445 159.832 67.8008 159.571C67.9635 159.311 68.1296 159.103 68.2988 158.946C68.4681 158.784 68.6471 158.666 68.8359 158.595C69.0312 158.517 69.2461 158.478 69.4805 158.478C70.0078 158.478 70.4082 158.65 70.6816 158.995C70.9551 159.34 71.0918 159.874 71.0918 160.597C71.248 160.258 71.401 159.959 71.5508 159.698C71.7005 159.431 71.86 159.21 72.0293 159.034C72.2051 158.852 72.3971 158.715 72.6055 158.624C72.8138 158.526 73.0547 158.478 73.3281 158.478C74.5586 158.478 75.1738 159.425 75.1738 161.319V168.458H73.6113ZM80.9551 160.06H78.0547V158.653H82.6738V167.042H85.5938V168.458H77.7324V167.042H80.9551V160.06ZM81.5508 154.542C81.7396 154.542 81.9154 154.578 82.0781 154.649C82.2409 154.715 82.3809 154.809 82.498 154.933C82.6217 155.056 82.7161 155.2 82.7812 155.362C82.8529 155.519 82.8887 155.691 82.8887 155.88C82.8887 156.062 82.8529 156.235 82.7812 156.397C82.7161 156.56 82.6217 156.703 82.498 156.827C82.3809 156.951 82.2409 157.049 82.0781 157.12C81.9154 157.185 81.7396 157.218 81.5508 157.218C81.362 157.218 81.1862 157.185 81.0234 157.12C80.8607 157.049 80.7174 156.951 80.5938 156.827C80.4766 156.703 80.3822 156.56 80.3105 156.397C80.2454 156.235 80.2129 156.062 80.2129 155.88C80.2129 155.691 80.2454 155.519 80.3105 155.362C80.3822 155.2 80.4766 155.056 80.5938 154.933C80.7174 154.809 80.8607 154.715 81.0234 154.649C81.1862 154.578 81.362 154.542 81.5508 154.542ZM97.3125 156.241C96.4206 156.052 95.6523 155.958 95.0078 155.958C93.4779 155.958 92.7129 156.759 92.7129 158.36V160.079H97.0098V161.495H92.7129V168.458H90.9844V161.495H87.8301V160.079H90.9844V158.458C90.9844 155.847 92.3451 154.542 95.0664 154.542C95.7435 154.542 96.4922 154.62 97.3125 154.776V156.241ZM102.947 160.06H100.047V158.653H104.666V167.042H107.586V168.458H99.7246V167.042H102.947V160.06ZM103.543 154.542C103.732 154.542 103.908 154.578 104.07 154.649C104.233 154.715 104.373 154.809 104.49 154.933C104.614 155.056 104.708 155.2 104.773 155.362C104.845 155.519 104.881 155.691 104.881 155.88C104.881 156.062 104.845 156.235 104.773 156.397C104.708 156.56 104.614 156.703 104.49 156.827C104.373 156.951 104.233 157.049 104.07 157.12C103.908 157.185 103.732 157.218 103.543 157.218C103.354 157.218 103.178 157.185 103.016 157.12C102.853 157.049 102.71 156.951 102.586 156.827C102.469 156.703 102.374 156.56 102.303 156.397C102.238 156.235 102.205 156.062 102.205 155.88C102.205 155.691 102.238 155.519 102.303 155.362C102.374 155.2 102.469 155.056 102.586 154.933C102.71 154.809 102.853 154.715 103.016 154.649C103.178 154.578 103.354 154.542 103.543 154.542ZM118.221 168.097C117.778 168.266 117.322 168.39 116.854 168.468C116.391 168.552 115.913 168.595 115.418 168.595C113.868 168.595 112.674 168.175 111.834 167.335C111.001 166.495 110.584 165.268 110.584 163.653C110.584 162.879 110.704 162.175 110.945 161.544C111.186 160.912 111.525 160.372 111.961 159.923C112.397 159.474 112.918 159.129 113.523 158.888C114.129 158.64 114.796 158.517 115.525 158.517C116.033 158.517 116.508 158.552 116.951 158.624C117.394 158.696 117.817 158.813 118.221 158.976V160.597C117.798 160.375 117.365 160.216 116.922 160.118C116.486 160.014 116.033 159.962 115.564 159.962C115.128 159.962 114.715 160.047 114.324 160.216C113.94 160.379 113.602 160.616 113.309 160.929C113.016 161.241 112.785 161.622 112.615 162.071C112.446 162.521 112.361 163.028 112.361 163.595C112.361 164.78 112.648 165.668 113.221 166.261C113.8 166.847 114.601 167.14 115.623 167.14C116.085 167.14 116.531 167.088 116.961 166.983C117.397 166.879 117.817 166.723 118.221 166.515V168.097ZM127.898 168.458L127.859 167.14C127.326 167.667 126.782 168.048 126.229 168.282C125.682 168.517 125.105 168.634 124.5 168.634C123.94 168.634 123.462 168.562 123.064 168.419C122.667 168.276 122.339 168.08 122.078 167.833C121.824 167.579 121.635 167.283 121.512 166.944C121.395 166.606 121.336 166.238 121.336 165.841C121.336 164.858 121.701 164.09 122.43 163.536C123.165 162.976 124.249 162.696 125.682 162.696H127.713V161.837C127.713 161.257 127.527 160.795 127.156 160.45C126.785 160.099 126.219 159.923 125.457 159.923C124.904 159.923 124.357 159.985 123.816 160.108C123.283 160.232 122.729 160.408 122.156 160.636V159.103C122.371 159.024 122.609 158.95 122.869 158.878C123.136 158.8 123.416 158.731 123.709 158.673C124.002 158.614 124.308 158.569 124.627 158.536C124.946 158.497 125.268 158.478 125.594 158.478C126.186 158.478 126.72 158.543 127.195 158.673C127.671 158.803 128.071 159.002 128.396 159.269C128.729 159.535 128.982 159.871 129.158 160.274C129.334 160.678 129.422 161.153 129.422 161.7V168.458H127.898ZM127.713 163.995H125.555C125.132 163.995 124.767 164.037 124.461 164.122C124.155 164.207 123.904 164.327 123.709 164.483C123.514 164.64 123.367 164.828 123.27 165.05C123.178 165.265 123.133 165.509 123.133 165.782C123.133 165.971 123.162 166.153 123.221 166.329C123.279 166.498 123.374 166.651 123.504 166.788C123.634 166.918 123.803 167.022 124.012 167.101C124.22 167.179 124.474 167.218 124.773 167.218C125.164 167.218 125.61 167.101 126.111 166.866C126.619 166.625 127.153 166.248 127.713 165.733V163.995ZM140.496 168.321C140.112 168.419 139.715 168.487 139.305 168.526C138.895 168.572 138.478 168.595 138.055 168.595C136.824 168.595 135.906 168.318 135.301 167.765C134.695 167.205 134.393 166.349 134.393 165.196V160.079H131.648V158.653H134.393V155.958L136.092 155.519V158.653H140.496V160.079H136.092V165.06C136.092 165.763 136.277 166.29 136.648 166.642C137.026 166.987 137.579 167.159 138.309 167.159C138.621 167.159 138.963 167.136 139.334 167.091C139.705 167.039 140.092 166.961 140.496 166.856V168.321ZM146.932 160.06H144.031V158.653H148.65V167.042H151.57V168.458H143.709V167.042H146.932V160.06ZM147.527 154.542C147.716 154.542 147.892 154.578 148.055 154.649C148.217 154.715 148.357 154.809 148.475 154.933C148.598 155.056 148.693 155.2 148.758 155.362C148.829 155.519 148.865 155.691 148.865 155.88C148.865 156.062 148.829 156.235 148.758 156.397C148.693 156.56 148.598 156.703 148.475 156.827C148.357 156.951 148.217 157.049 148.055 157.12C147.892 157.185 147.716 157.218 147.527 157.218C147.339 157.218 147.163 157.185 147 157.12C146.837 157.049 146.694 156.951 146.57 156.827C146.453 156.703 146.359 156.56 146.287 156.397C146.222 156.235 146.189 156.062 146.189 155.88C146.189 155.691 146.222 155.519 146.287 155.362C146.359 155.2 146.453 155.056 146.57 154.933C146.694 154.809 146.837 154.715 147 154.649C147.163 154.578 147.339 154.542 147.527 154.542ZM163.123 163.478C163.123 164.239 163.016 164.939 162.801 165.577C162.586 166.209 162.277 166.752 161.873 167.208C161.469 167.657 160.978 168.009 160.398 168.263C159.819 168.51 159.161 168.634 158.426 168.634C157.723 168.634 157.091 168.526 156.531 168.312C155.978 168.09 155.506 167.768 155.115 167.345C154.731 166.922 154.435 166.397 154.227 165.772C154.025 165.147 153.924 164.428 153.924 163.614C153.924 162.853 154.031 162.159 154.246 161.534C154.461 160.903 154.77 160.362 155.174 159.913C155.577 159.457 156.069 159.106 156.648 158.858C157.228 158.604 157.885 158.478 158.621 158.478C159.324 158.478 159.952 158.588 160.506 158.81C161.066 159.024 161.538 159.343 161.922 159.767C162.312 160.183 162.609 160.704 162.811 161.329C163.019 161.954 163.123 162.67 163.123 163.478ZM161.385 163.556C161.385 162.95 161.316 162.423 161.18 161.974C161.049 161.518 160.861 161.14 160.613 160.841C160.366 160.535 160.063 160.307 159.705 160.157C159.354 160.001 158.96 159.923 158.523 159.923C158.016 159.923 157.579 160.024 157.215 160.226C156.857 160.421 156.561 160.685 156.326 161.017C156.098 161.349 155.929 161.736 155.818 162.179C155.714 162.615 155.662 163.074 155.662 163.556C155.662 164.161 155.727 164.692 155.857 165.147C155.994 165.603 156.186 165.984 156.434 166.29C156.681 166.59 156.98 166.817 157.332 166.974C157.684 167.123 158.081 167.198 158.523 167.198C159.031 167.198 159.464 167.101 159.822 166.905C160.187 166.703 160.483 166.437 160.711 166.104C160.945 165.772 161.115 165.388 161.219 164.952C161.329 164.509 161.385 164.044 161.385 163.556ZM165.584 158.653H167.098L167.166 160.235C167.452 159.897 167.729 159.617 167.996 159.396C168.263 159.168 168.523 158.985 168.777 158.849C169.038 158.712 169.301 158.618 169.568 158.565C169.835 158.507 170.112 158.478 170.398 158.478C171.408 158.478 172.169 158.777 172.684 159.376C173.204 159.968 173.465 160.864 173.465 162.062V168.458H171.766V162.198C171.766 161.43 171.622 160.864 171.336 160.499C171.049 160.128 170.623 159.942 170.057 159.942C169.848 159.942 169.643 159.975 169.441 160.04C169.246 160.099 169.041 160.206 168.826 160.362C168.611 160.512 168.377 160.717 168.123 160.978C167.876 161.238 167.596 161.563 167.283 161.954V168.458H165.584V158.653Z" fill="#262626"/>
<path d="M108.564 80.125C109.228 80.1251 109.868 80.3686 110.364 80.8094C110.86 81.2502 111.176 81.8577 111.254 82.5165L111.273 82.8333V85.5417H115.335C120.665 85.543 125.78 87.6388 129.578 91.377C133.377 95.1152 135.554 100.196 135.64 105.525C135.726 110.854 133.715 116.003 130.04 119.862C126.365 123.721 121.32 125.982 115.993 126.156L115.335 126.167H101.794C96.4643 126.165 91.349 124.07 87.5507 120.331C83.7524 116.593 81.5753 111.512 81.489 106.183C81.4027 100.855 83.4139 95.7056 87.0891 91.8462C90.7643 87.9869 95.8091 85.7265 101.136 85.5525L101.794 85.5417H105.856V82.8333C105.856 82.115 106.142 81.4262 106.649 80.9183C107.157 80.4103 107.846 80.125 108.564 80.125ZM118.044 99.0833C117.325 99.0833 116.636 99.3687 116.129 99.8766C115.621 100.384 115.335 101.073 115.335 101.792V103.146H113.981C113.263 103.146 112.574 103.431 112.066 103.939C111.558 104.447 111.273 105.136 111.273 105.854C111.273 106.572 111.558 107.261 112.066 107.769C112.574 108.277 113.263 108.563 113.981 108.563H115.335V109.917C115.335 110.635 115.621 111.324 116.129 111.832C116.636 112.34 117.325 112.625 118.044 112.625C118.762 112.625 119.451 112.34 119.959 111.832C120.467 111.324 120.752 110.635 120.752 109.917V108.563H122.106C122.824 108.563 123.513 108.277 124.021 107.769C124.529 107.261 124.814 106.572 124.814 105.854C124.814 105.136 124.529 104.447 124.021 103.939C123.513 103.431 122.824 103.146 122.106 103.146H120.752V101.792C120.752 101.073 120.467 100.384 119.959 99.8766C119.451 99.3687 118.762 99.0833 118.044 99.0833ZM99.0853 99.0833C97.2896 99.0833 95.5674 99.7967 94.2976 101.066C93.0278 102.336 92.3145 104.058 92.3145 105.854C92.3145 107.65 93.0278 109.372 94.2976 110.642C95.5674 111.912 97.2896 112.625 99.0853 112.625C100.881 112.625 102.603 111.912 103.873 110.642C105.143 109.372 105.856 107.65 105.856 105.854C105.856 104.058 105.143 102.336 103.873 101.066C102.603 99.7967 100.881 99.0833 99.0853 99.0833ZM99.0853 104.5C99.4445 104.5 99.7889 104.643 100.043 104.897C100.297 105.151 100.439 105.495 100.439 105.854C100.439 106.213 100.297 106.558 100.043 106.812C99.7889 107.066 99.4445 107.208 99.0853 107.208C98.7262 107.208 98.3817 107.066 98.1278 106.812C97.8738 106.558 97.7312 106.213 97.7312 105.854C97.7312 105.495 97.8738 105.151 98.1278 104.897C98.3817 104.643 98.7262 104.5 99.0853 104.5Z" fill="#EF496F"/>
</g>
<defs>
<filter id="filter0_d_411_719" x="-3.57628e-05" y="0" width="217.129" height="215.129" filterUnits="userSpaceOnUse" color-interpolation-filters="sRGB">
<feFlood flood-opacity="0" result="BackgroundImageFix"/>
<feColorMatrix in="SourceAlpha" type="matrix" values="0 0 0 0 0 0 0 0 0 0 0 0 0 0 0 0 0 0 127 0" result="hardAlpha"/>
<feOffset dy="3.06449"/>
<feGaussianBlur stdDeviation="1.53224"/>
<feComposite in2="hardAlpha" operator="out"/>
<feColorMatrix type="matrix" values="0 0 0 0 0 0 0 0 0 0 0 0 0 0 0 0 0 0 0.25 0"/>
<feBlend mode="normal" in2="BackgroundImageFix" result="effect1_dropShadow_411_719"/>
<feBlend mode="normal" in="SourceGraphic" in2="effect1_dropShadow_411_719" result="shape"/>
</filter>
</defs>
</svg>
