<svg width="218" height="216" viewBox="0 0 218 216" fill="none" xmlns="http://www.w3.org/2000/svg">
<g filter="url(#filter0_d_411_725)">
<rect x="3.06445" width="211" height="209" rx="19.1531" fill="white"/>
<path d="M90.9863 167.182C90.9863 167.794 90.8659 168.337 90.625 168.812C90.3906 169.281 90.0521 169.678 89.6094 170.004C89.1732 170.329 88.6426 170.577 88.0176 170.746C87.3991 170.915 86.709 171 85.9473 171H82.6074V158.236H86.2598C89.1048 158.236 90.5273 159.271 90.5273 161.342C90.5273 162.032 90.3613 162.624 90.0293 163.119C89.7038 163.614 89.1699 163.982 88.4277 164.223C88.7728 164.288 89.0983 164.398 89.4043 164.555C89.7168 164.711 89.9902 164.913 90.2246 165.16C90.459 165.408 90.6445 165.701 90.7812 166.039C90.918 166.378 90.9863 166.758 90.9863 167.182ZM88.7207 161.576C88.7207 161.316 88.6816 161.072 88.6035 160.844C88.5254 160.609 88.3887 160.411 88.1934 160.248C87.998 160.079 87.7344 159.945 87.4023 159.848C87.0703 159.75 86.6504 159.701 86.1426 159.701H84.3457V163.695H86.084C86.4811 163.695 86.8392 163.653 87.1582 163.568C87.4837 163.484 87.7604 163.354 87.9883 163.178C88.2227 163.002 88.4017 162.784 88.5254 162.523C88.6556 162.257 88.7207 161.941 88.7207 161.576ZM89.1406 167.24C89.1406 166.915 89.0723 166.622 88.9355 166.361C88.7988 166.101 88.6003 165.883 88.3398 165.707C88.0794 165.525 87.7604 165.385 87.3828 165.287C87.0117 165.189 86.5918 165.141 86.123 165.141H84.3457V169.535H86.1816C87.1777 169.535 87.9199 169.35 88.4082 168.979C88.8965 168.607 89.1406 168.028 89.1406 167.24ZM102.158 166.02C102.158 166.781 102.051 167.481 101.836 168.119C101.621 168.751 101.312 169.294 100.908 169.75C100.505 170.199 100.013 170.551 99.4336 170.805C98.8542 171.052 98.1966 171.176 97.4609 171.176C96.7578 171.176 96.1263 171.068 95.5664 170.854C95.013 170.632 94.541 170.31 94.1504 169.887C93.7663 169.464 93.4701 168.939 93.2617 168.314C93.0599 167.689 92.959 166.97 92.959 166.156C92.959 165.395 93.0664 164.701 93.2812 164.076C93.4961 163.445 93.8053 162.904 94.209 162.455C94.6126 161.999 95.1042 161.648 95.6836 161.4C96.263 161.146 96.9206 161.02 97.6562 161.02C98.3594 161.02 98.9876 161.13 99.541 161.352C100.101 161.566 100.573 161.885 100.957 162.309C101.348 162.725 101.644 163.246 101.846 163.871C102.054 164.496 102.158 165.212 102.158 166.02ZM100.42 166.098C100.42 165.492 100.352 164.965 100.215 164.516C100.085 164.06 99.8958 163.682 99.6484 163.383C99.401 163.077 99.0983 162.849 98.7402 162.699C98.3887 162.543 97.9948 162.465 97.5586 162.465C97.0508 162.465 96.6146 162.566 96.25 162.768C95.8919 162.963 95.5957 163.227 95.3613 163.559C95.1335 163.891 94.9642 164.278 94.8535 164.721C94.7493 165.157 94.6973 165.616 94.6973 166.098C94.6973 166.703 94.7624 167.234 94.8926 167.689C95.0293 168.145 95.2214 168.526 95.4688 168.832C95.7161 169.132 96.0156 169.359 96.3672 169.516C96.7188 169.665 97.1159 169.74 97.5586 169.74C98.0664 169.74 98.4993 169.643 98.8574 169.447C99.222 169.245 99.5182 168.979 99.7461 168.646C99.9805 168.314 100.15 167.93 100.254 167.494C100.365 167.051 100.42 166.586 100.42 166.098ZM113.154 166.02C113.154 166.781 113.047 167.481 112.832 168.119C112.617 168.751 112.308 169.294 111.904 169.75C111.501 170.199 111.009 170.551 110.43 170.805C109.85 171.052 109.193 171.176 108.457 171.176C107.754 171.176 107.122 171.068 106.562 170.854C106.009 170.632 105.537 170.31 105.146 169.887C104.762 169.464 104.466 168.939 104.258 168.314C104.056 167.689 103.955 166.97 103.955 166.156C103.955 165.395 104.062 164.701 104.277 164.076C104.492 163.445 104.801 162.904 105.205 162.455C105.609 161.999 106.1 161.648 106.68 161.4C107.259 161.146 107.917 161.02 108.652 161.02C109.355 161.02 109.984 161.13 110.537 161.352C111.097 161.566 111.569 161.885 111.953 162.309C112.344 162.725 112.64 163.246 112.842 163.871C113.05 164.496 113.154 165.212 113.154 166.02ZM111.416 166.098C111.416 165.492 111.348 164.965 111.211 164.516C111.081 164.06 110.892 163.682 110.645 163.383C110.397 163.077 110.094 162.849 109.736 162.699C109.385 162.543 108.991 162.465 108.555 162.465C108.047 162.465 107.611 162.566 107.246 162.768C106.888 162.963 106.592 163.227 106.357 163.559C106.13 163.891 105.96 164.278 105.85 164.721C105.745 165.157 105.693 165.616 105.693 166.098C105.693 166.703 105.758 167.234 105.889 167.689C106.025 168.145 106.217 168.526 106.465 168.832C106.712 169.132 107.012 169.359 107.363 169.516C107.715 169.665 108.112 169.74 108.555 169.74C109.062 169.74 109.495 169.643 109.854 169.447C110.218 169.245 110.514 168.979 110.742 168.646C110.977 168.314 111.146 167.93 111.25 167.494C111.361 167.051 111.416 166.586 111.416 166.098ZM124.434 171H122.1L117.529 165.746V171H115.83V157.201H117.529V165.678L121.934 161.195H124.18L119.58 165.717L124.434 171ZM134.375 168.324C134.375 168.669 134.316 168.979 134.199 169.252C134.082 169.525 133.923 169.77 133.721 169.984C133.519 170.193 133.285 170.372 133.018 170.521C132.751 170.671 132.464 170.795 132.158 170.893C131.859 170.99 131.549 171.062 131.23 171.107C130.911 171.153 130.599 171.176 130.293 171.176C129.629 171.176 129.017 171.146 128.457 171.088C127.904 171.029 127.36 170.935 126.826 170.805V169.242C127.399 169.405 127.969 169.529 128.535 169.613C129.102 169.698 129.665 169.74 130.225 169.74C131.038 169.74 131.641 169.63 132.031 169.408C132.422 169.187 132.617 168.871 132.617 168.461C132.617 168.285 132.585 168.129 132.52 167.992C132.461 167.849 132.35 167.715 132.188 167.592C132.025 167.462 131.771 167.328 131.426 167.191C131.087 167.055 130.622 166.898 130.029 166.723C129.587 166.592 129.176 166.446 128.799 166.283C128.428 166.114 128.105 165.915 127.832 165.688C127.559 165.46 127.344 165.193 127.188 164.887C127.031 164.581 126.953 164.219 126.953 163.803C126.953 163.529 127.015 163.23 127.139 162.904C127.269 162.579 127.487 162.276 127.793 161.996C128.099 161.716 128.512 161.485 129.033 161.303C129.554 161.114 130.205 161.02 130.986 161.02C131.37 161.02 131.797 161.042 132.266 161.088C132.734 161.127 133.223 161.199 133.73 161.303V162.816C133.197 162.686 132.689 162.592 132.207 162.533C131.732 162.468 131.318 162.436 130.967 162.436C130.544 162.436 130.186 162.468 129.893 162.533C129.606 162.598 129.372 162.689 129.189 162.807C129.014 162.917 128.887 163.051 128.809 163.207C128.73 163.357 128.691 163.52 128.691 163.695C128.691 163.871 128.724 164.031 128.789 164.174C128.861 164.317 128.988 164.457 129.17 164.594C129.359 164.724 129.619 164.857 129.951 164.994C130.283 165.124 130.716 165.268 131.25 165.424C131.829 165.593 132.318 165.772 132.715 165.961C133.112 166.143 133.434 166.348 133.682 166.576C133.929 166.804 134.105 167.061 134.209 167.348C134.32 167.634 134.375 167.96 134.375 168.324Z" fill="#262626"/>
<path d="M98.8512 79H123.465C125.243 79 127.027 79.2907 128.273 80.5813C129.499 81.856 129.731 83.6213 129.731 85.2667V116.733C129.731 118.181 129.539 119.605 128.798 120.757C128.37 121.422 127.771 121.959 127.065 122.312V124.733C127.065 126.509 126.777 128.293 125.489 129.539C124.214 130.771 122.449 131 120.803 131H92.3979C91.337 131 90.3196 130.579 89.5694 129.828C88.8193 129.078 88.3979 128.061 88.3979 127V89.0453C88.3899 87.7173 88.3819 86.0587 88.7445 84.5467C89.1899 82.7013 90.2165 80.912 92.4005 79.8C93.3019 79.3413 94.2512 79.16 95.2645 79.08C96.2379 79 97.4245 79 98.8512 79ZM92.3979 127H120.803C122.262 127 122.625 126.744 122.707 126.664C122.774 126.6 123.065 126.251 123.065 124.733V123H96.3979C95.337 123 94.3196 123.421 93.5694 124.172C92.8193 124.922 92.3979 125.939 92.3979 127Z" fill="#EF496F"/>
</g>
<defs>
<filter id="filter0_d_411_725" x="-3.57628e-05" y="0" width="217.129" height="215.129" filterUnits="userSpaceOnUse" color-interpolation-filters="sRGB">
<feFlood flood-opacity="0" result="BackgroundImageFix"/>
<feColorMatrix in="SourceAlpha" type="matrix" values="0 0 0 0 0 0 0 0 0 0 0 0 0 0 0 0 0 0 127 0" result="hardAlpha"/>
<feOffset dy="3.06449"/>
<feGaussianBlur stdDeviation="1.53224"/>
<feComposite in2="hardAlpha" operator="out"/>
<feColorMatrix type="matrix" values="0 0 0 0 0 0 0 0 0 0 0 0 0 0 0 0 0 0 0.25 0"/>
<feBlend mode="normal" in2="BackgroundImageFix" result="effect1_dropShadow_411_725"/>
<feBlend mode="normal" in="SourceGraphic" in2="effect1_dropShadow_411_725" result="shape"/>
</filter>
</defs>
</svg>
