<svg width="414" height="132" viewBox="0 0 414 132" fill="none" xmlns="http://www.w3.org/2000/svg">
<path d="M72.1938 101.927C72.1938 118.472 58.781 131.885 42.2356 131.885C25.6901 131.885 12.2773 118.472 12.2773 101.927C12.2773 85.3814 27.2564 68.9729 42.2356 74.9645C57.2147 68.9729 72.1938 85.3814 72.1938 101.927Z" fill="#EBB35F"/>
<mask id="mask0_485_703" style="mask-type:alpha" maskUnits="userSpaceOnUse" x="110" y="92" width="79" height="40">
<path d="M111 92.7507C111 123.912 136.967 131.702 149.951 131.702C162.935 131.702 188.903 123.912 188.903 92.7507H111Z" fill="#6DAA51"/>
<path d="M117.484 92.7495C117.484 118.717 139.123 125.209 149.943 125.209C160.763 125.209 182.403 118.717 182.403 92.7495L117.484 92.7495Z" fill="#F65252"/>
<path d="M135.136 102.996C134.559 103.995 133.282 104.337 132.283 103.761C131.284 103.184 130.942 101.907 131.518 100.908C132.095 99.9085 134.417 97.7574 135.416 98.3341C136.415 98.9109 135.713 101.997 135.136 102.996Z" fill="#242424"/>
<path d="M141.629 104.955C141.052 105.954 139.774 106.296 138.775 105.719C137.776 105.143 137.434 103.865 138.011 102.866C138.588 101.867 140.909 99.7161 141.908 100.293C142.907 100.87 142.205 103.956 141.629 104.955Z" fill="#242424"/>
<path d="M158.535 104.957C159.112 105.956 160.389 106.298 161.388 105.722C162.387 105.145 162.73 103.867 162.153 102.868C161.576 101.869 159.254 99.7183 158.255 100.295C157.256 100.872 157.958 103.958 158.535 104.957Z" fill="#242424"/>
<path d="M165.019 102.998C165.596 103.997 166.873 104.339 167.872 103.763C168.871 103.186 169.214 101.908 168.637 100.909C168.06 99.9105 165.738 97.7593 164.739 98.3361C163.74 98.9129 164.442 101.999 165.019 102.998Z" fill="#242424"/>
<path d="M172.674 118.719C185.658 99.2429 182.412 92.751 182.412 92.751C182.412 92.751 177.34 104.261 169.428 112.227C161.095 120.617 150.066 125.21 146.706 125.21H159.69L172.674 118.719Z" fill="#DF2222"/>
<path d="M143.46 118.725C133.722 115.479 127.23 112.233 123.984 99.2495" stroke="white" stroke-width="3.24595" stroke-linecap="round"/>
<circle cx="148.328" cy="119.681" r="1.62298" fill="white"/>
</mask>
<g mask="url(#mask0_485_703)">
<path d="M111.001 52.8682H190.767V161.122H111.001L111.001 52.8682Z" fill="#8CB678"/>
<path d="M116.91 71.7874C116.91 72.9721 117.88 73.9325 119.076 73.9325C120.272 73.9325 121.242 72.9721 121.242 71.7874C121.242 70.6026 120.272 67.4971 119.076 67.4971C117.88 67.4971 116.91 70.6026 116.91 71.7874Z" fill="#61A073"/>
<path d="M140.544 118.6C140.544 119.785 141.514 120.745 142.71 120.745C143.907 120.745 144.876 119.785 144.876 118.6C144.876 117.415 143.907 114.31 142.71 114.31C141.514 114.31 140.544 117.415 140.544 118.6Z" fill="#61A073"/>
<path d="M178.95 63.01C178.95 64.1947 177.98 65.1551 176.784 65.1551C175.588 65.1551 174.618 64.1947 174.618 63.01C174.618 61.8253 175.588 58.7197 176.784 58.7197C177.98 58.7197 178.95 61.8253 178.95 63.01Z" fill="#61A073"/>
<path d="M147.831 95.1936C147.831 96.3784 146.861 97.3388 145.665 97.3388C144.468 97.3388 143.499 96.3784 143.499 95.1936C143.499 94.0089 144.468 90.9034 145.665 90.9034C146.861 90.9034 147.831 94.0089 147.831 95.1936Z" fill="#61A073"/>
<path d="M137.59 78.225C137.59 80.3795 139.574 82.126 142.022 82.126C144.469 82.126 146.453 80.3795 146.453 78.225C146.453 76.0705 144.469 70.4229 142.022 70.4229C139.574 70.4229 137.59 76.0705 137.59 78.225Z" fill="#61A073"/>
<path d="M161.224 125.038C161.224 127.192 163.208 128.939 165.656 128.939C168.103 128.939 170.087 127.192 170.087 125.038C170.087 122.883 168.103 117.235 165.656 117.235C163.208 117.235 161.224 122.883 161.224 125.038Z" fill="#61A073"/>
<path d="M116.91 133.815C116.91 135.969 118.894 137.716 121.341 137.716C123.789 137.716 125.773 135.969 125.773 133.815C125.773 131.66 123.789 126.013 121.341 126.013C118.894 126.013 116.91 131.66 116.91 133.815Z" fill="#61A073"/>
<path d="M155.316 107.483C155.316 109.637 157.3 111.384 159.747 111.384C162.195 111.384 164.179 109.637 164.179 107.483C164.179 105.328 162.195 99.6807 159.747 99.6807C157.3 99.6807 155.316 105.328 155.316 107.483Z" fill="#61A073"/>
<path d="M158.27 69.4476C158.27 71.6021 156.286 73.3487 153.839 73.3487C151.391 73.3487 149.407 71.6021 149.407 69.4476C149.407 67.2931 151.391 61.6455 153.839 61.6455C156.286 61.6455 158.27 67.2931 158.27 69.4476Z" fill="#61A073"/>
<path d="M125.773 95.7797C125.773 97.9342 127.757 99.6807 130.204 99.6807C132.652 99.6807 134.636 97.9342 134.636 95.7797C134.636 93.6252 132.652 87.9776 130.204 87.9776C127.757 87.9776 125.773 93.6252 125.773 95.7797Z" fill="#61A073"/>
<path d="M149.407 142.592C149.407 144.747 151.391 146.493 153.839 146.493C156.286 146.493 158.27 144.747 158.27 142.592C158.27 140.438 156.286 134.79 153.839 134.79C151.391 134.79 149.407 140.438 149.407 142.592Z" fill="#61A073"/>
<path d="M170.087 87.0023C170.087 89.1568 168.103 90.9034 165.656 90.9034C163.208 90.9034 161.224 89.1568 161.224 87.0023C161.224 84.8478 163.208 79.2002 165.656 79.2002C168.103 79.2002 170.087 84.8478 170.087 87.0023Z" fill="#61A073"/>
<path d="M116.91 106.897C116.91 108.081 117.88 109.042 119.076 109.042C120.272 109.042 121.242 108.081 121.242 106.897C121.242 105.712 120.272 102.606 119.076 102.606C117.88 102.606 116.91 105.712 116.91 106.897Z" fill="#61A073"/>
<path d="M140.544 153.709C140.544 154.894 141.514 155.854 142.71 155.854C143.907 155.854 144.876 154.894 144.876 153.709C144.876 152.525 143.907 149.419 142.71 149.419C141.514 149.419 140.544 152.525 140.544 153.709Z" fill="#61A073"/>
<path d="M178.95 98.1194C178.95 99.3041 177.98 100.265 176.784 100.265C175.588 100.265 174.618 99.3041 174.618 98.1194C174.618 96.9347 175.588 93.8291 176.784 93.8291C177.98 93.8291 178.95 96.9347 178.95 98.1194Z" fill="#61A073"/>
<path d="M180.328 121.526C180.328 122.71 179.358 123.671 178.162 123.671C176.966 123.671 175.996 122.71 175.996 121.526C175.996 120.341 176.966 117.235 178.162 117.235C179.358 117.235 180.328 120.341 180.328 121.526Z" fill="#61A073"/>
</g>
<mask id="mask1_485_703" style="mask-type:alpha" maskUnits="userSpaceOnUse" x="212" y="88" width="92" height="44">
<path d="M298.618 105.767C266.216 131.218 237.055 115.311 227.334 102.585C227.334 102.585 230.575 134.399 262.976 131.218C295.378 128.037 302.196 102.956 298.618 105.767Z" fill="#FFC940"/>
<path d="M212.904 95.3787C220.118 98.9857 222.523 102.593 223.725 106.2L227.332 98.9857C226.13 97.7834 220.118 95.3787 220.118 88.1646C216.511 88.1646 212.904 91.7716 212.904 95.3787Z" fill="#B6664C"/>
<path d="M223.725 102.593C223.725 122.792 245.999 131.449 263.403 131.449C281.438 131.449 299.474 124.235 303.081 102.593C299.474 95.3787 285.344 109.807 263.403 109.807C241.761 109.807 230.939 91.7716 223.725 102.593Z" fill="#FFC940"/>
<path d="M234.541 109.809C235.981 111.089 240.924 113.179 245.362 114.618C249.455 115.945 253.478 117.023 256.184 117.023" stroke="white" stroke-width="3.60706" stroke-linecap="round"/>
</mask>
<g mask="url(#mask1_485_703)">
<path d="M209.736 65.0366L307.874 65.0366V147.345H209.736V65.0366Z" fill="#F4DF92"/>
<path d="M215.629 62.8416L228.05 71.122L218.306 80.8652L227.804 90.3623L218.306 99.8595L227.804 109.357L218.306 118.854L227.804 128.351L218.306 137.848L227.804 147.345L225.565 149.584L213.829 137.848L223.327 128.351L213.829 118.854L223.327 109.357L213.829 99.8595L223.327 90.3623L213.829 80.8652L223.081 71.614L213.873 65.4756L215.629 62.8416Z" fill="#F4DF92"/>
<path d="M234.623 62.8416L247.044 71.122L237.301 80.8652L246.798 90.3623L237.301 99.8595L246.798 109.357L237.301 118.854L246.798 128.351L237.301 137.848L246.798 147.345L244.559 149.584L232.824 137.848L242.321 128.351L232.824 118.854L242.321 109.357L232.824 99.8595L242.321 90.3623L232.824 80.8652L242.075 71.614L232.867 65.4756L234.623 62.8416Z" fill="#F4DF92"/>
<path d="M253.617 62.8416L251.861 65.4756L261.069 71.614L251.818 80.8652L261.315 90.3623L251.818 99.8595L261.315 109.357L251.818 118.854L261.315 128.351L251.818 137.848L263.554 149.584L265.792 147.345L256.295 137.848L265.792 128.351L256.295 118.854L265.792 109.357L256.295 99.8595L265.792 90.3623L256.295 80.8652L266.038 71.122L253.617 62.8416Z" fill="#F4DF92"/>
<path d="M272.612 62.8416L285.032 71.122L275.289 80.8652L284.786 90.3623L275.289 99.8595L284.786 109.357L275.289 118.854L284.786 128.351L275.289 137.848L284.786 147.345L282.548 149.584L270.812 137.848L280.309 128.351L270.812 118.854L280.309 109.357L270.812 99.8595L280.309 90.3623L270.812 80.8652L280.063 71.614L270.856 65.4756L272.612 62.8416Z" fill="#F4DF92"/>
<path d="M291.606 62.8416L289.85 65.4756L299.058 71.614L289.807 80.8652L299.304 90.3623L289.807 99.8595L299.304 109.357L289.807 118.854L299.304 128.351L289.807 137.848L301.542 149.584L303.781 147.345L294.284 137.848L303.781 128.351L294.284 118.854L303.781 109.357L294.284 99.8595L303.781 90.3623L294.284 80.8652L304.027 71.122L291.606 62.8416Z" fill="#F4DF92"/>
</g>
<circle cx="360.442" cy="84.9984" r="13.3453" transform="rotate(-90 360.442 84.9984)" fill="#807CB0"/>
<path d="M338.817 73.7505C334.758 71.9291 329.581 77.732 327.499 80.8612C329.19 81.62 332.572 83.1378 337.472 81.2735C341.346 79.7996 343.89 76.0271 338.817 73.7505Z" fill="#6DAA51"/>
<circle cx="380.46" cy="85.0002" r="13.3453" transform="rotate(-90 380.46 85.0002)" fill="#807CB0"/>
<circle cx="360.442" cy="105.016" r="13.3453" transform="rotate(-90 360.442 105.016)" fill="#807CB0"/>
<circle cx="373.796" cy="98.3373" r="13.3453" transform="rotate(-90 373.796 98.3373)" fill="#807CB0"/>
<circle cx="380.46" cy="118.354" r="13.3453" transform="rotate(-90 380.46 118.354)" fill="#807CB0"/>
<circle cx="393.817" cy="98.3415" r="13.3453" transform="rotate(-90 393.817 98.3415)" fill="#807CB0"/>
<circle cx="400.478" cy="118.359" r="13.3453" transform="rotate(-90 400.478 118.359)" fill="#807CB0"/>
<path d="M143.895 34.585C143.895 36.4658 143.543 38.1006 142.84 39.4893C142.154 40.8779 141.188 42.0293 139.939 42.9434C138.691 43.8398 137.206 44.5078 135.483 44.9473C133.761 45.3867 131.88 45.6064 129.841 45.6064C128.03 45.6064 126.281 45.501 124.594 45.29C122.906 45.0791 121.236 44.7275 119.584 44.2354V37.8281C120.393 38.1094 121.236 38.373 122.115 38.6191C122.994 38.8652 123.873 39.085 124.752 39.2783C125.648 39.4541 126.536 39.5947 127.415 39.7002C128.294 39.8057 129.146 39.8584 129.973 39.8584C131.203 39.8584 132.249 39.7529 133.11 39.542C133.972 39.3311 134.675 39.041 135.22 38.6719C135.765 38.3027 136.16 37.8633 136.406 37.3535C136.652 36.8438 136.775 36.2812 136.775 35.666C136.775 34.8223 136.529 34.1191 136.037 33.5566C135.562 32.9766 134.93 32.4668 134.139 32.0273C133.348 31.5879 132.442 31.1924 131.423 30.8408C130.421 30.4893 129.393 30.1113 128.338 29.707C127.301 29.3027 126.272 28.8457 125.253 28.3359C124.251 27.8262 123.354 27.1934 122.563 26.4375C121.772 25.6816 121.131 24.7852 120.639 23.748C120.164 22.6934 119.927 21.4277 119.927 19.9512C119.927 18.5977 120.173 17.3145 120.665 16.1016C121.157 14.8887 121.931 13.834 122.985 12.9375C124.04 12.0234 125.394 11.3027 127.046 10.7754C128.698 10.2305 130.693 9.95801 133.031 9.95801C133.717 9.95801 134.429 9.99316 135.167 10.0635C135.923 10.1162 136.661 10.1953 137.382 10.3008C138.12 10.3887 138.823 10.5029 139.491 10.6436C140.177 10.7666 140.801 10.8984 141.363 11.0391V16.9717C140.801 16.7607 140.186 16.5674 139.518 16.3916C138.85 16.2158 138.155 16.0664 137.435 15.9434C136.731 15.8027 136.02 15.6973 135.299 15.627C134.578 15.5566 133.893 15.5215 133.242 15.5215C132.1 15.5215 131.133 15.6182 130.342 15.8115C129.551 15.9873 128.9 16.2422 128.391 16.5762C127.881 16.8926 127.512 17.2881 127.283 17.7627C127.055 18.2373 126.94 18.7646 126.94 19.3447C126.94 20.0654 127.178 20.6895 127.652 21.2168C128.145 21.7266 128.786 22.1924 129.577 22.6143C130.386 23.0186 131.291 23.4053 132.293 23.7744C133.312 24.126 134.35 24.5127 135.404 24.9346C136.477 25.3389 137.514 25.8047 138.516 26.332C139.535 26.8594 140.44 27.501 141.231 28.2568C142.04 29.0127 142.682 29.9092 143.156 30.9463C143.648 31.9658 143.895 33.1787 143.895 34.585ZM167.388 45V29.9971H155.681V45H149.194V10.5381H155.681V24.3809H167.388V10.5381H173.874V45H167.388ZM199.16 45L198.527 25.5146L198.29 17.7363L196.629 23.0098L192.806 34.7432H188.745L185.291 23.0098L183.841 17.7363L183.656 25.3564L183.076 45H177.565L179.253 10.5381H186.583L189.615 20.3203L191.065 25.8311L192.516 20.6367L195.706 10.5381H203.168L204.882 45H199.16ZM233.464 32.3174C233.464 34.5146 233.165 36.4482 232.567 38.1182C231.987 39.7705 231.144 41.1504 230.036 42.2578C228.946 43.3652 227.61 44.2002 226.028 44.7627C224.446 45.3252 222.671 45.6064 220.702 45.6064C218.487 45.6064 216.589 45.3252 215.007 44.7627C213.425 44.2002 212.142 43.3916 211.157 42.3369C210.173 41.2822 209.461 39.999 209.021 38.4873C208.582 36.9756 208.362 35.2793 208.362 33.3984V10.5381H214.849V33.0029C214.849 34.1631 214.945 35.1914 215.139 36.0879C215.35 36.9844 215.701 37.749 216.193 38.3818C216.703 38.9971 217.336 39.4629 218.092 39.7793C218.848 40.0957 219.797 40.2539 220.939 40.2539C222.012 40.2539 222.917 40.1221 223.655 39.8584C224.394 39.5771 225.009 39.1377 225.501 38.54C225.993 37.9248 226.362 37.1426 226.608 36.1934C226.854 35.2441 226.978 34.0928 226.978 32.7393V10.5381H233.464V32.3174ZM256.983 45L250.339 32.3174L243.8 45H235.969L245.909 27.334L236.628 10.5381H244.248L250.497 22.5352L256.535 10.5381H264.155L254.927 27.334L265.236 45H256.983ZM293.739 27.334C293.739 30.0059 293.405 32.4316 292.737 34.6113C292.087 36.791 291.059 38.6543 289.652 40.2012C288.264 41.7305 286.479 42.917 284.3 43.7607C282.12 44.5869 279.51 45 276.469 45H267.715V10.5381H277.919C280.556 10.5381 282.858 10.8721 284.827 11.54C286.813 12.1904 288.466 13.2012 289.784 14.5723C291.103 15.9434 292.087 17.6836 292.737 19.793C293.405 21.9023 293.739 24.416 293.739 27.334ZM286.778 27.7559C286.778 25.8926 286.629 24.2314 286.33 22.7725C286.031 21.3135 285.521 20.083 284.801 19.0811C284.098 18.0615 283.148 17.2881 281.953 16.7607C280.758 16.2334 279.272 15.9697 277.497 15.9697H274.201V39.5684H277.049C280.23 39.5684 282.647 38.6191 284.3 36.7207C285.952 34.8223 286.778 31.834 286.778 27.7559Z" fill="#EF496F"/>
<path d="M321.355 43.8359C320.895 43.9531 320.418 44.0352 319.926 44.082C319.434 44.1367 318.934 44.1641 318.426 44.1641C316.949 44.1641 315.848 43.832 315.121 43.168C314.395 42.4961 314.031 41.4688 314.031 40.0859V33.9453H310.738V32.2344H314.031V29L316.07 28.4727V32.2344H321.355V33.9453H316.07V39.9219C316.07 40.7656 316.293 41.3984 316.738 41.8203C317.191 42.2344 317.855 42.4414 318.73 42.4414C319.105 42.4414 319.516 42.4141 319.961 42.3594C320.406 42.2969 320.871 42.2031 321.355 42.0781V43.8359ZM335.008 37.4961C335.008 37.7852 335.004 38.0273 334.996 38.2227C334.988 38.418 334.977 38.6016 334.961 38.7734H326.699C326.699 39.9766 327.035 40.9023 327.707 41.5508C328.379 42.1914 329.348 42.5117 330.613 42.5117C330.957 42.5117 331.301 42.5 331.645 42.4766C331.988 42.4453 332.32 42.4062 332.641 42.3594C332.961 42.3125 333.266 42.2617 333.555 42.207C333.852 42.1445 334.125 42.0781 334.375 42.0078V43.6836C333.82 43.8398 333.191 43.9648 332.488 44.0586C331.793 44.1602 331.07 44.2109 330.32 44.2109C329.312 44.2109 328.445 44.0742 327.719 43.8008C326.992 43.5273 326.395 43.1328 325.926 42.6172C325.465 42.0938 325.121 41.457 324.895 40.707C324.676 39.9492 324.566 39.0938 324.566 38.1406C324.566 37.3125 324.684 36.5312 324.918 35.7969C325.16 35.0547 325.508 34.4062 325.961 33.8516C326.422 33.2891 326.984 32.8438 327.648 32.5156C328.312 32.1875 329.066 32.0234 329.91 32.0234C330.73 32.0234 331.457 32.1523 332.09 32.4102C332.723 32.668 333.254 33.0352 333.684 33.5117C334.121 33.9805 334.449 34.5547 334.668 35.2344C334.895 35.9062 335.008 36.6602 335.008 37.4961ZM332.887 37.2031C332.91 36.6797 332.859 36.2031 332.734 35.7734C332.609 35.3359 332.414 34.9609 332.148 34.6484C331.891 34.3359 331.566 34.0938 331.176 33.9219C330.785 33.7422 330.332 33.6523 329.816 33.6523C329.371 33.6523 328.965 33.7383 328.598 33.9102C328.23 34.082 327.914 34.3242 327.648 34.6367C327.383 34.9492 327.168 35.3242 327.004 35.7617C326.84 36.1992 326.738 36.6797 326.699 37.2031H332.887ZM345.824 44L345.777 42.418C345.137 43.0508 344.484 43.5078 343.82 43.7891C343.164 44.0703 342.473 44.2109 341.746 44.2109C341.074 44.2109 340.5 44.125 340.023 43.9531C339.547 43.7812 339.152 43.5469 338.84 43.25C338.535 42.9453 338.309 42.5898 338.16 42.1836C338.02 41.7773 337.949 41.3359 337.949 40.8594C337.949 39.6797 338.387 38.7578 339.262 38.0938C340.145 37.4219 341.445 37.0859 343.164 37.0859H345.602V36.0547C345.602 35.3594 345.379 34.8047 344.934 34.3906C344.488 33.9688 343.809 33.7578 342.895 33.7578C342.23 33.7578 341.574 33.832 340.926 33.9805C340.285 34.1289 339.621 34.3398 338.934 34.6133V32.7734C339.191 32.6797 339.477 32.5898 339.789 32.5039C340.109 32.4102 340.445 32.3281 340.797 32.2578C341.148 32.1875 341.516 32.1328 341.898 32.0938C342.281 32.0469 342.668 32.0234 343.059 32.0234C343.77 32.0234 344.41 32.1016 344.98 32.2578C345.551 32.4141 346.031 32.6523 346.422 32.9727C346.82 33.293 347.125 33.6953 347.336 34.1797C347.547 34.6641 347.652 35.2344 347.652 35.8906V44H345.824ZM345.602 38.6445H343.012C342.504 38.6445 342.066 38.6953 341.699 38.7969C341.332 38.8984 341.031 39.043 340.797 39.2305C340.562 39.418 340.387 39.6445 340.27 39.9102C340.16 40.168 340.105 40.4609 340.105 40.7891C340.105 41.0156 340.141 41.2344 340.211 41.4453C340.281 41.6484 340.395 41.832 340.551 41.9961C340.707 42.1523 340.91 42.2773 341.16 42.3711C341.41 42.4648 341.715 42.5117 342.074 42.5117C342.543 42.5117 343.078 42.3711 343.68 42.0898C344.289 41.8008 344.93 41.3477 345.602 40.7305V38.6445ZM359.852 44V35.5508C359.852 35.1836 359.836 34.8828 359.805 34.6484C359.781 34.4141 359.738 34.2305 359.676 34.0977C359.621 33.957 359.547 33.8594 359.453 33.8047C359.367 33.75 359.258 33.7227 359.125 33.7227C358.969 33.7227 358.824 33.7695 358.691 33.8633C358.559 33.957 358.414 34.1094 358.258 34.3203C358.109 34.5312 357.941 34.8125 357.754 35.1641C357.574 35.5078 357.359 35.9336 357.109 36.4414V44H355.246V35.7734C355.246 35.3438 355.23 34.9961 355.199 34.7305C355.176 34.4648 355.133 34.2578 355.07 34.1094C355.016 33.9609 354.941 33.8594 354.848 33.8047C354.754 33.75 354.641 33.7227 354.508 33.7227C354.367 33.7227 354.234 33.7617 354.109 33.8398C353.984 33.918 353.844 34.0586 353.688 34.2617C353.539 34.4648 353.371 34.7422 353.184 35.0938C352.996 35.4453 352.773 35.8945 352.516 36.4414V44H350.641V32.2344H352.199L352.293 34.4727C352.496 34.0273 352.691 33.6484 352.879 33.3359C353.074 33.0234 353.273 32.7734 353.477 32.5859C353.68 32.3906 353.895 32.25 354.121 32.1641C354.355 32.0703 354.613 32.0234 354.895 32.0234C355.527 32.0234 356.008 32.2305 356.336 32.6445C356.664 33.0586 356.828 33.6992 356.828 34.5664C357.016 34.1602 357.199 33.8008 357.379 33.4883C357.559 33.168 357.75 32.9023 357.953 32.6914C358.164 32.4727 358.395 32.3086 358.645 32.1992C358.895 32.082 359.184 32.0234 359.512 32.0234C360.988 32.0234 361.727 33.1602 361.727 35.4336V44H359.852Z" fill="black"/>
</svg>
