<svg width="218" height="216" viewBox="0 0 218 216" fill="none" xmlns="http://www.w3.org/2000/svg">
<g filter="url(#filter0_d_411_715)">
<rect x="3.06445" width="211" height="209" rx="19.1531" fill="white"/>
<path d="M64.5234 161.993C64.5234 163.139 64.3867 164.129 64.1133 164.962C63.8464 165.795 63.4818 166.485 63.0195 167.032C62.5638 167.573 62.0267 167.976 61.4082 168.243C60.7962 168.504 60.1484 168.634 59.4648 168.634C58.6445 168.634 57.9284 168.487 57.3164 168.194C56.7109 167.895 56.2064 167.465 55.8027 166.905C55.4056 166.345 55.1094 165.665 54.9141 164.864C54.7188 164.057 54.6211 163.149 54.6211 162.14C54.6211 161.007 54.7546 160.024 55.0215 159.19C55.2884 158.357 55.6497 157.67 56.1055 157.13C56.5677 156.583 57.1048 156.179 57.7168 155.919C58.3288 155.652 58.9766 155.519 59.6602 155.519C60.4805 155.519 61.1934 155.668 61.7988 155.968C62.4108 156.267 62.9186 156.697 63.3223 157.257C63.7259 157.81 64.0254 158.487 64.2207 159.288C64.4225 160.089 64.5234 160.991 64.5234 161.993ZM62.7168 162.12C62.7168 161.371 62.6582 160.688 62.541 160.069C62.4303 159.444 62.248 158.907 61.9941 158.458C61.7402 158.009 61.4115 157.66 61.0078 157.413C60.6107 157.166 60.1289 157.042 59.5625 157.042C59.0156 157.042 58.5436 157.175 58.1465 157.442C57.7559 157.703 57.4336 158.061 57.1797 158.517C56.9258 158.966 56.737 159.496 56.6133 160.108C56.4896 160.714 56.4277 161.358 56.4277 162.042C56.4277 162.797 56.4863 163.487 56.6035 164.112C56.7207 164.731 56.903 165.265 57.1504 165.714C57.4043 166.157 57.7298 166.502 58.127 166.749C58.5241 166.996 59.0026 167.12 59.5625 167.12C60.1094 167.12 60.5814 166.99 60.9785 166.729C61.3757 166.463 61.7012 166.104 61.9551 165.655C62.2155 165.2 62.4076 164.669 62.5312 164.063C62.6549 163.458 62.7168 162.81 62.7168 162.12ZM66.623 158.653H68.1367L68.2051 160.235C68.4915 159.897 68.7682 159.617 69.0352 159.396C69.3021 159.168 69.5625 158.985 69.8164 158.849C70.0768 158.712 70.3405 158.618 70.6074 158.565C70.8743 158.507 71.151 158.478 71.4375 158.478C72.4466 158.478 73.2083 158.777 73.7227 159.376C74.2435 159.968 74.5039 160.864 74.5039 162.062V168.458H72.8047V162.198C72.8047 161.43 72.6615 160.864 72.375 160.499C72.0885 160.128 71.6621 159.942 71.0957 159.942C70.8874 159.942 70.6823 159.975 70.4805 160.04C70.2852 160.099 70.0801 160.206 69.8652 160.362C69.6504 160.512 69.416 160.717 69.1621 160.978C68.9147 161.238 68.6348 161.563 68.3223 161.954V168.458H66.623V158.653ZM85.998 163.38C85.998 164.194 85.8841 164.923 85.6562 165.567C85.4349 166.205 85.1159 166.749 84.6992 167.198C84.2891 167.641 83.7878 167.983 83.1953 168.224C82.6029 168.458 81.9355 168.575 81.1934 168.575C80.6139 168.575 80.0215 168.52 79.416 168.409C78.8105 168.299 78.2116 168.123 77.6191 167.882V154.659H79.3184V158.458L79.2402 160.274C79.7285 159.617 80.2493 159.155 80.8027 158.888C81.3626 158.614 81.9616 158.478 82.5996 158.478C83.1595 158.478 83.651 158.595 84.0742 158.829C84.4974 159.063 84.8522 159.396 85.1387 159.825C85.4251 160.248 85.64 160.763 85.7832 161.368C85.9264 161.967 85.998 162.638 85.998 163.38ZM84.2598 163.458C84.2598 162.944 84.2207 162.472 84.1426 162.042C84.071 161.612 83.9538 161.244 83.791 160.938C83.6283 160.632 83.4199 160.395 83.166 160.226C82.9121 160.05 82.6094 159.962 82.2578 159.962C82.043 159.962 81.8249 159.998 81.6035 160.069C81.3822 160.134 81.151 160.248 80.9102 160.411C80.6758 160.567 80.4251 160.779 80.1582 161.046C79.8978 161.306 79.6178 161.632 79.3184 162.022V166.778C79.6504 166.909 79.9889 167.013 80.334 167.091C80.679 167.162 81.0078 167.198 81.3203 167.198C81.7109 167.198 82.082 167.136 82.4336 167.013C82.7917 166.889 83.1042 166.684 83.3711 166.397C83.6445 166.104 83.8594 165.72 84.0156 165.245C84.1784 164.763 84.2598 164.168 84.2598 163.458ZM97.1504 163.478C97.1504 164.239 97.043 164.939 96.8281 165.577C96.6133 166.209 96.304 166.752 95.9004 167.208C95.4967 167.657 95.0052 168.009 94.4258 168.263C93.8464 168.51 93.1888 168.634 92.4531 168.634C91.75 168.634 91.1185 168.526 90.5586 168.312C90.0052 168.09 89.5332 167.768 89.1426 167.345C88.7585 166.922 88.4622 166.397 88.2539 165.772C88.0521 165.147 87.9512 164.428 87.9512 163.614C87.9512 162.853 88.0586 162.159 88.2734 161.534C88.4883 160.903 88.7975 160.362 89.2012 159.913C89.6048 159.457 90.0964 159.106 90.6758 158.858C91.2552 158.604 91.9128 158.478 92.6484 158.478C93.3516 158.478 93.9798 158.588 94.5332 158.81C95.0931 159.024 95.5651 159.343 95.9492 159.767C96.3398 160.183 96.6361 160.704 96.8379 161.329C97.0462 161.954 97.1504 162.67 97.1504 163.478ZM95.4121 163.556C95.4121 162.95 95.3438 162.423 95.207 161.974C95.0768 161.518 94.888 161.14 94.6406 160.841C94.3932 160.535 94.0905 160.307 93.7324 160.157C93.3809 160.001 92.987 159.923 92.5508 159.923C92.043 159.923 91.6068 160.024 91.2422 160.226C90.8841 160.421 90.5879 160.685 90.3535 161.017C90.1257 161.349 89.9564 161.736 89.8457 162.179C89.7415 162.615 89.6895 163.074 89.6895 163.556C89.6895 164.161 89.7546 164.692 89.8848 165.147C90.0215 165.603 90.2135 165.984 90.4609 166.29C90.7083 166.59 91.0078 166.817 91.3594 166.974C91.7109 167.123 92.1081 167.198 92.5508 167.198C93.0586 167.198 93.4915 167.101 93.8496 166.905C94.2142 166.703 94.5104 166.437 94.7383 166.104C94.9727 165.772 95.1419 165.388 95.2461 164.952C95.3568 164.509 95.4121 164.044 95.4121 163.556ZM105.91 168.458L105.871 167.14C105.337 167.667 104.794 168.048 104.24 168.282C103.693 168.517 103.117 168.634 102.512 168.634C101.952 168.634 101.473 168.562 101.076 168.419C100.679 168.276 100.35 168.08 100.09 167.833C99.8359 167.579 99.6471 167.283 99.5234 166.944C99.4062 166.606 99.3477 166.238 99.3477 165.841C99.3477 164.858 99.7122 164.09 100.441 163.536C101.177 162.976 102.261 162.696 103.693 162.696H105.725V161.837C105.725 161.257 105.539 160.795 105.168 160.45C104.797 160.099 104.23 159.923 103.469 159.923C102.915 159.923 102.368 159.985 101.828 160.108C101.294 160.232 100.741 160.408 100.168 160.636V159.103C100.383 159.024 100.62 158.95 100.881 158.878C101.148 158.8 101.428 158.731 101.721 158.673C102.014 158.614 102.32 158.569 102.639 158.536C102.958 158.497 103.28 158.478 103.605 158.478C104.198 158.478 104.732 158.543 105.207 158.673C105.682 158.803 106.083 159.002 106.408 159.269C106.74 159.535 106.994 159.871 107.17 160.274C107.346 160.678 107.434 161.153 107.434 161.7V168.458H105.91ZM105.725 163.995H103.566C103.143 163.995 102.779 164.037 102.473 164.122C102.167 164.207 101.916 164.327 101.721 164.483C101.525 164.64 101.379 164.828 101.281 165.05C101.19 165.265 101.145 165.509 101.145 165.782C101.145 165.971 101.174 166.153 101.232 166.329C101.291 166.498 101.385 166.651 101.516 166.788C101.646 166.918 101.815 167.022 102.023 167.101C102.232 167.179 102.486 167.218 102.785 167.218C103.176 167.218 103.622 167.101 104.123 166.866C104.631 166.625 105.165 166.248 105.725 165.733V163.995ZM111.008 158.653H112.561L112.609 160.46C113.189 159.763 113.758 159.259 114.318 158.946C114.885 158.634 115.454 158.478 116.027 158.478C117.043 158.478 117.811 158.806 118.332 159.464C118.859 160.121 119.104 161.098 119.064 162.394H117.346C117.365 161.534 117.238 160.912 116.965 160.528C116.698 160.138 116.304 159.942 115.783 159.942C115.555 159.942 115.324 159.985 115.09 160.069C114.862 160.147 114.624 160.278 114.377 160.46C114.136 160.636 113.879 160.864 113.605 161.144C113.332 161.424 113.039 161.762 112.727 162.159V168.458H111.008V158.653ZM121.105 163.761C121.105 162.927 121.219 162.188 121.447 161.544C121.675 160.893 121.997 160.346 122.414 159.903C122.837 159.454 123.342 159.116 123.928 158.888C124.52 158.653 125.178 158.536 125.9 158.536C126.213 158.536 126.519 158.556 126.818 158.595C127.124 158.634 127.424 158.696 127.717 158.78V154.659H129.426V168.458H127.902L127.844 166.603C127.368 167.293 126.854 167.804 126.301 168.136C125.747 168.468 125.148 168.634 124.504 168.634C123.944 168.634 123.449 168.517 123.02 168.282C122.596 168.048 122.242 167.719 121.955 167.296C121.675 166.866 121.464 166.352 121.32 165.753C121.177 165.154 121.105 164.49 121.105 163.761ZM122.844 163.653C122.844 164.838 123.016 165.724 123.361 166.31C123.713 166.889 124.208 167.179 124.846 167.179C125.275 167.179 125.728 166.987 126.203 166.603C126.685 166.218 127.189 165.649 127.717 164.894V160.343C127.437 160.213 127.128 160.115 126.789 160.05C126.451 159.978 126.115 159.942 125.783 159.942C124.859 159.942 124.136 160.242 123.615 160.841C123.101 161.44 122.844 162.377 122.844 163.653ZM135.939 160.06H133.039V158.653H137.658V167.042H140.578V168.458H132.717V167.042H135.939V160.06ZM136.535 154.542C136.724 154.542 136.9 154.578 137.062 154.649C137.225 154.715 137.365 154.809 137.482 154.933C137.606 155.056 137.701 155.2 137.766 155.362C137.837 155.519 137.873 155.691 137.873 155.88C137.873 156.062 137.837 156.235 137.766 156.397C137.701 156.56 137.606 156.703 137.482 156.827C137.365 156.951 137.225 157.049 137.062 157.12C136.9 157.185 136.724 157.218 136.535 157.218C136.346 157.218 136.171 157.185 136.008 157.12C135.845 157.049 135.702 156.951 135.578 156.827C135.461 156.703 135.367 156.56 135.295 156.397C135.23 156.235 135.197 156.062 135.197 155.88C135.197 155.691 135.23 155.519 135.295 155.362C135.367 155.2 135.461 155.056 135.578 154.933C135.702 154.809 135.845 154.715 136.008 154.649C136.171 154.578 136.346 154.542 136.535 154.542ZM143.596 158.653H145.109L145.178 160.235C145.464 159.897 145.741 159.617 146.008 159.396C146.275 159.168 146.535 158.985 146.789 158.849C147.049 158.712 147.313 158.618 147.58 158.565C147.847 158.507 148.124 158.478 148.41 158.478C149.419 158.478 150.181 158.777 150.695 159.376C151.216 159.968 151.477 160.864 151.477 162.062V168.458H149.777V162.198C149.777 161.43 149.634 160.864 149.348 160.499C149.061 160.128 148.635 159.942 148.068 159.942C147.86 159.942 147.655 159.975 147.453 160.04C147.258 160.099 147.053 160.206 146.838 160.362C146.623 160.512 146.389 160.717 146.135 160.978C145.887 161.238 145.607 161.563 145.295 161.954V168.458H143.596V158.653ZM161.652 160.04C161.835 160.268 161.975 160.535 162.072 160.841C162.176 161.14 162.229 161.466 162.229 161.817C162.229 162.325 162.134 162.791 161.945 163.214C161.763 163.631 161.503 163.989 161.164 164.288C160.826 164.588 160.419 164.822 159.943 164.991C159.475 165.154 158.957 165.235 158.391 165.235C157.98 165.235 157.596 165.193 157.238 165.108C156.88 165.017 156.597 164.907 156.389 164.776C156.265 164.959 156.161 165.131 156.076 165.294C155.992 165.457 155.949 165.639 155.949 165.841C155.949 166.088 156.066 166.293 156.301 166.456C156.542 166.619 156.857 166.707 157.248 166.72L159.826 166.817C160.314 166.83 160.764 166.892 161.174 167.003C161.59 167.114 161.945 167.273 162.238 167.481C162.538 167.69 162.769 167.947 162.932 168.253C163.101 168.559 163.186 168.914 163.186 169.317C163.186 169.754 163.091 170.167 162.902 170.558C162.714 170.948 162.421 171.29 162.023 171.583C161.633 171.882 161.135 172.12 160.529 172.296C159.924 172.472 159.204 172.56 158.371 172.56C157.577 172.56 156.9 172.494 156.34 172.364C155.786 172.241 155.331 172.065 154.973 171.837C154.615 171.616 154.354 171.349 154.191 171.036C154.029 170.73 153.947 170.392 153.947 170.021C153.947 169.545 154.058 169.129 154.279 168.771C154.501 168.412 154.842 168.067 155.305 167.735C155.135 167.657 154.989 167.56 154.865 167.442C154.742 167.325 154.641 167.198 154.562 167.062C154.484 166.918 154.426 166.769 154.387 166.612C154.348 166.456 154.328 166.303 154.328 166.153C154.328 165.73 154.426 165.343 154.621 164.991C154.823 164.64 155.061 164.308 155.334 163.995C155.21 163.845 155.1 163.699 155.002 163.556C154.911 163.412 154.829 163.259 154.758 163.097C154.693 162.927 154.641 162.748 154.602 162.56C154.569 162.364 154.553 162.143 154.553 161.896C154.553 161.388 154.644 160.925 154.826 160.509C155.015 160.086 155.275 159.724 155.607 159.425C155.946 159.125 156.35 158.894 156.818 158.731C157.294 158.562 157.818 158.478 158.391 158.478C158.632 158.478 158.863 158.494 159.084 158.526C159.305 158.559 159.501 158.601 159.67 158.653H163.225V160.04H161.652ZM155.754 169.874C155.754 170.336 155.995 170.672 156.477 170.88C156.958 171.095 157.629 171.202 158.488 171.202C159.029 171.202 159.481 171.153 159.846 171.056C160.217 170.958 160.513 170.828 160.734 170.665C160.962 170.509 161.125 170.326 161.223 170.118C161.32 169.916 161.369 169.708 161.369 169.493C161.369 169.096 161.206 168.803 160.881 168.614C160.555 168.425 160.057 168.315 159.387 168.282L156.828 168.194C156.613 168.338 156.434 168.478 156.291 168.614C156.154 168.751 156.047 168.888 155.969 169.024C155.891 169.168 155.835 169.308 155.803 169.444C155.77 169.588 155.754 169.731 155.754 169.874ZM156.271 161.856C156.271 162.169 156.324 162.455 156.428 162.716C156.532 162.976 156.678 163.198 156.867 163.38C157.056 163.562 157.277 163.705 157.531 163.81C157.792 163.907 158.078 163.956 158.391 163.956C158.729 163.956 159.029 163.901 159.289 163.79C159.556 163.673 159.777 163.517 159.953 163.321C160.135 163.126 160.272 162.901 160.363 162.647C160.461 162.394 160.51 162.13 160.51 161.856C160.51 161.544 160.458 161.257 160.354 160.997C160.249 160.737 160.103 160.515 159.914 160.333C159.725 160.151 159.501 160.011 159.24 159.913C158.986 159.809 158.703 159.757 158.391 159.757C158.052 159.757 157.749 159.815 157.482 159.933C157.222 160.05 157.001 160.206 156.818 160.401C156.643 160.59 156.506 160.812 156.408 161.065C156.317 161.319 156.271 161.583 156.271 161.856Z" fill="#262626"/>
<path d="M107.922 79.8569V94.7141H83.9216V88.4284C83.9216 86.1551 84.8247 83.9749 86.4321 82.3674C88.0396 80.76 90.2198 79.8569 92.4931 79.8569H107.922ZM111.35 79.8569V110.714H134.207V88.4284C134.207 86.1551 133.304 83.9749 131.697 82.3674C130.089 80.76 127.909 79.8569 125.636 79.8569H111.35ZM134.207 114.143H111.35V130.143H125.636C127.909 130.143 130.089 129.24 131.697 127.632C133.304 126.025 134.207 123.845 134.207 121.571V114.143ZM107.922 130.143V98.1426H83.9216V121.571C83.9216 123.845 84.8247 126.025 86.4321 127.632C88.0396 129.24 90.2198 130.143 92.4931 130.143H107.922Z" fill="#EF496F"/>
</g>
<defs>
<filter id="filter0_d_411_715" x="-3.57628e-05" y="0" width="217.129" height="215.129" filterUnits="userSpaceOnUse" color-interpolation-filters="sRGB">
<feFlood flood-opacity="0" result="BackgroundImageFix"/>
<feColorMatrix in="SourceAlpha" type="matrix" values="0 0 0 0 0 0 0 0 0 0 0 0 0 0 0 0 0 0 127 0" result="hardAlpha"/>
<feOffset dy="3.06449"/>
<feGaussianBlur stdDeviation="1.53224"/>
<feComposite in2="hardAlpha" operator="out"/>
<feColorMatrix type="matrix" values="0 0 0 0 0 0 0 0 0 0 0 0 0 0 0 0 0 0 0.25 0"/>
<feBlend mode="normal" in2="BackgroundImageFix" result="effect1_dropShadow_411_715"/>
<feBlend mode="normal" in="SourceGraphic" in2="effect1_dropShadow_411_715" result="shape"/>
</filter>
</defs>
</svg>
