<svg width="856" height="432" viewBox="0 0 856 432" fill="none" xmlns="http://www.w3.org/2000/svg">
<path opacity="0.34" d="M207.732 25.2675C211.194 21.8061 216.806 21.8061 220.268 25.2675L402.732 207.732C406.194 211.194 406.194 216.806 402.732 220.268L214 409L25.2675 220.268C21.8061 216.806 21.8061 211.194 25.2675 207.732L207.732 25.2675Z" fill="#EF496F"/>
<path opacity="0.34" d="M635.732 25.2675C639.194 21.8061 644.806 21.8061 648.268 25.2675L830.732 207.732C834.194 211.194 834.194 216.806 830.732 220.268L642 409L453.268 220.268C449.806 216.806 449.806 211.194 453.268 207.732L635.732 25.2675Z" fill="#EF496F"/>
<path d="M91.7178 211.186C91.7178 212.67 91.5322 214.018 91.1611 215.229C90.7998 216.439 90.2285 217.475 89.4473 218.334C88.6758 219.184 87.6846 219.843 86.4736 220.312C85.2627 220.771 83.8125 221 82.123 221H77.2598V201.854H82.9287C84.3936 201.854 85.6729 202.04 86.7666 202.411C87.8701 202.772 88.7881 203.334 89.5205 204.096C90.2529 204.857 90.7998 205.824 91.1611 206.996C91.5322 208.168 91.7178 209.564 91.7178 211.186ZM87.8506 211.42C87.8506 210.385 87.7676 209.462 87.6016 208.651C87.4355 207.841 87.1523 207.157 86.752 206.601C86.3613 206.034 85.834 205.604 85.1699 205.312C84.5059 205.019 83.6807 204.872 82.6943 204.872H80.8633V217.982H82.4453C84.2129 217.982 85.5557 217.455 86.4736 216.4C87.3916 215.346 87.8506 213.686 87.8506 211.42ZM107.494 212.416C107.494 212.66 107.484 212.978 107.465 213.368C107.455 213.759 107.436 214.125 107.406 214.467H97.6211C97.6211 215.121 97.7188 215.697 97.9141 216.195C98.1191 216.693 98.4023 217.113 98.7637 217.455C99.1348 217.787 99.5742 218.041 100.082 218.217C100.6 218.393 101.171 218.48 101.796 218.48C102.519 218.48 103.29 218.427 104.11 218.319C104.94 218.202 105.8 218.017 106.688 217.763V220.604C106.308 220.712 105.893 220.81 105.443 220.897C104.994 220.985 104.535 221.063 104.066 221.132C103.598 221.2 103.124 221.249 102.646 221.278C102.167 221.317 101.703 221.337 101.254 221.337C100.121 221.337 99.1055 221.176 98.207 220.854C97.3086 220.531 96.5469 220.058 95.9219 219.433C95.2969 218.798 94.8184 218.017 94.4863 217.089C94.1543 216.161 93.9883 215.087 93.9883 213.866C93.9883 212.655 94.1543 211.557 94.4863 210.57C94.8184 209.574 95.2871 208.725 95.8926 208.021C96.498 207.309 97.2305 206.762 98.0898 206.381C98.959 205.99 99.9258 205.795 100.99 205.795C102.045 205.795 102.978 205.961 103.788 206.293C104.599 206.615 105.277 207.069 105.824 207.655C106.371 208.241 106.786 208.939 107.069 209.75C107.353 210.561 107.494 211.449 107.494 212.416ZM103.861 211.903C103.871 211.317 103.798 210.81 103.642 210.38C103.485 209.94 103.271 209.579 102.997 209.296C102.733 209.013 102.421 208.803 102.06 208.666C101.708 208.529 101.327 208.461 100.917 208.461C100.019 208.461 99.2812 208.764 98.7051 209.369C98.1289 209.965 97.7871 210.81 97.6797 211.903H103.861ZM124.384 203.334C123.954 203.197 123.441 203.085 122.846 202.997C122.26 202.899 121.659 202.851 121.044 202.851C120.624 202.851 120.233 202.909 119.872 203.026C119.511 203.134 119.198 203.31 118.935 203.554C118.671 203.798 118.461 204.11 118.305 204.491C118.158 204.862 118.085 205.316 118.085 205.854V208.256H123.93V211.039H118.085V221H114.481V211.039H110.16V208.256H114.481V206C114.481 204.945 114.633 204.042 114.936 203.29C115.248 202.528 115.683 201.908 116.239 201.43C116.806 200.941 117.484 200.585 118.275 200.36C119.066 200.136 119.95 200.023 120.927 200.023C121.571 200.023 122.182 200.067 122.758 200.155C123.344 200.233 123.886 200.331 124.384 200.448V203.334ZM136.278 202.045C136.278 202.367 136.22 202.67 136.103 202.953C135.985 203.236 135.819 203.485 135.604 203.7C135.399 203.905 135.155 204.071 134.872 204.198C134.589 204.315 134.281 204.374 133.949 204.374C133.617 204.374 133.305 204.315 133.012 204.198C132.729 204.071 132.479 203.905 132.265 203.7C132.06 203.485 131.898 203.236 131.781 202.953C131.664 202.67 131.605 202.367 131.605 202.045C131.605 201.723 131.664 201.42 131.781 201.137C131.898 200.854 132.06 200.604 132.265 200.39C132.479 200.175 132.729 200.009 133.012 199.892C133.305 199.765 133.617 199.701 133.949 199.701C134.281 199.701 134.589 199.765 134.872 199.892C135.155 200.009 135.399 200.175 135.604 200.39C135.819 200.604 135.985 200.854 136.103 201.137C136.22 201.42 136.278 201.723 136.278 202.045ZM132.323 208.9H128.119V206.117H135.985V218.217H140.277V221H127.606V218.217H132.323V208.9ZM152.89 221V211.303C152.89 209.672 152.284 208.856 151.073 208.856C150.468 208.856 149.887 209.101 149.33 209.589C148.783 210.077 148.202 210.741 147.587 211.581V221H144.013V206.117H147.104L147.191 208.314C147.494 207.934 147.807 207.587 148.129 207.274C148.461 206.962 148.817 206.698 149.198 206.483C149.579 206.259 149.989 206.088 150.429 205.971C150.868 205.854 151.361 205.795 151.908 205.795C152.67 205.795 153.334 205.922 153.9 206.176C154.467 206.42 154.94 206.771 155.321 207.23C155.702 207.68 155.985 208.227 156.171 208.871C156.366 209.506 156.464 210.219 156.464 211.01V221H152.89ZM173.471 212.416C173.471 212.66 173.461 212.978 173.441 213.368C173.432 213.759 173.412 214.125 173.383 214.467H163.598C163.598 215.121 163.695 215.697 163.891 216.195C164.096 216.693 164.379 217.113 164.74 217.455C165.111 217.787 165.551 218.041 166.059 218.217C166.576 218.393 167.147 218.48 167.772 218.48C168.495 218.48 169.267 218.427 170.087 218.319C170.917 218.202 171.776 218.017 172.665 217.763V220.604C172.284 220.712 171.869 220.81 171.42 220.897C170.971 220.985 170.512 221.063 170.043 221.132C169.574 221.2 169.101 221.249 168.622 221.278C168.144 221.317 167.68 221.337 167.23 221.337C166.098 221.337 165.082 221.176 164.184 220.854C163.285 220.531 162.523 220.058 161.898 219.433C161.273 218.798 160.795 218.017 160.463 217.089C160.131 216.161 159.965 215.087 159.965 213.866C159.965 212.655 160.131 211.557 160.463 210.57C160.795 209.574 161.264 208.725 161.869 208.021C162.475 207.309 163.207 206.762 164.066 206.381C164.936 205.99 165.902 205.795 166.967 205.795C168.021 205.795 168.954 205.961 169.765 206.293C170.575 206.615 171.254 207.069 171.801 207.655C172.348 208.241 172.763 208.939 173.046 209.75C173.329 210.561 173.471 211.449 173.471 212.416ZM169.838 211.903C169.848 211.317 169.774 210.81 169.618 210.38C169.462 209.94 169.247 209.579 168.974 209.296C168.71 209.013 168.397 208.803 168.036 208.666C167.685 208.529 167.304 208.461 166.894 208.461C165.995 208.461 165.258 208.764 164.682 209.369C164.105 209.965 163.764 210.81 163.656 211.903H169.838Z" fill="#EF496F"/>
<path d="M40.8519 128.983C41.9016 130.032 42.7233 131.116 43.3172 132.235C43.9179 133.347 44.2459 134.483 44.3012 135.643C44.3564 136.789 44.1216 137.956 43.5968 139.144C43.0651 140.325 42.2019 141.512 41.0073 142.707L37.5685 146.146L24.0305 132.608L28.0391 128.599C29.0749 127.563 30.1107 126.79 31.1465 126.279C32.1823 125.754 33.2285 125.502 34.285 125.523C35.3415 125.544 36.4118 125.841 37.496 126.414C38.587 126.98 39.7057 127.836 40.8519 128.983ZM38.2832 131.883C37.5512 131.151 36.8399 130.557 36.1494 130.101C35.4589 129.645 34.7752 129.362 34.0985 129.252C33.4218 129.128 32.7451 129.197 32.0684 129.459C31.3916 129.721 30.7046 130.201 30.0071 130.899L28.7124 132.194L37.9828 141.464L39.1014 140.345C40.3513 139.095 40.9279 137.773 40.8312 136.378C40.7346 134.983 39.8852 133.485 38.2832 131.883ZM42.5714 114.336C42.7993 114.564 42.9719 114.82 43.0893 115.103C43.2067 115.386 43.2654 115.679 43.2654 115.983C43.2654 116.273 43.2101 116.563 43.0996 116.853C42.9822 117.136 42.8062 117.395 42.5714 117.63C42.3366 117.865 42.0742 118.044 41.7842 118.169C41.4941 118.279 41.2007 118.338 40.9037 118.345C40.6068 118.338 40.3168 118.276 40.0337 118.158C39.7505 118.041 39.495 117.868 39.2672 117.641C39.0393 117.413 38.8667 117.157 38.7493 116.874C38.6319 116.591 38.5697 116.301 38.5628 116.004C38.5628 115.7 38.6215 115.407 38.7389 115.124C38.8563 114.827 39.0324 114.561 39.2672 114.326C39.502 114.091 39.7644 113.919 40.0544 113.808C40.3375 113.691 40.6275 113.635 40.9245 113.642C41.2283 113.642 41.5218 113.701 41.8049 113.818C42.088 113.936 42.3435 114.108 42.5714 114.336ZM44.6223 121.981L41.6495 124.953L39.6815 122.985L45.2437 117.423L53.7995 125.979L56.8344 122.944L58.8024 124.912L49.8427 133.872L47.8747 131.904L51.21 128.568L44.6223 121.981ZM67.327 116.387L64.4164 119.298L49.7184 112.948L52.5358 110.131L60.6875 113.912L63.2667 115.186L62.0652 112.7L58.2223 104.444L60.9361 101.731L67.327 116.387ZM76.2038 95.3708C76.3765 95.5434 76.594 95.7748 76.8564 96.0648C77.1257 96.3479 77.3708 96.6207 77.5918 96.8831L70.6727 103.802C71.1353 104.265 71.6118 104.603 72.1021 104.817C72.5992 105.024 73.0964 105.121 73.5936 105.107C74.0908 105.08 74.5811 104.949 75.0645 104.714C75.5547 104.472 76.0208 104.13 76.4628 103.688C76.9738 103.177 77.4813 102.594 77.9854 101.938C78.4895 101.268 78.966 100.529 79.4148 99.7212L81.4243 101.731C81.2309 102.076 81.0065 102.438 80.751 102.818C80.4955 103.198 80.2262 103.578 79.9431 103.958C79.66 104.337 79.3596 104.707 79.0419 105.066C78.7312 105.432 78.417 105.774 78.0993 106.091C77.2983 106.892 76.4662 107.497 75.6031 107.904C74.7399 108.311 73.8664 108.515 72.9825 108.515C72.0917 108.508 71.2009 108.294 70.3101 107.873C69.4193 107.452 68.5424 106.81 67.6792 105.946C66.8229 105.09 66.1635 104.196 65.7008 103.264C65.2312 102.324 64.9619 101.392 64.8929 100.467C64.8169 99.5347 64.9481 98.6301 65.2865 97.7531C65.6249 96.8624 66.1704 96.0406 66.9231 95.2879C67.6688 94.5422 68.4457 94.0001 69.2536 93.6617C70.0546 93.3165 70.8556 93.1576 71.6567 93.1853C72.4577 93.2129 73.2449 93.4131 74.0183 93.786C74.7917 94.1589 75.5202 94.6872 76.2038 95.3708ZM73.2725 97.5771C72.8651 97.1558 72.4542 96.8485 72.0399 96.6552C71.6187 96.4549 71.2113 96.3514 70.8177 96.3445C70.431 96.3306 70.0615 96.4032 69.7094 96.562C69.3641 96.7139 69.0464 96.9349 68.7564 97.2249C68.1211 97.8602 67.8138 98.5956 67.8346 99.4311C67.8484 100.26 68.204 101.099 68.9014 101.948L73.2725 97.5771ZM85.1117 85.7379C84.7319 85.3304 84.3763 85.0162 84.0448 84.7953C83.7203 84.5674 83.4096 84.4224 83.1126 84.3602C82.8226 84.2912 82.5533 84.2981 82.3047 84.381C82.0561 84.4638 81.8248 84.6123 81.6107 84.8264C81.2378 85.1992 81.0065 85.7413 80.9167 86.4526C80.827 87.15 80.896 88.0891 81.1239 89.2699L87.7841 95.9301L85.1946 98.5196L74.6708 87.9959L76.96 85.7068L78.5862 87.1465C78.4895 86.7046 78.4412 86.2696 78.4412 85.8414C78.4481 85.4064 78.5068 84.9817 78.6172 84.5674C78.7277 84.1393 78.9038 83.7215 79.1455 83.3141C79.3872 82.9067 79.7014 82.5096 80.0881 82.1229C80.6198 81.5912 81.1826 81.2149 81.7764 80.9939C82.3703 80.7591 82.9849 80.6831 83.6202 80.766C84.2624 80.842 84.9218 81.0871 85.5985 81.5014C86.2753 81.9019 86.9589 82.4682 87.6494 83.2001L85.1117 85.7379ZM95.6458 70.7084C96.0809 70.7567 96.471 70.8776 96.8163 71.0709C97.1615 71.2505 97.4723 71.4783 97.7485 71.7545C98.3354 72.3415 98.7498 72.963 98.9915 73.619C99.24 74.2681 99.3298 74.931 99.2608 75.6077C99.1986 76.2775 98.988 76.9508 98.6289 77.6275C98.2698 78.2904 97.7796 78.9326 97.1581 79.5541C96.7921 79.9201 96.4192 80.2239 96.0394 80.4656C95.6527 80.7004 95.3316 80.8489 95.0761 80.911C95.0761 81.1458 95.1072 81.3771 95.1693 81.605C95.2246 81.826 95.342 82.0262 95.5215 82.2058C95.632 82.3163 95.7701 82.3991 95.9358 82.4544C96.1016 82.5096 96.2811 82.5303 96.4745 82.5165C96.6678 82.4889 96.8646 82.4302 97.0649 82.3404C97.272 82.2438 97.4723 82.1056 97.6656 81.9261L100.255 79.5231C100.828 78.9775 101.405 78.5459 101.985 78.2283C102.565 77.8968 103.135 77.6862 103.694 77.5965C104.253 77.5067 104.788 77.5447 105.299 77.7104C105.81 77.8623 106.28 78.1523 106.708 78.5805C107.198 79.0708 107.551 79.6439 107.765 80.2999C107.979 80.9559 108.02 81.6672 107.889 82.4337C107.772 83.2001 107.475 84.0081 106.998 84.8574C106.522 85.7068 105.845 86.57 104.968 87.4469C104.119 88.2963 103.318 88.9592 102.565 89.4357C101.826 89.9121 101.139 90.2263 100.504 90.3782C99.8753 90.5233 99.2987 90.5198 98.7739 90.3679C98.256 90.2229 97.7968 89.9501 97.3963 89.5496C97.1546 89.3079 96.9613 89.0524 96.8163 88.7831C96.6713 88.5138 96.5642 88.2203 96.4952 87.9027C96.433 87.5919 96.4054 87.2536 96.4123 86.8876C96.4192 86.5216 96.4606 86.1211 96.5366 85.6861C96.0049 85.8311 95.4974 85.8414 95.014 85.7171C94.5375 85.5859 94.1266 85.3477 93.7814 85.0024C93.5466 84.7677 93.3601 84.5191 93.222 84.2567C93.077 83.9874 92.9596 83.7111 92.8699 83.428C92.787 83.138 92.7249 82.8411 92.6834 82.5372C92.642 82.2334 92.6109 81.9261 92.5902 81.6154C92.0792 81.6154 91.5579 81.5221 91.0261 81.3357C90.4944 81.1354 89.9558 80.7626 89.4103 80.217C88.8233 79.6301 88.4056 79.0052 88.157 78.3422C87.9084 77.6655 87.8152 76.9853 87.8773 76.3017C87.9326 75.6112 88.1363 74.931 88.4884 74.2612C88.8406 73.5776 89.3205 72.9319 89.9282 72.3242C90.2389 72.0135 90.5531 71.7338 90.8708 71.4852C91.1884 71.2228 91.5026 71.0122 91.8134 70.8534L95.4594 67.2074L97.3031 69.0511L95.6458 70.7084ZM99.7683 86.7426C100.176 87.15 100.68 87.2467 101.281 87.0326C101.888 86.8116 102.565 86.3283 103.311 85.5825C103.787 85.106 104.143 84.6606 104.378 84.2463C104.619 83.8251 104.771 83.4384 104.833 83.0862C104.896 82.734 104.875 82.4164 104.771 82.1333C104.668 81.8502 104.512 81.605 104.305 81.3979C104.119 81.2114 103.915 81.0975 103.694 81.056C103.487 81.0146 103.259 81.0284 103.01 81.0975C102.776 81.1665 102.527 81.2839 102.265 81.4496C102.016 81.6154 101.757 81.8191 101.488 82.0608L99.2193 84.2463C99.1572 84.5847 99.1227 84.8816 99.1157 85.1371C99.1157 85.3857 99.1365 85.6067 99.1779 85.8C99.2331 85.9934 99.3091 86.166 99.4058 86.3179C99.5094 86.4629 99.6302 86.6045 99.7683 86.7426ZM91.7512 77.8761C92.3105 78.4355 92.9182 78.7186 93.5742 78.7255C94.2302 78.7186 94.8517 78.4216 95.4387 77.8347C95.7494 77.524 95.9669 77.2029 96.0912 76.8714C96.2224 76.533 96.2777 76.2016 96.2569 75.877C96.2362 75.5525 96.1499 75.2383 95.998 74.9345C95.8461 74.6306 95.6458 74.3544 95.3972 74.1058C94.8103 73.5189 94.1888 73.2288 93.5328 73.2357C92.8768 73.2288 92.2553 73.5189 91.6683 74.1058C91.3576 74.4166 91.1366 74.7411 91.0054 75.0795C90.8811 75.4109 90.8328 75.7424 90.8604 76.0738C90.8811 76.3984 90.9709 76.716 91.1297 77.0268C91.2885 77.3375 91.4957 77.6206 91.7512 77.8761ZM100.887 56.0207C101.115 56.2486 101.287 56.5041 101.405 56.7872C101.522 57.0703 101.581 57.3638 101.581 57.6677C101.581 57.9577 101.526 58.2477 101.415 58.5377C101.298 58.8208 101.122 59.0798 100.887 59.3146C100.652 59.5494 100.39 59.7289 100.1 59.8532C99.8097 59.9637 99.5163 60.0224 99.2193 60.0293C98.9224 60.0224 98.6324 59.9602 98.3493 59.8428C98.0661 59.7254 97.8106 59.5528 97.5828 59.3249C97.3549 59.0971 97.1823 58.8416 97.0649 58.5584C96.9475 58.2753 96.8853 57.9853 96.8784 57.6884C96.8784 57.3845 96.9371 57.0911 97.0545 56.8079C97.1719 56.511 97.348 56.2452 97.5828 56.0104C97.8175 55.7756 98.0799 55.603 98.37 55.4925C98.6531 55.3751 98.9431 55.3198 99.24 55.3267C99.5439 55.3267 99.8374 55.3854 100.12 55.5028C100.404 55.6202 100.659 55.7929 100.887 56.0207ZM102.938 63.6649L99.9651 66.6377L97.9971 64.6697L103.559 59.1074L112.115 67.6631L115.15 64.6282L117.118 66.5963L108.158 75.5559L106.19 73.5879L109.526 70.2526L102.938 63.6649ZM126.036 57.678L119.179 50.821C118.026 49.6678 117.021 49.5194 116.165 50.3756C115.737 50.8037 115.499 51.3872 115.45 52.1261C115.409 52.8581 115.468 53.7385 115.626 54.7674L122.287 61.4276L119.759 63.955L109.236 53.4312L111.421 51.2457L113.037 52.7372C112.982 52.2539 112.958 51.7878 112.964 51.3389C112.978 50.8832 113.044 50.4447 113.161 50.0234C113.272 49.5953 113.441 49.1844 113.669 48.7908C113.897 48.3972 114.204 48.0071 114.591 47.6204C115.129 47.0818 115.689 46.702 116.269 46.481C116.842 46.2531 117.425 46.1668 118.019 46.2221C118.606 46.2704 119.193 46.4568 119.78 46.7814C120.367 47.0921 120.94 47.5272 121.499 48.0865L128.564 55.1507L126.036 57.678ZM130.635 35.719C131.07 35.7674 131.46 35.8882 131.806 36.0816C132.151 36.2611 132.462 36.489 132.738 36.7652C133.325 37.3521 133.739 37.9736 133.981 38.6296C134.229 39.2787 134.319 39.9416 134.25 40.6184C134.188 41.2882 133.977 41.9615 133.618 42.6382C133.259 43.3011 132.769 43.9433 132.147 44.5648C131.781 44.9308 131.409 45.2346 131.029 45.4763C130.642 45.7111 130.321 45.8595 130.065 45.9217C130.065 46.1565 130.097 46.3878 130.159 46.6157C130.214 46.8366 130.331 47.0369 130.511 47.2164C130.621 47.3269 130.759 47.4098 130.925 47.465C131.091 47.5203 131.27 47.541 131.464 47.5272C131.657 47.4995 131.854 47.4408 132.054 47.3511C132.261 47.2544 132.462 47.1163 132.655 46.9368L135.244 44.5337C135.818 43.9882 136.394 43.5566 136.974 43.2389C137.554 42.9075 138.124 42.6969 138.683 42.6071C139.243 42.5173 139.778 42.5553 140.289 42.721C140.8 42.873 141.269 43.163 141.698 43.5911C142.188 44.0814 142.54 44.6545 142.754 45.3105C142.968 45.9666 143.01 46.6778 142.878 47.4443C142.761 48.2108 142.464 49.0187 141.988 49.8681C141.511 50.7174 140.834 51.5806 139.957 52.4576C139.108 53.3069 138.307 53.9698 137.554 54.4463C136.815 54.9228 136.128 55.237 135.493 55.3889C134.865 55.5339 134.288 55.5304 133.763 55.3785C133.245 55.2335 132.786 54.9608 132.386 54.5602C132.144 54.3186 131.951 54.0631 131.806 53.7938C131.661 53.5244 131.554 53.231 131.485 52.9133C131.422 52.6026 131.395 52.2642 131.402 51.8982C131.409 51.5323 131.45 51.1317 131.526 50.6967C130.994 50.8417 130.487 50.8521 130.003 50.7278C129.527 50.5966 129.116 50.3583 128.771 50.0131C128.536 49.7783 128.35 49.5297 128.211 49.2673C128.066 48.998 127.949 48.7218 127.859 48.4387C127.776 48.1486 127.714 47.8517 127.673 47.5479C127.631 47.244 127.6 46.9368 127.58 46.626C127.069 46.626 126.547 46.5328 126.015 46.3463C125.484 46.1461 124.945 45.7732 124.4 45.2277C123.813 44.6407 123.395 44.0158 123.146 43.3529C122.898 42.6762 122.805 41.996 122.867 41.3124C122.922 40.6218 123.126 39.9416 123.478 39.2718C123.83 38.5882 124.31 37.9425 124.918 37.3349C125.228 37.0241 125.542 36.7445 125.86 36.4959C126.178 36.2335 126.492 36.0229 126.803 35.864L130.449 32.218L132.292 34.0617L130.635 35.719ZM134.758 51.7532C135.165 52.1606 135.669 52.2573 136.27 52.0433C136.878 51.8223 137.554 51.3389 138.3 50.5931C138.777 50.1167 139.132 49.6713 139.367 49.2569C139.609 48.8357 139.761 48.449 139.823 48.0969C139.885 47.7447 139.864 47.427 139.761 47.1439C139.657 46.8608 139.502 46.6157 139.294 46.4085C139.108 46.2221 138.904 46.1081 138.683 46.0667C138.476 46.0252 138.248 46.0391 138 46.1081C137.765 46.1772 137.516 46.2946 137.254 46.4603C137.005 46.626 136.746 46.8297 136.477 47.0714L134.209 49.2569C134.147 49.5953 134.112 49.8922 134.105 50.1477C134.105 50.3963 134.126 50.6173 134.167 50.8106C134.222 51.004 134.298 51.1766 134.395 51.3285C134.499 51.4736 134.62 51.6151 134.758 51.7532ZM126.741 42.8868C127.3 43.4461 127.908 43.7292 128.564 43.7361C129.22 43.7292 129.841 43.4323 130.428 42.8453C130.739 42.5346 130.956 42.2135 131.081 41.882C131.212 41.5437 131.267 41.2122 131.246 40.8877C131.226 40.5631 131.139 40.2489 130.987 39.9451C130.835 39.6413 130.635 39.365 130.387 39.1165C129.8 38.5295 129.178 38.2395 128.522 38.2464C127.866 38.2395 127.245 38.5295 126.658 39.1165C126.347 39.4272 126.126 39.7517 125.995 40.0901C125.87 40.4216 125.822 40.753 125.85 41.0845C125.87 41.409 125.96 41.7267 126.119 42.0374C126.278 42.3482 126.485 42.6313 126.741 42.8868Z" fill="#6563FF"/>
<path d="M476.852 122.983C477.902 124.032 478.723 125.116 479.317 126.235C479.918 127.347 480.246 128.483 480.301 129.643C480.356 130.789 480.122 131.956 479.597 133.144C479.065 134.325 478.202 135.512 477.007 136.707L473.568 140.146L460.031 126.608L464.039 122.599C465.075 121.563 466.111 120.79 467.146 120.279C468.182 119.754 469.228 119.502 470.285 119.523C471.341 119.544 472.412 119.841 473.496 120.414C474.587 120.98 475.706 121.836 476.852 122.983ZM474.283 125.883C473.551 125.151 472.84 124.557 472.149 124.101C471.459 123.645 470.775 123.362 470.099 123.252C469.422 123.128 468.745 123.197 468.068 123.459C467.392 123.721 466.705 124.201 466.007 124.899L464.712 126.194L473.983 135.464L475.101 134.345C476.351 133.095 476.928 131.773 476.831 130.378C476.735 128.983 475.885 127.485 474.283 125.883ZM478.571 108.336C478.799 108.564 478.972 108.82 479.089 109.103C479.207 109.386 479.265 109.679 479.265 109.983C479.265 110.273 479.21 110.563 479.1 110.853C478.982 111.136 478.806 111.395 478.571 111.63C478.337 111.865 478.074 112.044 477.784 112.169C477.494 112.279 477.201 112.338 476.904 112.345C476.607 112.338 476.317 112.276 476.034 112.158C475.751 112.041 475.495 111.868 475.267 111.641C475.039 111.413 474.867 111.157 474.749 110.874C474.632 110.591 474.57 110.301 474.563 110.004C474.563 109.7 474.622 109.407 474.739 109.124C474.856 108.827 475.032 108.561 475.267 108.326C475.502 108.091 475.764 107.919 476.054 107.808C476.337 107.691 476.628 107.635 476.924 107.642C477.228 107.642 477.522 107.701 477.805 107.818C478.088 107.936 478.344 108.108 478.571 108.336ZM480.622 115.981L477.65 118.953L475.681 116.985L481.244 111.423L489.799 119.979L492.834 116.944L494.802 118.912L485.843 127.872L483.875 125.904L487.21 122.568L480.622 115.981ZM503.327 110.387L500.416 113.298L485.718 106.948L488.536 104.131L496.688 107.912L499.267 109.186L498.065 106.7L494.222 98.4444L496.936 95.7306L503.327 110.387ZM512.204 89.3708C512.376 89.5434 512.594 89.7748 512.856 90.0648C513.126 90.3479 513.371 90.6207 513.592 90.8831L506.673 97.8022C507.135 98.2649 507.612 98.6032 508.102 98.8173C508.599 99.0245 509.096 99.1211 509.594 99.1073C510.091 99.0797 510.581 98.9485 511.064 98.7137C511.555 98.472 512.021 98.1302 512.463 97.6883C512.974 97.1773 513.481 96.5938 513.985 95.9378C514.49 95.268 514.966 94.5291 515.415 93.7212L517.424 95.7306C517.231 96.0759 517.006 96.4384 516.751 96.8182C516.496 97.198 516.226 97.5778 515.943 97.9576C515.66 98.3374 515.36 98.7068 515.042 99.0659C514.731 99.4319 514.417 99.7737 514.099 100.091C513.298 100.892 512.466 101.497 511.603 101.904C510.74 102.311 509.866 102.515 508.982 102.515C508.092 102.508 507.201 102.294 506.31 101.873C505.419 101.452 504.542 100.81 503.679 99.9463C502.823 99.0901 502.163 98.1958 501.701 97.2636C501.231 96.3245 500.962 95.3923 500.893 94.4669C500.817 93.5347 500.948 92.6301 501.286 91.7531C501.625 90.8624 502.17 90.0406 502.923 89.2879C503.669 88.5422 504.446 88.0001 505.254 87.6617C506.055 87.3165 506.856 87.1576 507.657 87.1853C508.458 87.2129 509.245 87.4131 510.018 87.786C510.792 88.1589 511.52 88.6872 512.204 89.3708ZM509.273 91.5771C508.865 91.1558 508.454 90.8485 508.04 90.6552C507.619 90.4549 507.211 90.3514 506.818 90.3445C506.431 90.3306 506.062 90.4032 505.709 90.562C505.364 90.7139 505.046 90.9349 504.756 91.2249C504.121 91.8602 503.814 92.5956 503.835 93.4311C503.848 94.2598 504.204 95.0988 504.901 95.9481L509.273 91.5771ZM521.112 79.7379C520.732 79.3304 520.376 79.0162 520.045 78.7953C519.72 78.5674 519.41 78.4224 519.113 78.3602C518.823 78.2912 518.553 78.2981 518.305 78.381C518.056 78.4638 517.825 78.6123 517.611 78.8264C517.238 79.1992 517.006 79.7413 516.917 80.4526C516.827 81.15 516.896 82.0891 517.124 83.2699L523.784 89.9301L521.195 92.5196L510.671 81.9959L512.96 79.7068L514.586 81.1465C514.49 80.7046 514.441 80.2696 514.441 79.8414C514.448 79.4064 514.507 78.9817 514.617 78.5674C514.728 78.1393 514.904 77.7215 515.146 77.3141C515.387 76.9067 515.701 76.5096 516.088 76.1229C516.62 75.5912 517.183 75.2149 517.776 74.9939C518.37 74.7591 518.985 74.6831 519.62 74.766C520.262 74.842 520.922 75.0871 521.599 75.5014C522.275 75.9019 522.959 76.4682 523.649 77.2001L521.112 79.7379ZM531.646 64.7084C532.081 64.7567 532.471 64.8776 532.816 65.0709C533.162 65.2505 533.472 65.4783 533.748 65.7545C534.335 66.3415 534.75 66.963 534.991 67.619C535.24 68.2681 535.33 68.931 535.261 69.6077C535.199 70.2775 534.988 70.9508 534.629 71.6275C534.27 72.2904 533.78 72.9326 533.158 73.5541C532.792 73.9201 532.419 74.2239 532.039 74.4656C531.653 74.7004 531.332 74.8489 531.076 74.911C531.076 75.1458 531.107 75.3771 531.169 75.605C531.225 75.826 531.342 76.0262 531.522 76.2058C531.632 76.3163 531.77 76.3991 531.936 76.4544C532.102 76.5096 532.281 76.5303 532.474 76.5165C532.668 76.4889 532.865 76.4302 533.065 76.3404C533.272 76.2438 533.472 76.1056 533.666 75.9261L536.255 73.5231C536.828 72.9775 537.405 72.5459 537.985 72.2283C538.565 71.8968 539.135 71.6862 539.694 71.5965C540.253 71.5067 540.788 71.5447 541.299 71.7104C541.81 71.8623 542.28 72.1523 542.708 72.5805C543.198 73.0708 543.551 73.6439 543.765 74.2999C543.979 74.9559 544.02 75.6672 543.889 76.4337C543.772 77.2001 543.475 78.0081 542.998 78.8574C542.522 79.7068 541.845 80.57 540.968 81.4469C540.119 82.2963 539.318 82.9592 538.565 83.4357C537.826 83.9121 537.139 84.2263 536.504 84.3782C535.875 84.5233 535.299 84.5198 534.774 84.3679C534.256 84.2229 533.797 83.9501 533.396 83.5496C533.155 83.3079 532.961 83.0524 532.816 82.7831C532.671 82.5138 532.564 82.2203 532.495 81.9027C532.433 81.5919 532.405 81.2536 532.412 80.8876C532.419 80.5216 532.461 80.1211 532.537 79.6861C532.005 79.8311 531.497 79.8414 531.014 79.7171C530.538 79.5859 530.127 79.3477 529.781 79.0024C529.547 78.7677 529.36 78.5191 529.222 78.2567C529.077 77.9874 528.96 77.7111 528.87 77.428C528.787 77.138 528.725 76.8411 528.683 76.5372C528.642 76.2334 528.611 75.9261 528.59 75.6154C528.079 75.6154 527.558 75.5221 527.026 75.3357C526.494 75.1354 525.956 74.7626 525.41 74.217C524.823 73.6301 524.406 73.0052 524.157 72.3422C523.908 71.6655 523.815 70.9853 523.877 70.3017C523.933 69.6112 524.136 68.931 524.488 68.2612C524.841 67.5776 525.321 66.9319 525.928 66.3242C526.239 66.0135 526.553 65.7338 526.871 65.4852C527.188 65.2228 527.503 65.0122 527.813 64.8534L531.459 61.2074L533.303 63.0511L531.646 64.7084ZM535.768 80.7426C536.176 81.15 536.68 81.2467 537.281 81.0326C537.888 80.8116 538.565 80.3283 539.311 79.5825C539.787 79.106 540.143 78.6606 540.378 78.2463C540.619 77.8251 540.771 77.4384 540.833 77.0862C540.896 76.734 540.875 76.4164 540.771 76.1333C540.668 75.8502 540.512 75.605 540.305 75.3979C540.119 75.2114 539.915 75.0975 539.694 75.056C539.487 75.0146 539.259 75.0284 539.01 75.0975C538.776 75.1665 538.527 75.2839 538.265 75.4496C538.016 75.6154 537.757 75.8191 537.488 76.0608L535.219 78.2463C535.157 78.5847 535.123 78.8816 535.116 79.1371C535.116 79.3857 535.136 79.6067 535.178 79.8C535.233 79.9934 535.309 80.166 535.406 80.3179C535.509 80.4629 535.63 80.6045 535.768 80.7426ZM527.751 71.8761C528.311 72.4355 528.918 72.7186 529.574 72.7255C530.23 72.7186 530.852 72.4216 531.439 71.8347C531.749 71.524 531.967 71.2029 532.091 70.8714C532.222 70.533 532.278 70.2016 532.257 69.877C532.236 69.5525 532.15 69.2383 531.998 68.9345C531.846 68.6306 531.646 68.3544 531.397 68.1058C530.81 67.5189 530.189 67.2288 529.533 67.2357C528.877 67.2288 528.255 67.5189 527.668 68.1058C527.358 68.4166 527.137 68.7411 527.005 69.0795C526.881 69.4109 526.833 69.7424 526.86 70.0738C526.881 70.3984 526.971 70.716 527.13 71.0268C527.289 71.3375 527.496 71.6206 527.751 71.8761ZM536.887 50.0207C537.115 50.2486 537.287 50.5041 537.405 50.7872C537.522 51.0703 537.581 51.3638 537.581 51.6677C537.581 51.9577 537.526 52.2477 537.415 52.5377C537.298 52.8208 537.122 53.0798 536.887 53.3146C536.652 53.5494 536.39 53.7289 536.1 53.8532C535.81 53.9637 535.516 54.0224 535.219 54.0293C534.922 54.0224 534.632 53.9602 534.349 53.8428C534.066 53.7254 533.811 53.5528 533.583 53.3249C533.355 53.0971 533.182 52.8416 533.065 52.5584C532.947 52.2753 532.885 51.9853 532.878 51.6884C532.878 51.3845 532.937 51.0911 533.055 50.8079C533.172 50.511 533.348 50.2452 533.583 50.0104C533.818 49.7756 534.08 49.603 534.37 49.4925C534.653 49.3751 534.943 49.3198 535.24 49.3267C535.544 49.3267 535.837 49.3854 536.12 49.5028C536.404 49.6202 536.659 49.7929 536.887 50.0207ZM538.938 57.6649L535.965 60.6377L533.997 58.6697L539.559 53.1074L548.115 61.6631L551.15 58.6282L553.118 60.5963L544.158 69.5559L542.19 67.5879L545.526 64.2526L538.938 57.6649ZM562.036 51.678L555.179 44.821C554.026 43.6678 553.021 43.5194 552.165 44.3756C551.737 44.8037 551.499 45.3872 551.45 46.1261C551.409 46.8581 551.468 47.7385 551.626 48.7674L558.287 55.4276L555.759 57.955L545.236 47.4312L547.421 45.2457L549.037 46.7372C548.982 46.2539 548.958 45.7878 548.964 45.3389C548.978 44.8832 549.044 44.4447 549.161 44.0234C549.272 43.5953 549.441 43.1844 549.669 42.7908C549.897 42.3972 550.204 42.0071 550.591 41.6204C551.129 41.0818 551.689 40.702 552.269 40.481C552.842 40.2531 553.425 40.1668 554.019 40.2221C554.606 40.2704 555.193 40.4568 555.78 40.7814C556.367 41.0921 556.94 41.5272 557.499 42.0865L564.564 49.1507L562.036 51.678ZM566.635 29.719C567.07 29.7674 567.46 29.8882 567.806 30.0816C568.151 30.2611 568.462 30.489 568.738 30.7652C569.325 31.3521 569.739 31.9736 569.981 32.6296C570.229 33.2787 570.319 33.9416 570.25 34.6184C570.188 35.2882 569.977 35.9615 569.618 36.6382C569.259 37.3011 568.769 37.9433 568.147 38.5648C567.781 38.9308 567.409 39.2346 567.029 39.4763C566.642 39.7111 566.321 39.8595 566.065 39.9217C566.065 40.1565 566.097 40.3878 566.159 40.6157C566.214 40.8366 566.331 41.0369 566.511 41.2164C566.621 41.3269 566.759 41.4098 566.925 41.465C567.091 41.5203 567.27 41.541 567.464 41.5272C567.657 41.4995 567.854 41.4408 568.054 41.3511C568.261 41.2544 568.462 41.1163 568.655 40.9368L571.244 38.5337C571.818 37.9882 572.394 37.5566 572.974 37.2389C573.554 36.9075 574.124 36.6969 574.683 36.6071C575.243 36.5173 575.778 36.5553 576.289 36.721C576.8 36.873 577.269 37.163 577.698 37.5911C578.188 38.0814 578.54 38.6545 578.754 39.3105C578.968 39.9666 579.01 40.6778 578.878 41.4443C578.761 42.2108 578.464 43.0187 577.988 43.8681C577.511 44.7174 576.834 45.5806 575.957 46.4576C575.108 47.3069 574.307 47.9698 573.554 48.4463C572.815 48.9228 572.128 49.237 571.493 49.3889C570.865 49.5339 570.288 49.5304 569.763 49.3785C569.245 49.2335 568.786 48.9608 568.386 48.5602C568.144 48.3186 567.951 48.0631 567.806 47.7938C567.661 47.5244 567.554 47.231 567.485 46.9133C567.422 46.6026 567.395 46.2642 567.402 45.8982C567.409 45.5323 567.45 45.1317 567.526 44.6967C566.994 44.8417 566.487 44.8521 566.003 44.7278C565.527 44.5966 565.116 44.3583 564.771 44.0131C564.536 43.7783 564.35 43.5297 564.211 43.2673C564.066 42.998 563.949 42.7218 563.859 42.4387C563.776 42.1486 563.714 41.8517 563.673 41.5479C563.631 41.244 563.6 40.9368 563.58 40.626C563.069 40.626 562.547 40.5328 562.015 40.3463C561.484 40.1461 560.945 39.7732 560.4 39.2277C559.813 38.6407 559.395 38.0158 559.146 37.3529C558.898 36.6762 558.805 35.996 558.867 35.3124C558.922 34.6218 559.126 33.9416 559.478 33.2718C559.83 32.5882 560.31 31.9425 560.918 31.3349C561.228 31.0241 561.542 30.7445 561.86 30.4959C562.178 30.2335 562.492 30.0229 562.803 29.864L566.449 26.218L568.292 28.0617L566.635 29.719ZM570.758 45.7532C571.165 46.1606 571.669 46.2573 572.27 46.0433C572.878 45.8223 573.554 45.3389 574.3 44.5931C574.777 44.1167 575.132 43.6713 575.367 43.2569C575.609 42.8357 575.761 42.449 575.823 42.0969C575.885 41.7447 575.864 41.427 575.761 41.1439C575.657 40.8608 575.502 40.6157 575.294 40.4085C575.108 40.2221 574.904 40.1081 574.683 40.0667C574.476 40.0252 574.248 40.0391 574 40.1081C573.765 40.1772 573.516 40.2946 573.254 40.4603C573.005 40.626 572.746 40.8297 572.477 41.0714L570.209 43.2569C570.147 43.5953 570.112 43.8922 570.105 44.1477C570.105 44.3963 570.126 44.6173 570.167 44.8106C570.222 45.004 570.298 45.1766 570.395 45.3285C570.499 45.4736 570.62 45.6151 570.758 45.7532ZM562.741 36.8868C563.3 37.4461 563.908 37.7292 564.564 37.7361C565.22 37.7292 565.841 37.4323 566.428 36.8453C566.739 36.5346 566.956 36.2135 567.081 35.882C567.212 35.5437 567.267 35.2122 567.246 34.8877C567.226 34.5631 567.139 34.2489 566.987 33.9451C566.835 33.6413 566.635 33.365 566.387 33.1165C565.8 32.5295 565.178 32.2395 564.522 32.2464C563.866 32.2395 563.245 32.5295 562.658 33.1165C562.347 33.4272 562.126 33.7517 561.995 34.0901C561.87 34.4216 561.822 34.753 561.85 35.0845C561.87 35.409 561.96 35.7267 562.119 36.0374C562.278 36.3482 562.485 36.6313 562.741 36.8868Z" fill="#6563FF"/>
<path d="M295.999 45.5489C295.156 45.1898 294.393 44.7858 293.71 44.337C293.033 43.895 292.391 43.3702 291.783 42.7625C290.809 41.7889 290.088 40.7842 289.618 39.7484C289.163 38.7126 288.959 37.6526 289.007 36.5685C289.062 35.4912 289.373 34.4002 289.939 33.2953C290.519 32.1905 291.365 31.0822 292.477 29.9704C293.616 28.831 294.773 27.9644 295.947 27.3705C297.128 26.7698 298.291 26.4349 299.438 26.3658C300.591 26.2899 301.71 26.4763 302.794 26.9252C303.892 27.374 304.921 28.0783 305.88 29.0382C306.191 29.3489 306.474 29.6459 306.73 29.929C306.992 30.219 307.234 30.5159 307.455 30.8198C307.683 31.1167 307.9 31.4309 308.107 31.7623C308.314 32.0938 308.515 32.4529 308.708 32.8396L306.181 35.3669C305.87 34.5038 305.507 33.7476 305.093 33.0985C304.679 32.4494 304.254 31.9074 303.819 31.4723C303.177 30.8301 302.511 30.3985 301.82 30.1776C301.136 29.9497 300.435 29.8979 299.717 30.0222C299.013 30.1465 298.302 30.4296 297.584 30.8716C296.872 31.3066 296.171 31.8694 295.481 32.5599C294.749 33.2919 294.162 34.0169 293.72 34.7351C293.292 35.4532 293.026 36.161 292.922 36.8585C292.819 37.5559 292.891 38.243 293.14 38.9197C293.395 39.5895 293.841 40.2421 294.476 40.8774C294.704 41.1053 294.97 41.3297 295.274 41.5507C295.591 41.7716 295.919 41.9822 296.258 42.1825C296.61 42.3828 296.966 42.5657 297.325 42.7315C297.698 42.8972 298.05 43.0422 298.381 43.1665L295.999 45.5489ZM312.996 52.9134C312.168 53.742 311.291 54.3842 310.365 54.84C309.447 55.2888 308.522 55.5374 307.589 55.5858C306.657 55.6341 305.735 55.4718 304.824 55.0989C303.912 54.726 303.046 54.1287 302.224 53.307C301.444 52.5267 300.86 51.7153 300.473 50.8729C300.087 50.0304 299.904 49.1707 299.924 48.2937C299.952 47.4098 300.19 46.5156 300.639 45.611C301.095 44.6995 301.775 43.7914 302.68 42.8868C303.515 42.0513 304.392 41.4091 305.311 40.9603C306.236 40.5183 307.161 40.2766 308.087 40.2352C309.019 40.2007 309.937 40.3733 310.842 40.7531C311.753 41.126 312.613 41.7164 313.421 42.5243C314.208 43.3115 314.792 44.1298 315.171 44.9792C315.558 45.8216 315.738 46.6848 315.71 47.5687C315.682 48.4525 315.441 49.3433 314.985 50.241C314.543 51.1387 313.88 52.0295 312.996 52.9134ZM310.303 50.3446C311.394 49.2536 312.005 48.2281 312.137 47.2683C312.282 46.3084 311.954 45.428 311.153 44.627C310.711 44.185 310.248 43.895 309.765 43.7569C309.281 43.6188 308.787 43.6015 308.283 43.7051C307.786 43.8018 307.289 44.0021 306.792 44.3059C306.302 44.6166 305.829 44.9999 305.373 45.4556C304.275 46.5536 303.667 47.6032 303.55 48.6045C303.439 49.5988 303.767 50.4793 304.534 51.2458C304.955 51.667 305.404 51.9501 305.88 52.0951C306.364 52.2332 306.851 52.2505 307.341 52.1469C307.838 52.0364 308.339 51.8258 308.843 51.5151C309.347 51.2043 309.834 50.8142 310.303 50.3446ZM316.114 66.7206L322.971 59.8636C324.124 58.7104 324.273 57.7057 323.416 56.8494C322.988 56.4213 322.405 56.1831 321.666 56.1347C320.934 56.0933 320.054 56.152 319.025 56.3108L312.364 62.971L309.837 60.4437L320.361 49.9199L322.546 52.1055L321.055 53.7213C321.538 53.6661 322.004 53.6419 322.453 53.6488C322.909 53.6626 323.347 53.7282 323.769 53.8456C324.197 53.9561 324.608 54.1253 325.001 54.3532C325.395 54.581 325.785 54.8883 326.172 55.275C326.71 55.8136 327.09 56.373 327.311 56.953C327.539 57.5262 327.625 58.1097 327.57 58.7035C327.522 59.2905 327.335 59.8774 327.011 60.4644C326.7 61.0513 326.265 61.6245 325.706 62.1838L318.641 69.248L316.114 66.7206ZM327.384 77.9901L324.473 75.0795L330.822 60.3815L333.64 63.1989L329.859 71.3507L328.585 73.9298L331.071 72.7283L339.326 68.8854L342.04 71.5992L327.384 77.9901ZM348.4 86.867C348.227 87.0396 347.996 87.2571 347.706 87.5195C347.423 87.7888 347.15 88.034 346.888 88.2549L339.969 81.3358C339.506 81.7984 339.168 82.2749 338.953 82.7652C338.746 83.2624 338.65 83.7595 338.663 84.2567C338.691 84.7539 338.822 85.2442 339.057 85.7276C339.299 86.2178 339.641 86.684 340.082 87.1259C340.593 87.6369 341.177 88.1444 341.833 88.6485C342.503 89.1526 343.242 89.6291 344.05 90.0779L342.04 92.0874C341.695 91.894 341.332 91.6696 340.953 91.4141C340.573 91.1586 340.193 90.8893 339.813 90.6062C339.433 90.3231 339.064 90.0227 338.705 89.705C338.339 89.3943 337.997 89.0801 337.679 88.7625C336.878 87.9614 336.274 87.1294 335.867 86.2662C335.459 85.403 335.256 84.5295 335.256 83.6456C335.263 82.7548 335.477 81.864 335.898 80.9732C336.319 80.0825 336.961 79.2055 337.824 78.3423C338.681 77.486 339.575 76.8266 340.507 76.3639C341.446 75.8944 342.379 75.6251 343.304 75.556C344.236 75.48 345.141 75.6112 346.018 75.9496C346.908 76.288 347.73 76.8335 348.483 77.5862C349.229 78.332 349.771 79.1088 350.109 79.9167C350.454 80.7177 350.613 81.5188 350.586 82.3198C350.558 83.1208 350.358 83.908 349.985 84.6814C349.612 85.4548 349.084 86.1833 348.4 86.867ZM346.194 83.9356C346.615 83.5282 346.922 83.1174 347.116 82.703C347.316 82.2818 347.419 81.8744 347.426 81.4808C347.44 81.0941 347.368 80.7247 347.209 80.3725C347.057 80.0272 346.836 79.7096 346.546 79.4195C345.911 78.7843 345.175 78.477 344.34 78.4977C343.511 78.5115 342.672 78.8671 341.823 79.5646L346.194 83.9356ZM358.033 95.7748C358.44 95.395 358.755 95.0394 358.976 94.708C359.203 94.3834 359.348 94.0727 359.411 93.7757C359.48 93.4857 359.473 93.2164 359.39 92.9678C359.307 92.7192 359.158 92.4879 358.944 92.2738C358.572 91.9009 358.029 91.6696 357.318 91.5798C356.621 91.4901 355.682 91.5591 354.501 91.787L347.841 98.4472L345.251 95.8577L355.775 85.334L358.064 87.6231L356.624 89.2493C357.066 89.1526 357.501 89.1043 357.929 89.1043C358.364 89.1112 358.789 89.1699 359.203 89.2804C359.632 89.3909 360.049 89.5669 360.457 89.8086C360.864 90.0503 361.261 90.3645 361.648 90.7512C362.18 91.2829 362.556 91.8457 362.777 92.4396C363.012 93.0334 363.088 93.648 363.005 94.2833C362.929 94.9255 362.684 95.5849 362.269 96.2617C361.869 96.9384 361.303 97.622 360.571 98.3126L358.033 95.7748ZM373.062 106.309C373.014 106.744 372.893 107.134 372.7 107.479C372.52 107.825 372.292 108.135 372.016 108.412C371.429 108.999 370.808 109.413 370.152 109.655C369.503 109.903 368.84 109.993 368.163 109.924C367.493 109.862 366.82 109.651 366.143 109.292C365.48 108.933 364.838 108.443 364.217 107.821C363.851 107.455 363.547 107.082 363.305 106.703C363.07 106.316 362.922 105.995 362.86 105.739C362.625 105.739 362.394 105.77 362.166 105.832C361.945 105.888 361.745 106.005 361.565 106.185C361.455 106.295 361.372 106.433 361.316 106.599C361.261 106.765 361.24 106.944 361.254 107.138C361.282 107.331 361.341 107.528 361.43 107.728C361.527 107.935 361.665 108.135 361.845 108.329L364.248 110.918C364.793 111.491 365.225 112.068 365.542 112.648C365.874 113.228 366.085 113.798 366.174 114.357C366.264 114.916 366.226 115.452 366.06 115.963C365.908 116.474 365.618 116.943 365.19 117.371C364.7 117.862 364.127 118.214 363.471 118.428C362.815 118.642 362.104 118.683 361.337 118.552C360.571 118.435 359.763 118.138 358.913 117.661C358.064 117.185 357.201 116.508 356.324 115.631C355.474 114.782 354.812 113.981 354.335 113.228C353.859 112.489 353.544 111.802 353.393 111.167C353.248 110.538 353.251 109.962 353.403 109.437C353.548 108.919 353.821 108.46 354.221 108.059C354.463 107.818 354.718 107.624 354.988 107.479C355.257 107.334 355.55 107.227 355.868 107.158C356.179 107.096 356.517 107.069 356.883 107.075C357.249 107.082 357.65 107.124 358.085 107.2C357.94 106.668 357.929 106.16 358.054 105.677C358.185 105.201 358.423 104.79 358.768 104.444C359.003 104.21 359.252 104.023 359.514 103.885C359.783 103.74 360.06 103.623 360.343 103.533C360.633 103.45 360.93 103.388 361.234 103.347C361.537 103.305 361.845 103.274 362.155 103.253C362.155 102.742 362.249 102.221 362.435 101.689C362.635 101.158 363.008 100.619 363.554 100.073C364.141 99.4865 364.766 99.0687 365.429 98.8201C366.105 98.5715 366.785 98.4783 367.469 98.5404C368.16 98.5957 368.84 98.7994 369.51 99.1516C370.193 99.5037 370.839 99.9836 371.447 100.591C371.757 100.902 372.037 101.216 372.286 101.534C372.548 101.852 372.759 102.166 372.917 102.476L376.563 106.122L374.72 107.966L373.062 106.309ZM357.028 110.431C356.621 110.839 356.524 111.343 356.738 111.944C356.959 112.551 357.443 113.228 358.188 113.974C358.665 114.45 359.11 114.806 359.524 115.041C359.946 115.282 360.332 115.434 360.685 115.496C361.037 115.559 361.354 115.538 361.638 115.434C361.921 115.331 362.166 115.175 362.373 114.968C362.559 114.782 362.673 114.578 362.715 114.357C362.756 114.15 362.742 113.922 362.673 113.673C362.604 113.439 362.487 113.19 362.321 112.928C362.155 112.679 361.952 112.42 361.71 112.151L359.524 109.882C359.186 109.82 358.889 109.786 358.634 109.779C358.385 109.779 358.164 109.8 357.971 109.841C357.777 109.896 357.605 109.972 357.453 110.069C357.308 110.172 357.166 110.293 357.028 110.431ZM365.895 102.414C365.335 102.974 365.052 103.581 365.045 104.237C365.052 104.893 365.349 105.515 365.936 106.102C366.247 106.413 366.568 106.63 366.899 106.754C367.238 106.886 367.569 106.941 367.894 106.92C368.218 106.899 368.532 106.813 368.836 106.661C369.14 106.509 369.416 106.309 369.665 106.06C370.252 105.473 370.542 104.852 370.535 104.196C370.542 103.54 370.252 102.918 369.665 102.331C369.354 102.021 369.03 101.8 368.691 101.669C368.36 101.544 368.028 101.496 367.697 101.524C367.372 101.544 367.055 101.634 366.744 101.793C366.433 101.952 366.15 102.159 365.895 102.414ZM387.75 111.55C387.522 111.778 387.267 111.951 386.984 112.068C386.7 112.185 386.407 112.244 386.103 112.244C385.813 112.244 385.523 112.189 385.233 112.078C384.95 111.961 384.691 111.785 384.456 111.55C384.221 111.315 384.042 111.053 383.918 110.763C383.807 110.473 383.748 110.179 383.742 109.882C383.748 109.586 383.811 109.295 383.928 109.012C384.045 108.729 384.218 108.474 384.446 108.246C384.674 108.018 384.929 107.845 385.212 107.728C385.495 107.611 385.785 107.548 386.082 107.542C386.386 107.542 386.68 107.6 386.963 107.718C387.26 107.835 387.526 108.011 387.76 108.246C387.995 108.481 388.168 108.743 388.278 109.033C388.396 109.316 388.451 109.606 388.444 109.903C388.444 110.207 388.385 110.5 388.268 110.784C388.151 111.067 387.978 111.322 387.75 111.55ZM380.106 113.601L377.133 110.628L379.101 108.66L384.663 114.222L376.108 122.778L379.143 125.813L377.175 127.781L368.215 118.821L370.183 116.853L373.518 120.189L380.106 113.601ZM386.093 136.699L392.95 129.842C394.103 128.689 394.251 127.684 393.395 126.828C392.967 126.4 392.384 126.162 391.645 126.113C390.913 126.072 390.032 126.131 389.003 126.29L382.343 132.95L379.816 130.422L390.34 119.899L392.525 122.084L391.034 123.7C391.517 123.645 391.983 123.621 392.432 123.628C392.888 123.641 393.326 123.707 393.747 123.824C394.175 123.935 394.586 124.104 394.98 124.332C395.374 124.56 395.764 124.867 396.15 125.254C396.689 125.792 397.069 126.352 397.29 126.932C397.518 127.505 397.604 128.088 397.549 128.682C397.5 129.269 397.314 129.856 396.989 130.443C396.679 131.03 396.244 131.603 395.684 132.163L388.62 139.227L386.093 136.699ZM408.052 141.298C408.003 141.733 407.883 142.123 407.689 142.469C407.51 142.814 407.282 143.125 407.006 143.401C406.419 143.988 405.797 144.402 405.141 144.644C404.492 144.893 403.829 144.982 403.152 144.913C402.483 144.851 401.809 144.64 401.133 144.281C400.47 143.922 399.827 143.432 399.206 142.811C398.84 142.445 398.536 142.072 398.295 141.692C398.06 141.305 397.911 140.984 397.849 140.729C397.614 140.729 397.383 140.76 397.155 140.822C396.934 140.877 396.734 140.994 396.554 141.174C396.444 141.284 396.361 141.423 396.306 141.588C396.251 141.754 396.23 141.934 396.244 142.127C396.271 142.32 396.33 142.517 396.42 142.717C396.516 142.924 396.654 143.125 396.834 143.318L399.237 145.908C399.783 146.481 400.214 147.057 400.532 147.637C400.863 148.217 401.074 148.787 401.164 149.346C401.253 149.906 401.215 150.441 401.05 150.952C400.898 151.463 400.608 151.933 400.18 152.361C399.689 152.851 399.116 153.203 398.46 153.417C397.804 153.631 397.093 153.673 396.326 153.541C395.56 153.424 394.752 153.127 393.903 152.651C393.053 152.174 392.19 151.497 391.313 150.62C390.464 149.771 389.801 148.97 389.324 148.217C388.848 147.479 388.534 146.791 388.382 146.156C388.237 145.528 388.24 144.951 388.392 144.426C388.537 143.909 388.81 143.449 389.211 143.049C389.452 142.807 389.708 142.614 389.977 142.469C390.246 142.324 390.54 142.217 390.857 142.148C391.168 142.085 391.507 142.058 391.873 142.065C392.239 142.072 392.639 142.113 393.074 142.189C392.929 141.657 392.919 141.15 393.043 140.666C393.174 140.19 393.412 139.779 393.758 139.434C393.992 139.199 394.241 139.013 394.503 138.875C394.773 138.73 395.049 138.612 395.332 138.522C395.622 138.439 395.919 138.377 396.223 138.336C396.527 138.294 396.834 138.263 397.145 138.243C397.145 137.732 397.238 137.21 397.424 136.679C397.625 136.147 397.998 135.608 398.543 135.063C399.13 134.476 399.755 134.058 400.418 133.809C401.095 133.561 401.775 133.468 402.458 133.53C403.149 133.585 403.829 133.789 404.499 134.141C405.183 134.493 405.828 134.973 406.436 135.581C406.747 135.891 407.026 136.206 407.275 136.523C407.537 136.841 407.748 137.155 407.907 137.466L411.553 141.112L409.709 142.956L408.052 141.298ZM392.018 145.421C391.61 145.828 391.513 146.332 391.728 146.933C391.949 147.541 392.432 148.217 393.178 148.963C393.654 149.44 394.1 149.795 394.514 150.03C394.935 150.272 395.322 150.424 395.674 150.486C396.026 150.548 396.344 150.527 396.627 150.424C396.91 150.32 397.155 150.165 397.362 149.958C397.549 149.771 397.663 149.567 397.704 149.346C397.746 149.139 397.732 148.911 397.663 148.663C397.594 148.428 397.476 148.179 397.31 147.917C397.145 147.668 396.941 147.41 396.699 147.14L394.514 144.872C394.175 144.81 393.879 144.775 393.623 144.768C393.374 144.768 393.153 144.789 392.96 144.83C392.767 144.886 392.594 144.962 392.442 145.058C392.297 145.162 392.156 145.283 392.018 145.421ZM400.884 137.404C400.325 137.963 400.042 138.571 400.035 139.227C400.042 139.883 400.338 140.504 400.925 141.091C401.236 141.402 401.557 141.619 401.889 141.744C402.227 141.875 402.559 141.93 402.883 141.909C403.208 141.889 403.522 141.802 403.826 141.65C404.13 141.499 404.406 141.298 404.654 141.05C405.241 140.463 405.531 139.841 405.524 139.185C405.531 138.529 405.241 137.908 404.654 137.321C404.344 137.01 404.019 136.789 403.681 136.658C403.349 136.534 403.018 136.485 402.686 136.513C402.362 136.534 402.044 136.623 401.733 136.782C401.423 136.941 401.14 137.148 400.884 137.404Z" fill="#6563FF"/>
<path d="M718.999 46.5489C718.156 46.1898 717.393 45.7858 716.71 45.337C716.033 44.895 715.391 44.3702 714.783 43.7625C713.809 42.7889 713.088 41.7842 712.618 40.7484C712.163 39.7126 711.959 38.6526 712.007 37.5685C712.062 36.4912 712.373 35.4002 712.939 34.2953C713.519 33.1905 714.365 32.0822 715.477 30.9704C716.616 29.831 717.773 28.9644 718.947 28.3705C720.128 27.7698 721.291 27.4349 722.438 27.3658C723.591 27.2899 724.71 27.4763 725.794 27.9252C726.892 28.374 727.921 29.0783 728.88 30.0382C729.191 30.3489 729.474 30.6459 729.73 30.929C729.992 31.219 730.234 31.5159 730.455 31.8198C730.683 32.1167 730.9 32.4309 731.107 32.7623C731.314 33.0938 731.515 33.4529 731.708 33.8396L729.181 36.3669C728.87 35.5038 728.507 34.7476 728.093 34.0985C727.679 33.4494 727.254 32.9074 726.819 32.4723C726.177 31.8301 725.511 31.3985 724.82 31.1776C724.136 30.9497 723.435 30.8979 722.717 31.0222C722.013 31.1465 721.302 31.4296 720.584 31.8716C719.872 32.3066 719.171 32.8694 718.481 33.5599C717.749 34.2919 717.162 35.0169 716.72 35.7351C716.292 36.4532 716.026 37.161 715.922 37.8585C715.819 38.5559 715.891 39.243 716.14 39.9197C716.395 40.5895 716.841 41.2421 717.476 41.8774C717.704 42.1053 717.97 42.3297 718.274 42.5507C718.591 42.7716 718.919 42.9822 719.258 43.1825C719.61 43.3828 719.966 43.5657 720.325 43.7315C720.698 43.8972 721.05 44.0422 721.381 44.1665L718.999 46.5489ZM735.996 53.9134C735.168 54.742 734.291 55.3842 733.365 55.84C732.447 56.2888 731.522 56.5374 730.589 56.5858C729.657 56.6341 728.735 56.4718 727.824 56.0989C726.912 55.726 726.046 55.1287 725.224 54.307C724.444 53.5267 723.86 52.7153 723.473 51.8729C723.087 51.0304 722.904 50.1707 722.924 49.2937C722.952 48.4098 723.19 47.5156 723.639 46.611C724.095 45.6995 724.775 44.7914 725.68 43.8868C726.515 43.0513 727.392 42.4091 728.311 41.9603C729.236 41.5183 730.161 41.2766 731.087 41.2352C732.019 41.2007 732.937 41.3733 733.842 41.7531C734.753 42.126 735.613 42.7164 736.421 43.5243C737.208 44.3115 737.792 45.1298 738.171 45.9792C738.558 46.8216 738.738 47.6848 738.71 48.5687C738.682 49.4525 738.441 50.3433 737.985 51.241C737.543 52.1387 736.88 53.0295 735.996 53.9134ZM733.303 51.3446C734.394 50.2536 735.005 49.2281 735.137 48.2683C735.282 47.3084 734.954 46.428 734.153 45.627C733.711 45.185 733.248 44.895 732.765 44.7569C732.281 44.6188 731.787 44.6015 731.283 44.7051C730.786 44.8018 730.289 45.0021 729.792 45.3059C729.302 45.6166 728.829 45.9999 728.373 46.4556C727.275 47.5536 726.667 48.6032 726.55 49.6045C726.439 50.5988 726.767 51.4793 727.534 52.2458C727.955 52.667 728.404 52.9501 728.88 53.0951C729.364 53.2332 729.851 53.2505 730.341 53.1469C730.838 53.0364 731.339 52.8258 731.843 52.5151C732.347 52.2043 732.834 51.8142 733.303 51.3446ZM739.114 67.7206L745.971 60.8636C747.124 59.7104 747.273 58.7057 746.416 57.8494C745.988 57.4213 745.405 57.1831 744.666 57.1347C743.934 57.0933 743.054 57.152 742.025 57.3108L735.364 63.971L732.837 61.4437L743.361 50.9199L745.546 53.1055L744.055 54.7213C744.538 54.6661 745.004 54.6419 745.453 54.6488C745.909 54.6626 746.347 54.7282 746.769 54.8456C747.197 54.9561 747.608 55.1253 748.001 55.3532C748.395 55.581 748.785 55.8883 749.172 56.275C749.71 56.8136 750.09 57.373 750.311 57.953C750.539 58.5262 750.625 59.1097 750.57 59.7035C750.522 60.2905 750.335 60.8774 750.011 61.4644C749.7 62.0513 749.265 62.6245 748.706 63.1838L741.641 70.248L739.114 67.7206ZM750.384 78.9901L747.473 76.0795L753.822 61.3815L756.64 64.1989L752.859 72.3507L751.585 74.9298L754.071 73.7283L762.326 69.8854L765.04 72.5992L750.384 78.9901ZM771.4 87.867C771.227 88.0396 770.996 88.2571 770.706 88.5195C770.423 88.7888 770.15 89.034 769.888 89.2549L762.969 82.3358C762.506 82.7984 762.168 83.2749 761.953 83.7652C761.746 84.2624 761.65 84.7595 761.663 85.2567C761.691 85.7539 761.822 86.2442 762.057 86.7276C762.299 87.2178 762.641 87.684 763.082 88.1259C763.593 88.6369 764.177 89.1444 764.833 89.6485C765.503 90.1526 766.242 90.6291 767.05 91.0779L765.04 93.0874C764.695 92.894 764.332 92.6696 763.953 92.4141C763.573 92.1586 763.193 91.8893 762.813 91.6062C762.433 91.3231 762.064 91.0227 761.705 90.705C761.339 90.3943 760.997 90.0801 760.679 89.7625C759.878 88.9614 759.274 88.1294 758.867 87.2662C758.459 86.403 758.256 85.5295 758.256 84.6456C758.263 83.7548 758.477 82.864 758.898 81.9732C759.319 81.0825 759.961 80.2055 760.824 79.3423C761.681 78.486 762.575 77.8266 763.507 77.3639C764.446 76.8944 765.379 76.6251 766.304 76.556C767.236 76.48 768.141 76.6112 769.018 76.9496C769.908 77.288 770.73 77.8335 771.483 78.5862C772.229 79.332 772.771 80.1088 773.109 80.9167C773.454 81.7177 773.613 82.5188 773.586 83.3198C773.558 84.1208 773.358 84.908 772.985 85.6814C772.612 86.4548 772.084 87.1833 771.4 87.867ZM769.194 84.9356C769.615 84.5282 769.922 84.1174 770.116 83.703C770.316 83.2818 770.419 82.8744 770.426 82.4808C770.44 82.0941 770.368 81.7247 770.209 81.3725C770.057 81.0272 769.836 80.7096 769.546 80.4195C768.911 79.7843 768.175 79.477 767.34 79.4977C766.511 79.5115 765.672 79.8671 764.823 80.5646L769.194 84.9356ZM781.033 96.7748C781.44 96.395 781.755 96.0394 781.976 95.708C782.203 95.3834 782.348 95.0727 782.411 94.7757C782.48 94.4857 782.473 94.2164 782.39 93.9678C782.307 93.7192 782.158 93.4879 781.944 93.2738C781.572 92.9009 781.029 92.6696 780.318 92.5798C779.621 92.4901 778.682 92.5591 777.501 92.787L770.841 99.4472L768.251 96.8577L778.775 86.334L781.064 88.6231L779.624 90.2493C780.066 90.1526 780.501 90.1043 780.929 90.1043C781.364 90.1112 781.789 90.1699 782.203 90.2804C782.632 90.3909 783.049 90.5669 783.457 90.8086C783.864 91.0503 784.261 91.3645 784.648 91.7512C785.18 92.2829 785.556 92.8457 785.777 93.4396C786.012 94.0334 786.088 94.648 786.005 95.2833C785.929 95.9255 785.684 96.5849 785.269 97.2617C784.869 97.9384 784.303 98.622 783.571 99.3126L781.033 96.7748ZM796.062 107.309C796.014 107.744 795.893 108.134 795.7 108.479C795.52 108.825 795.292 109.135 795.016 109.412C794.429 109.999 793.808 110.413 793.152 110.655C792.503 110.903 791.84 110.993 791.163 110.924C790.493 110.862 789.82 110.651 789.143 110.292C788.48 109.933 787.838 109.443 787.217 108.821C786.851 108.455 786.547 108.082 786.305 107.703C786.07 107.316 785.922 106.995 785.86 106.739C785.625 106.739 785.394 106.77 785.166 106.832C784.945 106.888 784.745 107.005 784.565 107.185C784.455 107.295 784.372 107.433 784.316 107.599C784.261 107.765 784.24 107.944 784.254 108.138C784.282 108.331 784.341 108.528 784.43 108.728C784.527 108.935 784.665 109.135 784.845 109.329L787.248 111.918C787.793 112.491 788.225 113.068 788.542 113.648C788.874 114.228 789.085 114.798 789.174 115.357C789.264 115.916 789.226 116.452 789.06 116.963C788.908 117.474 788.618 117.943 788.19 118.371C787.7 118.862 787.127 119.214 786.471 119.428C785.815 119.642 785.104 119.683 784.337 119.552C783.571 119.435 782.763 119.138 781.913 118.661C781.064 118.185 780.201 117.508 779.324 116.631C778.474 115.782 777.812 114.981 777.335 114.228C776.859 113.489 776.544 112.802 776.393 112.167C776.248 111.538 776.251 110.962 776.403 110.437C776.548 109.919 776.821 109.46 777.221 109.059C777.463 108.818 777.718 108.624 777.988 108.479C778.257 108.334 778.55 108.227 778.868 108.158C779.179 108.096 779.517 108.069 779.883 108.075C780.249 108.082 780.65 108.124 781.085 108.2C780.94 107.668 780.929 107.16 781.054 106.677C781.185 106.201 781.423 105.79 781.768 105.444C782.003 105.21 782.252 105.023 782.514 104.885C782.783 104.74 783.06 104.623 783.343 104.533C783.633 104.45 783.93 104.388 784.234 104.347C784.537 104.305 784.845 104.274 785.155 104.253C785.155 103.742 785.249 103.221 785.435 102.689C785.635 102.158 786.008 101.619 786.554 101.073C787.141 100.486 787.766 100.069 788.429 99.8201C789.105 99.5715 789.785 99.4783 790.469 99.5404C791.16 99.5957 791.84 99.7994 792.51 100.152C793.193 100.504 793.839 100.984 794.447 101.591C794.757 101.902 795.037 102.216 795.286 102.534C795.548 102.852 795.759 103.166 795.917 103.476L799.563 107.122L797.72 108.966L796.062 107.309ZM780.028 111.431C779.621 111.839 779.524 112.343 779.738 112.944C779.959 113.551 780.443 114.228 781.188 114.974C781.665 115.45 782.11 115.806 782.524 116.041C782.946 116.282 783.332 116.434 783.685 116.496C784.037 116.559 784.354 116.538 784.638 116.434C784.921 116.331 785.166 116.175 785.373 115.968C785.559 115.782 785.673 115.578 785.715 115.357C785.756 115.15 785.742 114.922 785.673 114.673C785.604 114.439 785.487 114.19 785.321 113.928C785.155 113.679 784.952 113.42 784.71 113.151L782.524 110.882C782.186 110.82 781.889 110.786 781.634 110.779C781.385 110.779 781.164 110.8 780.971 110.841C780.777 110.896 780.605 110.972 780.453 111.069C780.308 111.172 780.166 111.293 780.028 111.431ZM788.895 103.414C788.335 103.974 788.052 104.581 788.045 105.237C788.052 105.893 788.349 106.515 788.936 107.102C789.247 107.413 789.568 107.63 789.899 107.754C790.238 107.886 790.569 107.941 790.894 107.92C791.218 107.899 791.532 107.813 791.836 107.661C792.14 107.509 792.416 107.309 792.665 107.06C793.252 106.473 793.542 105.852 793.535 105.196C793.542 104.54 793.252 103.918 792.665 103.331C792.354 103.021 792.03 102.8 791.691 102.669C791.36 102.544 791.028 102.496 790.697 102.524C790.372 102.544 790.055 102.634 789.744 102.793C789.433 102.952 789.15 103.159 788.895 103.414ZM810.75 112.55C810.522 112.778 810.267 112.951 809.984 113.068C809.7 113.185 809.407 113.244 809.103 113.244C808.813 113.244 808.523 113.189 808.233 113.078C807.95 112.961 807.691 112.785 807.456 112.55C807.221 112.315 807.042 112.053 806.918 111.763C806.807 111.473 806.748 111.179 806.742 110.882C806.748 110.586 806.811 110.295 806.928 110.012C807.045 109.729 807.218 109.474 807.446 109.246C807.674 109.018 807.929 108.845 808.212 108.728C808.495 108.611 808.785 108.548 809.082 108.542C809.386 108.542 809.68 108.6 809.963 108.718C810.26 108.835 810.526 109.011 810.76 109.246C810.995 109.481 811.168 109.743 811.278 110.033C811.396 110.316 811.451 110.606 811.444 110.903C811.444 111.207 811.385 111.5 811.268 111.784C811.151 112.067 810.978 112.322 810.75 112.55ZM803.106 114.601L800.133 111.628L802.101 109.66L807.663 115.222L799.108 123.778L802.143 126.813L800.175 128.781L791.215 119.821L793.183 117.853L796.518 121.189L803.106 114.601ZM809.093 137.699L815.95 130.842C817.103 129.689 817.251 128.684 816.395 127.828C815.967 127.4 815.384 127.162 814.645 127.113C813.913 127.072 813.032 127.131 812.003 127.29L805.343 133.95L802.816 131.422L813.34 120.899L815.525 123.084L814.034 124.7C814.517 124.645 814.983 124.621 815.432 124.628C815.888 124.641 816.326 124.707 816.747 124.824C817.175 124.935 817.586 125.104 817.98 125.332C818.374 125.56 818.764 125.867 819.15 126.254C819.689 126.792 820.069 127.352 820.29 127.932C820.518 128.505 820.604 129.088 820.549 129.682C820.5 130.269 820.314 130.856 819.989 131.443C819.679 132.03 819.244 132.603 818.684 133.163L811.62 140.227L809.093 137.699ZM831.052 142.298C831.003 142.733 830.883 143.123 830.689 143.469C830.51 143.814 830.282 144.125 830.006 144.401C829.419 144.988 828.797 145.402 828.141 145.644C827.492 145.893 826.829 145.982 826.152 145.913C825.483 145.851 824.809 145.64 824.133 145.281C823.47 144.922 822.827 144.432 822.206 143.811C821.84 143.445 821.536 143.072 821.295 142.692C821.06 142.305 820.911 141.984 820.849 141.729C820.614 141.729 820.383 141.76 820.155 141.822C819.934 141.877 819.734 141.994 819.554 142.174C819.444 142.284 819.361 142.423 819.306 142.588C819.251 142.754 819.23 142.934 819.244 143.127C819.271 143.32 819.33 143.517 819.42 143.717C819.516 143.924 819.654 144.125 819.834 144.318L822.237 146.908C822.783 147.481 823.214 148.057 823.532 148.637C823.863 149.217 824.074 149.787 824.164 150.346C824.253 150.906 824.215 151.441 824.05 151.952C823.898 152.463 823.608 152.933 823.18 153.361C822.689 153.851 822.116 154.203 821.46 154.417C820.804 154.631 820.093 154.673 819.326 154.541C818.56 154.424 817.752 154.127 816.903 153.651C816.053 153.174 815.19 152.497 814.313 151.62C813.464 150.771 812.801 149.97 812.324 149.217C811.848 148.479 811.534 147.791 811.382 147.156C811.237 146.528 811.24 145.951 811.392 145.426C811.537 144.909 811.81 144.449 812.211 144.049C812.452 143.807 812.708 143.614 812.977 143.469C813.246 143.324 813.54 143.217 813.857 143.148C814.168 143.085 814.507 143.058 814.873 143.065C815.239 143.072 815.639 143.113 816.074 143.189C815.929 142.657 815.919 142.15 816.043 141.666C816.174 141.19 816.412 140.779 816.758 140.434C816.992 140.199 817.241 140.013 817.503 139.875C817.773 139.73 818.049 139.612 818.332 139.522C818.622 139.439 818.919 139.377 819.223 139.336C819.527 139.294 819.834 139.263 820.145 139.243C820.145 138.732 820.238 138.21 820.424 137.679C820.625 137.147 820.998 136.608 821.543 136.063C822.13 135.476 822.755 135.058 823.418 134.809C824.095 134.561 824.775 134.468 825.458 134.53C826.149 134.585 826.829 134.789 827.499 135.141C828.183 135.493 828.828 135.973 829.436 136.581C829.747 136.891 830.026 137.206 830.275 137.523C830.537 137.841 830.748 138.155 830.907 138.466L834.553 142.112L832.709 143.956L831.052 142.298ZM815.018 146.421C814.61 146.828 814.513 147.332 814.728 147.933C814.949 148.541 815.432 149.217 816.178 149.963C816.654 150.44 817.1 150.795 817.514 151.03C817.935 151.272 818.322 151.424 818.674 151.486C819.026 151.548 819.344 151.527 819.627 151.424C819.91 151.32 820.155 151.165 820.362 150.958C820.549 150.771 820.663 150.567 820.704 150.346C820.746 150.139 820.732 149.911 820.663 149.663C820.594 149.428 820.476 149.179 820.31 148.917C820.145 148.668 819.941 148.41 819.699 148.14L817.514 145.872C817.175 145.81 816.879 145.775 816.623 145.768C816.374 145.768 816.153 145.789 815.96 145.83C815.767 145.886 815.594 145.962 815.442 146.058C815.297 146.162 815.156 146.283 815.018 146.421ZM823.884 138.404C823.325 138.963 823.042 139.571 823.035 140.227C823.042 140.883 823.338 141.504 823.925 142.091C824.236 142.402 824.557 142.619 824.889 142.744C825.227 142.875 825.559 142.93 825.883 142.909C826.208 142.889 826.522 142.802 826.826 142.65C827.13 142.499 827.406 142.298 827.654 142.05C828.241 141.463 828.531 140.841 828.524 140.185C828.531 139.529 828.241 138.908 827.654 138.321C827.344 138.01 827.019 137.789 826.681 137.658C826.349 137.534 826.018 137.485 825.686 137.513C825.362 137.534 825.044 137.623 824.733 137.782C824.423 137.941 824.14 138.148 823.884 138.404Z" fill="#6563FF"/>
<path d="M517.718 211.186C517.718 212.67 517.532 214.018 517.161 215.229C516.8 216.439 516.229 217.475 515.447 218.334C514.676 219.184 513.685 219.843 512.474 220.312C511.263 220.771 509.812 221 508.123 221H503.26V201.854H508.929C510.394 201.854 511.673 202.04 512.767 202.411C513.87 202.772 514.788 203.334 515.521 204.096C516.253 204.857 516.8 205.824 517.161 206.996C517.532 208.168 517.718 209.564 517.718 211.186ZM513.851 211.42C513.851 210.385 513.768 209.462 513.602 208.651C513.436 207.841 513.152 207.157 512.752 206.601C512.361 206.034 511.834 205.604 511.17 205.312C510.506 205.019 509.681 204.872 508.694 204.872H506.863V217.982H508.445C510.213 217.982 511.556 217.455 512.474 216.4C513.392 215.346 513.851 213.686 513.851 211.42ZM533.494 212.416C533.494 212.66 533.484 212.978 533.465 213.368C533.455 213.759 533.436 214.125 533.406 214.467H523.621C523.621 215.121 523.719 215.697 523.914 216.195C524.119 216.693 524.402 217.113 524.764 217.455C525.135 217.787 525.574 218.041 526.082 218.217C526.6 218.393 527.171 218.48 527.796 218.48C528.519 218.48 529.29 218.427 530.11 218.319C530.94 218.202 531.8 218.017 532.688 217.763V220.604C532.308 220.712 531.893 220.81 531.443 220.897C530.994 220.985 530.535 221.063 530.066 221.132C529.598 221.2 529.124 221.249 528.646 221.278C528.167 221.317 527.703 221.337 527.254 221.337C526.121 221.337 525.105 221.176 524.207 220.854C523.309 220.531 522.547 220.058 521.922 219.433C521.297 218.798 520.818 218.017 520.486 217.089C520.154 216.161 519.988 215.087 519.988 213.866C519.988 212.655 520.154 211.557 520.486 210.57C520.818 209.574 521.287 208.725 521.893 208.021C522.498 207.309 523.23 206.762 524.09 206.381C524.959 205.99 525.926 205.795 526.99 205.795C528.045 205.795 528.978 205.961 529.788 206.293C530.599 206.615 531.277 207.069 531.824 207.655C532.371 208.241 532.786 208.939 533.069 209.75C533.353 210.561 533.494 211.449 533.494 212.416ZM529.861 211.903C529.871 211.317 529.798 210.81 529.642 210.38C529.485 209.94 529.271 209.579 528.997 209.296C528.733 209.013 528.421 208.803 528.06 208.666C527.708 208.529 527.327 208.461 526.917 208.461C526.019 208.461 525.281 208.764 524.705 209.369C524.129 209.965 523.787 210.81 523.68 211.903H529.861ZM545.345 221H541.229L535.325 206.117H539.31L542.4 214.555L543.323 217.279L544.231 214.672L547.352 206.117H551.189L545.345 221ZM566.482 212.416C566.482 212.66 566.473 212.978 566.453 213.368C566.443 213.759 566.424 214.125 566.395 214.467H556.609C556.609 215.121 556.707 215.697 556.902 216.195C557.107 216.693 557.391 217.113 557.752 217.455C558.123 217.787 558.562 218.041 559.07 218.217C559.588 218.393 560.159 218.48 560.784 218.48C561.507 218.48 562.278 218.427 563.099 218.319C563.929 218.202 564.788 218.017 565.677 217.763V220.604C565.296 220.712 564.881 220.81 564.432 220.897C563.982 220.985 563.523 221.063 563.055 221.132C562.586 221.2 562.112 221.249 561.634 221.278C561.155 221.317 560.691 221.337 560.242 221.337C559.109 221.337 558.094 221.176 557.195 220.854C556.297 220.531 555.535 220.058 554.91 219.433C554.285 218.798 553.807 218.017 553.475 217.089C553.143 216.161 552.977 215.087 552.977 213.866C552.977 212.655 553.143 211.557 553.475 210.57C553.807 209.574 554.275 208.725 554.881 208.021C555.486 207.309 556.219 206.762 557.078 206.381C557.947 205.99 558.914 205.795 559.979 205.795C561.033 205.795 561.966 205.961 562.776 206.293C563.587 206.615 564.266 207.069 564.812 207.655C565.359 208.241 565.774 208.939 566.058 209.75C566.341 210.561 566.482 211.449 566.482 212.416ZM562.85 211.903C562.859 211.317 562.786 210.81 562.63 210.38C562.474 209.94 562.259 209.579 561.985 209.296C561.722 209.013 561.409 208.803 561.048 208.666C560.696 208.529 560.315 208.461 559.905 208.461C559.007 208.461 558.27 208.764 557.693 209.369C557.117 209.965 556.775 210.81 556.668 211.903H562.85ZM574.817 203.085H570.613V200.302H578.479V218.217H582.771V221H570.101V218.217H574.817V203.085ZM599.91 213.441C599.91 214.613 599.744 215.688 599.412 216.664C599.08 217.631 598.602 218.461 597.977 219.154C597.352 219.848 596.585 220.385 595.677 220.766C594.769 221.146 593.733 221.337 592.571 221.337C591.468 221.337 590.481 221.176 589.612 220.854C588.743 220.531 588.006 220.053 587.4 219.418C586.795 218.773 586.331 217.973 586.009 217.016C585.687 216.049 585.525 214.926 585.525 213.646C585.525 212.465 585.691 211.391 586.023 210.424C586.365 209.457 586.849 208.632 587.474 207.948C588.108 207.265 588.88 206.737 589.788 206.366C590.696 205.985 591.722 205.795 592.864 205.795C593.978 205.795 594.969 205.961 595.838 206.293C596.707 206.615 597.444 207.099 598.05 207.743C598.655 208.388 599.114 209.188 599.427 210.146C599.749 211.093 599.91 212.191 599.91 213.441ZM596.189 213.529C596.189 211.986 595.896 210.829 595.311 210.058C594.734 209.276 593.88 208.886 592.747 208.886C592.122 208.886 591.59 209.008 591.15 209.252C590.711 209.496 590.35 209.833 590.066 210.263C589.783 210.683 589.573 211.176 589.437 211.742C589.31 212.309 589.246 212.914 589.246 213.559C589.246 215.111 589.559 216.283 590.184 217.074C590.809 217.855 591.663 218.246 592.747 218.246C593.343 218.246 593.86 218.129 594.3 217.895C594.739 217.65 595.096 217.318 595.369 216.898C595.643 216.469 595.848 215.966 595.984 215.39C596.121 214.813 596.189 214.193 596.189 213.529ZM616.39 213.295C616.39 214.662 616.194 215.844 615.804 216.84C615.423 217.836 614.886 218.666 614.192 219.33C613.509 219.984 612.698 220.473 611.761 220.795C610.823 221.107 609.803 221.264 608.699 221.264C608.328 221.264 607.957 221.239 607.586 221.19C607.215 221.142 606.878 221.078 606.575 221V226.815H603.001V206.117H606.092L606.18 208.314C606.482 207.934 606.795 207.587 607.117 207.274C607.449 206.962 607.806 206.698 608.187 206.483C608.567 206.259 608.978 206.088 609.417 205.971C609.856 205.854 610.35 205.795 610.896 205.795C611.775 205.795 612.557 205.971 613.24 206.322C613.924 206.674 614.495 207.177 614.954 207.831C615.423 208.476 615.779 209.262 616.023 210.189C616.268 211.107 616.39 212.143 616.39 213.295ZM612.64 213.441C612.64 212.621 612.581 211.923 612.464 211.347C612.347 210.771 612.176 210.297 611.951 209.926C611.736 209.555 611.468 209.286 611.146 209.12C610.833 208.944 610.472 208.856 610.062 208.856C609.456 208.856 608.875 209.101 608.318 209.589C607.771 210.077 607.19 210.741 606.575 211.581V218.085C606.858 218.192 607.205 218.28 607.615 218.349C608.035 218.417 608.46 218.451 608.89 218.451C609.456 218.451 609.969 218.334 610.428 218.1C610.896 217.865 611.292 217.533 611.614 217.104C611.946 216.674 612.2 216.151 612.376 215.536C612.552 214.911 612.64 214.213 612.64 213.441Z" fill="#EF496F"/>
<path d="M256.718 211.186C256.718 212.67 256.532 214.018 256.161 215.229C255.8 216.439 255.229 217.475 254.447 218.334C253.676 219.184 252.685 219.843 251.474 220.312C250.263 220.771 248.812 221 247.123 221H242.26V201.854H247.929C249.394 201.854 250.673 202.04 251.767 202.411C252.87 202.772 253.788 203.334 254.521 204.096C255.253 204.857 255.8 205.824 256.161 206.996C256.532 208.168 256.718 209.564 256.718 211.186ZM252.851 211.42C252.851 210.385 252.768 209.462 252.602 208.651C252.436 207.841 252.152 207.157 251.752 206.601C251.361 206.034 250.834 205.604 250.17 205.312C249.506 205.019 248.681 204.872 247.694 204.872H245.863V217.982H247.445C249.213 217.982 250.556 217.455 251.474 216.4C252.392 215.346 252.851 213.686 252.851 211.42ZM268.29 202.045C268.29 202.367 268.231 202.67 268.114 202.953C267.997 203.236 267.831 203.485 267.616 203.7C267.411 203.905 267.167 204.071 266.884 204.198C266.601 204.315 266.293 204.374 265.961 204.374C265.629 204.374 265.316 204.315 265.023 204.198C264.74 204.071 264.491 203.905 264.276 203.7C264.071 203.485 263.91 203.236 263.793 202.953C263.676 202.67 263.617 202.367 263.617 202.045C263.617 201.723 263.676 201.42 263.793 201.137C263.91 200.854 264.071 200.604 264.276 200.39C264.491 200.175 264.74 200.009 265.023 199.892C265.316 199.765 265.629 199.701 265.961 199.701C266.293 199.701 266.601 199.765 266.884 199.892C267.167 200.009 267.411 200.175 267.616 200.39C267.831 200.604 267.997 200.854 268.114 201.137C268.231 201.42 268.29 201.723 268.29 202.045ZM264.335 208.9H260.131V206.117H267.997V218.217H272.289V221H259.618V218.217H264.335V208.9ZM288.3 216.62C288.3 217.47 288.109 218.197 287.729 218.803C287.357 219.398 286.859 219.887 286.234 220.268C285.619 220.639 284.916 220.907 284.125 221.073C283.344 221.249 282.543 221.337 281.723 221.337C280.629 221.337 279.643 221.283 278.764 221.176C277.885 221.078 277.055 220.932 276.273 220.736V217.514C277.191 217.895 278.104 218.173 279.013 218.349C279.931 218.515 280.795 218.598 281.605 218.598C282.543 218.598 283.241 218.451 283.7 218.158C284.169 217.855 284.403 217.465 284.403 216.986C284.403 216.762 284.354 216.557 284.257 216.371C284.159 216.186 283.974 216.01 283.7 215.844C283.437 215.668 283.061 215.492 282.572 215.316C282.084 215.131 281.444 214.926 280.653 214.701C279.921 214.496 279.276 214.267 278.72 214.013C278.173 213.749 277.719 213.441 277.357 213.09C276.996 212.738 276.723 212.333 276.537 211.874C276.361 211.405 276.273 210.858 276.273 210.233C276.273 209.628 276.41 209.057 276.684 208.52C276.957 207.982 277.362 207.514 277.899 207.113C278.446 206.703 279.125 206.381 279.936 206.146C280.746 205.912 281.693 205.795 282.777 205.795C283.715 205.795 284.545 205.844 285.268 205.941C285.99 206.039 286.63 206.146 287.187 206.264V209.179C286.337 208.905 285.536 208.715 284.784 208.607C284.042 208.49 283.305 208.432 282.572 208.432C281.84 208.432 281.249 208.563 280.8 208.827C280.36 209.091 280.141 209.457 280.141 209.926C280.141 210.15 280.185 210.351 280.272 210.526C280.36 210.702 280.531 210.873 280.785 211.039C281.049 211.205 281.41 211.381 281.869 211.566C282.338 211.742 282.953 211.938 283.715 212.152C284.574 212.396 285.297 212.66 285.883 212.943C286.469 213.217 286.938 213.529 287.289 213.881C287.65 214.232 287.909 214.633 288.065 215.082C288.222 215.531 288.3 216.044 288.3 216.62ZM304.56 220.429C303.856 220.712 303.129 220.922 302.377 221.059C301.625 221.195 300.839 221.264 300.019 221.264C298.837 221.264 297.777 221.103 296.84 220.78C295.902 220.458 295.106 219.979 294.452 219.345C293.798 218.71 293.295 217.924 292.943 216.986C292.602 216.049 292.431 214.965 292.431 213.734C292.431 212.543 292.616 211.464 292.987 210.497C293.368 209.53 293.9 208.705 294.584 208.021C295.268 207.338 296.088 206.811 297.045 206.439C298.012 206.068 299.086 205.883 300.268 205.883C301.234 205.883 302.045 205.937 302.699 206.044C303.363 206.142 303.959 206.269 304.486 206.425V209.896C303.881 209.594 303.222 209.359 302.509 209.193C301.806 209.027 301.137 208.944 300.502 208.944C299.838 208.944 299.242 209.057 298.715 209.281C298.188 209.506 297.743 209.818 297.382 210.219C297.021 210.619 296.742 211.107 296.547 211.684C296.361 212.25 296.269 212.875 296.269 213.559C296.269 214.271 296.371 214.911 296.576 215.478C296.781 216.044 297.069 216.527 297.44 216.928C297.821 217.318 298.275 217.621 298.803 217.836C299.33 218.041 299.916 218.144 300.561 218.144C300.873 218.144 301.2 218.124 301.542 218.085C301.894 218.036 302.24 217.973 302.582 217.895C302.934 217.807 303.275 217.709 303.607 217.602C303.949 217.494 304.267 217.377 304.56 217.25V220.429ZM322.416 213.441C322.416 214.613 322.25 215.688 321.918 216.664C321.586 217.631 321.107 218.461 320.482 219.154C319.857 219.848 319.091 220.385 318.183 220.766C317.274 221.146 316.239 221.337 315.077 221.337C313.974 221.337 312.987 221.176 312.118 220.854C311.249 220.531 310.512 220.053 309.906 219.418C309.301 218.773 308.837 217.973 308.515 217.016C308.192 216.049 308.031 214.926 308.031 213.646C308.031 212.465 308.197 211.391 308.529 210.424C308.871 209.457 309.354 208.632 309.979 207.948C310.614 207.265 311.386 206.737 312.294 206.366C313.202 205.985 314.228 205.795 315.37 205.795C316.483 205.795 317.475 205.961 318.344 206.293C319.213 206.615 319.95 207.099 320.556 207.743C321.161 208.388 321.62 209.188 321.933 210.146C322.255 211.093 322.416 212.191 322.416 213.441ZM318.695 213.529C318.695 211.986 318.402 210.829 317.816 210.058C317.24 209.276 316.386 208.886 315.253 208.886C314.628 208.886 314.096 209.008 313.656 209.252C313.217 209.496 312.855 209.833 312.572 210.263C312.289 210.683 312.079 211.176 311.942 211.742C311.815 212.309 311.752 212.914 311.752 213.559C311.752 215.111 312.064 216.283 312.689 217.074C313.314 217.855 314.169 218.246 315.253 218.246C315.849 218.246 316.366 218.129 316.806 217.895C317.245 217.65 317.602 217.318 317.875 216.898C318.148 216.469 318.354 215.966 318.49 215.39C318.627 214.813 318.695 214.193 318.695 213.529ZM333.827 221H329.711L323.808 206.117H327.792L330.883 214.555L331.806 217.279L332.714 214.672L335.834 206.117H339.672L333.827 221ZM354.965 212.416C354.965 212.66 354.955 212.978 354.936 213.368C354.926 213.759 354.906 214.125 354.877 214.467H345.092C345.092 215.121 345.189 215.697 345.385 216.195C345.59 216.693 345.873 217.113 346.234 217.455C346.605 217.787 347.045 218.041 347.553 218.217C348.07 218.393 348.642 218.48 349.267 218.48C349.989 218.48 350.761 218.427 351.581 218.319C352.411 218.202 353.271 218.017 354.159 217.763V220.604C353.778 220.712 353.363 220.81 352.914 220.897C352.465 220.985 352.006 221.063 351.537 221.132C351.068 221.2 350.595 221.249 350.116 221.278C349.638 221.317 349.174 221.337 348.725 221.337C347.592 221.337 346.576 221.176 345.678 220.854C344.779 220.531 344.018 220.058 343.393 219.433C342.768 218.798 342.289 218.017 341.957 217.089C341.625 216.161 341.459 215.087 341.459 213.866C341.459 212.655 341.625 211.557 341.957 210.57C342.289 209.574 342.758 208.725 343.363 208.021C343.969 207.309 344.701 206.762 345.561 206.381C346.43 205.99 347.396 205.795 348.461 205.795C349.516 205.795 350.448 205.961 351.259 206.293C352.069 206.615 352.748 207.069 353.295 207.655C353.842 208.241 354.257 208.939 354.54 209.75C354.823 210.561 354.965 211.449 354.965 212.416ZM351.332 211.903C351.342 211.317 351.269 210.81 351.112 210.38C350.956 209.94 350.741 209.579 350.468 209.296C350.204 209.013 349.892 208.803 349.53 208.666C349.179 208.529 348.798 208.461 348.388 208.461C347.489 208.461 346.752 208.764 346.176 209.369C345.6 209.965 345.258 210.81 345.15 211.903H351.332ZM368.075 211.903C368.095 211.347 368.065 210.873 367.987 210.482C367.919 210.092 367.802 209.77 367.636 209.516C367.479 209.262 367.284 209.076 367.05 208.959C366.815 208.842 366.547 208.783 366.244 208.783C365.717 208.783 365.17 209.003 364.604 209.442C364.047 209.872 363.432 210.585 362.758 211.581V221H359.096V206.117H362.333L362.465 208.285C362.709 207.904 362.982 207.562 363.285 207.26C363.598 206.957 363.939 206.698 364.311 206.483C364.691 206.259 365.111 206.088 365.57 205.971C366.029 205.854 366.532 205.795 367.079 205.795C367.831 205.795 368.495 205.927 369.071 206.19C369.657 206.444 370.146 206.825 370.536 207.333C370.937 207.841 371.229 208.48 371.415 209.252C371.61 210.014 371.693 210.897 371.664 211.903H368.075Z" fill="#EF496F"/>
<path d="M683.718 211.186C683.718 212.67 683.532 214.018 683.161 215.229C682.8 216.439 682.229 217.475 681.447 218.334C680.676 219.184 679.685 219.843 678.474 220.312C677.263 220.771 675.812 221 674.123 221H669.26V201.854H674.929C676.394 201.854 677.673 202.04 678.767 202.411C679.87 202.772 680.788 203.334 681.521 204.096C682.253 204.857 682.8 205.824 683.161 206.996C683.532 208.168 683.718 209.564 683.718 211.186ZM679.851 211.42C679.851 210.385 679.768 209.462 679.602 208.651C679.436 207.841 679.152 207.157 678.752 206.601C678.361 206.034 677.834 205.604 677.17 205.312C676.506 205.019 675.681 204.872 674.694 204.872H672.863V217.982H674.445C676.213 217.982 677.556 217.455 678.474 216.4C679.392 215.346 679.851 213.686 679.851 211.42ZM699.494 212.416C699.494 212.66 699.484 212.978 699.465 213.368C699.455 213.759 699.436 214.125 699.406 214.467H689.621C689.621 215.121 689.719 215.697 689.914 216.195C690.119 216.693 690.402 217.113 690.764 217.455C691.135 217.787 691.574 218.041 692.082 218.217C692.6 218.393 693.171 218.48 693.796 218.48C694.519 218.48 695.29 218.427 696.11 218.319C696.94 218.202 697.8 218.017 698.688 217.763V220.604C698.308 220.712 697.893 220.81 697.443 220.897C696.994 220.985 696.535 221.063 696.066 221.132C695.598 221.2 695.124 221.249 694.646 221.278C694.167 221.317 693.703 221.337 693.254 221.337C692.121 221.337 691.105 221.176 690.207 220.854C689.309 220.531 688.547 220.058 687.922 219.433C687.297 218.798 686.818 218.017 686.486 217.089C686.154 216.161 685.988 215.087 685.988 213.866C685.988 212.655 686.154 211.557 686.486 210.57C686.818 209.574 687.287 208.725 687.893 208.021C688.498 207.309 689.23 206.762 690.09 206.381C690.959 205.99 691.926 205.795 692.99 205.795C694.045 205.795 694.978 205.961 695.788 206.293C696.599 206.615 697.277 207.069 697.824 207.655C698.371 208.241 698.786 208.939 699.069 209.75C699.353 210.561 699.494 211.449 699.494 212.416ZM695.861 211.903C695.871 211.317 695.798 210.81 695.642 210.38C695.485 209.94 695.271 209.579 694.997 209.296C694.733 209.013 694.421 208.803 694.06 208.666C693.708 208.529 693.327 208.461 692.917 208.461C692.019 208.461 691.281 208.764 690.705 209.369C690.129 209.965 689.787 210.81 689.68 211.903H695.861ZM707.829 203.085H703.625V200.302H711.491V218.217H715.783V221H703.112V218.217H707.829V203.085ZM728.278 202.045C728.278 202.367 728.22 202.67 728.103 202.953C727.985 203.236 727.819 203.485 727.604 203.7C727.399 203.905 727.155 204.071 726.872 204.198C726.589 204.315 726.281 204.374 725.949 204.374C725.617 204.374 725.305 204.315 725.012 204.198C724.729 204.071 724.479 203.905 724.265 203.7C724.06 203.485 723.898 203.236 723.781 202.953C723.664 202.67 723.605 202.367 723.605 202.045C723.605 201.723 723.664 201.42 723.781 201.137C723.898 200.854 724.06 200.604 724.265 200.39C724.479 200.175 724.729 200.009 725.012 199.892C725.305 199.765 725.617 199.701 725.949 199.701C726.281 199.701 726.589 199.765 726.872 199.892C727.155 200.009 727.399 200.175 727.604 200.39C727.819 200.604 727.985 200.854 728.103 201.137C728.22 201.42 728.278 201.723 728.278 202.045ZM724.323 208.9H720.119V206.117H727.985V218.217H732.277V221H719.606V218.217H724.323V208.9ZM744.333 221H740.217L734.313 206.117H738.298L741.389 214.555L742.312 217.279L743.22 214.672L746.34 206.117H750.178L744.333 221ZM765.471 212.416C765.471 212.66 765.461 212.978 765.441 213.368C765.432 213.759 765.412 214.125 765.383 214.467H755.598C755.598 215.121 755.695 215.697 755.891 216.195C756.096 216.693 756.379 217.113 756.74 217.455C757.111 217.787 757.551 218.041 758.059 218.217C758.576 218.393 759.147 218.48 759.772 218.48C760.495 218.48 761.267 218.427 762.087 218.319C762.917 218.202 763.776 218.017 764.665 217.763V220.604C764.284 220.712 763.869 220.81 763.42 220.897C762.971 220.985 762.512 221.063 762.043 221.132C761.574 221.2 761.101 221.249 760.622 221.278C760.144 221.317 759.68 221.337 759.23 221.337C758.098 221.337 757.082 221.176 756.184 220.854C755.285 220.531 754.523 220.058 753.898 219.433C753.273 218.798 752.795 218.017 752.463 217.089C752.131 216.161 751.965 215.087 751.965 213.866C751.965 212.655 752.131 211.557 752.463 210.57C752.795 209.574 753.264 208.725 753.869 208.021C754.475 207.309 755.207 206.762 756.066 206.381C756.936 205.99 757.902 205.795 758.967 205.795C760.021 205.795 760.954 205.961 761.765 206.293C762.575 206.615 763.254 207.069 763.801 207.655C764.348 208.241 764.763 208.939 765.046 209.75C765.329 210.561 765.471 211.449 765.471 212.416ZM761.838 211.903C761.848 211.317 761.774 210.81 761.618 210.38C761.462 209.94 761.247 209.579 760.974 209.296C760.71 209.013 760.397 208.803 760.036 208.666C759.685 208.529 759.304 208.461 758.894 208.461C757.995 208.461 757.258 208.764 756.682 209.369C756.105 209.965 755.764 210.81 755.656 211.903H761.838ZM778.581 211.903C778.601 211.347 778.571 210.873 778.493 210.482C778.425 210.092 778.308 209.77 778.142 209.516C777.985 209.262 777.79 209.076 777.556 208.959C777.321 208.842 777.053 208.783 776.75 208.783C776.223 208.783 775.676 209.003 775.109 209.442C774.553 209.872 773.938 210.585 773.264 211.581V221H769.602V206.117H772.839L772.971 208.285C773.215 207.904 773.488 207.562 773.791 207.26C774.104 206.957 774.445 206.698 774.816 206.483C775.197 206.259 775.617 206.088 776.076 205.971C776.535 205.854 777.038 205.795 777.585 205.795C778.337 205.795 779.001 205.927 779.577 206.19C780.163 206.444 780.651 206.825 781.042 207.333C781.442 207.841 781.735 208.48 781.921 209.252C782.116 210.014 782.199 210.897 782.17 211.903H778.581Z" fill="#EF496F"/>
<path d="M214 428L422.343 219.657C425.467 216.533 425.467 211.467 422.343 208.343L219.657 5.65685C216.533 2.53266 211.467 2.53266 208.343 5.65685L5.65685 208.343C2.53266 211.467 2.53266 216.533 5.65685 219.657L214 428ZM214 428L213.985 5.01135" stroke="#BD2859" stroke-width="5"/>
<path d="M642 428L850.343 219.657C853.467 216.533 853.467 211.467 850.343 208.343L647.657 5.65685C644.533 2.53266 639.467 2.53266 636.343 5.65685L433.657 208.343C430.533 211.467 430.533 216.533 433.657 219.657L642 428ZM642 428L641.985 5.01135" stroke="#EF496F" stroke-width="5"/>
</svg>
