<svg width="64" height="64" viewBox="0 0 64 64" fill="none" xmlns="http://www.w3.org/2000/svg">
<path d="M34.6664 7.99984C45.0664 7.99984 53.333 16.2665 53.333 26.6665C53.333 34.1332 49.0664 40.5332 42.6664 43.4665V55.9998H23.9997V47.9998H21.333C18.3997 47.9998 15.9997 45.5998 15.9997 42.6665V34.6665H11.9997C10.933 34.6665 10.133 33.3332 10.933 32.5332L15.9997 25.8665C16.533 15.7332 24.533 7.99984 34.6664 7.99984ZM34.6664 2.6665C22.3997 2.6665 12.2664 11.7332 10.933 23.7332L6.66638 29.3332C5.06638 31.4665 5.06638 34.1332 6.13305 36.2665C7.19972 38.1332 8.79972 39.4665 10.6664 39.7332V42.6665C10.6664 47.7332 14.133 51.7332 18.6664 53.0665V61.3332H47.9997V46.6665C54.6664 42.1332 58.6664 34.9332 58.6664 26.6665C58.6664 13.3332 47.9997 2.6665 34.6664 2.6665ZM26.6664 26.6665C25.0664 26.6665 23.9997 25.5998 23.9997 23.9998C23.9997 22.3998 25.0664 21.3332 26.6664 21.3332C28.2664 21.3332 29.333 22.3998 29.333 23.9998C29.333 25.5998 28.2664 26.6665 26.6664 26.6665ZM34.6664 26.6665C33.0664 26.6665 31.9997 25.5998 31.9997 23.9998C31.9997 22.3998 33.0664 21.3332 34.6664 21.3332C36.2664 21.3332 37.333 22.3998 37.333 23.9998C37.333 25.5998 36.2664 26.6665 34.6664 26.6665ZM42.6664 26.6665C41.333 26.6665 39.9997 25.5998 39.9997 23.9998C39.9997 22.3998 41.333 21.3332 42.6664 21.3332C43.9997 21.3332 45.333 22.3998 45.333 23.9998C45.333 25.5998 43.9997 26.6665 42.6664 26.6665Z" fill="#ED4C71"/>
</svg>
