<svg width="64" height="64" viewBox="0 0 64 64" fill="none" xmlns="http://www.w3.org/2000/svg">
<path d="M21.7867 6H46.4001C48.1787 6 49.9627 6.29067 51.2081 7.58133C52.4347 8.856 52.6667 10.6213 52.6667 12.2667V43.7333C52.6667 45.1813 52.4747 46.6053 51.7334 47.7573C51.3057 48.4218 50.707 48.9588 50.0001 49.312V51.7333C50.0001 53.5093 49.7121 55.2933 48.4241 56.5387C47.1494 57.7707 45.3841 58 43.7387 58H15.3334C14.2725 58 13.2551 57.5786 12.505 56.8284C11.7548 56.0783 11.3334 55.0609 11.3334 54V16.0453C11.3254 14.7173 11.3174 13.0587 11.6801 11.5467C12.1254 9.70133 13.1521 7.912 15.3361 6.8C16.2374 6.34133 17.1867 6.16 18.2001 6.08C19.1734 6 20.3601 6 21.7867 6ZM15.3334 54H43.7387C45.1974 54 45.5601 53.744 45.6427 53.664C45.7094 53.6 46.0001 53.2507 46.0001 51.7333V50H19.3334C18.2725 50 17.2551 50.4214 16.505 51.1716C15.7548 51.9217 15.3334 52.9391 15.3334 54Z" fill="#EF496F"/>
</svg>
