<svg width="64" height="64" viewBox="0 0 64 64" fill="none" xmlns="http://www.w3.org/2000/svg">
<path d="M16 58.6668V47.2002C13.4667 44.8891 11.5004 42.1895 10.1013 39.1015C8.70222 36.0135 8.00178 32.7575 8 29.3335C8 22.6668 10.3333 17.0002 15 12.3335C19.6667 7.66683 25.3333 5.3335 32 5.3335C37.5556 5.3335 42.4782 6.96727 46.768 10.2348C51.0578 13.5024 53.8462 17.7575 55.1333 23.0002L58.6 36.6668C58.8222 37.5113 58.6667 38.2784 58.1333 38.9682C57.6 39.6579 56.8889 40.0019 56 40.0002H50.6667V48.0002C50.6667 49.4668 50.1449 50.7228 49.1013 51.7682C48.0578 52.8135 46.8018 53.3353 45.3333 53.3335H40V58.6668H16ZM25.3333 40.0002C27.2 40.0002 28.7778 39.3557 30.0667 38.0668L40.7333 27.4002C42.0222 26.1113 42.6667 24.5335 42.6667 22.6668C42.6667 20.8002 42.0222 19.2224 40.7333 17.9335C39.4444 16.6446 37.8667 16.0002 36 16.0002C34.1333 16.0002 32.5556 16.6446 31.2667 17.9335C29.6222 17.3557 28 17.2224 26.4 17.5335C24.8 17.8446 23.4444 18.5557 22.3333 19.6668C21.2222 20.7779 20.5111 22.1335 20.2 23.7335C19.8889 25.3335 20.0222 26.9557 20.6 28.6002C19.3111 29.8891 18.6667 31.4668 18.6667 33.3335C18.6667 35.2002 19.3111 36.7779 20.6 38.0668C21.8889 39.3557 23.4667 40.0002 25.3333 40.0002Z" fill="#EF496F"/>
</svg>
