<svg width="64" height="64" viewBox="0 0 64 64" fill="none" xmlns="http://www.w3.org/2000/svg">
<path d="M46.4373 27.7707C48 26.208 48 23.696 48 18.6667C48 13.6373 48 11.1253 46.4373 9.56267M46.4373 27.7707C44.8747 29.3333 42.3627 29.3333 37.3333 29.3333H26.6667C21.6373 29.3333 19.1253 29.3333 17.5627 27.7707M46.4373 9.56267C44.8747 8 42.3627 8 37.3333 8H26.6667C21.6373 8 19.1253 8 17.5627 9.56267M17.5627 9.56267C16 11.1253 16 13.6373 16 18.6667C16 23.696 16 26.208 17.5627 27.7707M34.6667 18.6667C34.6667 19.3739 34.3857 20.0522 33.8856 20.5523C33.3855 21.0524 32.7072 21.3333 32 21.3333C31.2928 21.3333 30.6145 21.0524 30.1144 20.5523C29.6143 20.0522 29.3333 19.3739 29.3333 18.6667C29.3333 17.9594 29.6143 17.2811 30.1144 16.781C30.6145 16.281 31.2928 16 32 16C32.7072 16 33.3855 16.281 33.8856 16.781C34.3857 17.2811 34.6667 17.9594 34.6667 18.6667Z" stroke="#ED4C71" stroke-width="4"/>
<path d="M47.9997 16C45.8779 16 43.8431 15.1571 42.3428 13.6569C40.8425 12.1566 39.9997 10.1217 39.9997 8M47.9997 21.3333C45.8779 21.3333 43.8431 22.1762 42.3428 23.6765C40.8425 25.1768 39.9997 27.2116 39.9997 29.3333M15.9997 16C18.1214 16 20.1562 15.1571 21.6565 13.6569C23.1568 12.1566 23.9997 10.1217 23.9997 8M15.9997 21.3333C18.1214 21.3333 20.1562 22.1762 21.6565 23.6765C23.1568 25.1768 23.9997 27.2116 23.9997 29.3333M13.333 54.368H19.3597C22.053 54.368 24.781 54.6507 27.4023 55.1893C32.0827 56.1479 36.8975 56.2545 41.6157 55.504C43.9303 55.1307 46.2023 54.5573 48.261 53.5653C50.117 52.6667 52.3917 51.4053 53.9197 49.9893C55.445 48.576 57.0343 46.264 58.1597 44.456C59.1303 42.904 58.661 41.0027 57.1303 39.848C56.2697 39.2235 55.2337 38.8872 54.1703 38.8872C53.107 38.8872 52.071 39.2235 51.2103 39.848L46.3917 43.488C44.525 44.9013 42.485 46.2 40.0557 46.5867C39.7623 46.6329 39.4557 46.6747 39.1357 46.712M39.1357 46.712L38.8423 46.744M39.1357 46.712C39.5624 46.5964 39.9537 46.3764 40.2743 46.072C40.6768 45.7248 41.0055 45.3003 41.241 44.8238C41.4765 44.3473 41.614 43.8283 41.6453 43.2977C41.6767 42.7671 41.6012 42.2356 41.4234 41.7346C41.2456 41.2337 40.9692 40.7735 40.6103 40.3813C40.2628 39.9956 39.8581 39.6655 39.4103 39.4027C31.9517 34.952 20.3437 38.3413 13.333 43.3147M39.1357 46.712C39.0394 46.7335 38.941 46.7442 38.8423 46.744M38.8423 46.744C37.2341 46.9052 35.6139 46.9088 34.005 46.7547" stroke="#ED4C71" stroke-width="4" stroke-linecap="round"/>
<path d="M13.333 41.3335C13.333 39.1244 11.5421 37.3335 9.33301 37.3335C7.12387 37.3335 5.33301 39.1244 5.33301 41.3335V54.6668C5.33301 56.876 7.12387 58.6668 9.33301 58.6668C11.5421 58.6668 13.333 56.876 13.333 54.6668V41.3335Z" stroke="#ED4C71" stroke-width="4"/>
</svg>
