<svg width="64" height="64" viewBox="0 0 64 64" fill="none" xmlns="http://www.w3.org/2000/svg">
<path d="M32 8C32.6531 8.00009 33.2835 8.23988 33.7716 8.67391C34.2597 9.10793 34.5715 9.706 34.648 10.3547L34.6666 10.6667V13.3333H38.6666C43.9139 13.3347 48.9506 15.3982 52.6904 19.0789C56.4303 22.7596 58.5739 27.7627 58.6589 33.0093C58.7439 38.2559 56.7636 43.3258 53.1449 47.1258C49.5263 50.9257 44.5591 53.1513 39.3146 53.3227L38.6666 53.3333H25.3333C20.086 53.332 15.0494 51.2685 11.3095 47.5878C7.56958 43.9071 5.42603 38.904 5.34101 33.6574C5.25599 28.4107 7.23632 23.3409 10.855 19.5409C14.4737 15.7409 19.4408 13.5153 24.6853 13.344L25.3333 13.3333H29.3333V10.6667C29.3333 9.95942 29.6142 9.28115 30.1143 8.78105C30.6144 8.28095 31.2927 8 32 8ZM41.3333 26.6667C40.626 26.6667 39.9478 26.9476 39.4477 27.4477C38.9476 27.9478 38.6666 28.6261 38.6666 29.3333V30.6667H37.3333C36.626 30.6667 35.9478 30.9476 35.4477 31.4477C34.9476 31.9478 34.6666 32.6261 34.6666 33.3333C34.6666 34.0406 34.9476 34.7189 35.4477 35.219C35.9478 35.719 36.626 36 37.3333 36H38.6666V37.3333C38.6666 38.0406 38.9476 38.7189 39.4477 39.219C39.9478 39.719 40.626 40 41.3333 40C42.0405 40 42.7188 39.719 43.2189 39.219C43.719 38.7189 44 38.0406 44 37.3333V36H45.3333C46.0405 36 46.7188 35.719 47.2189 35.219C47.719 34.7189 48 34.0406 48 33.3333C48 32.6261 47.719 31.9478 47.2189 31.4477C46.7188 30.9476 46.0405 30.6667 45.3333 30.6667H44V29.3333C44 28.6261 43.719 27.9478 43.2189 27.4477C42.7188 26.9476 42.0405 26.6667 41.3333 26.6667ZM22.6666 26.6667C20.8985 26.6667 19.2028 27.369 17.9526 28.6193C16.7023 29.8695 16 31.5652 16 33.3333C16 35.1014 16.7023 36.7971 17.9526 38.0474C19.2028 39.2976 20.8985 40 22.6666 40C24.4347 40 26.1304 39.2976 27.3807 38.0474C28.6309 36.7971 29.3333 35.1014 29.3333 33.3333C29.3333 31.5652 28.6309 29.8695 27.3807 28.6193C26.1304 27.369 24.4347 26.6667 22.6666 26.6667ZM22.6666 32C23.0202 32 23.3594 32.1405 23.6094 32.3905C23.8595 32.6406 24 32.9797 24 33.3333C24 33.687 23.8595 34.0261 23.6094 34.2761C23.3594 34.5262 23.0202 34.6667 22.6666 34.6667C22.313 34.6667 21.9739 34.5262 21.7238 34.2761C21.4738 34.0261 21.3333 33.687 21.3333 33.3333C21.3333 32.9797 21.4738 32.6406 21.7238 32.3905C21.9739 32.1405 22.313 32 22.6666 32Z" fill="#EF496F"/>
</svg>
