<svg width="64" height="64" viewBox="0 0 64 64" fill="none" xmlns="http://www.w3.org/2000/svg">
<path d="M57.8938 23.2271C61.2271 19.8938 59.7071 16.0005 57.8938 14.1071L49.8938 6.10713C46.5338 2.7738 42.6671 4.2938 40.7738 6.10713L36.2405 10.6671H29.3338C24.2671 10.6671 21.3338 13.3338 19.8405 16.4005L8.00046 28.2405V38.9071L6.10713 40.7738C2.7738 44.1338 4.2938 48.0005 6.10713 49.8938L14.1071 57.8938C15.5471 59.3338 17.0938 59.8671 18.5605 59.8671C20.4538 59.8671 22.1871 58.9338 23.2271 57.8938L30.4271 50.6671H40.0005C44.5338 50.6671 46.8271 47.8405 47.6538 45.0671C50.6671 44.2671 52.3205 41.9738 52.9871 39.7338C57.1205 38.6671 58.6671 34.7471 58.6671 32.0005V24.0005H57.0938L57.8938 23.2271ZM53.3338 32.0005C53.3338 33.2005 52.8271 34.6671 50.6671 34.6671H48.0005V37.3338C48.0005 38.5338 47.4938 40.0005 45.3338 40.0005H42.6671V42.6671C42.6671 43.8671 42.1605 45.3338 40.0005 45.3338H28.2405L19.4938 54.0805C18.6671 54.8538 18.1871 54.4005 17.8938 54.1071L9.92046 46.1605C9.14713 45.3338 9.60046 44.8538 9.89379 44.5605L13.3338 41.0938V30.4271L18.6671 25.0938V29.3338C18.6671 32.5605 20.8005 37.3338 26.6671 37.3338C32.5338 37.3338 34.6671 32.5605 34.6671 29.3338H53.3338V32.0005ZM54.1071 19.4405L49.5738 24.0005H29.3338V29.3338C29.3338 30.5338 28.8271 32.0005 26.6671 32.0005C24.5071 32.0005 24.0005 30.5338 24.0005 29.3338V21.3338C24.0005 20.1071 24.4538 16.0005 29.3338 16.0005H38.4271L44.5071 9.92046C45.3338 9.14713 45.8138 9.60046 46.1071 9.89379L54.0805 17.8405C54.8538 18.6671 54.4005 19.1471 54.1071 19.4405Z" fill="#EF496F"/>
</svg>
