<svg width="64" height="64" viewBox="0 0 64 64" fill="none" xmlns="http://www.w3.org/2000/svg">
<path d="M18.6665 12.8808C18.6665 17.0061 23.2692 21.3554 27.0665 24.2408C29.1972 25.8568 30.2612 26.6674 31.9998 26.6674C33.7385 26.6674 34.8025 25.8568 36.9332 24.2408C40.7305 21.3528 45.3332 17.0034 45.3332 12.8808C45.3332 5.44077 37.9998 2.65944 31.9998 8.40877C25.9998 2.65944 18.6665 5.44077 18.6665 12.8808ZM16.6932 57.0354H15.9998C13.4852 57.0354 12.2292 57.0354 11.4478 56.2541C10.6665 55.4781 10.6665 54.2194 10.6665 51.7048V48.7394C10.6665 47.3581 10.6665 46.6674 11.0212 46.0488C11.3758 45.4301 11.9118 45.1208 12.9838 44.4968C20.0398 40.3928 30.0585 38.0834 36.7438 42.0701C37.1936 42.3386 37.5936 42.6657 37.9438 43.0514C38.3027 43.4436 38.5791 43.9038 38.7569 44.4047C38.9347 44.9057 39.0101 45.4372 38.9788 45.9678C38.9475 46.4984 38.81 47.0174 38.5745 47.4939C38.339 47.9705 38.0103 48.3949 37.6078 48.7421C37.2872 49.0465 36.8959 49.2665 36.4692 49.3821C36.7892 49.3448 37.0958 49.303 37.3892 49.2568C39.8185 48.8701 41.8585 47.5688 43.7252 46.1581L48.5465 42.5181C49.4071 41.8936 50.4432 41.5573 51.5065 41.5573C52.5698 41.5573 53.6059 41.8936 54.4665 42.5181C55.9945 43.6728 56.4638 45.5741 55.4958 47.1261C54.3678 48.9341 52.7785 51.2461 51.2532 52.6594C49.7278 54.0728 47.4505 55.3368 45.5945 56.2328C43.5358 57.2274 41.2638 57.7981 38.9518 58.1741C34.2638 58.9314 29.3785 58.8141 24.7385 57.8594C22.0914 57.3146 19.3958 57.0367 16.6932 57.0354Z" fill="#EF496F"/>
</svg>
