<svg width="174" height="150" viewBox="0 0 174 150" fill="none" xmlns="http://www.w3.org/2000/svg">
<path fill-rule="evenodd" clip-rule="evenodd" d="M98.8751 37.6445C98.8749 33.5456 95.6555 30.1982 91.6075 29.9932L91.2139 29.9834H82.7862C78.5552 29.9834 75.1252 33.4135 75.1251 37.6445V58.3301H98.8751V37.6445ZM78.9561 37.6445C78.9563 35.5291 80.6708 33.8145 82.7862 33.8145H91.2139C93.3293 33.8146 95.0439 35.5292 95.044 37.6445V54.499H78.9561V37.6445ZM96.5762 16.96C96.5762 11.4595 92.1168 7 86.6163 7C81.116 7.00023 76.6564 11.4596 76.6563 16.96C76.6566 22.4601 81.1161 26.9197 86.6163 26.9199C92.1167 26.9199 96.576 22.4603 96.5762 16.96ZM80.4874 16.96C80.4874 13.5752 83.2316 10.8313 86.6163 10.8311C90.0012 10.8311 92.7451 13.5751 92.7452 16.96C92.7449 20.3447 90.0011 23.0889 86.6163 23.0889C83.2317 23.0886 80.4876 20.3446 80.4874 16.96ZM75.1251 60.6285H98.1087V88.4245C96.9596 90.18 93.1289 90.18 91.9798 88.4245V64.4322H81.254V88.4245C80.1049 90.18 76.2743 90.18 75.1251 88.4245V60.6285ZM102.705 35.3466C103.975 35.3466 105.004 36.3756 105.004 37.6449V54.4996C105.004 55.769 103.975 56.798 102.705 56.798C101.436 56.798 100.407 55.769 100.407 54.4996L100.407 37.6449C100.407 36.3756 101.436 35.3466 102.705 35.3466ZM73.5928 37.6449C73.5928 36.3756 72.5638 35.3466 71.2945 35.3466C70.0251 35.3466 68.9961 36.3756 68.9961 37.6449L68.9961 54.4996C68.9961 55.769 70.0251 56.798 71.2945 56.798C72.5638 56.798 73.5928 55.769 73.5928 54.4996L73.5928 37.6449Z" fill="#FFA51F"/>
<path d="M39.5273 123.159C39.5273 123.894 39.3828 124.546 39.0938 125.116C38.8125 125.679 38.4062 126.155 37.875 126.546C37.3516 126.937 36.7148 127.233 35.9648 127.437C35.2227 127.64 34.3945 127.741 33.4805 127.741H29.4727V112.425H33.8555C37.2695 112.425 38.9766 113.667 38.9766 116.151C38.9766 116.979 38.7773 117.69 38.3789 118.284C37.9883 118.878 37.3477 119.319 36.457 119.608C36.8711 119.687 37.2617 119.819 37.6289 120.007C38.0039 120.194 38.332 120.437 38.6133 120.733C38.8945 121.03 39.1172 121.382 39.2812 121.788C39.4453 122.194 39.5273 122.651 39.5273 123.159ZM36.8086 116.433C36.8086 116.12 36.7617 115.827 36.668 115.554C36.5742 115.272 36.4102 115.034 36.1758 114.839C35.9414 114.636 35.625 114.476 35.2266 114.358C34.8281 114.241 34.3242 114.183 33.7148 114.183H31.5586V118.976H33.6445C34.1211 118.976 34.5508 118.925 34.9336 118.823C35.3242 118.722 35.6562 118.565 35.9297 118.354C36.2109 118.144 36.4258 117.882 36.5742 117.569C36.7305 117.249 36.8086 116.87 36.8086 116.433ZM37.3125 123.229C37.3125 122.839 37.2305 122.487 37.0664 122.175C36.9023 121.862 36.6641 121.601 36.3516 121.39C36.0391 121.171 35.6562 121.003 35.2031 120.886C34.7578 120.769 34.2539 120.71 33.6914 120.71H31.5586V125.983H33.7617C34.957 125.983 35.8477 125.761 36.4336 125.315C37.0195 124.87 37.3125 124.175 37.3125 123.229ZM52.6289 121.237C52.6289 121.526 52.625 121.769 52.6172 121.964C52.6094 122.159 52.5977 122.343 52.582 122.515H44.3203C44.3203 123.718 44.6562 124.644 45.3281 125.292C46 125.933 46.9688 126.253 48.2344 126.253C48.5781 126.253 48.9219 126.241 49.2656 126.218C49.6094 126.187 49.9414 126.147 50.2617 126.101C50.582 126.054 50.8867 126.003 51.1758 125.948C51.4727 125.886 51.7461 125.819 51.9961 125.749V127.425C51.4414 127.581 50.8125 127.706 50.1094 127.8C49.4141 127.901 48.6914 127.952 47.9414 127.952C46.9336 127.952 46.0664 127.815 45.3398 127.542C44.6133 127.269 44.0156 126.874 43.5469 126.358C43.0859 125.835 42.7422 125.198 42.5156 124.448C42.2969 123.69 42.1875 122.835 42.1875 121.882C42.1875 121.054 42.3047 120.272 42.5391 119.538C42.7812 118.796 43.1289 118.147 43.582 117.593C44.043 117.03 44.6055 116.585 45.2695 116.257C45.9336 115.929 46.6875 115.765 47.5312 115.765C48.3516 115.765 49.0781 115.894 49.7109 116.151C50.3438 116.409 50.875 116.776 51.3047 117.253C51.7422 117.722 52.0703 118.296 52.2891 118.976C52.5156 119.647 52.6289 120.401 52.6289 121.237ZM50.5078 120.944C50.5312 120.421 50.4805 119.944 50.3555 119.515C50.2305 119.077 50.0352 118.702 49.7695 118.39C49.5117 118.077 49.1875 117.835 48.7969 117.663C48.4062 117.483 47.9531 117.394 47.4375 117.394C46.9922 117.394 46.5859 117.479 46.2188 117.651C45.8516 117.823 45.5352 118.065 45.2695 118.378C45.0039 118.69 44.7891 119.065 44.625 119.503C44.4609 119.94 44.3594 120.421 44.3203 120.944H50.5078ZM65.3438 127.741H63.3047V120.229C63.3047 119.323 63.1328 118.647 62.7891 118.202C62.4531 117.749 61.9688 117.522 61.3359 117.522C61.0625 117.522 60.8047 117.562 60.5625 117.64C60.3281 117.71 60.082 117.839 59.8242 118.026C59.5664 118.206 59.2852 118.452 58.9805 118.765C58.6758 119.077 58.3242 119.468 57.9258 119.937V127.741H55.8867V111.183H57.9258V115.976L57.8555 117.827C58.1758 117.444 58.4883 117.124 58.793 116.866C59.1055 116.601 59.4141 116.386 59.7188 116.222C60.0312 116.058 60.3477 115.94 60.668 115.87C60.9883 115.8 61.3203 115.765 61.6641 115.765C62.8359 115.765 63.7422 116.124 64.3828 116.843C65.0234 117.554 65.3438 118.628 65.3438 120.065V127.741ZM76.6406 127.741L76.5938 126.159C75.9531 126.792 75.3008 127.249 74.6367 127.53C73.9805 127.812 73.2891 127.952 72.5625 127.952C71.8906 127.952 71.3164 127.866 70.8398 127.694C70.3633 127.522 69.9688 127.288 69.6562 126.991C69.3516 126.687 69.125 126.331 68.9766 125.925C68.8359 125.519 68.7656 125.077 68.7656 124.601C68.7656 123.421 69.2031 122.499 70.0781 121.835C70.9609 121.163 72.2617 120.827 73.9805 120.827H76.418V119.796C76.418 119.101 76.1953 118.546 75.75 118.132C75.3047 117.71 74.625 117.499 73.7109 117.499C73.0469 117.499 72.3906 117.573 71.7422 117.722C71.1016 117.87 70.4375 118.081 69.75 118.354V116.515C70.0078 116.421 70.293 116.331 70.6055 116.245C70.9258 116.151 71.2617 116.069 71.6133 115.999C71.9648 115.929 72.332 115.874 72.7148 115.835C73.0977 115.788 73.4844 115.765 73.875 115.765C74.5859 115.765 75.2266 115.843 75.7969 115.999C76.3672 116.155 76.8477 116.394 77.2383 116.714C77.6367 117.034 77.9414 117.437 78.1523 117.921C78.3633 118.405 78.4688 118.976 78.4688 119.632V127.741H76.6406ZM76.418 122.386H73.8281C73.3203 122.386 72.8828 122.437 72.5156 122.538C72.1484 122.64 71.8477 122.784 71.6133 122.972C71.3789 123.159 71.2031 123.386 71.0859 123.651C70.9766 123.909 70.9219 124.202 70.9219 124.53C70.9219 124.757 70.957 124.976 71.0273 125.187C71.0977 125.39 71.2109 125.573 71.3672 125.737C71.5234 125.894 71.7266 126.019 71.9766 126.112C72.2266 126.206 72.5312 126.253 72.8906 126.253C73.3594 126.253 73.8945 126.112 74.4961 125.831C75.1055 125.542 75.7461 125.089 76.418 124.472V122.386ZM81.1758 115.976H83.4961L86.3789 123.757L87 125.655L87.6445 123.71L90.5039 115.976H92.7422L88.125 127.741H85.7812L81.1758 115.976ZM99.4805 117.663H96V115.976H101.543V126.042H105.047V127.741H95.6133V126.042H99.4805V117.663ZM100.195 111.042C100.422 111.042 100.633 111.085 100.828 111.171C101.023 111.249 101.191 111.362 101.332 111.511C101.48 111.659 101.594 111.831 101.672 112.026C101.758 112.214 101.801 112.421 101.801 112.647C101.801 112.866 101.758 113.073 101.672 113.269C101.594 113.464 101.48 113.636 101.332 113.784C101.191 113.933 101.023 114.05 100.828 114.136C100.633 114.214 100.422 114.253 100.195 114.253C99.9688 114.253 99.7578 114.214 99.5625 114.136C99.3672 114.05 99.1953 113.933 99.0469 113.784C98.9062 113.636 98.793 113.464 98.707 113.269C98.6289 113.073 98.5898 112.866 98.5898 112.647C98.5898 112.421 98.6289 112.214 98.707 112.026C98.793 111.831 98.9062 111.659 99.0469 111.511C99.1953 111.362 99.3672 111.249 99.5625 111.171C99.7578 111.085 99.9688 111.042 100.195 111.042ZM118.91 121.765C118.91 122.679 118.781 123.519 118.523 124.284C118.266 125.042 117.895 125.694 117.41 126.241C116.926 126.78 116.336 127.202 115.641 127.507C114.945 127.804 114.156 127.952 113.273 127.952C112.43 127.952 111.672 127.823 111 127.565C110.336 127.3 109.77 126.913 109.301 126.405C108.84 125.897 108.484 125.269 108.234 124.519C107.992 123.769 107.871 122.905 107.871 121.929C107.871 121.015 108 120.183 108.258 119.433C108.516 118.675 108.887 118.026 109.371 117.487C109.855 116.94 110.445 116.519 111.141 116.222C111.836 115.917 112.625 115.765 113.508 115.765C114.352 115.765 115.105 115.897 115.77 116.163C116.441 116.421 117.008 116.804 117.469 117.312C117.938 117.812 118.293 118.437 118.535 119.187C118.785 119.937 118.91 120.796 118.91 121.765ZM116.824 121.858C116.824 121.132 116.742 120.499 116.578 119.96C116.422 119.413 116.195 118.96 115.898 118.601C115.602 118.233 115.238 117.96 114.809 117.78C114.387 117.593 113.914 117.499 113.391 117.499C112.781 117.499 112.258 117.62 111.82 117.862C111.391 118.097 111.035 118.413 110.754 118.812C110.48 119.21 110.277 119.675 110.145 120.206C110.02 120.729 109.957 121.28 109.957 121.858C109.957 122.585 110.035 123.222 110.191 123.769C110.355 124.315 110.586 124.772 110.883 125.14C111.18 125.499 111.539 125.772 111.961 125.96C112.383 126.14 112.859 126.229 113.391 126.229C114 126.229 114.52 126.112 114.949 125.878C115.387 125.636 115.742 125.315 116.016 124.917C116.297 124.519 116.5 124.058 116.625 123.534C116.758 123.003 116.824 122.444 116.824 121.858ZM131.32 127.741H129.492L129.422 125.843C129.07 126.249 128.734 126.589 128.414 126.862C128.102 127.128 127.789 127.343 127.477 127.507C127.164 127.671 126.848 127.784 126.527 127.847C126.215 127.917 125.883 127.952 125.531 127.952C124.32 127.952 123.406 127.597 122.789 126.886C122.172 126.175 121.863 125.101 121.863 123.663V115.976H123.902V123.499C123.902 125.304 124.582 126.206 125.941 126.206C126.191 126.206 126.434 126.171 126.668 126.101C126.91 126.022 127.16 125.894 127.418 125.714C127.684 125.526 127.965 125.276 128.262 124.964C128.566 124.651 128.906 124.257 129.281 123.78V115.976H131.32V127.741ZM135.539 115.976H137.402L137.461 118.144C138.156 117.308 138.84 116.702 139.512 116.327C140.191 115.952 140.875 115.765 141.562 115.765C142.781 115.765 143.703 116.159 144.328 116.948C144.961 117.737 145.254 118.909 145.207 120.464H143.145C143.168 119.433 143.016 118.687 142.688 118.226C142.367 117.757 141.895 117.522 141.27 117.522C140.996 117.522 140.719 117.573 140.438 117.675C140.164 117.769 139.879 117.925 139.582 118.144C139.293 118.354 138.984 118.628 138.656 118.964C138.328 119.3 137.977 119.706 137.602 120.183V127.741H135.539V115.976Z" fill="white"/>
</svg>
