<svg width="64" height="64" viewBox="0 0 64 64" fill="none" xmlns="http://www.w3.org/2000/svg">
<path d="M30.8569 6.85693V21.7141H6.85693V15.4284C6.85693 13.1551 7.75999 10.9749 9.36745 9.36745C10.9749 7.75999 13.1551 6.85693 15.4284 6.85693H30.8569ZM34.2855 6.85693V37.7141H57.1426V15.4284C57.1426 13.1551 56.2396 10.9749 54.6321 9.36745C53.0247 7.75999 50.8445 6.85693 48.5712 6.85693H34.2855ZM57.1426 41.1426H34.2855V57.1426H48.5712C50.8445 57.1426 53.0247 56.2396 54.6321 54.6321C56.2396 53.0247 57.1426 50.8445 57.1426 48.5712V41.1426ZM30.8569 57.1426V25.1426H6.85693V48.5712C6.85693 50.8445 7.75999 53.0247 9.36745 54.6321C10.9749 56.2396 13.1551 57.1426 15.4284 57.1426H30.8569Z" fill="#EF496F"/>
</svg>
