<svg width="64" height="64" viewBox="0 0 64 64" fill="none" xmlns="http://www.w3.org/2000/svg">
<path d="M56.4523 5.49349C54.5409 5.16301 52.6053 4.99353 50.6656 4.98683C44.0479 4.9814 37.5682 6.87902 31.9989 10.4535C26.4153 6.92596 19.9367 5.07491 13.3323 5.12016C11.3926 5.12686 9.45691 5.29635 7.54559 5.62683C6.91947 5.73477 6.35247 6.06272 5.94669 6.55161C5.54091 7.0405 5.32302 7.65821 5.33226 8.29349V40.2935C5.32655 40.6853 5.40726 41.0736 5.56866 41.4307C5.73005 41.7878 5.96817 42.1049 6.26605 42.3595C6.56394 42.6141 6.91428 42.7999 7.29214 42.9037C7.67 43.0076 8.0661 43.0268 8.45226 42.9602C12.2736 42.2985 16.1888 42.4083 19.9671 43.283C23.7454 44.1578 27.3105 45.7798 30.4523 48.0535L30.7723 48.2402H31.0656C31.361 48.3648 31.6783 48.4291 31.9989 48.4291C32.3195 48.4291 32.6369 48.3648 32.9323 48.2402H33.2256L33.5456 48.0535C36.6655 45.7289 40.2203 44.0544 43.9993 43.1291C47.7784 42.2038 51.7047 42.0466 55.5456 42.6668C55.9317 42.7335 56.3278 42.7142 56.7057 42.6104C57.0836 42.5066 57.4339 42.3208 57.7318 42.0662C58.0297 41.8115 58.2678 41.4944 58.4292 41.1373C58.5906 40.7803 58.6713 40.392 58.6656 40.0002V8.00016C58.6378 7.39257 58.4032 6.81272 58.0006 6.3568C57.5981 5.90087 57.0517 5.59626 56.4523 5.49349ZM29.3323 40.9335C24.3975 38.341 18.9066 36.9866 13.3323 36.9868H10.6656V10.3202C11.5538 10.2707 12.4441 10.2707 13.3323 10.3202C19.0213 10.3139 24.5862 11.9833 29.3323 15.1202V40.9335ZM53.3323 37.0935H50.6656C45.0913 37.0933 39.6004 38.4477 34.6656 41.0402V15.1202C39.4117 11.9833 44.9766 10.3139 50.6656 10.3202C51.5538 10.2707 52.4441 10.2707 53.3323 10.3202V37.0935ZM56.4523 48.1602C54.5409 47.8297 52.6053 47.6602 50.6656 47.6535C44.0479 47.6481 37.5682 49.5457 31.9989 53.1202C26.4296 49.5457 19.95 47.6481 13.3323 47.6535C11.3926 47.6602 9.45691 47.8297 7.54559 48.1602C7.19846 48.2152 6.86565 48.3384 6.56629 48.5226C6.26693 48.7067 6.00693 48.9483 5.80123 49.2333C5.59554 49.5182 5.44822 49.8411 5.36773 50.1832C5.28725 50.5254 5.27519 50.88 5.33226 51.2268C5.46777 51.9193 5.87223 52.5299 6.45703 52.9247C7.04183 53.3196 7.7593 53.4666 8.45226 53.3335C12.2736 52.6719 16.1888 52.7816 19.9671 53.6564C23.7454 54.5311 27.3105 56.1531 30.4523 58.4268C30.9039 58.7484 31.4445 58.9212 31.9989 58.9212C32.5533 58.9212 33.094 58.7484 33.5456 58.4268C36.6874 56.1531 40.2524 54.5311 44.0308 53.6564C47.8091 52.7816 51.7242 52.6719 55.5456 53.3335C56.2386 53.4666 56.956 53.3196 57.5408 52.9247C58.1256 52.5299 58.5301 51.9193 58.6656 51.2268C58.7227 50.88 58.7106 50.5254 58.6301 50.1832C58.5496 49.8411 58.4023 49.5182 58.1966 49.2333C57.9909 48.9483 57.7309 48.7067 57.4316 48.5226C57.1322 48.3384 56.7994 48.2152 56.4523 48.1602Z" fill="#ED4C71"/>
</svg>
