<svg width="64" height="64" viewBox="0 0 64 64" fill="none" xmlns="http://www.w3.org/2000/svg">
<path d="M31.9997 5.3335C34.389 5.3335 36.7037 5.64816 38.9063 6.2375L33.237 11.9042C32.8069 12.336 32.4276 12.8155 32.1063 13.3335H31.9997C28.3078 13.3335 24.6987 14.4283 21.629 16.4794C18.5593 18.5305 16.1668 21.4458 14.7539 24.8567C13.3411 28.2676 12.9714 32.0209 13.6917 35.6418C14.4119 39.2628 16.1898 42.5889 18.8003 45.1995C21.4109 47.8101 24.737 49.5879 28.358 50.3082C31.979 51.0284 35.7322 50.6587 39.1431 49.2459C42.554 47.8331 45.4693 45.4405 47.5204 42.3708C49.5716 39.3011 50.6663 35.6921 50.6663 32.0002V31.8935C51.1819 31.5735 51.6574 31.1957 52.093 30.7602L57.7623 25.0935C58.3517 27.2962 58.6663 29.6108 58.6663 32.0002C58.6663 46.7282 46.7277 58.6668 31.9997 58.6668C17.2717 58.6668 5.33301 46.7282 5.33301 32.0002C5.33301 17.2722 17.2717 5.3335 31.9997 5.3335ZM30.8957 18.7122C30.8957 20.9815 30.7837 23.2828 30.9063 25.5495L29.4663 26.9895C28.971 27.4848 28.5781 28.0729 28.31 28.7201C28.0419 29.3673 27.9039 30.061 27.9039 30.7615C27.9039 31.462 28.0419 32.1557 28.31 32.8029C28.5781 33.4501 28.971 34.0381 29.4663 34.5335C29.9617 35.0288 30.5497 35.4218 31.1969 35.6898C31.8441 35.9579 32.5378 36.0959 33.2383 36.0959C33.9389 36.0959 34.6325 35.9579 35.2797 35.6898C35.9269 35.4218 36.515 35.0288 37.0103 34.5335L38.4503 33.0935C40.717 33.2162 43.0157 33.1042 45.2877 33.1042C45.077 35.6384 44.146 38.0596 42.6045 40.0821C41.063 42.1046 38.9753 43.6441 36.5876 44.519C34.1998 45.3939 31.6117 45.5678 29.1284 45.0201C26.6451 44.4724 24.3702 43.2259 22.5721 41.4278C20.7739 39.6296 19.5275 37.3547 18.9798 34.8714C18.4321 32.3881 18.6059 29.8 19.4808 27.4123C20.3558 25.0245 21.8953 22.9368 23.9178 21.3953C25.9403 19.8538 28.3614 18.9228 30.8957 18.7122ZM49.3437 5.67216C49.8304 5.87397 50.2465 6.21546 50.5393 6.65352C50.8321 7.09158 50.9886 7.60657 50.989 8.1335V13.0135H55.8663C56.3937 13.0136 56.9091 13.1701 57.3476 13.4631C57.786 13.7561 58.1277 14.1726 58.3295 14.6597C58.5313 15.1469 58.5841 15.683 58.4812 16.2002C58.3784 16.7175 58.1245 17.1926 57.7517 17.5655L48.3197 26.9868C47.8197 27.487 47.1415 27.768 46.4343 27.7682H39.9997L35.125 32.6455C34.6246 33.1459 33.946 33.427 33.2383 33.427C32.5307 33.427 31.852 33.1459 31.3517 32.6455C30.8513 32.1451 30.5702 31.4665 30.5702 30.7588C30.5702 30.0512 30.8513 29.3725 31.3517 28.8722L36.229 24.0002V17.5628C36.2287 17.2122 36.2976 16.865 36.4317 16.541C36.5657 16.2171 36.7624 15.9227 37.0103 15.6748L46.437 6.24816C46.8099 5.87501 47.2851 5.62085 47.8025 5.51785C48.32 5.41484 48.8563 5.46762 49.3437 5.6695" fill="#ED4C71"/>
</svg>
