<svg width="64" height="64" viewBox="0 0 64 64" fill="none" xmlns="http://www.w3.org/2000/svg">
<path d="M13.3335 13.3333C12.6263 13.3333 11.948 13.6143 11.4479 14.1144C10.9478 14.6145 10.6668 15.2928 10.6668 16V40C10.6668 40.7072 10.9478 41.3855 11.4479 41.8856C11.948 42.3857 12.6263 42.6667 13.3335 42.6667H50.6668C51.3741 42.6667 52.0523 42.3857 52.5524 41.8856C53.0525 41.3855 53.3335 40.7072 53.3335 40V16C53.3335 15.2928 53.0525 14.6145 52.5524 14.1144C52.0523 13.6143 51.3741 13.3333 50.6668 13.3333H13.3335ZM13.3335 8H50.6668C52.7886 8 54.8234 8.84285 56.3237 10.3431C57.824 11.8434 58.6668 13.8783 58.6668 16V40C58.6668 42.1217 57.824 44.1566 56.3237 45.6569C54.8234 47.1571 52.7886 48 50.6668 48H13.3335C11.2118 48 9.17693 47.1571 7.67664 45.6569C6.17635 44.1566 5.3335 42.1217 5.3335 40L5.3335 16C5.3335 13.8783 6.17635 11.8434 7.67664 10.3431C9.17693 8.84285 11.2118 8 13.3335 8ZM24.0002 50.6667H40.0002C40.7074 50.6667 41.3857 50.9476 41.8858 51.4477C42.3859 51.9478 42.6668 52.6261 42.6668 53.3333C42.6668 54.0406 42.3859 54.7189 41.8858 55.219C41.3857 55.7191 40.7074 56 40.0002 56H24.0002C23.2929 56 22.6146 55.7191 22.1145 55.219C21.6144 54.7189 21.3335 54.0406 21.3335 53.3333C21.3335 52.6261 21.6144 51.9478 22.1145 51.4477C22.6146 50.9476 23.2929 50.6667 24.0002 50.6667Z" fill="#EF496F"/>
</svg>
