<svg width="64" height="64" viewBox="0 0 64 64" fill="none" xmlns="http://www.w3.org/2000/svg">
<g clip-path="url(#clip0_530_678)">
<path fill-rule="evenodd" clip-rule="evenodd" d="M7.19601 4.10484C7.19601 3.19553 6.83479 2.32346 6.1918 1.68047C5.54882 1.03749 4.67675 0.67627 3.76744 0.67627C2.85812 0.67627 1.98605 1.03749 1.34307 1.68047C0.700091 2.32346 0.338867 3.19553 0.338867 4.10484V59.8946C0.338867 61.7871 1.87487 63.3231 3.76744 63.3231H59.5572C60.4665 63.3231 61.3385 62.9619 61.9815 62.3189C62.6245 61.6759 62.9857 60.8039 62.9857 59.8946C62.9857 58.9852 62.6245 58.1132 61.9815 57.4702C61.3385 56.8272 60.4665 56.466 59.5572 56.466H7.19144L7.19601 4.10484ZM46.7252 11.1128C46.2263 10.7571 45.6611 10.5053 45.063 10.3723C44.4649 10.2394 43.8462 10.228 43.2437 10.3389C42.6411 10.4498 42.067 10.6806 41.5554 11.0178C41.0438 11.3549 40.6053 11.7914 40.2657 12.3014L26.1949 33.4031L19.4109 26.6191C18.9861 26.1941 18.4818 25.8569 17.9268 25.6267C17.3717 25.3966 16.7768 25.278 16.1759 25.2778C15.575 25.2776 14.98 25.3958 14.4248 25.6255C13.8696 25.8552 13.365 26.1921 12.94 26.6168C12.515 27.0416 12.1778 27.5459 11.9476 28.1009C11.7175 28.656 11.5989 29.2509 11.5987 29.8518C11.5985 30.4527 11.7166 31.0477 11.9464 31.6029C12.1761 32.1581 12.513 32.6627 12.9377 33.0877L23.6669 43.8123C24.145 44.2913 24.7236 44.6582 25.3608 44.8865C25.9979 45.1147 26.6779 45.1986 27.3514 45.1322C28.025 45.0657 28.6754 44.8505 29.2557 44.502C29.8359 44.1536 30.3316 43.6807 30.7069 43.1174L45.2486 21.298L56.4303 29.2843C57.4172 29.9887 58.6435 30.2722 59.8395 30.0724C61.0354 29.8727 62.103 29.206 62.8074 28.2191C63.5119 27.2322 63.7954 26.0059 63.5956 24.81C63.3959 23.614 62.7292 22.5464 61.7423 21.842L46.7252 11.1128Z" fill="#ED4C71"/>
</g>
<defs>
<clipPath id="clip0_530_678">
<rect width="64" height="64" fill="white"/>
</clipPath>
</defs>
</svg>
