<svg width="231" height="227" viewBox="0 0 231 227" fill="none" xmlns="http://www.w3.org/2000/svg">
<mask id="mask0_2900_60587" style="mask-type:alpha" maskUnits="userSpaceOnUse" x="0" y="0" width="231" height="227">
<path d="M1.33531e-05 147.578C59.0299 210.426 126.16 176.946 152.347 152.35C178.534 127.755 216.149 62.8512 157.119 0.00344573L1.33531e-05 147.578Z" fill="#6DAA51"/>
<path d="M13.0742 135.289C62.2658 187.662 118.208 159.762 140.03 139.266C161.852 118.77 193.199 64.6832 144.007 12.3101L13.0742 135.289Z" fill="#F65252"/>
<path d="M68.0851 122.519C68.8143 125.626 66.8863 128.736 63.7788 129.466C60.6714 130.195 57.5612 128.267 56.832 125.159C56.1028 122.052 56.7105 113.315 59.818 112.586C62.9254 111.857 67.3559 119.411 68.0851 122.519Z" fill="#242424"/>
<path d="M84.8937 114.167C85.6229 117.275 83.6949 120.385 80.5874 121.114C77.48 121.843 74.3698 119.915 73.6406 116.808C72.9114 113.7 73.5191 104.964 76.6266 104.234C79.734 103.505 84.1645 111.06 84.8937 114.167Z" fill="#242424"/>
<path d="M118.996 82.1477C122.051 83.0699 125.276 81.3404 126.198 78.2847C127.121 75.2289 125.391 72.0042 122.335 71.0819C119.28 70.1597 110.522 70.2193 109.6 73.2751C108.677 76.3308 115.94 81.2254 118.996 82.1477Z" fill="#242424"/>
<path d="M128.363 65.9133C131.418 66.8356 134.643 65.106 135.566 62.0503C136.488 58.9946 134.758 55.7698 131.702 54.8475C128.647 53.9253 119.889 53.985 118.967 57.0407C118.045 60.0964 125.307 64.9911 128.363 65.9133Z" fill="#242424"/>
<path d="M173.58 83.1191C162.873 19.2434 144.029 12.2991 144.029 12.2991C144.029 12.2991 155.603 45.1206 154.736 76.1747C153.823 108.882 140.282 139.038 133.505 145.404L159.692 120.808L173.58 83.1191Z" fill="#DF2222"/>
<path d="M114.67 138.472C88.8807 150.372 69.6385 156.124 38.4961 136.086" stroke="white" stroke-width="8.98154" stroke-linecap="round"/>
<circle cx="126.301" cy="131.183" r="4.49077" transform="rotate(-43.2058 126.301 131.183)" fill="white"/>
</mask>
<g mask="url(#mask0_2900_60587)">
<path d="M-75.5508 67.1328L85.3266 -83.9716L290.397 134.362L129.52 285.466L-75.5508 67.1328Z" fill="#8CB678"/>
<path d="M-27.7945 94.0973C-25.5502 96.4867 -21.775 96.5867 -19.3622 94.3205C-16.9495 92.0544 -16.813 88.2803 -19.0572 85.8908C-21.3015 83.5014 -29.1404 79.075 -31.5531 81.3412C-33.9658 83.6073 -30.0387 91.7079 -27.7945 94.0973Z" fill="#61A073"/>
<path d="M108.552 143.74C110.796 146.13 114.571 146.23 116.984 143.963C119.397 141.697 119.533 137.923 117.289 135.534C115.045 133.144 107.206 128.718 104.793 130.984C102.381 133.25 106.308 141.351 108.552 143.74Z" fill="#61A073"/>
<path d="M80.7051 -41.1311C82.9493 -38.7416 82.8128 -34.9675 80.4001 -32.7014C77.9873 -30.4352 74.2121 -30.5352 71.9678 -32.9246C69.7235 -35.314 65.7965 -43.4146 68.2092 -45.6807C70.6219 -47.9469 78.4608 -43.5205 80.7051 -41.1311Z" fill="#61A073"/>
<path d="M78.9081 82.73C81.1523 85.1194 81.0158 88.8935 78.6031 91.1597C76.1904 93.4258 72.4151 93.3259 70.1708 90.9364C67.9266 88.547 63.9995 80.4465 66.4122 78.1803C68.8249 75.9142 76.6638 80.3406 78.9081 82.73Z" fill="#61A073"/>
<path d="M26.1095 67.9059C30.1909 72.2512 37.5009 72.0153 42.4371 67.3791C47.3732 62.7428 48.0661 55.4618 43.9848 51.1165C39.9034 46.7712 25.2034 39.1392 20.2673 43.7754C15.3312 48.4117 22.0282 63.5606 26.1095 67.9059Z" fill="#61A073"/>
<path d="M162.456 117.549C166.537 121.894 173.847 121.658 178.783 117.022C183.72 112.386 184.413 105.105 180.331 100.759C176.25 96.414 161.55 88.782 156.614 93.4183C151.678 98.0545 158.375 113.203 162.456 117.549Z" fill="#61A073"/>
<path d="M89.7069 219.198C93.7883 223.544 101.098 223.308 106.034 218.672C110.971 214.035 111.664 206.754 107.582 202.409C103.501 198.064 88.8008 190.432 83.8647 195.068C78.9286 199.704 85.6256 214.853 89.7069 219.198Z" fill="#61A073"/>
<path d="M117.284 93.3362C121.366 97.6815 128.676 97.4456 133.612 92.8094C138.548 88.1731 139.241 80.8921 135.16 76.5468C131.078 72.2015 116.378 64.5695 111.442 69.2058C106.506 73.842 113.203 88.9909 117.284 93.3362Z" fill="#61A073"/>
<path d="M51.1911 11.0279C55.2725 15.3732 54.5796 22.6542 49.6434 27.2905C44.7073 31.9268 37.3972 32.1626 33.3159 27.8173C29.2345 23.472 22.5376 8.32312 27.4737 3.68686C32.4098 -0.949403 47.1098 6.68262 51.1911 11.0279Z" fill="#61A073"/>
<path d="M35.5305 125.697C39.6118 130.042 46.9219 129.807 51.858 125.17C56.7941 120.534 57.4871 113.253 53.4057 108.908C49.3244 104.562 34.6244 96.9305 29.6883 101.567C24.7521 106.203 31.4491 121.352 35.5305 125.697Z" fill="#61A073"/>
<path d="M171.877 175.34C175.958 179.685 183.268 179.449 188.204 174.813C193.141 170.177 193.834 162.896 189.752 158.551C185.671 154.205 170.971 146.573 166.035 151.21C161.099 155.846 167.796 170.995 171.877 175.34Z" fill="#61A073"/>
<path d="M108.279 24.0475C112.361 28.3928 111.668 35.6739 106.732 40.3101C101.796 44.9464 94.4856 45.1822 90.4042 40.8369C86.3229 36.4916 79.6259 21.3427 84.562 16.7065C89.4981 12.0702 104.198 19.7022 108.279 24.0475Z" fill="#61A073"/>
<path d="M38.7148 164.908C40.9591 167.298 44.7343 167.398 47.147 165.131C49.5598 162.865 49.6963 159.091 47.4521 156.702C45.2078 154.312 37.3689 149.886 34.9562 152.152C32.5435 154.418 36.4705 162.519 38.7148 164.908Z" fill="#61A073"/>
<path d="M175.061 214.551C177.306 216.94 181.081 217.04 183.493 214.774C185.906 212.508 186.043 208.734 183.798 206.345C181.554 203.955 173.715 199.529 171.303 201.795C168.89 204.061 172.817 212.162 175.061 214.551Z" fill="#61A073"/>
<path d="M147.214 29.6799C149.459 32.0693 149.322 35.8434 146.909 38.1095C144.497 40.3757 140.721 40.2757 138.477 37.8863C136.233 35.4969 132.306 27.3963 134.718 25.1302C137.131 22.8641 144.97 27.2904 147.214 29.6799Z" fill="#61A073"/>
<path d="M194.333 74.2771C196.577 76.6665 196.44 80.4406 194.028 82.7068C191.615 84.9729 187.84 84.873 185.595 82.4836C183.351 80.0941 179.424 71.9936 181.837 69.7275C184.25 67.4613 192.088 71.8877 194.333 74.2771Z" fill="#61A073"/>
</g>
</svg>
